<svg width="210" height="120" viewBox="0 0 210 120" fill="none" xmlns="http://www.w3.org/2000/svg">
<g clip-path="url(#clip0_16_40)">
<g filter="url(#filter0_d_16_40)">
<path d="M7.33296 13.4541C6.17796 13.0931 5.09296 14.1781 5.45396 15.3331L11.673 35.2341C12.009 36.3101 13.368 36.6441 14.165 35.8471L27.847 22.1651C28.644 21.3681 28.31 20.0091 27.234 19.6731L7.33296 13.4541Z" fill="black"/>
</g>
<path d="M7.33296 13.4541C6.17796 13.0931 5.09296 14.1781 5.45396 15.3331L11.673 35.2341C12.009 36.3101 13.368 36.6441 14.165 35.8471L27.847 22.1651C28.644 21.3681 28.31 20.0091 27.234 19.6731L7.33296 13.4541Z" fill="#0099FF"/>
</g>
<g filter="url(#filter1_dddddd_16_40)">
<rect x="32" y="23.5" width="152" height="40" rx="20" fill="#0099FF"/>
<path d="M62.0994 41H60.7784C60.7003 40.62 60.5636 40.2862 60.3683 39.9986C60.1765 39.7109 59.9421 39.4695 59.6651 39.2741C59.3917 39.0753 59.0881 38.9261 58.7543 38.8267C58.4205 38.7273 58.0724 38.6776 57.7102 38.6776C57.0497 38.6776 56.4513 38.8445 55.9151 39.1783C55.3825 39.5121 54.9581 40.0039 54.642 40.6538C54.3295 41.3036 54.1733 42.1009 54.1733 43.0455C54.1733 43.9901 54.3295 44.7873 54.642 45.4371C54.9581 46.087 55.3825 46.5788 55.9151 46.9126C56.4513 47.2464 57.0497 47.4134 57.7102 47.4134C58.0724 47.4134 58.4205 47.3636 58.7543 47.2642C59.0881 47.1648 59.3917 47.0174 59.6651 46.8221C59.9421 46.6232 60.1765 46.38 60.3683 46.0923C60.5636 45.8011 60.7003 45.4673 60.7784 45.0909H62.0994C62 45.6484 61.8189 46.1474 61.5561 46.5877C61.2933 47.0281 60.9666 47.4027 60.576 47.7116C60.1854 48.017 59.7468 48.2496 59.2603 48.4094C58.7773 48.5692 58.2607 48.6491 57.7102 48.6491C56.7798 48.6491 55.9524 48.4219 55.228 47.9673C54.5036 47.5128 53.9336 46.8665 53.5181 46.0284C53.1026 45.1903 52.8949 44.196 52.8949 43.0455C52.8949 41.8949 53.1026 40.9006 53.5181 40.0625C53.9336 39.2244 54.5036 38.5781 55.228 38.1236C55.9524 37.669 56.7798 37.4418 57.7102 37.4418C58.2607 37.4418 58.7773 37.5217 59.2603 37.6815C59.7468 37.8413 60.1854 38.0756 60.576 38.3846C60.9666 38.69 61.2933 39.0629 61.5561 39.5032C61.8189 39.94 62 40.4389 62.0994 41ZM67.2875 48.6705C66.5489 48.6705 65.9008 48.4947 65.3433 48.1431C64.7893 47.7915 64.3561 47.2997 64.0436 46.6676C63.7346 46.0355 63.5801 45.2969 63.5801 44.4517C63.5801 43.5994 63.7346 42.8555 64.0436 42.2198C64.3561 41.5842 64.7893 41.0906 65.3433 40.739C65.9008 40.3874 66.5489 40.2116 67.2875 40.2116C68.0262 40.2116 68.6725 40.3874 69.2264 40.739C69.784 41.0906 70.2172 41.5842 70.5262 42.2198C70.8387 42.8555 70.9949 43.5994 70.9949 44.4517C70.9949 45.2969 70.8387 46.0355 70.5262 46.6676C70.2172 47.2997 69.784 47.7915 69.2264 48.1431C68.6725 48.4947 68.0262 48.6705 67.2875 48.6705ZM67.2875 47.5412C67.8486 47.5412 68.3102 47.3974 68.6725 47.1097C69.0347 46.8221 69.3028 46.4439 69.4768 45.9751C69.6508 45.5064 69.7378 44.9986 69.7378 44.4517C69.7378 43.9048 69.6508 43.3952 69.4768 42.9229C69.3028 42.4506 69.0347 42.0689 68.6725 41.7777C68.3102 41.4865 67.8486 41.3409 67.2875 41.3409C66.7264 41.3409 66.2648 41.4865 65.9026 41.7777C65.5404 42.0689 65.2722 42.4506 65.0982 42.9229C64.9242 43.3952 64.8372 43.9048 64.8372 44.4517C64.8372 44.9986 64.9242 45.5064 65.0982 45.9751C65.2722 46.4439 65.5404 46.8221 65.9026 47.1097C66.2648 47.3974 66.7264 47.5412 67.2875 47.5412ZM72.8138 48.5V40.3182H74.0283V41.5966H74.1349C74.3053 41.1598 74.5805 40.8207 74.9605 40.5792C75.3405 40.3342 75.7968 40.2116 76.3295 40.2116C76.8692 40.2116 77.3185 40.3342 77.6771 40.5792C78.0393 40.8207 78.3217 41.1598 78.5241 41.5966H78.6093C78.8188 41.174 79.1331 40.8384 79.5521 40.5898C79.9712 40.3377 80.4737 40.2116 81.0596 40.2116C81.7911 40.2116 82.3895 40.4407 82.8547 40.8988C83.3199 41.3533 83.5525 42.0618 83.5525 43.0241V48.5H82.2954V43.0241C82.2954 42.4205 82.1303 41.989 81.8 41.7298C81.4697 41.4705 81.0809 41.3409 80.6335 41.3409C80.0582 41.3409 79.6125 41.5149 79.2964 41.8629C78.9804 42.2074 78.8224 42.6442 78.8224 43.1733V48.5H77.544V42.8963C77.544 42.4311 77.393 42.0565 77.0912 41.7724C76.7893 41.4847 76.4005 41.3409 75.9246 41.3409C75.5979 41.3409 75.2925 41.4279 75.0085 41.6019C74.7279 41.7759 74.5006 42.0174 74.3266 42.3263C74.1562 42.6317 74.071 42.9851 74.071 43.3864V48.5H72.8138ZM85.751 48.5V40.3182H87.0081V48.5H85.751ZM86.3902 38.9545C86.1451 38.9545 85.9338 38.8711 85.7563 38.7042C85.5823 38.5373 85.4953 38.3366 85.4953 38.1023C85.4953 37.8679 85.5823 37.6673 85.7563 37.5004C85.9338 37.3335 86.1451 37.25 86.3902 37.25C86.6352 37.25 86.8447 37.3335 87.0187 37.5004C87.1963 37.6673 87.2851 37.8679 87.2851 38.1023C87.2851 38.3366 87.1963 38.5373 87.0187 38.7042C86.8447 38.8711 86.6352 38.9545 86.3902 38.9545ZM90.4676 43.5781V48.5H89.2105V40.3182H90.425V41.5966H90.5316C90.7233 41.1811 91.0145 40.8473 91.4051 40.5952C91.7958 40.3395 92.3 40.2116 92.9179 40.2116C93.4719 40.2116 93.9566 40.3253 94.3721 40.5526C94.7876 40.7763 95.1107 41.1172 95.3416 41.5753C95.5724 42.0298 95.6878 42.6051 95.6878 43.3011V48.5H94.4307V43.3864C94.4307 42.7436 94.2638 42.2429 93.93 41.8842C93.5962 41.522 93.1381 41.3409 92.5557 41.3409C92.1544 41.3409 91.7958 41.4279 91.4797 41.6019C91.1672 41.7759 90.9204 42.0298 90.7393 42.3636C90.5582 42.6974 90.4676 43.1023 90.4676 43.5781ZM101.188 51.7386C100.58 51.7386 100.058 51.6605 99.6214 51.5043C99.1847 51.3516 98.8207 51.1491 98.5295 50.897C98.2418 50.6484 98.0128 50.3821 97.8423 50.098L98.8438 49.3949C98.9574 49.544 99.1012 49.7145 99.2752 49.9062C99.4492 50.1016 99.6871 50.2702 99.989 50.4123C100.294 50.5579 100.694 50.6307 101.188 50.6307C101.848 50.6307 102.393 50.4709 102.823 50.1513C103.252 49.8317 103.467 49.331 103.467 48.6491V46.9872H103.361C103.268 47.1364 103.137 47.321 102.967 47.5412C102.8 47.7578 102.558 47.9513 102.242 48.1218C101.93 48.2887 101.507 48.3722 100.974 48.3722C100.314 48.3722 99.7209 48.2159 99.1953 47.9034C98.6733 47.5909 98.2596 47.1364 97.9542 46.5398C97.6523 45.9432 97.5014 45.2187 97.5014 44.3665C97.5014 43.5284 97.6488 42.7987 97.9435 42.1772C98.2383 41.5522 98.6484 41.0692 99.174 40.7283C99.6996 40.3839 100.307 40.2116 100.996 40.2116C101.528 40.2116 101.951 40.3004 102.263 40.478C102.58 40.652 102.821 40.8509 102.988 41.0746C103.158 41.2947 103.29 41.4759 103.382 41.6179H103.51V40.3182H104.724V48.7344C104.724 49.4375 104.565 50.0092 104.245 50.4496C103.929 50.8935 103.503 51.2184 102.967 51.4244C102.434 51.6339 101.841 51.7386 101.188 51.7386ZM101.145 47.2429C101.649 47.2429 102.075 47.1275 102.423 46.8967C102.771 46.6658 103.036 46.3338 103.217 45.9006C103.398 45.4673 103.489 44.9489 103.489 44.3452C103.489 43.7557 103.4 43.2354 103.222 42.7844C103.045 42.3335 102.782 41.9801 102.434 41.7244C102.086 41.4687 101.656 41.3409 101.145 41.3409C100.612 41.3409 100.168 41.4759 99.8132 41.7457C99.4616 42.0156 99.1971 42.3778 99.0195 42.8324C98.8455 43.2869 98.7585 43.7912 98.7585 44.3452C98.7585 44.9134 98.8473 45.4158 99.0249 45.8526C99.206 46.2859 99.4723 46.6268 99.8239 46.8754C100.179 47.1204 100.619 47.2429 101.145 47.2429ZM117.181 40.3182C117.117 39.7784 116.858 39.3594 116.403 39.0611C115.948 38.7628 115.391 38.6136 114.73 38.6136C114.247 38.6136 113.825 38.6918 113.463 38.848C113.104 39.0043 112.823 39.2191 112.621 39.4925C112.422 39.766 112.323 40.0767 112.323 40.4247C112.323 40.7159 112.392 40.9663 112.53 41.1758C112.673 41.3817 112.854 41.554 113.074 41.6925C113.294 41.8274 113.525 41.9393 113.766 42.0281C114.008 42.1133 114.23 42.1825 114.432 42.2358L115.54 42.5341C115.824 42.6087 116.14 42.7116 116.488 42.843C116.84 42.9744 117.175 43.1538 117.495 43.381C117.818 43.6048 118.084 43.8924 118.294 44.244C118.503 44.5955 118.608 45.027 118.608 45.5384C118.608 46.1278 118.454 46.6605 118.145 47.1364C117.839 47.6122 117.392 47.9904 116.802 48.271C116.217 48.5515 115.505 48.6918 114.666 48.6918C113.885 48.6918 113.209 48.5657 112.637 48.3136C112.069 48.0614 111.621 47.7099 111.295 47.2589C110.972 46.8079 110.789 46.2841 110.746 45.6875H112.11C112.145 46.0994 112.284 46.4403 112.525 46.7102C112.77 46.9766 113.079 47.1754 113.452 47.3068C113.828 47.4347 114.233 47.4986 114.666 47.4986C115.171 47.4986 115.624 47.4169 116.025 47.2536C116.426 47.0866 116.744 46.8558 116.978 46.5611C117.213 46.2628 117.33 45.9148 117.33 45.517C117.33 45.1548 117.229 44.8601 117.026 44.6328C116.824 44.4055 116.557 44.2209 116.227 44.0788C115.897 43.9368 115.54 43.8125 115.157 43.706L113.814 43.3224C112.962 43.0774 112.287 42.7276 111.79 42.2731C111.293 41.8185 111.044 41.2237 111.044 40.4886C111.044 39.8778 111.209 39.3452 111.54 38.8906C111.874 38.4325 112.321 38.0774 112.882 37.8253C113.447 37.5696 114.077 37.4418 114.773 37.4418C115.476 37.4418 116.101 37.5678 116.648 37.82C117.195 38.0685 117.628 38.4094 117.948 38.8427C118.271 39.2759 118.441 39.7678 118.459 40.3182H117.181ZM123.834 48.6705C123.095 48.6705 122.447 48.4947 121.889 48.1431C121.335 47.7915 120.902 47.2997 120.59 46.6676C120.281 46.0355 120.126 45.2969 120.126 44.4517C120.126 43.5994 120.281 42.8555 120.59 42.2198C120.902 41.5842 121.335 41.0906 121.889 40.739C122.447 40.3874 123.095 40.2116 123.834 40.2116C124.572 40.2116 125.219 40.3874 125.773 40.739C126.33 41.0906 126.763 41.5842 127.072 42.2198C127.385 42.8555 127.541 43.5994 127.541 44.4517C127.541 45.2969 127.385 46.0355 127.072 46.6676C126.763 47.2997 126.33 47.7915 125.773 48.1431C125.219 48.4947 124.572 48.6705 123.834 48.6705ZM123.834 47.5412C124.395 47.5412 124.856 47.3974 125.219 47.1097C125.581 46.8221 125.849 46.4439 126.023 45.9751C126.197 45.5064 126.284 44.9986 126.284 44.4517C126.284 43.9048 126.197 43.3952 126.023 42.9229C125.849 42.4506 125.581 42.0689 125.219 41.7777C124.856 41.4865 124.395 41.3409 123.834 41.3409C123.273 41.3409 122.811 41.4865 122.449 41.7777C122.086 42.0689 121.818 42.4506 121.644 42.9229C121.47 43.3952 121.383 43.9048 121.383 44.4517C121.383 44.9986 121.47 45.5064 121.644 45.9751C121.818 46.4439 122.086 46.8221 122.449 47.1097C122.811 47.3974 123.273 47.5412 123.834 47.5412ZM132.684 48.6705C131.945 48.6705 131.297 48.4947 130.74 48.1431C130.186 47.7915 129.752 47.2997 129.44 46.6676C129.131 46.0355 128.976 45.2969 128.976 44.4517C128.976 43.5994 129.131 42.8555 129.44 42.2198C129.752 41.5842 130.186 41.0906 130.74 40.739C131.297 40.3874 131.945 40.2116 132.684 40.2116C133.422 40.2116 134.069 40.3874 134.623 40.739C135.18 41.0906 135.613 41.5842 135.922 42.2198C136.235 42.8555 136.391 43.5994 136.391 44.4517C136.391 45.2969 136.235 46.0355 135.922 46.6676C135.613 47.2997 135.18 47.7915 134.623 48.1431C134.069 48.4947 133.422 48.6705 132.684 48.6705ZM132.684 47.5412C133.245 47.5412 133.707 47.3974 134.069 47.1097C134.431 46.8221 134.699 46.4439 134.873 45.9751C135.047 45.5064 135.134 44.9986 135.134 44.4517C135.134 43.9048 135.047 43.3952 134.873 42.9229C134.699 42.4506 134.431 42.0689 134.069 41.7777C133.707 41.4865 133.245 41.3409 132.684 41.3409C132.123 41.3409 131.661 41.4865 131.299 41.7777C130.937 42.0689 130.669 42.4506 130.495 42.9229C130.321 43.3952 130.234 43.9048 130.234 44.4517C130.234 44.9986 130.321 45.5064 130.495 45.9751C130.669 46.4439 130.937 46.8221 131.299 47.1097C131.661 47.3974 132.123 47.5412 132.684 47.5412ZM139.467 43.5781V48.5H138.21V40.3182H139.425V41.5966H139.531C139.723 41.1811 140.014 40.8473 140.405 40.5952C140.795 40.3395 141.3 40.2116 141.918 40.2116C142.472 40.2116 142.956 40.3253 143.372 40.5526C143.787 40.7763 144.11 41.1172 144.341 41.5753C144.572 42.0298 144.687 42.6051 144.687 43.3011V48.5H143.43V43.3864C143.43 42.7436 143.263 42.2429 142.93 41.8842C142.596 41.522 142.138 41.3409 141.555 41.3409C141.154 41.3409 140.795 41.4279 140.479 41.6019C140.167 41.7759 139.92 42.0298 139.739 42.3636C139.558 42.6974 139.467 43.1023 139.467 43.5781ZM147.801 48.5852C147.538 48.5852 147.312 48.4911 147.124 48.3029C146.936 48.1147 146.842 47.8892 146.842 47.6264C146.842 47.3636 146.936 47.1381 147.124 46.9499C147.312 46.7617 147.538 46.6676 147.801 46.6676C148.064 46.6676 148.289 46.7617 148.477 46.9499C148.665 47.1381 148.76 47.3636 148.76 47.6264C148.76 47.8004 148.715 47.9602 148.626 48.1058C148.541 48.2514 148.426 48.3686 148.28 48.4574C148.138 48.5426 147.978 48.5852 147.801 48.5852ZM151.832 48.5852C151.569 48.5852 151.343 48.4911 151.155 48.3029C150.967 48.1147 150.873 47.8892 150.873 47.6264C150.873 47.3636 150.967 47.1381 151.155 46.9499C151.343 46.7617 151.569 46.6676 151.832 46.6676C152.094 46.6676 152.32 46.7617 152.508 46.9499C152.696 47.1381 152.79 47.3636 152.79 47.6264C152.79 47.8004 152.746 47.9602 152.657 48.1058C152.572 48.2514 152.457 48.3686 152.311 48.4574C152.169 48.5426 152.009 48.5852 151.832 48.5852ZM155.862 48.5852C155.6 48.5852 155.374 48.4911 155.186 48.3029C154.998 48.1147 154.904 47.8892 154.904 47.6264C154.904 47.3636 154.998 47.1381 155.186 46.9499C155.374 46.7617 155.6 46.6676 155.862 46.6676C156.125 46.6676 156.351 46.7617 156.539 46.9499C156.727 47.1381 156.821 47.3636 156.821 47.6264C156.821 47.8004 156.777 47.9602 156.688 48.1058C156.603 48.2514 156.487 48.3686 156.342 48.4574C156.2 48.5426 156.04 48.5852 155.862 48.5852Z" fill="white"/>
</g>
<defs>
<filter id="filter0_d_16_40" x="-8.61658" y="13.3835" width="50.9036" height="52.9036" filterUnits="userSpaceOnUse" color-interpolation-filters="sRGB">
<feFlood flood-opacity="0" result="BackgroundImageFix"/>
<feColorMatrix in="SourceAlpha" type="matrix" values="0 0 0 0 0 0 0 0 0 0 0 0 0 0 0 0 0 0 127 0" result="hardAlpha"/>
<feOffset dy="16"/>
<feGaussianBlur stdDeviation="7"/>
<feColorMatrix type="matrix" values="0 0 0 0 0 0 0 0 0 0 0 0 0 0 0 0 0 0 0.1 0"/>
<feBlend mode="normal" in2="BackgroundImageFix" result="effect1_dropShadow_16_40"/>
<feBlend mode="normal" in="SourceGraphic" in2="effect1_dropShadow_16_40" result="shape"/>
</filter>
<filter id="filter1_dddddd_16_40" x="6" y="23.5" width="204" height="96" filterUnits="userSpaceOnUse" color-interpolation-filters="sRGB">
<feFlood flood-opacity="0" result="BackgroundImageFix"/>
<feColorMatrix in="SourceAlpha" type="matrix" values="0 0 0 0 0 0 0 0 0 0 0 0 0 0 0 0 0 0 127 0" result="hardAlpha"/>
<feMorphology radius="4" operator="erode" in="SourceAlpha" result="effect1_dropShadow_16_40"/>
<feOffset dy="30"/>
<feGaussianBlur stdDeviation="15"/>
<feComposite in2="hardAlpha" operator="out"/>
<feColorMatrix type="matrix" values="0 0 0 0 0 0 0 0 0 0 0 0 0 0 0 0 0 0 0.02 0"/>
<feBlend mode="normal" in2="BackgroundImageFix" result="effect1_dropShadow_16_40"/>
<feColorMatrix in="SourceAlpha" type="matrix" values="0 0 0 0 0 0 0 0 0 0 0 0 0 0 0 0 0 0 127 0" result="hardAlpha"/>
<feMorphology radius="3.33333" operator="erode" in="SourceAlpha" result="effect2_dropShadow_16_40"/>
<feOffset dy="13.6468"/>
<feGaussianBlur stdDeviation="6.8234"/>
<feComposite in2="hardAlpha" operator="out"/>
<feColorMatrix type="matrix" values="0 0 0 0 0 0 0 0 0 0 0 0 0 0 0 0 0 0 0.05 0"/>
<feBlend mode="normal" in2="effect1_dropShadow_16_40" result="effect2_dropShadow_16_40"/>
<feColorMatrix in="SourceAlpha" type="matrix" values="0 0 0 0 0 0 0 0 0 0 0 0 0 0 0 0 0 0 127 0" result="hardAlpha"/>
<feMorphology radius="2.66667" operator="erode" in="SourceAlpha" result="effect3_dropShadow_16_40"/>
<feOffset dy="6.8656"/>
<feGaussianBlur stdDeviation="3.4328"/>
<feComposite in2="hardAlpha" operator="out"/>
<feColorMatrix type="matrix" values="0 0 0 0 0 0 0 0 0 0 0 0 0 0 0 0 0 0 0.067 0"/>
<feBlend mode="normal" in2="effect2_dropShadow_16_40" result="effect3_dropShadow_16_40"/>
<feColorMatrix in="SourceAlpha" type="matrix" values="0 0 0 0 0 0 0 0 0 0 0 0 0 0 0 0 0 0 127 0" result="hardAlpha"/>
<feMorphology radius="2" operator="erode" in="SourceAlpha" result="effect4_dropShadow_16_40"/>
<feOffset dy="3.62176"/>
<feGaussianBlur stdDeviation="1.81088"/>
<feComposite in2="hardAlpha" operator="out"/>
<feColorMatrix type="matrix" values="0 0 0 0 0 0 0 0 0 0 0 0 0 0 0 0 0 0 0.075 0"/>
<feBlend mode="normal" in2="effect3_dropShadow_16_40" result="effect4_dropShadow_16_40"/>
<feColorMatrix in="SourceAlpha" type="matrix" values="0 0 0 0 0 0 0 0 0 0 0 0 0 0 0 0 0 0 127 0" result="hardAlpha"/>
<feMorphology radius="1.33333" operator="erode" in="SourceAlpha" result="effect5_dropShadow_16_40"/>
<feOffset dy="1.80656"/>
<feGaussianBlur stdDeviation="0.90328"/>
<feComposite in2="hardAlpha" operator="out"/>
<feColorMatrix type="matrix" values="0 0 0 0 0 0 0 0 0 0 0 0 0 0 0 0 0 0 0.075 0"/>
<feBlend mode="normal" in2="effect4_dropShadow_16_40" result="effect5_dropShadow_16_40"/>
<feColorMatrix in="SourceAlpha" type="matrix" values="0 0 0 0 0 0 0 0 0 0 0 0 0 0 0 0 0 0 127 0" result="hardAlpha"/>
<feMorphology radius="0.666667" operator="erode" in="SourceAlpha" result="effect6_dropShadow_16_40"/>
<feOffset dy="0.706592"/>
<feGaussianBlur stdDeviation="0.353296"/>
<feComposite in2="hardAlpha" operator="out"/>
<feColorMatrix type="matrix" values="0 0 0 0 0 0 0 0 0 0 0 0 0 0 0 0 0 0 0.08 0"/>
<feBlend mode="normal" in2="effect5_dropShadow_16_40" result="effect6_dropShadow_16_40"/>
<feBlend mode="normal" in="SourceGraphic" in2="effect6_dropShadow_16_40" result="shape"/>
</filter>
<clipPath id="clip0_16_40">
<rect width="32" height="87" fill="white"/>
</clipPath>
</defs>
</svg>
