<svg width="154" height="169" viewBox="0 0 154 169" fill="none" xmlns="http://www.w3.org/2000/svg">
<g clip-path="url(#clip0_16_8)">
<path d="M77.175 161C74.999 161 73.159 159.424 72.632 157.313C70.952 150.583 67.736 143.426 62.984 135.844C57.354 126.739 49.328 118.295 38.906 110.508C29.842 103.657 20.777 98.985 11.714 96.493C9.566 95.903 8 93.999 8 91.773C8 89.59 9.506 87.708 11.605 87.109C20.492 84.571 29.053 80.451 37.289 74.75C46.752 68.161 54.658 60.255 61.008 51.031C66.624 42.814 70.48 34.688 72.574 26.651C73.124 24.546 74.977 23 77.152 23C79.352 23 81.219 24.58 81.754 26.714C82.963 31.532 84.852 36.463 87.422 41.508C90.656 47.737 94.789 53.726 99.82 59.477C104.971 65.107 110.722 70.198 117.07 74.75C125.367 80.631 133.801 84.763 142.373 87.145C144.476 87.73 146 89.602 146 91.784C146 94 144.43 95.887 142.294 96.473C136.86 97.963 131.267 100.366 125.516 103.68C118.568 107.753 112.099 112.604 106.109 118.234C100.12 123.745 95.208 129.555 91.375 135.664C86.614 143.262 83.394 150.474 81.718 157.301C81.197 159.419 79.355 161 77.175 161Z" fill="black"/>
</g>
<rect x="7" y="22" width="140" height="140" stroke="#3B7DED" stroke-width="2"/>
<g clip-path="url(#clip1_16_8)">
<rect x="142" y="157" width="12" height="12" rx="6" fill="white"/>
<rect x="143" y="158" width="10" height="10" rx="5" stroke="#3B7DED" stroke-width="2"/>
</g>
<g clip-path="url(#clip2_16_8)">
<rect y="157" width="12" height="12" rx="6" fill="white"/>
<rect x="1" y="158" width="10" height="10" rx="5" stroke="#3B7DED" stroke-width="2"/>
</g>
<g clip-path="url(#clip3_16_8)">
<rect x="142" y="15" width="12" height="12" rx="6" fill="white"/>
<rect x="143" y="16" width="10" height="10" rx="5" stroke="#3B7DED" stroke-width="2"/>
</g>
<g clip-path="url(#clip4_16_8)">
<rect y="15" width="12" height="12" rx="6" fill="white"/>
<rect x="1" y="16" width="10" height="10" rx="5" stroke="#3B7DED" stroke-width="2"/>
</g>
<path d="M11.1367 4.19922C11.1003 3.85807 10.9466 3.59245 10.6758 3.40234C10.4076 3.21224 10.0586 3.11719 9.62891 3.11719C9.32682 3.11719 9.06771 3.16276 8.85156 3.25391C8.63542 3.34505 8.47005 3.46875 8.35547 3.625C8.24089 3.78125 8.18229 3.95964 8.17969 4.16016C8.17969 4.32682 8.21745 4.47135 8.29297 4.59375C8.37109 4.71615 8.47656 4.82031 8.60938 4.90625C8.74219 4.98958 8.88932 5.0599 9.05078 5.11719C9.21224 5.17448 9.375 5.22266 9.53906 5.26172L10.2891 5.44922C10.5911 5.51953 10.8815 5.61458 11.1602 5.73437C11.4414 5.85417 11.6927 6.00521 11.9141 6.1875C12.138 6.36979 12.3151 6.58984 12.4453 6.84766C12.5755 7.10547 12.6406 7.40755 12.6406 7.75391C12.6406 8.22266 12.5208 8.63542 12.2813 8.99219C12.0417 9.34635 11.6953 9.6237 11.2422 9.82422C10.7917 10.0221 10.2461 10.1211 9.60547 10.1211C8.98307 10.1211 8.44271 10.0247 7.98438 9.83203C7.52865 9.63932 7.17188 9.35807 6.91406 8.98828C6.65885 8.61849 6.52083 8.16797 6.5 7.63672H7.92578C7.94661 7.91536 8.03255 8.14714 8.18359 8.33203C8.33464 8.51693 8.53125 8.65495 8.77344 8.74609C9.01823 8.83724 9.29167 8.88281 9.59375 8.88281C9.90885 8.88281 10.1849 8.83594 10.4219 8.74219C10.6615 8.64583 10.849 8.51302 10.9844 8.34375C11.1198 8.17187 11.1888 7.97135 11.1914 7.74219C11.1888 7.53385 11.1276 7.36198 11.0078 7.22656C10.888 7.08854 10.7201 6.97396 10.5039 6.88281C10.2904 6.78906 10.0404 6.70573 9.75391 6.63281L8.84375 6.39844C8.1849 6.22917 7.66406 5.97266 7.28125 5.62891C6.90104 5.28255 6.71094 4.82292 6.71094 4.25C6.71094 3.77865 6.83854 3.36589 7.09375 3.01172C7.35156 2.65755 7.70182 2.38281 8.14453 2.1875C8.58724 1.98958 9.08854 1.89062 9.64844 1.89062C10.2161 1.89062 10.7135 1.98958 11.1406 2.1875C11.5703 2.38281 11.9076 2.65495 12.1523 3.00391C12.3971 3.35026 12.5234 3.7487 12.5312 4.19922H11.1367ZM15.0029 2L17.085 8.29687H17.167L19.2451 2H20.8389L18.0186 10H16.2295L13.4131 2H15.0029ZM26.8223 4.55469C26.7572 4.34375 26.6673 4.15495 26.5527 3.98828C26.4408 3.81901 26.3053 3.67448 26.1465 3.55469C25.9902 3.4349 25.8105 3.34505 25.6074 3.28516C25.4043 3.22266 25.1829 3.19141 24.9434 3.19141C24.5137 3.19141 24.1309 3.29948 23.7949 3.51563C23.459 3.73177 23.1947 4.04948 23.002 4.46875C22.8118 4.88542 22.7168 5.39323 22.7168 5.99219C22.7168 6.59635 22.8118 7.10807 23.002 7.52734C23.1921 7.94661 23.4564 8.26562 23.7949 8.48437C24.1335 8.70052 24.5267 8.80859 24.9746 8.80859C25.3809 8.80859 25.7324 8.73047 26.0293 8.57422C26.3288 8.41797 26.5592 8.19661 26.7207 7.91016C26.8822 7.62109 26.9629 7.28255 26.9629 6.89453L27.291 6.94531H25.1191V5.8125H28.3652V6.77344C28.3652 7.45833 28.2194 8.05078 27.9277 8.55078C27.6361 9.05078 27.235 9.4362 26.7246 9.70703C26.2142 9.97526 25.6283 10.1094 24.9668 10.1094C24.2298 10.1094 23.5827 9.94401 23.0254 9.61328C22.4707 9.27995 22.0371 8.80729 21.7246 8.19531C21.4147 7.58073 21.2598 6.85156 21.2598 6.00781C21.2598 5.36198 21.3509 4.78516 21.5332 4.27734C21.7181 3.76953 21.9759 3.33854 22.3066 2.98437C22.6374 2.6276 23.0254 2.35677 23.4707 2.17187C23.916 1.98437 24.4004 1.89062 24.9238 1.89062C25.3665 1.89062 25.7793 1.95573 26.1621 2.08594C26.5449 2.21354 26.8848 2.39583 27.1816 2.63281C27.4811 2.86979 27.7272 3.15104 27.9199 3.47656C28.1126 3.80208 28.2389 4.16146 28.2988 4.55469H26.8223Z" fill="#3B7DED"/>
<defs>
<clipPath id="clip0_16_8">
<rect width="138" height="138" fill="white" transform="translate(8 23)"/>
</clipPath>
<clipPath id="clip1_16_8">
<rect x="142" y="157" width="12" height="12" rx="6" fill="white"/>
</clipPath>
<clipPath id="clip2_16_8">
<rect y="157" width="12" height="12" rx="6" fill="white"/>
</clipPath>
<clipPath id="clip3_16_8">
<rect x="142" y="15" width="12" height="12" rx="6" fill="white"/>
</clipPath>
<clipPath id="clip4_16_8">
<rect y="15" width="12" height="12" rx="6" fill="white"/>
</clipPath>
</defs>
</svg>
