<svg width="313" height="37" viewBox="0 0 313 37" fill="none" xmlns="http://www.w3.org/2000/svg">
<path d="M48.8678 14.8559C47.8049 14.2574 46.9252 13.3843 46.3223 12.3293C45.701 11.246 45.3826 10.0177 45.4 8.77135C45.3822 7.52494 45.7006 6.2965 46.3223 5.21339C46.9245 4.15785 47.8043 3.28455 48.8678 2.68681C49.9372 2.07667 51.1513 1.76066 52.3847 1.77138C53.3447 1.76469 54.2969 1.94293 55.1885 2.29623C56.0135 2.61388 56.751 3.12105 57.3405 3.77617L56.1907 4.9174C55.7527 4.3791 55.1848 3.95928 54.5398 3.69683C53.858 3.41535 53.1263 3.27217 52.3878 3.27573C51.4582 3.27398 50.5441 3.51159 49.7347 3.96536C48.9114 4.42028 48.2273 5.08768 47.7549 5.89691C47.2455 6.76914 46.9871 7.7634 47.0078 8.77135C46.9871 9.7793 47.2455 10.7736 47.7549 11.6458C48.2284 12.4534 48.9123 13.1196 49.7347 13.5743C50.4851 13.9732 51.3147 14.2035 52.1647 14.2488C53.0147 14.2942 53.8644 14.1535 54.6536 13.8367C55.2486 13.5654 55.7884 13.1879 56.246 12.7229C56.5865 12.3493 56.8553 11.917 57.0392 11.4475C57.2447 10.9266 57.3651 10.3765 57.3958 9.81799H52.4155V8.3411H58.9053C58.9666 8.66204 58.9985 8.98784 59.0006 9.3145C59.0017 10.1321 58.8677 10.9444 58.604 11.719C58.3463 12.4894 57.914 13.1909 57.3405 13.7696C56.0739 15.1061 54.422 15.7744 52.3847 15.7744C51.1512 15.7827 49.9375 15.4657 48.8678 14.8559Z" fill="#656C73"/>
<path d="M62.5328 15.1274C61.809 14.7028 61.2183 14.0869 60.8266 13.3484C60.412 12.5738 60.2005 11.7081 60.2117 10.831C60.2005 9.95393 60.412 9.08817 60.8266 8.31357C61.2183 7.57513 61.809 6.95923 62.5328 6.53459C63.2882 6.11047 64.1413 5.88757 65.0091 5.88757C65.877 5.88757 66.7301 6.11047 67.4854 6.53459C68.2133 6.95713 68.8075 7.57335 69.2009 8.31357C69.6155 9.08817 69.827 9.95393 69.8157 10.831C69.827 11.7081 69.6155 12.5738 69.2009 13.3484C68.8075 14.0887 68.2133 14.7049 67.4854 15.1274C66.7301 15.5515 65.877 15.7744 65.0091 15.7744C64.1413 15.7744 63.2882 15.5515 62.5328 15.1274ZM66.5878 13.9068C67.086 13.6144 67.4942 13.1923 67.7683 12.6863C68.0703 12.1233 68.2227 11.4931 68.211 10.8554C68.2248 10.2126 68.0723 9.57702 67.7683 9.0093C67.4937 8.50363 67.0856 8.08169 66.5878 7.78873C66.1137 7.49079 65.5656 7.32918 65.0045 7.32186C64.45 7.32144 63.9062 7.47353 63.4336 7.76127C62.9357 8.05422 62.5276 8.47616 62.253 8.98184C61.949 9.54955 61.7966 10.1851 61.8103 10.8279C61.7987 11.4657 61.951 12.0958 62.253 12.6588C62.5271 13.1648 62.9353 13.5869 63.4336 13.8794C63.9046 14.1733 64.4482 14.3327 65.0045 14.3401C65.5627 14.339 66.11 14.1871 66.5878 13.9007V13.9068Z" fill="#656C73"/>
<path d="M73.2282 15.1274C72.5044 14.7028 71.9137 14.0869 71.522 13.3484C71.1074 12.5738 70.8959 11.7081 70.9072 10.831C70.8959 9.95393 71.1074 9.08817 71.522 8.31357C71.9137 7.57513 72.5044 6.95923 73.2282 6.53459C73.9836 6.11047 74.8367 5.88757 75.7046 5.88757C76.5724 5.88757 77.4255 6.11047 78.1809 6.53459C78.9087 6.95713 79.5029 7.57335 79.8963 8.31357C80.3109 9.08817 80.5224 9.95393 80.5112 10.831C80.5224 11.7081 80.3109 12.5738 79.8963 13.3484C79.5054 14.0874 78.9145 14.7035 78.1901 15.1274C77.4347 15.5515 76.5816 15.7744 75.7138 15.7744C74.8459 15.7744 73.9928 15.5515 73.2375 15.1274H73.2282ZM77.2863 13.9068C77.7829 13.6133 78.1898 13.1915 78.4637 12.6863C78.7657 12.1233 78.9181 11.4931 78.9064 10.8554C78.9202 10.2126 78.7678 9.57702 78.4637 9.0093C78.1893 8.50447 77.7825 8.08272 77.2863 7.78873C76.8109 7.49113 76.2619 7.32957 75.6999 7.32186C75.1482 7.3212 74.6069 7.47109 74.1351 7.75516C73.6373 8.04812 73.2292 8.47006 72.9546 8.97573C72.6506 9.54345 72.4982 10.179 72.5119 10.8218C72.5002 11.4596 72.6526 12.0897 72.9546 12.6527C73.2287 13.1587 73.6369 13.5808 74.1351 13.8733C74.6039 14.168 75.1451 14.3295 75.6999 14.3401C76.2591 14.3396 76.8076 14.1877 77.2863 13.9007V13.9068Z" fill="#656C73"/>
<path d="M83.4717 19.0119C82.8096 18.5473 82.3039 17.8955 82.0206 17.1414L83.5086 16.5311C83.6931 17.0733 84.0475 17.5427 84.52 17.8707C85.025 18.2203 85.6292 18.401 86.2447 18.3864C87.2387 18.3864 88.0032 18.0995 88.5381 17.5259C89.073 16.9552 89.3374 16.1558 89.3374 15.1274V14.1266H89.2575C88.931 14.6217 88.4837 15.0269 87.9571 15.3044C87.3673 15.6237 86.7042 15.7856 86.0326 15.7743C85.2498 15.7772 84.4831 15.5546 83.8252 15.1335C83.136 14.6978 82.5758 14.088 82.202 13.3668C81.7879 12.5854 81.5765 11.7139 81.5872 10.831C81.5769 9.94726 81.7882 9.07483 82.202 8.29224C82.5769 7.57172 83.1369 6.96224 83.8252 6.52546C84.4839 6.10661 85.2503 5.88518 86.0326 5.88772C86.7038 5.87693 87.3665 6.0377 87.9571 6.35458C88.4839 6.63315 88.9312 7.03937 89.2575 7.53549H89.3313V6.18676H90.8684V15.1C90.8931 16.0057 90.6813 16.9024 90.2535 17.7028C89.8791 18.3872 89.3031 18.9418 88.6027 19.2926C87.8708 19.6554 87.0627 19.8405 86.2447 19.8327C85.2543 19.8712 84.2791 19.5825 83.4717 19.0119ZM87.8095 13.9069C88.29 13.6099 88.6792 13.1877 88.9347 12.6863C89.2279 12.1088 89.3726 11.4683 89.3559 10.8219C89.3754 10.1769 89.2361 9.53691 88.9501 8.95745C88.6977 8.45394 88.3078 8.031 87.8249 7.73688C87.3608 7.46058 86.8289 7.31697 86.2877 7.32189C85.7454 7.31746 85.2128 7.46444 84.7506 7.74603C84.272 8.0444 83.8841 8.46631 83.6285 8.9666C83.3338 9.54365 83.188 10.1843 83.2042 10.831C83.1884 11.4777 83.3342 12.1183 83.6285 12.6954C83.8838 13.196 84.2717 13.618 84.7506 13.916C85.2112 14.1935 85.7397 14.3402 86.2785 14.3402C86.8173 14.3402 87.3458 14.1935 87.8064 13.916L87.8095 13.9069Z" fill="#656C73"/>
<path d="M93.0358 2.06726H94.6375V15.4722H93.0358V2.06726Z" fill="#656C73"/>
<path d="M98.4403 15.1366C97.7309 14.7138 97.1531 14.1044 96.771 13.3759C96.3554 12.5918 96.1441 11.7169 96.1561 10.831C96.1475 9.97128 96.3423 9.12155 96.7249 8.3502C97.0827 7.61385 97.6406 6.99136 98.3358 6.55291C99.0559 6.1036 99.8925 5.87243 100.743 5.8877C101.579 5.87045 102.405 6.08155 103.129 6.49798C103.812 6.90261 104.36 7.49938 104.703 8.21288C105.081 9.00767 105.268 9.87886 105.25 10.7578C105.255 10.884 105.243 11.0103 105.213 11.1331H97.7886C97.7941 11.758 97.9705 12.3697 98.2989 12.9029C98.5878 13.3596 98.9943 13.7314 99.4763 13.9801C99.9287 14.213 100.43 14.3363 100.94 14.3401C102.124 14.3401 103.036 13.7665 103.676 12.6191L105.09 13.2935C104.699 14.0279 104.124 14.65 103.421 15.0999C102.667 15.5396 101.811 15.7752 100.937 15.7833C100.063 15.7913 99.2018 15.5715 98.4403 15.1457V15.1366ZM103.562 9.79962C103.535 9.40881 103.431 9.02713 103.255 8.6767C103.043 8.27948 102.723 7.94875 102.332 7.7216C101.842 7.43829 101.28 7.29963 100.712 7.32187C100.039 7.31119 99.386 7.55187 98.883 7.99623C98.3577 8.46561 98.0113 9.10034 97.9023 9.79352L103.562 9.79962Z" fill="#656C73"/>
<path d="M111.392 2.06728H115.487C116.748 2.03816 117.995 2.33133 119.109 2.91863C120.115 3.46398 120.941 4.28762 121.485 5.28959C122.054 6.36185 122.339 7.55972 122.315 8.77127C122.339 9.98277 122.053 11.1805 121.485 12.2529C120.941 13.254 120.115 14.0766 119.109 14.6208C117.995 15.2082 116.748 15.5013 115.487 15.4722H111.392V2.06728ZM115.487 13.9678C117.084 13.9678 118.347 13.5132 119.278 12.6039C120.208 11.6945 120.673 10.4211 120.673 8.78347C120.673 7.15604 120.208 5.88258 119.278 4.96309C118.347 4.04359 117.084 3.58791 115.487 3.59605H112.997V13.9709L115.487 13.9678Z" fill="#656C73"/>
<path d="M125.943 15.1366C125.233 14.7138 124.656 14.1044 124.273 13.3759C123.858 12.5918 123.647 11.7169 123.659 10.831C123.649 9.97153 123.843 9.12181 124.224 8.3502C124.584 7.61306 125.144 6.99048 125.841 6.55291C126.561 6.1036 127.398 5.87243 128.248 5.8877C129.085 5.87045 129.91 6.08155 130.634 6.49798C131.318 6.90261 131.866 7.49938 132.208 8.21288C132.587 9.00767 132.774 9.87886 132.755 10.7578C132.761 10.884 132.748 11.0103 132.718 11.1331H125.291C125.295 11.7582 125.471 12.3704 125.801 12.9029C126.09 13.3596 126.497 13.7314 126.979 13.9801C127.431 14.213 127.933 14.3363 128.442 14.3401C129.623 14.3401 130.535 13.7665 131.178 12.6191L132.592 13.2935C132.201 14.0279 131.626 14.65 130.923 15.0999C130.17 15.5396 129.313 15.7752 128.439 15.7833C127.565 15.7913 126.704 15.5715 125.943 15.1457V15.1366ZM131.068 9.79962C131.036 9.40778 130.926 9.02608 130.745 8.6767C130.534 8.27861 130.214 7.94759 129.822 7.7216C129.335 7.44053 128.778 7.30196 128.215 7.32187C127.536 7.30734 126.877 7.54826 126.37 7.99623C125.845 8.46561 125.498 9.10034 125.389 9.79352L131.068 9.79962Z" fill="#656C73"/>
<path d="M133.14 6.18677H134.874L137.742 13.6017H137.779L140.684 6.18677H142.381L138.553 15.4723H136.93L133.14 6.18677Z" fill="#656C73"/>
<path d="M145.314 15.1366C144.604 14.7138 144.027 14.1044 143.644 13.3759C143.23 12.5913 143.019 11.7168 143.03 10.831C143.02 9.97156 143.214 9.12185 143.595 8.35023C143.955 7.6143 144.514 6.99207 145.209 6.55294C145.928 6.10405 146.764 5.87289 147.613 5.88773C148.45 5.87017 149.275 6.08129 149.999 6.49802C150.684 6.90246 151.233 7.4992 151.576 8.21292C151.953 9.0082 152.14 9.87904 152.123 10.7578C152.128 10.8842 152.115 11.0106 152.083 11.1331H144.665C144.668 11.758 144.844 12.3701 145.172 12.903C145.463 13.3593 145.87 13.731 146.353 13.9801C146.804 14.213 147.305 14.3364 147.813 14.3402C148.996 14.3402 149.908 13.7665 150.549 12.6192L151.963 13.2935C151.572 14.0279 150.997 14.65 150.294 15.1C149.541 15.5396 148.684 15.7753 147.81 15.7833C146.936 15.7913 146.075 15.5715 145.314 15.1458V15.1366ZM150.435 9.79966C150.41 9.4086 150.306 9.02663 150.128 8.67673C149.917 8.27884 149.597 7.94789 149.206 7.72164C148.716 7.43841 148.155 7.29974 147.589 7.3219C146.915 7.31063 146.262 7.55138 145.76 7.99627C145.234 8.46565 144.888 9.10037 144.779 9.79356L150.435 9.79966Z" fill="#656C73"/>
<path d="M153.756 2.06726H155.354V15.4722H153.756V2.06726Z" fill="#656C73"/>
<path d="M159.206 15.1274C158.485 14.7019 157.896 14.0861 157.506 13.3484C157.092 12.5738 156.88 11.7081 156.891 10.831C156.88 9.95393 157.092 9.08817 157.506 8.31357C157.898 7.57513 158.489 6.95923 159.212 6.53459C159.968 6.11047 160.821 5.88757 161.689 5.88757C162.557 5.88757 163.41 6.11047 164.165 6.53459C164.893 6.95713 165.487 7.57335 165.881 8.31357C166.295 9.08817 166.507 9.95393 166.495 10.831C166.507 11.7081 166.295 12.5738 165.881 13.3484C165.487 14.0887 164.893 14.7049 164.165 15.1274C163.41 15.5515 162.557 15.7744 161.689 15.7744C160.821 15.7744 159.968 15.5515 159.212 15.1274H159.206ZM163.264 13.9068C163.761 13.6133 164.168 13.1915 164.442 12.6863C164.744 12.1233 164.896 11.4931 164.885 10.8554C164.898 10.2126 164.746 9.57702 164.442 9.0093C164.167 8.50447 163.761 8.08272 163.264 7.78873C162.789 7.49113 162.24 7.32957 161.678 7.32186C161.126 7.3212 160.585 7.47109 160.113 7.75516C159.616 8.04745 159.208 8.46963 158.936 8.97573C158.629 9.54268 158.476 10.1786 158.49 10.8218C158.478 11.46 158.631 12.0905 158.936 12.6527C159.208 13.1592 159.615 13.5815 160.113 13.8733C160.582 14.168 161.123 14.3295 161.678 14.3401C162.237 14.3396 162.786 14.1877 163.264 13.9007V13.9068Z" fill="#656C73"/>
<path d="M167.959 6.18671H169.496V7.55375H169.57C169.897 7.05639 170.344 6.64749 170.87 6.36369C171.472 6.03774 172.149 5.87364 172.835 5.88767C173.614 5.88761 174.377 6.11236 175.03 6.53457C175.717 6.973 176.276 7.58206 176.653 8.30135C177.067 9.08065 177.278 9.95013 177.268 10.831C177.278 11.7109 177.067 12.5795 176.653 13.3576C176.277 14.0783 175.717 14.6886 175.03 15.1274C174.368 15.5534 173.596 15.7783 172.807 15.7743C172.118 15.7884 171.438 15.6232 170.833 15.2952C170.3 15.0118 169.853 14.59 169.542 14.0746H169.468L169.542 15.3684V19.5275H167.959V6.18671ZM174.107 13.9007C174.589 13.6031 174.98 13.1813 175.239 12.6801C175.529 12.1135 175.675 11.4848 175.663 10.8493C175.677 10.2086 175.531 9.57452 175.239 9.00318C174.98 8.50242 174.589 8.08065 174.107 7.78261C173.65 7.48689 173.116 7.32704 172.57 7.32184C172.029 7.31844 171.496 7.46421 171.033 7.74294C170.548 8.03675 170.155 8.45955 169.899 8.96351C169.607 9.54164 169.463 10.1817 169.478 10.8279C169.465 11.4701 169.609 12.1057 169.899 12.6801C170.154 13.1845 170.547 13.6074 171.033 13.9007C171.495 14.1859 172.027 14.338 172.57 14.3401C173.114 14.34 173.647 14.1877 174.107 13.9007Z" fill="#656C73"/>
<path d="M181.003 15.1366C180.294 14.7138 179.716 14.1044 179.334 13.3759C178.919 12.5913 178.708 11.7168 178.719 10.831C178.709 9.97153 178.903 9.12181 179.284 8.3502C179.644 7.61427 180.203 6.99204 180.898 6.55291C181.626 6.09883 182.471 5.86746 183.33 5.8877C184.167 5.87013 184.992 6.08126 185.716 6.49798C186.401 6.90243 186.949 7.49916 187.293 8.21288C187.67 9.00816 187.857 9.87901 187.84 10.7578C187.845 10.8841 187.832 11.0105 187.8 11.1331H180.354C180.357 11.758 180.533 12.37 180.862 12.9029C181.152 13.3593 181.559 13.731 182.042 13.9801C182.493 14.2129 182.994 14.3363 183.502 14.3401C184.687 14.3401 185.599 13.7665 186.238 12.6191L187.653 13.2935C187.262 14.0279 186.687 14.65 185.983 15.1C185.23 15.5396 184.373 15.7752 183.499 15.7833C182.625 15.7913 181.764 15.5715 181.003 15.1457V15.1366ZM186.125 9.79962C186.1 9.40857 185.995 9.0266 185.817 8.6767C185.606 8.27881 185.287 7.94785 184.895 7.7216C184.405 7.43838 183.844 7.29971 183.278 7.32187C182.599 7.30673 181.94 7.54773 181.433 7.99623C180.908 8.46561 180.562 9.10034 180.453 9.79352L186.125 9.79962Z" fill="#656C73"/>
<path d="M189.445 6.18676H190.982V7.71247H191.059C191.253 7.16684 191.632 6.70518 192.132 6.40646C192.613 6.07735 193.18 5.89492 193.764 5.88162C194.137 5.87802 194.508 5.94107 194.859 6.06775V7.7796C194.45 7.57598 193.996 7.47935 193.54 7.49887C193.1 7.49928 192.671 7.63346 192.31 7.88335C191.92 8.14114 191.603 8.49286 191.388 8.90558C191.161 9.33327 191.044 9.81047 191.05 10.294V15.4814H189.445V6.18676Z" fill="#656C73"/>
<path d="M201.886 15.3532C201.244 15.0717 200.672 14.6553 200.208 14.1326C199.709 13.5628 199.35 12.886 199.16 12.1553L200.697 11.545C200.887 12.303 201.302 12.9873 201.886 13.5101C202.436 14.0116 203.157 14.2865 203.903 14.2791C204.623 14.302 205.329 14.0802 205.904 13.6505C206.167 13.4463 206.376 13.182 206.514 12.8802C206.652 12.5784 206.713 12.248 206.695 11.9173C206.703 11.6264 206.647 11.3373 206.53 11.0705C206.413 10.8037 206.238 10.5656 206.018 10.3733C205.344 9.85885 204.579 9.47482 203.762 9.24119L202.913 8.93605C202.051 8.65292 201.256 8.20046 200.574 7.60563C200.267 7.31212 200.027 6.95625 199.871 6.56235C199.715 6.16844 199.646 5.74575 199.67 5.32316C199.667 4.69443 199.851 4.07878 200.199 3.55333C200.562 2.99989 201.065 2.55145 201.659 2.25343C202.309 1.92136 203.031 1.75366 203.762 1.7652C204.469 1.74931 205.169 1.8966 205.809 2.19545C206.343 2.44505 206.818 2.80258 207.205 3.24514C207.519 3.60171 207.76 4.01653 207.912 4.46571L206.421 5.10041C206.252 4.55055 205.902 4.07284 205.427 3.74369C204.952 3.41453 204.38 3.25296 203.802 3.28481C203.161 3.26817 202.534 3.47311 202.028 3.86458C201.797 4.03294 201.611 4.25328 201.483 4.50742C201.355 4.76156 201.29 5.04221 201.293 5.32621C201.287 5.57281 201.339 5.81744 201.446 6.04016C201.553 6.26288 201.711 6.45739 201.908 6.60781C202.481 7.01499 203.119 7.32437 203.796 7.52324L204.662 7.82838C205.656 8.15259 206.571 8.67839 207.349 9.3724C207.681 9.70223 207.94 10.0975 208.108 10.5327C208.277 10.9679 208.351 11.4334 208.327 11.899C208.354 12.6762 208.118 13.44 207.657 14.0685C207.225 14.6461 206.641 15.0939 205.969 15.3623C205.299 15.6356 204.581 15.7755 203.857 15.7743C203.178 15.7744 202.506 15.6308 201.886 15.3532Z" fill="#656C73"/>
<path d="M212.228 15.582C211.924 15.464 211.645 15.289 211.407 15.0664C211.159 14.8296 210.969 14.5394 210.851 14.2181C210.724 13.8469 210.664 13.4565 210.673 13.0646V7.62698H209.013V6.18671H210.673V3.41602H212.256V6.18671H214.559V7.62698H212.256V12.6862C212.218 13.1052 212.327 13.5244 212.563 13.8732C212.68 14.017 212.831 14.1304 213.001 14.2037C213.172 14.2771 213.358 14.3082 213.544 14.2943C213.901 14.3025 214.254 14.2116 214.562 14.0319V15.5576C214.376 15.6293 214.183 15.6824 213.987 15.7163C213.747 15.7536 213.504 15.7699 213.261 15.7651C212.908 15.7701 212.558 15.7079 212.228 15.582Z" fill="#656C73"/>
<path d="M217.052 14.7796C216.455 14.1205 216.154 13.202 216.154 12.0333V6.18677H217.762V11.7678C217.762 13.4766 218.536 14.331 220.083 14.331C220.579 14.3366 221.065 14.186 221.47 13.9008C221.876 13.6141 222.201 13.2271 222.41 12.7778C222.631 12.3217 222.744 11.822 222.742 11.3162V6.18677H224.326V15.4723H222.816V14.0869H222.742C222.438 14.5896 222.005 15.0033 221.488 15.2861C220.943 15.6065 220.32 15.7751 219.687 15.7743C218.528 15.7743 217.648 15.4417 217.052 14.7796Z" fill="#656C73"/>
<path d="M228.095 15.1365C227.406 14.6995 226.847 14.0887 226.474 13.3667C226.061 12.5851 225.85 11.7137 225.86 10.831C225.85 9.94727 226.061 9.07502 226.474 8.29217C226.847 7.57127 227.406 6.96158 228.095 6.52539C228.759 6.10379 229.532 5.88227 230.32 5.88764C231.005 5.87655 231.682 6.04047 232.285 6.36367C232.816 6.6406 233.264 7.05095 233.585 7.55372H233.662L233.585 6.28128V2.06726H235.172V15.4722H233.662V14.0868H233.585C233.272 14.6039 232.822 15.026 232.285 15.3074C231.683 15.633 231.006 15.798 230.32 15.7865C229.531 15.7866 228.758 15.561 228.095 15.1365ZM232.091 13.9159C232.576 13.6225 232.968 13.1995 233.222 12.6954C233.515 12.1218 233.662 11.4859 233.65 10.8432C233.664 10.1963 233.517 9.55591 233.222 8.97874C232.968 8.47499 232.576 8.05217 232.091 7.75817C231.628 7.47944 231.096 7.33367 230.554 7.33707C230.011 7.33407 229.478 7.48433 229.017 7.77037C228.536 8.06841 228.145 8.49019 227.886 8.99094C227.593 9.56229 227.447 10.1964 227.461 10.8371C227.45 11.4726 227.595 12.1013 227.886 12.6679C228.144 13.169 228.535 13.5909 229.017 13.8885C229.478 14.1722 230.011 14.3213 230.554 14.3187C231.099 14.3281 231.635 14.1865 232.103 13.9098L232.091 13.9159Z" fill="#656C73"/>
<path d="M238.99 15.1366C238.28 14.7138 237.703 14.1044 237.32 13.3759C236.905 12.5918 236.694 11.7169 236.706 10.831C236.696 9.97153 236.89 9.12181 237.271 8.3502C237.629 7.61385 238.187 6.99136 238.882 6.55291C239.602 6.1036 240.439 5.87243 241.289 5.8877C242.126 5.87045 242.951 6.08155 243.675 6.49798C244.359 6.90261 244.907 7.49938 245.249 8.21288C245.627 9.00767 245.815 9.87886 245.796 10.7578C245.802 10.884 245.789 11.0103 245.759 11.1331H238.338C238.344 11.758 238.52 12.3697 238.848 12.9029C239.137 13.3596 239.544 13.7314 240.026 13.9801C240.478 14.213 240.98 14.3363 241.489 14.3401C242.672 14.3401 243.584 13.7665 244.225 12.6191L245.639 13.2935C245.248 14.0279 244.673 14.65 243.97 15.0999C243.217 15.5396 242.36 15.7752 241.486 15.7833C240.612 15.7913 239.751 15.5715 238.99 15.1457V15.1366ZM244.111 9.79962C244.085 9.40881 243.98 9.02713 243.804 8.6767C243.592 8.27948 243.273 7.94875 242.882 7.7216C242.391 7.43829 241.829 7.29963 241.262 7.32187C240.583 7.30734 239.924 7.54826 239.417 7.99623C238.892 8.46561 238.545 9.10034 238.436 9.79352L244.111 9.79962Z" fill="#656C73"/>
<path d="M247.432 6.18674H248.969V7.57209H249.043C249.336 7.06919 249.761 6.6547 250.272 6.37288C250.822 6.0541 251.447 5.88661 252.083 5.8877C253.227 5.8877 254.1 6.21725 254.696 6.87941C255.293 7.54157 255.591 8.44785 255.591 9.59518V15.4722H254.008V9.8393C254.008 8.16508 253.222 7.32797 251.65 7.32797C251.161 7.32246 250.685 7.47453 250.291 7.76128C249.89 8.04967 249.572 8.4367 249.369 8.8842C249.149 9.33943 249.035 9.83799 249.037 10.3428V15.4722H247.435L247.432 6.18674Z" fill="#656C73"/>
<path d="M259.778 15.582C259.473 15.4655 259.194 15.2903 258.957 15.0664C258.709 14.8296 258.518 14.5394 258.401 14.2181C258.273 13.847 258.211 13.4567 258.219 13.0646V7.62698H256.559V6.18671H258.219V3.41602H259.806V6.18671H262.105V7.62698H259.806V12.6862C259.769 13.1051 259.878 13.5237 260.113 13.8732C260.232 14.019 260.385 14.1336 260.558 14.2071C260.732 14.2805 260.921 14.3105 261.109 14.2943C261.465 14.3028 261.816 14.213 262.124 14.035V15.5607C261.938 15.6327 261.745 15.6859 261.549 15.7194C261.309 15.7566 261.066 15.773 260.823 15.7682C260.466 15.7737 260.111 15.7105 259.778 15.582Z" fill="#656C73"/>
<path d="M270.689 14.8559C269.636 14.2566 268.768 13.3829 268.18 12.3293C267.564 11.2441 267.246 10.0171 267.258 8.77135C267.245 7.52558 267.563 6.29848 268.18 5.21339C268.77 4.15798 269.641 3.28393 270.698 2.68681C271.777 2.07251 273.002 1.7564 274.245 1.77138C275.198 1.76071 276.142 1.95539 277.012 2.342C277.84 2.71961 278.575 3.27268 279.164 3.96231L278.033 5.06692C277.581 4.49581 277.004 4.03454 276.345 3.71819C275.678 3.42249 274.954 3.27562 274.224 3.28794C273.293 3.28199 272.375 3.51535 271.562 3.96536C270.746 4.41946 270.071 5.08635 269.61 5.89386C269.114 6.77084 268.864 7.76314 268.884 8.7683C268.864 9.77346 269.114 10.7658 269.61 11.6427C270.071 12.4507 270.746 13.1185 271.562 13.5743C272.38 14.0295 273.304 14.2651 274.242 14.2578C275.048 14.261 275.843 14.0821 276.569 13.7348C277.294 13.3874 277.931 12.8807 278.43 12.253L279.579 13.376C278.953 14.1226 278.166 14.721 277.277 15.1275C276.235 15.5959 275.096 15.8153 273.953 15.7682C272.81 15.721 271.694 15.4086 270.695 14.8559H270.689Z" fill="#656C73"/>
<path d="M281.138 2.06726H282.743V15.4722H281.138V2.06726Z" fill="#656C73"/>
<path d="M285.703 14.7796C285.107 14.1205 284.809 13.205 284.809 12.0333V6.18677H286.41V11.7678C286.41 13.4766 287.184 14.331 288.731 14.331C289.228 14.3371 289.713 14.1864 290.118 13.9008C290.526 13.6143 290.851 13.2273 291.062 12.7778C291.281 12.3214 291.393 11.8218 291.391 11.3162V6.18677H292.977V15.4723H291.468V14.0869H291.391C291.087 14.5896 290.654 15.0033 290.136 15.2861C289.591 15.6069 288.969 15.7756 288.335 15.7743C287.195 15.7743 286.318 15.4428 285.703 14.7796Z" fill="#656C73"/>
<path d="M298.05 15.2952C297.516 15.0118 297.07 14.5899 296.758 14.0746H296.682V15.46H295.144V2.06726H296.771V6.28128L296.694 7.55372H296.771C297.098 7.05637 297.545 6.64747 298.071 6.36367C298.672 6.0377 299.348 5.87358 300.032 5.88764C300.822 5.88216 301.596 6.10711 302.258 6.53455C302.945 6.97298 303.505 7.58203 303.881 8.30132C304.295 9.08063 304.507 9.9501 304.496 10.831C304.507 11.7109 304.296 12.5795 303.881 13.3575C303.506 14.0783 302.946 14.6885 302.258 15.1274C301.596 15.5535 300.822 15.7783 300.032 15.7743C299.341 15.7901 298.657 15.6249 298.05 15.2952ZM301.314 13.9007C301.796 13.6031 302.187 13.1812 302.446 12.6801C302.736 12.1135 302.882 11.4848 302.87 10.8493C302.884 10.2086 302.738 9.57449 302.446 9.00315C302.187 8.50239 301.796 8.08062 301.314 7.78258C300.854 7.497 300.321 7.34678 299.777 7.34928C299.236 7.34683 298.704 7.49253 298.24 7.77037C297.757 8.06575 297.365 8.48822 297.109 8.99094C296.815 9.56838 296.67 10.2087 296.685 10.8554C296.672 11.4979 296.817 12.1338 297.109 12.7076C297.364 13.211 297.756 13.6338 298.24 13.9282C298.704 14.206 299.236 14.3517 299.777 14.3492C300.322 14.3459 300.855 14.1904 301.314 13.9007Z" fill="#656C73"/>
<path d="M306.774 15.0237C306.114 14.5656 305.608 13.92 305.323 13.1715L306.737 12.5612C306.953 13.1037 307.322 13.5724 307.801 13.9099C308.241 14.2149 308.765 14.3779 309.301 14.3768C309.83 14.3984 310.352 14.2623 310.802 13.9862C310.975 13.8914 311.121 13.7537 311.225 13.5863C311.329 13.4189 311.388 13.2276 311.395 13.0311C311.4 12.8546 311.362 12.6794 311.285 12.5202C311.208 12.361 311.094 12.2224 310.952 12.1157C310.494 11.811 309.977 11.6033 309.434 11.5054L308.145 11.185C307.482 11.0427 306.863 10.7409 306.344 10.3062C306.1 10.0994 305.906 9.84048 305.777 9.54875C305.648 9.25702 305.588 8.9401 305.6 8.6218C305.587 8.08593 305.763 7.56241 306.098 7.14186C306.449 6.71727 306.909 6.39382 307.429 6.20507C308.009 5.99357 308.622 5.89012 309.24 5.89993C310.009 5.89066 310.766 6.08106 311.438 6.45224C312.075 6.79571 312.571 7.34795 312.843 8.01457L311.429 8.62485C311.247 8.19714 310.921 7.84549 310.506 7.63009C310.082 7.41973 309.613 7.31501 309.138 7.32495C308.671 7.31877 308.211 7.44242 307.81 7.68196C307.636 7.76544 307.488 7.89503 307.383 8.05652C307.277 8.21801 307.219 8.40514 307.214 8.59739C307.208 8.7475 307.241 8.89657 307.309 9.03093C307.376 9.16528 307.477 9.28061 307.601 9.36635C307.979 9.60437 308.395 9.77575 308.831 9.87289L310.227 10.2085C311.006 10.3658 311.727 10.732 312.311 11.2674C312.533 11.4866 312.708 11.7478 312.827 12.0356C312.945 12.3234 313.004 12.6318 313 12.9426C313.005 13.4663 312.84 13.9777 312.529 14.4012C312.191 14.8573 311.734 15.2137 311.207 15.4326C310.6 15.6911 309.944 15.819 309.283 15.8079C308.383 15.8216 307.504 15.5465 306.774 15.0237Z" fill="#656C73"/>
<path d="M8.76645 8.97571L14.8105 5.50929C15.4937 5.118 15.9924 4.47333 16.1968 3.7171C16.4012 2.96086 16.2945 2.15502 15.9003 1.47683C15.5061 0.79865 14.8566 0.303683 14.0947 0.10082C13.3328 -0.102044 12.5209 0.00381306 11.8376 0.395104L1.38513 6.382L8.76645 8.97571Z" fill="#E43E2B"/>
<path d="M13.3225 17.8798C13.9773 17.8794 14.6137 17.6647 15.133 17.269C15.6524 16.8732 16.0258 16.3184 16.1953 15.6906C16.3648 15.0629 16.321 14.3971 16.0706 13.7966C15.8202 13.1961 15.3773 12.6943 14.8104 12.3689L4.35792 6.38204C3.67714 6.0277 2.88463 5.94859 2.14639 6.16126C1.40816 6.37394 0.781473 6.86191 0.39761 7.52296C0.0137473 8.18401 -0.0975114 8.96685 0.0871392 9.7075C0.27179 10.4482 0.738024 11.0892 1.38818 11.4962L11.8407 17.4831C12.2909 17.7423 12.802 17.8792 13.3225 17.8798Z" fill="#3B7DED"/>
<path d="M23.7135 17.8798C24.2351 17.8801 24.7474 17.7432 25.1984 17.4831L35.6509 11.4962L28.3649 8.84753L22.2163 12.3658C21.6473 12.6909 21.2024 13.1936 20.9512 13.7957C20.6999 14.3977 20.6563 15.0654 20.8272 15.6946C20.998 16.3239 21.3738 16.8794 21.8958 17.2746C22.4179 17.6698 23.0569 17.8826 23.7135 17.8798Z" fill="#F0B501"/>
<path d="M34.1568 11.899C34.8118 11.8993 35.4487 11.6851 35.9686 11.2895C36.4885 10.894 36.8624 10.3392 37.0323 9.71129C37.2022 9.08335 37.1586 8.41732 36.9083 7.81648C36.6579 7.21564 36.2149 6.71356 35.6478 6.3881L25.1984 0.395104C24.5151 0.00381306 23.7032 -0.102044 22.9413 0.10082C22.1795 0.303683 21.53 0.798651 21.1357 1.47683C20.7415 2.15502 20.6349 2.96086 20.8392 3.7171C21.0436 4.47333 21.5423 5.118 22.2256 5.50929L32.6781 11.4962C33.127 11.7566 33.6369 11.8955 34.1568 11.899Z" fill="#2BA24C"/>
<path d="M49.5249 32.5323L52.2946 24.6181H53.644L50.164 33.9485H49.2021L49.5249 32.5323ZM46.9359 24.6181L49.6798 32.5323L50.022 33.9485H49.06L45.5865 24.6181H46.9359Z" fill="#656C73"/>
<path d="M57.3434 34.0767C56.857 34.0767 56.4159 33.9955 56.0199 33.8332C55.6282 33.6666 55.2903 33.4337 55.0062 33.1347C54.7265 32.8356 54.5113 32.481 54.3606 32.0709C54.21 31.6608 54.1346 31.2122 54.1346 30.7252V30.456C54.1346 29.8921 54.2186 29.3901 54.3864 28.9501C54.5543 28.5058 54.7824 28.1298 55.0708 27.8222C55.3592 27.5146 55.6863 27.2818 56.0522 27.1237C56.418 26.9656 56.7968 26.8866 57.1885 26.8866C57.6877 26.8866 58.1182 26.972 58.4797 27.1429C58.8456 27.3138 59.1447 27.5531 59.3771 27.8607C59.6096 28.164 59.7817 28.5228 59.8936 28.9373C60.0055 29.3474 60.0615 29.796 60.0615 30.283V30.8149H54.8448V29.8472H58.8671V29.7575C58.8499 29.4499 58.7853 29.1509 58.6734 28.8604C58.5658 28.5698 58.3936 28.3306 58.1569 28.1426C57.9202 27.9546 57.5974 27.8607 57.1885 27.8607C56.9173 27.8607 56.6676 27.9183 56.4395 28.0337C56.2114 28.1448 56.0156 28.3114 55.852 28.5335C55.6884 28.7557 55.5615 29.027 55.4711 29.3474C55.3807 29.6678 55.3355 30.0373 55.3355 30.456V30.7252C55.3355 31.0541 55.3807 31.3639 55.4711 31.6544C55.5658 31.9406 55.7014 32.1927 55.8778 32.4105C56.0586 32.6284 56.276 32.7993 56.5299 32.9232C56.7882 33.0471 57.0808 33.109 57.408 33.109C57.8298 33.109 58.187 33.0236 58.4797 32.8527C58.7724 32.6818 59.0285 32.4533 59.248 32.167L59.9711 32.7374C59.8205 32.9638 59.6289 33.1795 59.3965 33.3846C59.1641 33.5897 58.8778 33.7563 58.5378 33.8845C58.2021 34.0126 57.804 34.0767 57.3434 34.0767Z" fill="#656C73"/>
<path d="M62.7538 24.1054V33.9485H61.5529V24.1054H62.7538Z" fill="#656C73"/>
<path d="M65.969 24.1054V33.9485H64.7681V24.1054H65.969Z" fill="#656C73"/>
<path d="M67.5701 30.5585V30.4112C67.5701 29.9113 67.6433 29.4478 67.7896 29.0206C67.936 28.5891 68.1469 28.2152 68.4224 27.8991C68.6978 27.5787 69.0314 27.3309 69.4231 27.1557C69.8148 26.9763 70.2538 26.8866 70.7402 26.8866C71.2308 26.8866 71.672 26.9763 72.0637 27.1557C72.4597 27.3309 72.7954 27.5787 73.0709 27.8991C73.3506 28.2152 73.5637 28.5891 73.71 29.0206C73.8564 29.4478 73.9295 29.9113 73.9295 30.4112V30.5585C73.9295 31.0584 73.8564 31.5219 73.71 31.9491C73.5637 32.3764 73.3506 32.7502 73.0709 33.0706C72.7954 33.3867 72.4618 33.6345 72.0701 33.814C71.6828 33.9891 71.2437 34.0767 70.7531 34.0767C70.2624 34.0767 69.8212 33.9891 69.4295 33.814C69.0378 33.6345 68.7021 33.3867 68.4224 33.0706C68.1469 32.7502 67.936 32.3764 67.7896 31.9491C67.6433 31.5219 67.5701 31.0584 67.5701 30.5585ZM68.7645 30.4112V30.5585C68.7645 30.9046 68.8054 31.2314 68.8872 31.539C68.969 31.8423 69.0917 32.1115 69.2552 32.3465C69.4231 32.5814 69.6318 32.7673 69.8815 32.904C70.1311 33.0364 70.4216 33.1026 70.7531 33.1026C71.0802 33.1026 71.3664 33.0364 71.6117 32.904C71.8614 32.7673 72.068 32.5814 72.2315 32.3465C72.3951 32.1115 72.5178 31.8423 72.5996 31.539C72.6856 31.2314 72.7287 30.9046 72.7287 30.5585V30.4112C72.7287 30.0694 72.6856 29.7468 72.5996 29.4435C72.5178 29.1359 72.393 28.8646 72.2251 28.6297C72.0615 28.3904 71.8549 28.2024 71.6053 28.0657C71.36 27.929 71.0716 27.8607 70.7402 27.8607C70.413 27.8607 70.1247 27.929 69.875 28.0657C69.6297 28.2024 69.4231 28.3904 69.2552 28.6297C69.0917 28.8646 68.969 29.1359 68.8872 29.4435C68.8054 29.7468 68.7645 30.0694 68.7645 30.4112Z" fill="#656C73"/>
<path d="M76.6218 28.1042V33.9485H75.4274V27.0148H76.5895L76.6218 28.1042ZM78.804 26.9763L78.7976 28.0785C78.6986 28.0572 78.6039 28.0444 78.5135 28.0401C78.4274 28.0315 78.3284 28.0273 78.2165 28.0273C77.941 28.0273 77.6979 28.07 77.4869 28.1554C77.276 28.2409 77.0974 28.3605 76.9511 28.5143C76.8047 28.6681 76.6885 28.8518 76.6024 29.0654C76.5207 29.2748 76.4669 29.5055 76.441 29.7575L76.1053 29.9498C76.1053 29.5311 76.1462 29.138 76.228 28.7706C76.3141 28.4032 76.4453 28.0785 76.6218 27.7966C76.7983 27.5103 77.0221 27.2882 77.2933 27.1301C77.5687 26.9678 77.8958 26.8866 78.2746 26.8866C78.3607 26.8866 78.4597 26.8973 78.5716 26.9186C78.6835 26.9357 78.761 26.955 78.804 26.9763Z" fill="#656C73"/>
<path d="M82.6778 34.0767C82.1914 34.0767 81.7502 33.9955 81.3542 33.8332C80.9626 33.6666 80.6247 33.4337 80.3406 33.1347C80.0608 32.8356 79.8456 32.481 79.695 32.0709C79.5443 31.6608 79.469 31.2122 79.469 30.7252V30.456C79.469 29.8921 79.553 29.3901 79.7208 28.9501C79.8887 28.5058 80.1168 28.1298 80.4052 27.8222C80.6936 27.5146 81.0207 27.2818 81.3865 27.1237C81.7524 26.9656 82.1312 26.8866 82.5228 26.8866C83.0221 26.8866 83.4525 26.972 83.8141 27.1429C84.1799 27.3138 84.4791 27.5531 84.7115 27.8607C84.9439 28.164 85.1161 28.5228 85.228 28.9373C85.3399 29.3474 85.3959 29.796 85.3959 30.283V30.8149H80.1792V29.8472H84.2015V29.7575C84.1842 29.4499 84.1197 29.1509 84.0078 28.8604C83.9002 28.5698 83.728 28.3306 83.4913 28.1426C83.2545 27.9546 82.9317 27.8607 82.5228 27.8607C82.2517 27.8607 82.002 27.9183 81.7739 28.0337C81.5458 28.1448 81.3499 28.3114 81.1864 28.5335C81.0228 28.7557 80.8959 29.027 80.8055 29.3474C80.7151 29.6678 80.6699 30.0373 80.6699 30.456V30.7252C80.6699 31.0541 80.7151 31.3639 80.8055 31.6544C80.9002 31.9406 81.0357 32.1927 81.2122 32.4105C81.393 32.6284 81.6103 32.7993 81.8643 32.9232C82.1225 33.0471 82.4152 33.109 82.7423 33.109C83.1642 33.109 83.5214 33.0236 83.8141 32.8527C84.1068 32.6818 84.3629 32.4533 84.5824 32.167L85.3055 32.7374C85.1548 32.9638 84.9633 33.1795 84.7309 33.3846C84.4984 33.5897 84.2122 33.7563 83.8722 33.8845C83.5365 34.0126 83.1383 34.0767 82.6778 34.0767Z" fill="#656C73"/>
<path d="M91.5874 24.6181V33.9485H90.3414V24.6181H91.5874Z" fill="#656C73"/>
<path d="M94.8672 28.4951V33.9485H93.6728V27.0148H94.8026L94.8672 28.4951ZM94.5831 30.2189L94.086 30.1997C94.0903 29.7255 94.1613 29.2876 94.2991 28.886C94.4368 28.4801 94.6305 28.1277 94.8801 27.8286C95.1298 27.5296 95.4268 27.2989 95.7711 27.1365C96.1197 26.9699 96.5049 26.8866 96.9268 26.8866C97.2711 26.8866 97.581 26.9336 97.8565 27.0276C98.1319 27.1173 98.3665 27.2626 98.5602 27.4633C98.7582 27.6641 98.9088 27.9247 99.0121 28.2452C99.1154 28.5613 99.1671 28.9479 99.1671 29.4051V33.9485H97.9662V29.3922C97.9662 29.0291 97.9124 28.7386 97.8048 28.5207C97.6972 28.2986 97.5401 28.1384 97.3335 28.0401C97.1269 27.9376 96.873 27.8863 96.5717 27.8863C96.2747 27.8863 96.0035 27.9482 95.7582 28.0721C95.5171 28.196 95.3084 28.3669 95.1319 28.5848C94.9597 28.8027 94.8242 29.0526 94.7252 29.3346C94.6305 29.6123 94.5831 29.907 94.5831 30.2189Z" fill="#656C73"/>
<path d="M105.049 32.1094C105.049 31.9385 105.01 31.7804 104.933 31.6351C104.859 31.4856 104.707 31.351 104.474 31.2314C104.246 31.1075 103.902 31.0007 103.441 30.911C103.054 30.8298 102.703 30.7337 102.389 30.6226C102.079 30.5116 101.814 30.377 101.595 30.2189C101.379 30.0608 101.214 29.875 101.098 29.6614C100.981 29.4478 100.923 29.1979 100.923 28.9116C100.923 28.6382 100.983 28.3797 101.104 28.1362C101.229 27.8927 101.403 27.677 101.627 27.489C101.855 27.301 102.128 27.1536 102.447 27.0468C102.765 26.94 103.12 26.8866 103.512 26.8866C104.072 26.8866 104.549 26.9849 104.945 27.1814C105.341 27.3779 105.645 27.6406 105.856 27.9696C106.067 28.2943 106.172 28.6553 106.172 29.0526H104.978C104.978 28.8604 104.92 28.6745 104.803 28.4951C104.691 28.3114 104.526 28.1597 104.306 28.0401C104.091 27.9205 103.826 27.8607 103.512 27.8607C103.181 27.8607 102.912 27.9119 102.705 28.0145C102.503 28.1127 102.354 28.2387 102.26 28.3925C102.169 28.5463 102.124 28.7087 102.124 28.8796C102.124 29.0077 102.146 29.1231 102.189 29.2256C102.236 29.3239 102.318 29.4157 102.434 29.5012C102.55 29.5824 102.714 29.6593 102.925 29.7319C103.136 29.8045 103.405 29.8771 103.732 29.9498C104.304 30.0779 104.775 30.2317 105.146 30.4112C105.516 30.5906 105.791 30.8106 105.972 31.0712C106.153 31.3318 106.243 31.648 106.243 32.0196C106.243 32.323 106.179 32.6007 106.049 32.8527C105.925 33.1048 105.742 33.3227 105.501 33.5064C105.264 33.6858 104.98 33.8268 104.648 33.9293C104.321 34.0276 103.953 34.0767 103.544 34.0767C102.929 34.0767 102.408 33.9678 101.982 33.7499C101.556 33.532 101.233 33.25 101.014 32.904C100.794 32.5579 100.684 32.1927 100.684 31.8082H101.885C101.902 32.1329 101.997 32.3913 102.169 32.5836C102.341 32.7715 102.552 32.9061 102.802 32.9873C103.052 33.0642 103.299 33.1026 103.544 33.1026C103.872 33.1026 104.145 33.0599 104.364 32.9745C104.588 32.889 104.758 32.7715 104.874 32.622C104.991 32.4725 105.049 32.3016 105.049 32.1094Z" fill="#656C73"/>
<path d="M110.737 27.0148V27.9247H106.96V27.0148H110.737ZM108.238 25.3294H109.433V32.2311C109.433 32.4661 109.469 32.6434 109.542 32.763C109.615 32.8826 109.71 32.9617 109.826 33.0001C109.943 33.0386 110.067 33.0578 110.201 33.0578C110.3 33.0578 110.403 33.0492 110.511 33.0321C110.623 33.0108 110.707 32.9937 110.763 32.9809L110.769 33.9485C110.674 33.9784 110.549 34.0062 110.395 34.0318C110.244 34.0617 110.061 34.0767 109.846 34.0767C109.553 34.0767 109.284 34.019 109.039 33.9037C108.793 33.7883 108.598 33.5961 108.451 33.3269C108.309 33.0535 108.238 32.6861 108.238 32.2247V25.3294Z" fill="#656C73"/>
<path d="M113.435 27.0148V33.9485H112.235V27.0148H113.435ZM112.144 25.1756C112.144 24.9833 112.202 24.821 112.318 24.6886C112.439 24.5561 112.615 24.4899 112.848 24.4899C113.076 24.4899 113.25 24.5561 113.371 24.6886C113.496 24.821 113.558 24.9833 113.558 25.1756C113.558 25.3593 113.496 25.5174 113.371 25.6498C113.25 25.778 113.076 25.842 112.848 25.842C112.615 25.842 112.439 25.778 112.318 25.6498C112.202 25.5174 112.144 25.3593 112.144 25.1756Z" fill="#656C73"/>
<path d="M118.278 27.0148V27.9247H114.501V27.0148H118.278ZM115.779 25.3294H116.973V32.2311C116.973 32.4661 117.01 32.6434 117.083 32.763C117.156 32.8826 117.251 32.9617 117.367 33.0001C117.484 33.0386 117.608 33.0578 117.742 33.0578C117.841 33.0578 117.944 33.0492 118.052 33.0321C118.164 33.0108 118.247 32.9937 118.303 32.9809L118.31 33.9485C118.215 33.9784 118.09 34.0062 117.935 34.0318C117.785 34.0617 117.602 34.0767 117.387 34.0767C117.094 34.0767 116.825 34.019 116.58 33.9037C116.334 33.7883 116.138 33.5961 115.992 33.3269C115.85 33.0535 115.779 32.6861 115.779 32.2247V25.3294Z" fill="#656C73"/>
<path d="M123.953 32.3465V27.0148H125.154V33.9485H124.011L123.953 32.3465ZM124.179 30.8854L124.676 30.8726C124.676 31.334 124.626 31.7612 124.527 32.1542C124.433 32.543 124.278 32.8805 124.062 33.1667C123.847 33.453 123.565 33.6772 123.217 33.8396C122.868 33.9977 122.444 34.0767 121.945 34.0767C121.605 34.0767 121.293 34.0276 121.009 33.9293C120.729 33.831 120.488 33.6794 120.286 33.4743C120.083 33.2693 119.926 33.0022 119.814 32.6733C119.707 32.3443 119.653 31.9491 119.653 31.4878V27.0148H120.847V31.5006C120.847 31.8124 120.882 32.0709 120.951 32.276C121.024 32.4768 121.121 32.637 121.241 32.7566C121.366 32.8719 121.504 32.9531 121.654 33.0001C121.809 33.0471 121.968 33.0706 122.132 33.0706C122.64 33.0706 123.042 32.9745 123.339 32.7822C123.636 32.5857 123.849 32.323 123.979 31.994C124.112 31.6608 124.179 31.2912 124.179 30.8854Z" fill="#656C73"/>
<path d="M129.899 27.0148V27.9247H126.122V27.0148H129.899ZM127.4 25.3294H128.595V32.2311C128.595 32.4661 128.631 32.6434 128.704 32.763C128.778 32.8826 128.872 32.9617 128.989 33.0001C129.105 33.0386 129.23 33.0578 129.363 33.0578C129.462 33.0578 129.565 33.0492 129.673 33.0321C129.785 33.0108 129.869 32.9937 129.925 32.9809L129.931 33.9485C129.836 33.9784 129.712 34.0062 129.557 34.0318C129.406 34.0617 129.223 34.0767 129.008 34.0767C128.715 34.0767 128.446 34.019 128.201 33.9037C127.956 33.7883 127.76 33.5961 127.613 33.3269C127.471 33.0535 127.4 32.6861 127.4 32.2247V25.3294Z" fill="#656C73"/>
<path d="M134.199 34.0767C133.712 34.0767 133.271 33.9955 132.875 33.8332C132.484 33.6666 132.146 33.4337 131.862 33.1347C131.582 32.8356 131.367 32.481 131.216 32.0709C131.065 31.6608 130.99 31.2122 130.99 30.7252V30.456C130.99 29.8921 131.074 29.3901 131.242 28.9501C131.41 28.5058 131.638 28.1298 131.926 27.8222C132.215 27.5146 132.542 27.2818 132.908 27.1237C133.273 26.9656 133.652 26.8866 134.044 26.8866C134.543 26.8866 134.974 26.972 135.335 27.1429C135.701 27.3138 136 27.5531 136.232 27.8607C136.465 28.164 136.637 28.5228 136.749 28.9373C136.861 29.3474 136.917 29.796 136.917 30.283V30.8149H131.7V29.8472H135.722V29.7575C135.705 29.4499 135.641 29.1509 135.529 28.8604C135.421 28.5698 135.249 28.3306 135.012 28.1426C134.776 27.9546 134.453 27.8607 134.044 27.8607C133.773 27.8607 133.523 27.9183 133.295 28.0337C133.067 28.1448 132.871 28.3114 132.707 28.5335C132.544 28.7557 132.417 29.027 132.326 29.3474C132.236 29.6678 132.191 30.0373 132.191 30.456V30.7252C132.191 31.0541 132.236 31.3639 132.326 31.6544C132.421 31.9406 132.557 32.1927 132.733 32.4105C132.914 32.6284 133.131 32.7993 133.385 32.9232C133.644 33.0471 133.936 33.109 134.263 33.109C134.685 33.109 135.042 33.0236 135.335 32.8527C135.628 32.6818 135.884 32.4533 136.103 32.167L136.826 32.7374C136.676 32.9638 136.484 33.1795 136.252 33.3846C136.019 33.5897 135.733 33.7563 135.393 33.8845C135.057 34.0126 134.659 34.0767 134.199 34.0767Z" fill="#656C73"/>
<path d="M141.275 30.5585V30.4112C141.275 29.9113 141.348 29.4478 141.494 29.0206C141.641 28.5891 141.852 28.2152 142.127 27.8991C142.403 27.5787 142.736 27.3309 143.128 27.1557C143.519 26.9763 143.958 26.8866 144.445 26.8866C144.936 26.8866 145.377 26.9763 145.768 27.1557C146.164 27.3309 146.5 27.5787 146.776 27.8991C147.055 28.2152 147.268 28.5891 147.415 29.0206C147.561 29.4478 147.634 29.9113 147.634 30.4112V30.5585C147.634 31.0584 147.561 31.5219 147.415 31.9491C147.268 32.3764 147.055 32.7502 146.776 33.0706C146.5 33.3867 146.167 33.6345 145.775 33.814C145.387 33.9891 144.948 34.0767 144.458 34.0767C143.967 34.0767 143.526 33.9891 143.134 33.814C142.743 33.6345 142.407 33.3867 142.127 33.0706C141.852 32.7502 141.641 32.3764 141.494 31.9491C141.348 31.5219 141.275 31.0584 141.275 30.5585ZM142.469 30.4112V30.5585C142.469 30.9046 142.51 31.2314 142.592 31.539C142.674 31.8423 142.796 32.1115 142.96 32.3465C143.128 32.5814 143.337 32.7673 143.586 32.904C143.836 33.0364 144.126 33.1026 144.458 33.1026C144.785 33.1026 145.071 33.0364 145.316 32.904C145.566 32.7673 145.773 32.5814 145.936 32.3465C146.1 32.1115 146.222 31.8423 146.304 31.539C146.39 31.2314 146.433 30.9046 146.433 30.5585V30.4112C146.433 30.0694 146.39 29.7468 146.304 29.4435C146.222 29.1359 146.098 28.8646 145.93 28.6297C145.766 28.3904 145.56 28.2024 145.31 28.0657C145.065 27.929 144.776 27.8607 144.445 27.8607C144.118 27.8607 143.829 27.929 143.58 28.0657C143.334 28.2024 143.128 28.3904 142.96 28.6297C142.796 28.8646 142.674 29.1359 142.592 29.4435C142.51 29.7468 142.469 30.0694 142.469 30.4112Z" fill="#656C73"/>
<path d="M150.914 33.9485H149.72V26.2842C149.72 25.7844 149.81 25.3636 149.991 25.0218C150.176 24.6757 150.441 24.4151 150.785 24.24C151.129 24.0605 151.538 23.9708 152.012 23.9708C152.149 23.9708 152.287 23.9794 152.425 23.9965C152.567 24.0135 152.705 24.0392 152.838 24.0734L152.773 25.041C152.683 25.0196 152.58 25.0047 152.464 24.9962C152.352 24.9876 152.24 24.9833 152.128 24.9833C151.874 24.9833 151.654 25.0346 151.469 25.1371C151.288 25.2354 151.151 25.3806 151.056 25.5729C150.961 25.7651 150.914 26.0023 150.914 26.2842V33.9485ZM152.399 27.0148V27.9247H148.616V27.0148H152.399Z" fill="#656C73"/>
<path d="M160.405 24.6181V33.9485H159.178V24.6181H160.405ZM163.426 24.6181V25.6306H156.163V24.6181H163.426Z" fill="#656C73"/>
<path d="M166.893 34.0767C166.407 34.0767 165.966 33.9955 165.57 33.8332C165.178 33.6666 164.84 33.4337 164.556 33.1347C164.276 32.8356 164.061 32.481 163.91 32.0709C163.76 31.6608 163.685 31.2122 163.685 30.7252V30.456C163.685 29.8921 163.768 29.3901 163.936 28.9501C164.104 28.5058 164.332 28.1298 164.621 27.8222C164.909 27.5146 165.236 27.2818 165.602 27.1237C165.968 26.9656 166.347 26.8866 166.738 26.8866C167.238 26.8866 167.668 26.972 168.03 27.1429C168.395 27.3138 168.695 27.5531 168.927 27.8607C169.159 28.164 169.332 28.5228 169.444 28.9373C169.555 29.3474 169.611 29.796 169.611 30.283V30.8149H164.395V29.8472H168.417V29.7575C168.4 29.4499 168.335 29.1509 168.223 28.8604C168.116 28.5698 167.944 28.3306 167.707 28.1426C167.47 27.9546 167.147 27.8607 166.738 27.8607C166.467 27.8607 166.218 27.9183 165.989 28.0337C165.761 28.1448 165.565 28.3114 165.402 28.5335C165.238 28.7557 165.111 29.027 165.021 29.3474C164.931 29.6678 164.885 30.0373 164.885 30.456V30.7252C164.885 31.0541 164.931 31.3639 165.021 31.6544C165.116 31.9406 165.251 32.1927 165.428 32.4105C165.608 32.6284 165.826 32.7993 166.08 32.9232C166.338 33.0471 166.631 33.109 166.958 33.109C167.38 33.109 167.737 33.0236 168.03 32.8527C168.322 32.6818 168.578 32.4533 168.798 32.167L169.521 32.7374C169.37 32.9638 169.179 33.1795 168.946 33.3846C168.714 33.5897 168.428 33.7563 168.088 33.8845C167.752 34.0126 167.354 34.0767 166.893 34.0767Z" fill="#656C73"/>
<path d="M173.801 33.1026C174.086 33.1026 174.348 33.045 174.589 32.9296C174.83 32.8143 175.028 32.6562 175.183 32.4554C175.338 32.2503 175.426 32.0175 175.448 31.7569H176.584C176.563 32.167 176.423 32.5494 176.164 32.904C175.911 33.2543 175.577 33.5384 175.164 33.7563C174.751 33.9699 174.296 34.0767 173.801 34.0767C173.276 34.0767 172.818 33.9848 172.426 33.8011C172.039 33.6174 171.716 33.3654 171.458 33.045C171.204 32.7246 171.012 32.3571 170.883 31.9427C170.758 31.5241 170.696 31.0819 170.696 30.6162V30.3471C170.696 29.8814 170.758 29.4414 170.883 29.027C171.012 28.6083 171.204 28.2387 171.458 27.9183C171.716 27.5979 172.039 27.3459 172.426 27.1622C172.818 26.9784 173.276 26.8866 173.801 26.8866C174.348 26.8866 174.826 26.9977 175.235 27.2198C175.644 27.4377 175.964 27.7368 176.197 28.117C176.434 28.4929 176.563 28.9202 176.584 29.3986H175.448C175.426 29.1124 175.345 28.8539 175.202 28.6232C175.065 28.3925 174.875 28.2088 174.634 28.0721C174.398 27.9311 174.12 27.8607 173.801 27.8607C173.436 27.8607 173.128 27.9333 172.878 28.0785C172.633 28.2195 172.437 28.4118 172.291 28.6553C172.149 28.8945 172.045 29.1615 171.981 29.4563C171.921 29.7468 171.89 30.0437 171.89 30.3471V30.6162C171.89 30.9195 171.921 31.2186 171.981 31.5134C172.041 31.8082 172.142 32.0752 172.284 32.3144C172.431 32.5537 172.626 32.7459 172.872 32.8912C173.121 33.0321 173.431 33.1026 173.801 33.1026Z" fill="#656C73"/>
<path d="M179.121 24.1054V33.9485H177.927V24.1054H179.121ZM178.837 30.2189L178.34 30.1997C178.345 29.7255 178.416 29.2876 178.553 28.886C178.691 28.4801 178.885 28.1277 179.134 27.8286C179.384 27.5296 179.681 27.2989 180.025 27.1365C180.374 26.9699 180.759 26.8866 181.181 26.8866C181.525 26.8866 181.835 26.9336 182.111 27.0276C182.386 27.1173 182.621 27.2626 182.814 27.4633C183.012 27.6641 183.163 27.9247 183.266 28.2452C183.37 28.5613 183.421 28.9479 183.421 29.4051V33.9485H182.22V29.3922C182.22 29.0291 182.167 28.7386 182.059 28.5207C181.951 28.2986 181.794 28.1384 181.588 28.0401C181.381 27.9376 181.127 27.8863 180.826 27.8863C180.529 27.8863 180.258 27.9482 180.012 28.0721C179.771 28.196 179.563 28.3669 179.386 28.5848C179.214 28.8027 179.078 29.0526 178.979 29.3346C178.885 29.6123 178.837 29.907 178.837 30.2189Z" fill="#656C73"/>
<path d="M186.404 28.4951V33.9485H185.21V27.0148H186.34L186.404 28.4951ZM186.12 30.2189L185.623 30.1997C185.627 29.7255 185.698 29.2876 185.836 28.886C185.974 28.4801 186.167 28.1277 186.417 27.8286C186.667 27.5296 186.964 27.2989 187.308 27.1365C187.657 26.9699 188.042 26.8866 188.464 26.8866C188.808 26.8866 189.118 26.9336 189.393 27.0276C189.669 27.1173 189.903 27.2626 190.097 27.4633C190.295 27.6641 190.446 27.9247 190.549 28.2452C190.652 28.5613 190.704 28.9479 190.704 29.4051V33.9485H189.503V29.3922C189.503 29.0291 189.449 28.7386 189.342 28.5207C189.234 28.2986 189.077 28.1384 188.87 28.0401C188.664 27.9376 188.41 27.8863 188.109 27.8863C187.812 27.8863 187.54 27.9482 187.295 28.0721C187.054 28.196 186.845 28.3669 186.669 28.5848C186.497 28.8027 186.361 29.0526 186.262 29.3346C186.167 29.6123 186.12 29.907 186.12 30.2189Z" fill="#656C73"/>
<path d="M192.202 30.5585V30.4112C192.202 29.9113 192.275 29.4478 192.421 29.0206C192.568 28.5891 192.779 28.2152 193.054 27.8991C193.33 27.5787 193.663 27.3309 194.055 27.1557C194.446 26.9763 194.885 26.8866 195.372 26.8866C195.863 26.8866 196.304 26.9763 196.695 27.1557C197.091 27.3309 197.427 27.5787 197.703 27.8991C197.982 28.2152 198.195 28.5891 198.342 29.0206C198.488 29.4478 198.561 29.9113 198.561 30.4112V30.5585C198.561 31.0584 198.488 31.5219 198.342 31.9491C198.195 32.3764 197.982 32.7502 197.703 33.0706C197.427 33.3867 197.094 33.6345 196.702 33.814C196.314 33.9891 195.875 34.0767 195.385 34.0767C194.894 34.0767 194.453 33.9891 194.061 33.814C193.67 33.6345 193.334 33.3867 193.054 33.0706C192.779 32.7502 192.568 32.3764 192.421 31.9491C192.275 31.5219 192.202 31.0584 192.202 30.5585ZM193.396 30.4112V30.5585C193.396 30.9046 193.437 31.2314 193.519 31.539C193.601 31.8423 193.723 32.1115 193.887 32.3465C194.055 32.5814 194.264 32.7673 194.513 32.904C194.763 33.0364 195.053 33.1026 195.385 33.1026C195.712 33.1026 195.998 33.0364 196.243 32.904C196.493 32.7673 196.7 32.5814 196.863 32.3465C197.027 32.1115 197.149 31.8423 197.231 31.539C197.317 31.2314 197.36 30.9046 197.36 30.5585V30.4112C197.36 30.0694 197.317 29.7468 197.231 29.4435C197.149 29.1359 197.025 28.8646 196.857 28.6297C196.693 28.3904 196.487 28.2024 196.237 28.0657C195.992 27.929 195.703 27.8607 195.372 27.8607C195.045 27.8607 194.756 27.929 194.507 28.0657C194.261 28.2024 194.055 28.3904 193.887 28.6297C193.723 28.8646 193.601 29.1359 193.519 29.4435C193.437 29.7468 193.396 30.0694 193.396 30.4112Z" fill="#656C73"/>
<path d="M201.357 24.1054V33.9485H200.156V24.1054H201.357Z" fill="#656C73"/>
<path d="M202.958 30.5585V30.4112C202.958 29.9113 203.031 29.4478 203.177 29.0206C203.324 28.5891 203.535 28.2152 203.81 27.8991C204.086 27.5787 204.419 27.3309 204.811 27.1557C205.203 26.9763 205.642 26.8866 206.128 26.8866C206.619 26.8866 207.06 26.9763 207.452 27.1557C207.848 27.3309 208.183 27.5787 208.459 27.8991C208.738 28.2152 208.952 28.5891 209.098 29.0206C209.244 29.4478 209.317 29.9113 209.317 30.4112V30.5585C209.317 31.0584 209.244 31.5219 209.098 31.9491C208.952 32.3764 208.738 32.7502 208.459 33.0706C208.183 33.3867 207.85 33.6345 207.458 33.814C207.071 33.9891 206.632 34.0767 206.141 34.0767C205.65 34.0767 205.209 33.9891 204.817 33.814C204.426 33.6345 204.09 33.3867 203.81 33.0706C203.535 32.7502 203.324 32.3764 203.177 31.9491C203.031 31.5219 202.958 31.0584 202.958 30.5585ZM204.152 30.4112V30.5585C204.152 30.9046 204.193 31.2314 204.275 31.539C204.357 31.8423 204.479 32.1115 204.643 32.3465C204.811 32.5814 205.02 32.7673 205.269 32.904C205.519 33.0364 205.809 33.1026 206.141 33.1026C206.468 33.1026 206.754 33.0364 207 32.904C207.249 32.7673 207.456 32.5814 207.619 32.3465C207.783 32.1115 207.906 31.8423 207.987 31.539C208.073 31.2314 208.117 30.9046 208.117 30.5585V30.4112C208.117 30.0694 208.073 29.7468 207.987 29.4435C207.906 29.1359 207.781 28.8646 207.613 28.6297C207.449 28.3904 207.243 28.2024 206.993 28.0657C206.748 27.929 206.459 27.8607 206.128 27.8607C205.801 27.8607 205.512 27.929 205.263 28.0657C205.018 28.2024 204.811 28.3904 204.643 28.6297C204.479 28.8646 204.357 29.1359 204.275 29.4435C204.193 29.7468 204.152 30.0694 204.152 30.4112Z" fill="#656C73"/>
<path d="M215.341 27.0148H216.426V33.8011C216.426 34.4121 216.301 34.9333 216.051 35.3648C215.802 35.7963 215.453 36.1231 215.005 36.3452C214.562 36.5717 214.05 36.6849 213.469 36.6849C213.228 36.6849 212.944 36.6464 212.617 36.5695C212.294 36.4969 211.975 36.3709 211.661 36.1914C211.351 36.0163 211.091 35.7792 210.88 35.4801L211.506 34.7752C211.799 35.1255 212.104 35.369 212.423 35.5057C212.746 35.6425 213.064 35.7108 213.378 35.7108C213.757 35.7108 214.084 35.6403 214.36 35.4993C214.635 35.3584 214.848 35.149 214.999 34.8713C215.154 34.5979 215.231 34.2604 215.231 33.8588V28.5399L215.341 27.0148ZM210.531 30.5585V30.424C210.531 29.8942 210.594 29.4136 210.718 28.9821C210.848 28.5463 211.03 28.1725 211.267 27.8607C211.508 27.5488 211.799 27.3095 212.139 27.1429C212.479 26.972 212.862 26.8866 213.288 26.8866C213.727 26.8866 214.11 26.9635 214.437 27.1173C214.769 27.2668 215.048 27.4868 215.277 27.7773C215.509 28.0636 215.692 28.4096 215.825 28.8155C215.959 29.2214 216.051 29.6806 216.103 30.1933V30.7828C216.056 31.2912 215.963 31.7484 215.825 32.1542C215.692 32.5601 215.509 32.9061 215.277 33.1924C215.048 33.4786 214.769 33.6986 214.437 33.8524C214.106 34.0019 213.718 34.0767 213.275 34.0767C212.858 34.0767 212.479 33.9891 212.139 33.814C211.803 33.6388 211.515 33.3931 211.274 33.077C211.033 32.7609 210.848 32.3892 210.718 31.962C210.594 31.5305 210.531 31.0627 210.531 30.5585ZM211.726 30.424V30.5585C211.726 30.9046 211.76 31.2293 211.829 31.5326C211.902 31.8359 212.012 32.1029 212.158 32.3336C212.309 32.5643 212.5 32.7459 212.733 32.8783C212.965 33.0065 213.243 33.0706 213.566 33.0706C213.962 33.0706 214.289 32.9873 214.547 32.8207C214.805 32.6541 215.01 32.434 215.16 32.1606C215.315 31.8872 215.436 31.5903 215.522 31.2699V29.7255C215.475 29.4905 215.401 29.2641 215.302 29.0462C215.208 28.824 215.083 28.6275 214.928 28.4566C214.777 28.2815 214.59 28.1426 214.366 28.0401C214.142 27.9376 213.88 27.8863 213.579 27.8863C213.251 27.8863 212.969 27.9546 212.733 28.0914C212.5 28.2238 212.309 28.4075 212.158 28.6425C212.012 28.8732 211.902 29.1423 211.829 29.4499C211.76 29.7532 211.726 30.0779 211.726 30.424Z" fill="#656C73"/>
<path d="M220.203 33.2308L222.146 27.0148H223.424L220.622 35.0187C220.558 35.1896 220.472 35.3733 220.364 35.5698C220.261 35.7706 220.127 35.9607 219.964 36.1402C219.8 36.3196 219.602 36.4649 219.37 36.5759C219.142 36.6913 218.868 36.749 218.55 36.749C218.455 36.749 218.335 36.7361 218.188 36.7105C218.042 36.6849 217.939 36.6635 217.878 36.6464L217.872 35.6852C217.906 35.6895 217.96 35.6937 218.033 35.698C218.111 35.7065 218.165 35.7108 218.195 35.7108C218.466 35.7108 218.696 35.6745 218.886 35.6019C219.075 35.5335 219.234 35.416 219.363 35.2494C219.497 35.0871 219.611 34.8628 219.706 34.5765L220.203 33.2308ZM218.776 27.0148L220.59 32.3977L220.9 33.6473L220.041 34.0831L217.472 27.0148H218.776Z" fill="#656C73"/>
</svg>
