<svg width="81" height="89" viewBox="0 0 81 89" fill="none" xmlns="http://www.w3.org/2000/svg">
<g clip-path="url(#clip0_16_49)">
<path d="M42.6067 77.1467C57.2374 77.1467 69.0976 75.3848 69.0976 73.2115C69.0976 71.0382 57.2374 69.2762 42.6067 69.2762C27.9765 69.2762 16.1157 71.0382 16.1157 73.2115C16.1157 75.3848 27.9755 77.1467 42.6067 77.1467Z" fill="black"/>
<path d="M68.8604 60.6309C68.8875 66.4831 65.1358 71.2562 60.1482 72.1717C60.1482 72.1717 60.1472 72.1762 60.1437 72.1702C59.2415 72.2246 58.0886 72.2684 57.7256 72.2618L36.6482 71.6873C36.2492 71.6743 35.8512 71.6395 35.4561 71.583C30.2444 70.5855 26.2213 65.4931 26.1876 59.4667L26.0688 36.0498C26.0365 29.4257 30.843 24.1858 36.8078 24.3474L57.8857 24.9219C63.8541 25.0896 68.7098 30.5899 68.7466 37.215L68.8694 60.6334L68.8604 60.6309ZM61.2563 38.989C61.362 38.7045 61.4159 38.4059 61.4113 38.1002C61.4113 37.7916 61.3554 37.4855 61.2462 37.1969C61.1415 36.9129 60.9855 36.6505 60.7861 36.4229C60.5932 36.2048 60.3593 36.0267 60.0978 35.8987C59.8479 35.7728 59.5731 35.7036 59.2933 35.6963C51.9359 35.4954 49.2556 41.2459 47.0913 45.87L45.668 48.8233C43.3688 53.7278 41.658 56.6962 37.192 56.5733C36.9149 56.5654 36.6393 56.6171 36.3839 56.7249C36.1251 56.8342 35.8996 57.0034 35.6982 57.2154C35.4978 57.4312 35.3443 57.6864 35.2476 57.9646C35.1412 58.2487 35.0886 58.5501 35.0926 58.8534C35.0913 59.1621 35.1473 59.4684 35.2577 59.7568C35.3654 60.0408 35.5225 60.3081 35.7184 60.5307C35.9197 60.7502 36.1518 60.9325 36.4051 61.0594C36.6638 61.1838 36.9337 61.2498 37.2106 61.2573C44.5685 61.4582 47.2498 55.7032 49.4127 51.0837L50.8248 48.1329C53.1185 43.2309 54.8353 40.2594 59.3014 40.3823C59.5768 40.3888 59.8505 40.3368 60.1044 40.2297C60.3601 40.1139 60.5937 39.9523 60.7906 39.7393C60.9874 39.5263 61.1395 39.2755 61.2452 38.991L61.2563 38.989Z" fill="#00D5AD"/>
<path d="M61.196 72.0876L51.127 74.4145C50.8627 74.4512 50.5924 74.4764 50.3185 74.4951C50.0506 74.5107 49.7758 74.5142 49.4943 74.5051L25.1194 73.7277C19.1555 73.5615 14.6164 66.9242 14.5782 60.3031L14.4599 36.8867C14.4312 30.8769 18.3837 26.0036 23.5728 25.2714L34.7655 24.3676C29.5779 25.0947 25.6248 29.9675 25.6535 35.9778L25.7769 59.3962C25.8086 65.5742 30.0345 70.7744 35.4421 71.579C35.9673 71.6817 36.5004 71.7393 37.0355 71.7512L58.1134 72.3258C58.8026 72.3434 59.4762 72.2905 60.1347 72.1677L60.1392 72.1692C60.6074 72.1445 61.0062 72.1153 61.1869 72.0851L61.196 72.0876Z" fill="black"/>
<path d="M57.7262 72.2618C58.0882 72.2729 59.2421 72.2241 60.1443 72.1702C59.4782 72.2957 58.8005 72.3487 58.1229 72.3283L37.0451 71.7538C36.5102 71.7395 35.9773 71.6819 35.4517 71.5815C35.8408 71.641 36.2421 71.6732 36.6438 71.6858L57.7217 72.2603L57.7262 72.2618Z" fill="#00D5AD"/>
<path d="M61.4128 38.0946C61.4168 38.3981 61.3643 38.6997 61.2578 38.9839C61.1561 39.2605 61.0015 39.5147 60.8027 39.7322C60.6107 39.9416 60.3772 40.1087 60.117 40.2226C59.8629 40.3296 59.5891 40.3816 59.3135 40.3752C54.8479 40.2523 53.1356 43.2253 50.8374 48.1258L49.4252 51.0766C47.2619 55.6961 44.5805 61.4511 37.2226 61.2502C36.9435 61.2395 36.6694 61.1722 36.4171 61.0523C36.1561 60.9222 35.9229 60.7427 35.7304 60.5236C35.5309 60.296 35.3749 60.0337 35.2703 59.7496C35.1599 59.4613 35.1039 59.155 35.1051 58.8463C35.1016 58.5361 35.1555 58.237 35.2602 57.9575C35.36 57.6807 35.5129 57.426 35.7103 57.2077C35.9013 56.9974 36.1351 56.8303 36.396 56.7178C36.6512 56.6089 36.9272 56.5571 37.2045 56.5662C41.6701 56.6891 43.3813 53.7212 45.6806 48.8156L47.1033 45.8628C49.2661 41.2433 51.9465 35.4933 59.3059 35.6892C59.5856 35.6965 59.8601 35.7656 60.1099 35.8916C60.3723 36.0179 60.6065 36.196 60.7981 36.4153C60.9935 36.6384 61.1526 36.9012 61.2583 37.1898C61.3675 37.4784 61.4234 37.7845 61.4234 38.0931L61.4128 38.0951V38.0946Z" fill="#F6F6F6"/>
<path d="M35.4531 71.577C30.045 70.7718 25.8145 65.5707 25.7869 59.3937L25.664 35.9757C25.6358 29.9659 29.5929 25.0941 34.7759 24.3655L23.5833 25.2693C18.3947 26.0015 14.4432 30.8698 14.4708 36.8846L14.5887 60.3015C14.6209 66.9257 19.165 73.5639 25.1299 73.7256L49.5053 74.5031C49.7822 74.5106 50.0566 74.5071 50.3289 74.493C50.5997 74.4802 50.8696 74.4533 51.1375 74.4124L61.207 72.0855C61.0272 72.1107 60.6275 72.1449 60.1593 72.1696" stroke="black" stroke-width="1.162" stroke-miterlimit="10"/>
<path d="M60.1448 72.1701C59.4787 72.2956 58.8009 72.3486 58.1234 72.3282L37.0461 71.7537C36.5111 71.7394 35.9783 71.6819 35.4526 71.5815C30.2409 70.5839 26.2174 65.4916 26.1837 59.4651L26.0653 36.0482C26.0331 29.4241 30.8395 24.1842 36.8044 24.3458L57.8823 24.9204C63.8501 25.088 68.7059 30.5883 68.7432 37.2134L68.866 60.6318C68.8937 66.4841 65.1415 71.2572 60.1543 72.1726" stroke="black" stroke-width="2.141" stroke-miterlimit="10"/>
<path d="M60.1502 72.1671C60.1502 72.1671 60.1492 72.1711 60.1462 72.1656" stroke="black" stroke-width="1.162" stroke-miterlimit="10"/>
<path d="M60.7876 36.4178C60.9834 36.6404 61.142 36.9033 61.2482 37.1918C61.3574 37.4804 61.4134 37.7865 61.4134 38.0952C61.4174 38.3986 61.3648 38.7002 61.2583 38.9844C61.1565 39.261 61.0019 39.5151 60.8032 39.7327C60.611 39.942 60.3773 40.1089 60.117 40.2226C59.8631 40.3298 59.5895 40.382 59.314 40.3757C54.8484 40.2528 53.1357 43.2258 50.8379 48.1258L49.4253 51.0766C47.2624 55.6961 44.5811 61.4511 37.2232 61.2502C36.9441 61.2397 36.67 61.1725 36.4177 61.0528C36.1567 60.9227 35.9234 60.7432 35.731 60.5241C35.5314 60.2965 35.3754 60.0342 35.2708 59.7502C35.1603 59.4619 35.1041 59.1556 35.1052 58.8468C35.1014 58.5433 35.154 58.2418 35.2602 57.9575C35.3603 57.6808 35.5133 57.4263 35.7108 57.2082C35.9018 56.9977 36.1356 56.8304 36.3965 56.7178C36.6516 56.6091 36.9274 56.5576 37.2045 56.5667C41.6701 56.6891 43.3819 53.7217 45.6811 48.8161L47.1039 45.8629C49.2667 41.2438 51.947 35.4933 59.3059 35.6897C59.5857 35.6969 59.8604 35.7658 60.1104 35.8916C60.3692 36.0155 60.6028 36.1938 60.7987 36.4158L60.7876 36.4178Z" stroke="#F6F6F6" stroke-width="0.533" stroke-miterlimit="10"/>
</g>
<rect x="4" y="14" width="73.5034" height="71.5034" stroke="#3B7DED" stroke-width="2"/>
<g clip-path="url(#clip1_16_49)">
<rect x="75" y="83" width="6" height="6" rx="3" fill="white"/>
<rect x="76" y="84" width="4" height="4" rx="2" stroke="#3B7DED" stroke-width="2"/>
</g>
<g clip-path="url(#clip2_16_49)">
<rect y="83" width="6" height="6" rx="3" fill="white"/>
<rect x="1" y="84" width="4" height="4" rx="2" stroke="#3B7DED" stroke-width="2"/>
</g>
<g clip-path="url(#clip3_16_49)">
<rect x="75" y="10" width="6" height="6" rx="3" fill="white"/>
<rect x="76" y="11" width="4" height="4" rx="2" stroke="#3B7DED" stroke-width="2"/>
</g>
<g clip-path="url(#clip4_16_49)">
<rect y="10" width="6" height="6" rx="3" fill="white"/>
<rect x="1" y="11" width="4" height="4" rx="2" stroke="#3B7DED" stroke-width="2"/>
</g>
<path d="M6.07422 5.27734C6.04167 5.17187 5.99675 5.07747 5.93945 4.99414C5.88346 4.90951 5.81576 4.83724 5.73633 4.77734C5.6582 4.71745 5.56836 4.67253 5.4668 4.64258C5.36523 4.61133 5.25456 4.5957 5.13477 4.5957C4.91992 4.5957 4.72852 4.64974 4.56055 4.75781C4.39258 4.86589 4.26042 5.02474 4.16406 5.23437C4.06901 5.44271 4.02148 5.69661 4.02148 5.99609C4.02148 6.29818 4.06901 6.55404 4.16406 6.76367C4.25911 6.97331 4.39128 7.13281 4.56055 7.24219C4.72982 7.35026 4.92643 7.4043 5.15039 7.4043C5.35352 7.4043 5.5293 7.36523 5.67773 7.28711C5.82747 7.20898 5.94271 7.09831 6.02344 6.95508C6.10417 6.81055 6.14453 6.64128 6.14453 6.44727L6.30859 6.47266H5.22266V5.90625H6.8457V6.38672C6.8457 6.72917 6.77279 7.02539 6.62695 7.27539C6.48112 7.52539 6.2806 7.7181 6.02539 7.85352C5.77018 7.98763 5.47721 8.05469 5.14648 8.05469C4.77799 8.05469 4.45443 7.97201 4.17578 7.80664C3.89844 7.63997 3.68164 7.40365 3.52539 7.09766C3.37044 6.79036 3.29297 6.42578 3.29297 6.00391C3.29297 5.68099 3.33854 5.39258 3.42969 5.13867C3.52214 4.88477 3.65104 4.66927 3.81641 4.49219C3.98177 4.3138 4.17578 4.17839 4.39844 4.08594C4.62109 3.99219 4.86328 3.94531 5.125 3.94531C5.34635 3.94531 5.55273 3.97786 5.74414 4.04297C5.93555 4.10677 6.10547 4.19792 6.25391 4.31641C6.40365 4.4349 6.52669 4.57552 6.62305 4.73828C6.7194 4.90104 6.78255 5.08073 6.8125 5.27734H6.07422ZM7.51514 8V5H8.20068V5.5H8.23193C8.28662 5.32682 8.38037 5.19336 8.51318 5.09961C8.6473 5.00456 8.80029 4.95703 8.97217 4.95703C9.01123 4.95703 9.05485 4.95898 9.10303 4.96289C9.15251 4.96549 9.19352 4.97005 9.22607 4.97656V5.62695C9.19613 5.61654 9.1486 5.60742 9.0835 5.59961C9.01969 5.59049 8.95785 5.58594 8.89795 5.58594C8.76904 5.58594 8.65316 5.61393 8.55029 5.66992C8.44873 5.72461 8.36865 5.80078 8.31006 5.89844C8.25146 5.99609 8.22217 6.10872 8.22217 6.23633V8H7.51514ZM10.5054 8.06055C10.3153 8.06055 10.144 8.02669 9.9917 7.95898C9.84066 7.88997 9.72087 7.78841 9.63232 7.6543C9.54508 7.52018 9.50146 7.35482 9.50146 7.1582C9.50146 6.98893 9.53271 6.84896 9.59521 6.73828C9.65771 6.6276 9.743 6.53906 9.85107 6.47266C9.95915 6.40625 10.0809 6.35612 10.2163 6.32227C10.353 6.28711 10.4943 6.26172 10.6401 6.24609C10.8159 6.22786 10.9585 6.21159 11.0679 6.19727C11.1772 6.18164 11.2567 6.1582 11.3062 6.12695C11.3569 6.0944 11.3823 6.04427 11.3823 5.97656V5.96484C11.3823 5.81771 11.3387 5.70378 11.2515 5.62305C11.1642 5.54232 11.0386 5.50195 10.8745 5.50195C10.7013 5.50195 10.564 5.53971 10.4624 5.61523C10.3621 5.69076 10.2944 5.77995 10.2593 5.88281L9.59912 5.78906C9.6512 5.60677 9.73714 5.45443 9.85693 5.33203C9.97673 5.20833 10.1232 5.11589 10.2964 5.05469C10.4696 4.99219 10.661 4.96094 10.8706 4.96094C11.0151 4.96094 11.159 4.97786 11.3022 5.01172C11.4455 5.04557 11.5763 5.10156 11.6948 5.17969C11.8133 5.25651 11.9084 5.36133 11.98 5.49414C12.0529 5.62695 12.0894 5.79297 12.0894 5.99219V8H11.4097V7.58789H11.3862C11.3433 7.67122 11.2827 7.74935 11.2046 7.82227C11.1278 7.89388 11.0308 7.95182 10.9136 7.99609C10.7977 8.03906 10.6616 8.06055 10.5054 8.06055ZM10.689 7.54102C10.8309 7.54102 10.9539 7.51302 11.0581 7.45703C11.1623 7.39974 11.2424 7.32422 11.2983 7.23047C11.3556 7.13672 11.3843 7.03451 11.3843 6.92383V6.57031C11.3621 6.58854 11.3244 6.60547 11.271 6.62109C11.2189 6.63672 11.1603 6.65039 11.0952 6.66211C11.0301 6.67383 10.9657 6.68424 10.9019 6.69336C10.8381 6.70247 10.7827 6.71029 10.7358 6.7168C10.6304 6.73112 10.536 6.75456 10.4526 6.78711C10.3693 6.81966 10.3035 6.86523 10.2554 6.92383C10.2072 6.98112 10.1831 7.05534 10.1831 7.14648C10.1831 7.27669 10.2306 7.375 10.3257 7.44141C10.4207 7.50781 10.5418 7.54102 10.689 7.54102ZM12.8003 9.125V5H13.4956V5.49609H13.5366C13.5731 5.42318 13.6245 5.3457 13.6909 5.26367C13.7573 5.18034 13.8472 5.10937 13.9604 5.05078C14.0737 4.99089 14.2183 4.96094 14.394 4.96094C14.6258 4.96094 14.8348 5.02018 15.021 5.13867C15.2085 5.25586 15.3569 5.42969 15.4663 5.66016C15.577 5.88932 15.6323 6.17057 15.6323 6.50391C15.6323 6.83333 15.5783 7.11328 15.4702 7.34375C15.3621 7.57422 15.215 7.75 15.0288 7.87109C14.8426 7.99219 14.6317 8.05273 14.396 8.05273C14.2241 8.05273 14.0815 8.02409 13.9683 7.9668C13.855 7.90951 13.7638 7.84049 13.6948 7.75977C13.6271 7.67773 13.5744 7.60026 13.5366 7.52734H13.5073V9.125H12.8003ZM13.4937 6.5C13.4937 6.69401 13.521 6.86393 13.5757 7.00977C13.6317 7.1556 13.7118 7.26953 13.8159 7.35156C13.9214 7.43229 14.049 7.47266 14.1987 7.47266C14.355 7.47266 14.4858 7.43099 14.5913 7.34766C14.6968 7.26302 14.7762 7.14779 14.8296 7.00195C14.8843 6.85482 14.9116 6.6875 14.9116 6.5C14.9116 6.3138 14.8849 6.14844 14.8315 6.00391C14.7782 5.85937 14.6987 5.74609 14.5933 5.66406C14.4878 5.58203 14.3563 5.54102 14.1987 5.54102C14.0477 5.54102 13.9194 5.58073 13.814 5.66016C13.7085 5.73958 13.6284 5.85091 13.5737 5.99414C13.5203 6.13737 13.4937 6.30599 13.4937 6.5ZM16.9448 6.24219V8H16.2378V4H16.9292V5.50977H16.9644C17.0347 5.34049 17.1434 5.20703 17.2905 5.10937C17.439 5.01042 17.6278 4.96094 17.8569 4.96094C18.0653 4.96094 18.2469 5.00456 18.4019 5.0918C18.5568 5.17904 18.6766 5.30664 18.7612 5.47461C18.8472 5.64258 18.8901 5.84766 18.8901 6.08984V8H18.1831V6.19922C18.1831 5.9974 18.131 5.84049 18.0269 5.72852C17.924 5.61523 17.7795 5.55859 17.5933 5.55859C17.4683 5.55859 17.3563 5.58594 17.2573 5.64062C17.1597 5.69401 17.0828 5.77148 17.0269 5.87305C16.9722 5.97461 16.9448 6.09766 16.9448 6.24219ZM19.6108 8V5H20.3179V8H19.6108ZM19.9663 4.57422C19.8543 4.57422 19.758 4.53711 19.6772 4.46289C19.5965 4.38737 19.5562 4.29687 19.5562 4.19141C19.5562 4.08464 19.5965 3.99414 19.6772 3.91992C19.758 3.8444 19.8543 3.80664 19.9663 3.80664C20.0796 3.80664 20.1759 3.8444 20.2554 3.91992C20.3361 3.99414 20.3765 4.08464 20.3765 4.19141C20.3765 4.29687 20.3361 4.38737 20.2554 4.46289C20.1759 4.53711 20.0796 4.57422 19.9663 4.57422ZM22.3535 8.05859C22.054 8.05859 21.7969 7.99284 21.582 7.86133C21.3685 7.72982 21.2038 7.54818 21.0879 7.31641C20.9733 7.08333 20.916 6.8151 20.916 6.51172C20.916 6.20703 20.9746 5.93815 21.0918 5.70508C21.209 5.4707 21.3743 5.28841 21.5879 5.1582C21.8027 5.02669 22.0566 4.96094 22.3496 4.96094C22.5931 4.96094 22.8086 5.00586 22.9961 5.0957C23.1849 5.18424 23.3353 5.3099 23.4473 5.47266C23.5592 5.63411 23.623 5.82292 23.6387 6.03906H22.9629C22.9355 5.89453 22.8704 5.77409 22.7676 5.67773C22.666 5.58008 22.5299 5.53125 22.3594 5.53125C22.2148 5.53125 22.0879 5.57031 21.9785 5.64844C21.8691 5.72526 21.7839 5.83594 21.7227 5.98047C21.6628 6.125 21.6328 6.29818 21.6328 6.5C21.6328 6.70443 21.6628 6.88021 21.7227 7.02734C21.7826 7.17318 21.8665 7.28581 21.9746 7.36523C22.084 7.44336 22.2122 7.48242 22.3594 7.48242C22.4635 7.48242 22.5566 7.46289 22.6387 7.42383C22.722 7.38346 22.7917 7.32552 22.8477 7.25C22.9036 7.17448 22.9421 7.08268 22.9629 6.97461H23.6387C23.6217 7.18685 23.5592 7.375 23.4512 7.53906C23.3431 7.70182 23.196 7.82943 23.0098 7.92187C22.8236 8.01302 22.6048 8.05859 22.3535 8.05859Z" fill="#3B7DED"/>
<defs>
<clipPath id="clip0_16_49">
<rect width="73" height="71" fill="white" transform="translate(5 14)"/>
</clipPath>
<clipPath id="clip1_16_49">
<rect x="75" y="83" width="6" height="6" rx="3" fill="white"/>
</clipPath>
<clipPath id="clip2_16_49">
<rect y="83" width="6" height="6" rx="3" fill="white"/>
</clipPath>
<clipPath id="clip3_16_49">
<rect x="75" y="10" width="6" height="6" rx="3" fill="white"/>
</clipPath>
<clipPath id="clip4_16_49">
<rect y="10" width="6" height="6" rx="3" fill="white"/>
</clipPath>
</defs>
</svg>
