<svg width="329" height="149" viewBox="0 0 329 149" fill="none" xmlns="http://www.w3.org/2000/svg">
<mask id="path-1-outside-1_22_194" maskUnits="userSpaceOnUse" x="-0.27002" y="48.9885" width="319" height="66" fill="black">
<rect fill="white" x="-0.27002" y="48.9885" width="319" height="66"/>
<path d="M4.72998 54.133H14.2516V66.7227H30.9348V54.133H40.5151V110.397H30.9348V75.3787H14.2516V110.397H4.72998V54.133Z"/>
<path d="M43.6851 54.133H86.683V62.789H53.2067V88.7572H62.7752V97.9994H53.2067V103.299H70.9466V110.397H43.6851V54.133Z"/>
<path d="M99.8835 54.133H109.405L96.2047 82.2651L109.405 110.397H99.8835L91.4439 92.436L83.0042 110.397H73.4825L86.683 82.2651L77.1614 66.3865H86.683L91.4439 73.9944L99.8835 54.133Z"/>
<path d="M137.382 101.741H122.523V110.397H113.001V70.2188C113.001 68.0067 113.434 65.9389 114.3 64.0153C115.213 62.0436 116.44 60.3365 117.978 58.8938C119.517 57.403 121.297 56.2489 123.316 55.4314C125.384 54.5658 127.596 54.133 129.953 54.133C132.309 54.133 134.497 54.5658 136.517 55.4314C138.585 56.2489 140.388 57.403 141.927 58.8938C143.466 60.3365 144.668 62.0436 145.534 64.0153C146.447 65.9389 146.904 68.0067 146.904 70.2188V110.397H137.382V101.741ZM137.382 93.0852V70.2188C137.382 69.2089 137.19 68.2471 136.805 67.3334C136.421 66.4197 135.892 65.6263 135.218 64.953C134.545 64.2798 133.752 63.7508 132.838 63.3661C131.924 62.9814 130.962 62.789 129.953 62.789C128.943 62.789 127.981 62.9814 127.067 63.3661C126.154 63.7508 125.36 64.2798 124.687 64.953C124.014 65.6263 123.485 66.4197 123.1 67.3334C122.715 68.2471 122.523 69.2089 122.523 70.2188V93.0852H137.382Z"/>
<path d="M150.125 62.789V54.133L195.009 53.9885V62.6446L170.394 62.789V110.397H160.873V62.789H150.125Z"/>
<path d="M185.487 67.3334H195.009V93.0852H209.868V54.133H219.39V110.397H209.868V101.741H195.009V110.397H185.487V67.3334Z"/>
<path d="M224.442 82.2651C224.442 78.7546 225.043 75.3162 226.246 71.95C227.496 68.5357 229.227 65.506 231.439 62.8611C233.651 60.1681 236.32 58.0282 239.446 56.4412C242.572 54.8062 246.034 53.9887 249.833 53.9887C253.729 53.9887 257.239 54.8062 260.365 56.4412C263.491 58.0763 266.136 60.2162 268.3 62.8611C270.512 65.506 272.219 68.5357 273.421 71.95C274.623 75.3162 275.225 78.7546 275.225 82.2651C275.225 85.7757 274.623 89.2381 273.421 92.6524C272.219 96.0187 270.512 99.0242 268.3 101.669C266.136 104.314 263.491 106.454 260.365 108.089C257.239 109.724 253.729 110.542 249.833 110.542C245.938 110.542 242.428 109.724 239.302 108.089C236.176 106.454 233.507 104.314 231.295 101.669C229.131 99.0242 227.448 96.0187 226.246 92.6524C225.043 89.2381 224.442 85.7757 224.442 82.2651ZM233.964 82.2651C233.964 84.9581 234.373 87.5069 235.19 89.9113C236.008 92.2677 237.138 94.3355 238.581 96.1148C240.023 97.8941 241.706 99.3128 243.63 100.371C245.553 101.381 247.621 101.886 249.833 101.886C251.997 101.886 254.041 101.381 255.965 100.371C257.888 99.3128 259.571 97.8941 261.014 96.1148C262.457 94.3355 263.587 92.2677 264.404 89.9113C265.27 87.5069 265.703 84.9581 265.703 82.2651C265.703 79.5721 265.27 77.0475 264.404 74.6911C263.587 72.2866 262.457 70.1947 261.014 68.4154C259.571 66.6361 257.888 65.2416 255.965 64.2317C254.041 63.1737 251.997 62.6447 249.833 62.6447C247.285 62.6447 245.024 63.2459 243.053 64.4481C241.081 65.6503 239.422 67.2132 238.076 69.1368C236.729 71.0123 235.695 73.1282 234.974 75.4846C234.301 77.7928 233.964 80.053 233.964 82.2651Z"/>
<path d="M279.881 54.133H289.403L304.984 89.0457V54.133H314.505V110.397H304.984L289.403 75.4846V110.397H279.881V54.133Z"/>
</mask>
<path d="M4.72998 54.133H14.2516V66.7227H30.9348V54.133H40.5151V110.397H30.9348V75.3787H14.2516V110.397H4.72998V54.133Z" fill="black"/>
<path d="M43.6851 54.133H86.683V62.789H53.2067V88.7572H62.7752V97.9994H53.2067V103.299H70.9466V110.397H43.6851V54.133Z" fill="black"/>
<path d="M99.8835 54.133H109.405L96.2047 82.2651L109.405 110.397H99.8835L91.4439 92.436L83.0042 110.397H73.4825L86.683 82.2651L77.1614 66.3865H86.683L91.4439 73.9944L99.8835 54.133Z" fill="black"/>
<path d="M137.382 101.741H122.523V110.397H113.001V70.2188C113.001 68.0067 113.434 65.9389 114.3 64.0153C115.213 62.0436 116.44 60.3365 117.978 58.8938C119.517 57.403 121.297 56.2489 123.316 55.4314C125.384 54.5658 127.596 54.133 129.953 54.133C132.309 54.133 134.497 54.5658 136.517 55.4314C138.585 56.2489 140.388 57.403 141.927 58.8938C143.466 60.3365 144.668 62.0436 145.534 64.0153C146.447 65.9389 146.904 68.0067 146.904 70.2188V110.397H137.382V101.741ZM137.382 93.0852V70.2188C137.382 69.2089 137.19 68.2471 136.805 67.3334C136.421 66.4197 135.892 65.6263 135.218 64.953C134.545 64.2798 133.752 63.7508 132.838 63.3661C131.924 62.9814 130.962 62.789 129.953 62.789C128.943 62.789 127.981 62.9814 127.067 63.3661C126.154 63.7508 125.36 64.2798 124.687 64.953C124.014 65.6263 123.485 66.4197 123.1 67.3334C122.715 68.2471 122.523 69.2089 122.523 70.2188V93.0852H137.382Z" fill="black"/>
<path d="M150.125 62.789V54.133L195.009 53.9885V62.6446L170.394 62.789V110.397H160.873V62.789H150.125Z" fill="black"/>
<path d="M185.487 67.3334H195.009V93.0852H209.868V54.133H219.39V110.397H209.868V101.741H195.009V110.397H185.487V67.3334Z" fill="black"/>
<path d="M224.442 82.2651C224.442 78.7546 225.043 75.3162 226.246 71.95C227.496 68.5357 229.227 65.506 231.439 62.8611C233.651 60.1681 236.32 58.0282 239.446 56.4412C242.572 54.8062 246.034 53.9887 249.833 53.9887C253.729 53.9887 257.239 54.8062 260.365 56.4412C263.491 58.0763 266.136 60.2162 268.3 62.8611C270.512 65.506 272.219 68.5357 273.421 71.95C274.623 75.3162 275.225 78.7546 275.225 82.2651C275.225 85.7757 274.623 89.2381 273.421 92.6524C272.219 96.0187 270.512 99.0242 268.3 101.669C266.136 104.314 263.491 106.454 260.365 108.089C257.239 109.724 253.729 110.542 249.833 110.542C245.938 110.542 242.428 109.724 239.302 108.089C236.176 106.454 233.507 104.314 231.295 101.669C229.131 99.0242 227.448 96.0187 226.246 92.6524C225.043 89.2381 224.442 85.7757 224.442 82.2651ZM233.964 82.2651C233.964 84.9581 234.373 87.5069 235.19 89.9113C236.008 92.2677 237.138 94.3355 238.581 96.1148C240.023 97.8941 241.706 99.3128 243.63 100.371C245.553 101.381 247.621 101.886 249.833 101.886C251.997 101.886 254.041 101.381 255.965 100.371C257.888 99.3128 259.571 97.8941 261.014 96.1148C262.457 94.3355 263.587 92.2677 264.404 89.9113C265.27 87.5069 265.703 84.9581 265.703 82.2651C265.703 79.5721 265.27 77.0475 264.404 74.6911C263.587 72.2866 262.457 70.1947 261.014 68.4154C259.571 66.6361 257.888 65.2416 255.965 64.2317C254.041 63.1737 251.997 62.6447 249.833 62.6447C247.285 62.6447 245.024 63.2459 243.053 64.4481C241.081 65.6503 239.422 67.2132 238.076 69.1368C236.729 71.0123 235.695 73.1282 234.974 75.4846C234.301 77.7928 233.964 80.053 233.964 82.2651Z" fill="black"/>
<path d="M279.881 54.133H289.403L304.984 89.0457V54.133H314.505V110.397H304.984L289.403 75.4846V110.397H279.881V54.133Z" fill="black"/>
<path d="M4.72998 54.133H14.2516V66.7227H30.9348V54.133H40.5151V110.397H30.9348V75.3787H14.2516V110.397H4.72998V54.133Z" stroke="black" stroke-width="8.01634" mask="url(#path-1-outside-1_22_194)"/>
<path d="M43.6851 54.133H86.683V62.789H53.2067V88.7572H62.7752V97.9994H53.2067V103.299H70.9466V110.397H43.6851V54.133Z" stroke="black" stroke-width="8.01634" mask="url(#path-1-outside-1_22_194)"/>
<path d="M99.8835 54.133H109.405L96.2047 82.2651L109.405 110.397H99.8835L91.4439 92.436L83.0042 110.397H73.4825L86.683 82.2651L77.1614 66.3865H86.683L91.4439 73.9944L99.8835 54.133Z" stroke="black" stroke-width="8.01634" mask="url(#path-1-outside-1_22_194)"/>
<path d="M137.382 101.741H122.523V110.397H113.001V70.2188C113.001 68.0067 113.434 65.9389 114.3 64.0153C115.213 62.0436 116.44 60.3365 117.978 58.8938C119.517 57.403 121.297 56.2489 123.316 55.4314C125.384 54.5658 127.596 54.133 129.953 54.133C132.309 54.133 134.497 54.5658 136.517 55.4314C138.585 56.2489 140.388 57.403 141.927 58.8938C143.466 60.3365 144.668 62.0436 145.534 64.0153C146.447 65.9389 146.904 68.0067 146.904 70.2188V110.397H137.382V101.741ZM137.382 93.0852V70.2188C137.382 69.2089 137.19 68.2471 136.805 67.3334C136.421 66.4197 135.892 65.6263 135.218 64.953C134.545 64.2798 133.752 63.7508 132.838 63.3661C131.924 62.9814 130.962 62.789 129.953 62.789C128.943 62.789 127.981 62.9814 127.067 63.3661C126.154 63.7508 125.36 64.2798 124.687 64.953C124.014 65.6263 123.485 66.4197 123.1 67.3334C122.715 68.2471 122.523 69.2089 122.523 70.2188V93.0852H137.382Z" stroke="black" stroke-width="8.01634" mask="url(#path-1-outside-1_22_194)"/>
<path d="M150.125 62.789V54.133L195.009 53.9885V62.6446L170.394 62.789V110.397H160.873V62.789H150.125Z" stroke="black" stroke-width="8.01634" mask="url(#path-1-outside-1_22_194)"/>
<path d="M185.487 67.3334H195.009V93.0852H209.868V54.133H219.39V110.397H209.868V101.741H195.009V110.397H185.487V67.3334Z" stroke="black" stroke-width="8.01634" mask="url(#path-1-outside-1_22_194)"/>
<path d="M224.442 82.2651C224.442 78.7546 225.043 75.3162 226.246 71.95C227.496 68.5357 229.227 65.506 231.439 62.8611C233.651 60.1681 236.32 58.0282 239.446 56.4412C242.572 54.8062 246.034 53.9887 249.833 53.9887C253.729 53.9887 257.239 54.8062 260.365 56.4412C263.491 58.0763 266.136 60.2162 268.3 62.8611C270.512 65.506 272.219 68.5357 273.421 71.95C274.623 75.3162 275.225 78.7546 275.225 82.2651C275.225 85.7757 274.623 89.2381 273.421 92.6524C272.219 96.0187 270.512 99.0242 268.3 101.669C266.136 104.314 263.491 106.454 260.365 108.089C257.239 109.724 253.729 110.542 249.833 110.542C245.938 110.542 242.428 109.724 239.302 108.089C236.176 106.454 233.507 104.314 231.295 101.669C229.131 99.0242 227.448 96.0187 226.246 92.6524C225.043 89.2381 224.442 85.7757 224.442 82.2651ZM233.964 82.2651C233.964 84.9581 234.373 87.5069 235.19 89.9113C236.008 92.2677 237.138 94.3355 238.581 96.1148C240.023 97.8941 241.706 99.3128 243.63 100.371C245.553 101.381 247.621 101.886 249.833 101.886C251.997 101.886 254.041 101.381 255.965 100.371C257.888 99.3128 259.571 97.8941 261.014 96.1148C262.457 94.3355 263.587 92.2677 264.404 89.9113C265.27 87.5069 265.703 84.9581 265.703 82.2651C265.703 79.5721 265.27 77.0475 264.404 74.6911C263.587 72.2866 262.457 70.1947 261.014 68.4154C259.571 66.6361 257.888 65.2416 255.965 64.2317C254.041 63.1737 251.997 62.6447 249.833 62.6447C247.285 62.6447 245.024 63.2459 243.053 64.4481C241.081 65.6503 239.422 67.2132 238.076 69.1368C236.729 71.0123 235.695 73.1282 234.974 75.4846C234.301 77.7928 233.964 80.053 233.964 82.2651Z" stroke="black" stroke-width="8.01634" mask="url(#path-1-outside-1_22_194)"/>
<path d="M279.881 54.133H289.403L304.984 89.0457V54.133H314.505V110.397H304.984L289.403 75.4846V110.397H279.881V54.133Z" stroke="black" stroke-width="8.01634" mask="url(#path-1-outside-1_22_194)"/>
<rect x="125.329" y="65.8223" width="9.58027" height="24.796" fill="black"/>
<ellipse cx="249.027" cy="82.165" rx="13.8069" ry="17.4699" fill="black"/>
<mask id="path-4-outside-2_22_194" maskUnits="userSpaceOnUse" x="2.85693" y="48.7339" width="316" height="62" fill="black">
<rect fill="white" x="2.85693" y="48.7339" width="316" height="62"/>
<path d="M5.85693 51.8783H15.3786V64.468H32.0618V51.8783H41.6421V108.143H32.0618V73.1241H15.3786V108.143H5.85693V51.8783Z"/>
<path d="M44.812 51.8783H92.5708V60.5344H54.3337V86.5025H63.9021V95.7448H54.3337V101.044H72.0735V108.143H44.812V51.8783Z"/>
<path d="M101.01 51.8783H110.532L97.3316 80.0105L110.532 108.143H101.01L92.5708 90.1814L84.1311 108.143H74.6095L87.81 80.0105L78.2883 64.1319H87.81L92.5708 71.7397L101.01 51.8783Z"/>
<path d="M138.509 99.4866H123.65V108.143H114.128V67.9642C114.128 65.752 114.561 63.6842 115.427 61.7606C116.34 59.789 117.566 58.0818 119.105 56.6391C120.644 55.1484 122.424 53.9942 124.443 53.1767C126.511 52.3111 128.723 51.8783 131.08 51.8783C133.436 51.8783 135.624 52.3111 137.644 53.1767C139.712 53.9942 141.515 55.1484 143.054 56.6391C144.593 58.0818 145.795 59.789 146.66 61.7606C147.574 63.6842 148.031 65.752 148.031 67.9642V108.143H138.509V99.4866ZM138.509 90.8306V67.9642C138.509 66.9543 138.317 65.9925 137.932 65.0788C137.548 64.1651 137.019 63.3716 136.345 62.6984C135.672 62.0251 134.879 61.4962 133.965 61.1114C133.051 60.7267 132.089 60.5344 131.08 60.5344C130.07 60.5344 129.108 60.7267 128.194 61.1114C127.281 61.4962 126.487 62.0251 125.814 62.6984C125.141 63.3716 124.612 64.1651 124.227 65.0788C123.842 65.9925 123.65 66.9543 123.65 67.9642V90.8306H138.509Z"/>
<path d="M151.252 60.5344V51.8783L196.136 51.7339V60.3899L171.521 60.5344V108.143H162V60.5344H151.252Z"/>
<path d="M186.614 65.0788H196.136V90.8306H210.995V51.8783H220.517V108.143H210.995V99.4866H196.136V108.143H186.614V65.0788Z"/>
<path d="M225.569 80.0105C225.569 76.5 226.17 73.0616 227.373 69.6954C228.623 66.281 230.354 63.2514 232.566 60.6065C234.778 57.9135 237.447 55.7735 240.573 54.1866C243.699 52.5516 247.161 51.734 250.96 51.734C254.856 51.734 258.366 52.5516 261.492 54.1866C264.618 55.8216 267.263 57.9616 269.427 60.6065C271.639 63.2514 273.346 66.281 274.548 69.6954C275.75 73.0616 276.351 76.5 276.351 80.0105C276.351 83.521 275.75 86.9834 274.548 90.3978C273.346 93.764 271.639 96.7696 269.427 99.4145C267.263 102.059 264.618 104.199 261.492 105.834C258.366 107.469 254.856 108.287 250.96 108.287C247.065 108.287 243.555 107.469 240.429 105.834C237.303 104.199 234.634 102.059 232.422 99.4145C230.258 96.7696 228.575 93.764 227.373 90.3978C226.17 86.9834 225.569 83.521 225.569 80.0105ZM235.091 80.0105C235.091 82.7035 235.5 85.2522 236.317 87.6567C237.135 90.0131 238.265 92.0809 239.707 93.8602C241.15 95.6395 242.833 97.0581 244.757 98.1161C246.68 99.126 248.748 99.6309 250.96 99.6309C253.124 99.6309 255.168 99.126 257.092 98.1161C259.015 97.0581 260.698 95.6395 262.141 93.8602C263.584 92.0809 264.714 90.0131 265.531 87.6567C266.397 85.2522 266.83 82.7035 266.83 80.0105C266.83 77.3175 266.397 74.7928 265.531 72.4364C264.714 70.032 263.584 67.9401 262.141 66.1608C260.698 64.3815 259.015 62.9869 257.092 61.977C255.168 60.9191 253.124 60.3901 250.96 60.3901C248.412 60.3901 246.151 60.9912 244.18 62.1934C242.208 63.3957 240.549 64.9586 239.203 66.8821C237.856 68.7576 236.822 70.8736 236.101 73.2299C235.428 75.5382 235.091 77.7984 235.091 80.0105Z"/>
<path d="M281.008 51.8783H290.53L306.111 86.7911V51.8783H315.632V108.143H306.111L290.53 73.2299V108.143H281.008V51.8783Z"/>
</mask>
<path d="M5.85693 51.8783H15.3786V64.468H32.0618V51.8783H41.6421V108.143H32.0618V73.1241H15.3786V108.143H5.85693V51.8783Z" fill="#FA351A"/>
<path d="M44.812 51.8783H92.5708V60.5344H54.3337V86.5025H63.9021V95.7448H54.3337V101.044H72.0735V108.143H44.812V51.8783Z" fill="#FA351A"/>
<path d="M101.01 51.8783H110.532L97.3316 80.0105L110.532 108.143H101.01L92.5708 90.1814L84.1311 108.143H74.6095L87.81 80.0105L78.2883 64.1319H87.81L92.5708 71.7397L101.01 51.8783Z" fill="#FA351A"/>
<path d="M138.509 99.4866H123.65V108.143H114.128V67.9642C114.128 65.752 114.561 63.6842 115.427 61.7606C116.34 59.789 117.566 58.0818 119.105 56.6391C120.644 55.1484 122.424 53.9942 124.443 53.1767C126.511 52.3111 128.723 51.8783 131.08 51.8783C133.436 51.8783 135.624 52.3111 137.644 53.1767C139.712 53.9942 141.515 55.1484 143.054 56.6391C144.593 58.0818 145.795 59.789 146.66 61.7606C147.574 63.6842 148.031 65.752 148.031 67.9642V108.143H138.509V99.4866ZM138.509 90.8306V67.9642C138.509 66.9543 138.317 65.9925 137.932 65.0788C137.548 64.1651 137.019 63.3716 136.345 62.6984C135.672 62.0251 134.879 61.4962 133.965 61.1114C133.051 60.7267 132.089 60.5344 131.08 60.5344C130.07 60.5344 129.108 60.7267 128.194 61.1114C127.281 61.4962 126.487 62.0251 125.814 62.6984C125.141 63.3716 124.612 64.1651 124.227 65.0788C123.842 65.9925 123.65 66.9543 123.65 67.9642V90.8306H138.509Z" fill="#FA351A"/>
<path d="M151.252 60.5344V51.8783L196.136 51.7339V60.3899L171.521 60.5344V108.143H162V60.5344H151.252Z" fill="#FA351A"/>
<path d="M186.614 65.0788H196.136V90.8306H210.995V51.8783H220.517V108.143H210.995V99.4866H196.136V108.143H186.614V65.0788Z" fill="#FA351A"/>
<path d="M225.569 80.0105C225.569 76.5 226.17 73.0616 227.373 69.6954C228.623 66.281 230.354 63.2514 232.566 60.6065C234.778 57.9135 237.447 55.7735 240.573 54.1866C243.699 52.5516 247.161 51.734 250.96 51.734C254.856 51.734 258.366 52.5516 261.492 54.1866C264.618 55.8216 267.263 57.9616 269.427 60.6065C271.639 63.2514 273.346 66.281 274.548 69.6954C275.75 73.0616 276.351 76.5 276.351 80.0105C276.351 83.521 275.75 86.9834 274.548 90.3978C273.346 93.764 271.639 96.7696 269.427 99.4145C267.263 102.059 264.618 104.199 261.492 105.834C258.366 107.469 254.856 108.287 250.96 108.287C247.065 108.287 243.555 107.469 240.429 105.834C237.303 104.199 234.634 102.059 232.422 99.4145C230.258 96.7696 228.575 93.764 227.373 90.3978C226.17 86.9834 225.569 83.521 225.569 80.0105ZM235.091 80.0105C235.091 82.7035 235.5 85.2522 236.317 87.6567C237.135 90.0131 238.265 92.0809 239.707 93.8602C241.15 95.6395 242.833 97.0581 244.757 98.1161C246.68 99.126 248.748 99.6309 250.96 99.6309C253.124 99.6309 255.168 99.126 257.092 98.1161C259.015 97.0581 260.698 95.6395 262.141 93.8602C263.584 92.0809 264.714 90.0131 265.531 87.6567C266.397 85.2522 266.83 82.7035 266.83 80.0105C266.83 77.3175 266.397 74.7928 265.531 72.4364C264.714 70.032 263.584 67.9401 262.141 66.1608C260.698 64.3815 259.015 62.9869 257.092 61.977C255.168 60.9191 253.124 60.3901 250.96 60.3901C248.412 60.3901 246.151 60.9912 244.18 62.1934C242.208 63.3957 240.549 64.9586 239.203 66.8821C237.856 68.7576 236.822 70.8736 236.101 73.2299C235.428 75.5382 235.091 77.7984 235.091 80.0105Z" fill="#FA351A"/>
<path d="M281.008 51.8783H290.53L306.111 86.7911V51.8783H315.632V108.143H306.111L290.53 73.2299V108.143H281.008V51.8783Z" fill="#FA351A"/>
<path d="M5.85693 51.8783H15.3786V64.468H32.0618V51.8783H41.6421V108.143H32.0618V73.1241H15.3786V108.143H5.85693V51.8783Z" stroke="black" stroke-width="4.8098" mask="url(#path-4-outside-2_22_194)"/>
<path d="M44.812 51.8783H92.5708V60.5344H54.3337V86.5025H63.9021V95.7448H54.3337V101.044H72.0735V108.143H44.812V51.8783Z" stroke="black" stroke-width="4.8098" mask="url(#path-4-outside-2_22_194)"/>
<path d="M101.01 51.8783H110.532L97.3316 80.0105L110.532 108.143H101.01L92.5708 90.1814L84.1311 108.143H74.6095L87.81 80.0105L78.2883 64.1319H87.81L92.5708 71.7397L101.01 51.8783Z" stroke="black" stroke-width="4.8098" mask="url(#path-4-outside-2_22_194)"/>
<path d="M138.509 99.4866H123.65V108.143H114.128V67.9642C114.128 65.752 114.561 63.6842 115.427 61.7606C116.34 59.789 117.566 58.0818 119.105 56.6391C120.644 55.1484 122.424 53.9942 124.443 53.1767C126.511 52.3111 128.723 51.8783 131.08 51.8783C133.436 51.8783 135.624 52.3111 137.644 53.1767C139.712 53.9942 141.515 55.1484 143.054 56.6391C144.593 58.0818 145.795 59.789 146.66 61.7606C147.574 63.6842 148.031 65.752 148.031 67.9642V108.143H138.509V99.4866ZM138.509 90.8306V67.9642C138.509 66.9543 138.317 65.9925 137.932 65.0788C137.548 64.1651 137.019 63.3716 136.345 62.6984C135.672 62.0251 134.879 61.4962 133.965 61.1114C133.051 60.7267 132.089 60.5344 131.08 60.5344C130.07 60.5344 129.108 60.7267 128.194 61.1114C127.281 61.4962 126.487 62.0251 125.814 62.6984C125.141 63.3716 124.612 64.1651 124.227 65.0788C123.842 65.9925 123.65 66.9543 123.65 67.9642V90.8306H138.509Z" stroke="black" stroke-width="4.8098" mask="url(#path-4-outside-2_22_194)"/>
<path d="M151.252 60.5344V51.8783L196.136 51.7339V60.3899L171.521 60.5344V108.143H162V60.5344H151.252Z" stroke="black" stroke-width="4.8098" mask="url(#path-4-outside-2_22_194)"/>
<path d="M186.614 65.0788H196.136V90.8306H210.995V51.8783H220.517V108.143H210.995V99.4866H196.136V108.143H186.614V65.0788Z" stroke="black" stroke-width="4.8098" mask="url(#path-4-outside-2_22_194)"/>
<path d="M225.569 80.0105C225.569 76.5 226.17 73.0616 227.373 69.6954C228.623 66.281 230.354 63.2514 232.566 60.6065C234.778 57.9135 237.447 55.7735 240.573 54.1866C243.699 52.5516 247.161 51.734 250.96 51.734C254.856 51.734 258.366 52.5516 261.492 54.1866C264.618 55.8216 267.263 57.9616 269.427 60.6065C271.639 63.2514 273.346 66.281 274.548 69.6954C275.75 73.0616 276.351 76.5 276.351 80.0105C276.351 83.521 275.75 86.9834 274.548 90.3978C273.346 93.764 271.639 96.7696 269.427 99.4145C267.263 102.059 264.618 104.199 261.492 105.834C258.366 107.469 254.856 108.287 250.96 108.287C247.065 108.287 243.555 107.469 240.429 105.834C237.303 104.199 234.634 102.059 232.422 99.4145C230.258 96.7696 228.575 93.764 227.373 90.3978C226.17 86.9834 225.569 83.521 225.569 80.0105ZM235.091 80.0105C235.091 82.7035 235.5 85.2522 236.317 87.6567C237.135 90.0131 238.265 92.0809 239.707 93.8602C241.15 95.6395 242.833 97.0581 244.757 98.1161C246.68 99.126 248.748 99.6309 250.96 99.6309C253.124 99.6309 255.168 99.126 257.092 98.1161C259.015 97.0581 260.698 95.6395 262.141 93.8602C263.584 92.0809 264.714 90.0131 265.531 87.6567C266.397 85.2522 266.83 82.7035 266.83 80.0105C266.83 77.3175 266.397 74.7928 265.531 72.4364C264.714 70.032 263.584 67.9401 262.141 66.1608C260.698 64.3815 259.015 62.9869 257.092 61.977C255.168 60.9191 253.124 60.3901 250.96 60.3901C248.412 60.3901 246.151 60.9912 244.18 62.1934C242.208 63.3957 240.549 64.9586 239.203 66.8821C237.856 68.7576 236.822 70.8736 236.101 73.2299C235.428 75.5382 235.091 77.7984 235.091 80.0105Z" stroke="black" stroke-width="4.8098" mask="url(#path-4-outside-2_22_194)"/>
<path d="M281.008 51.8783H290.53L306.111 86.7911V51.8783H315.632V108.143H306.111L290.53 73.2299V108.143H281.008V51.8783Z" stroke="black" stroke-width="4.8098" mask="url(#path-4-outside-2_22_194)"/>
<path d="M286.038 16.9003C276.839 16.8085 272.573 19.4853 272.622 34.1619C272.104 18.0847 268.473 16.5289 255.508 16.5289C268.764 16.3743 272.614 12.9042 272.622 0.45166C272.863 12.8246 276.586 16.2019 286.038 16.9003C287.193 16.9118 288.426 16.967 289.737 17.0475C288.417 17.0303 287.186 16.985 286.038 16.9003Z" fill="black"/>
<path d="M272.622 34.1619C272.567 17.6431 277.978 16.3255 289.737 17.0475C277.541 16.8891 272.892 14.3261 272.622 0.45166C272.614 12.9042 268.764 16.3743 255.508 16.5289C268.473 16.5289 272.104 18.0847 272.622 34.1619Z" stroke="black" stroke-width="0.737728"/>
<path d="M51.9076 132.977C46.1827 132.92 43.5277 134.586 43.5582 143.72C43.2355 133.714 40.9762 132.746 32.9072 132.746C41.1571 132.65 43.5531 130.49 43.5582 122.741C43.708 130.441 46.0252 132.543 51.9076 132.977C52.6262 132.985 53.3932 133.019 54.2092 133.069C53.3879 133.058 52.6215 133.03 51.9076 132.977Z" fill="black"/>
<path d="M43.5582 143.72C43.5238 133.44 46.8915 132.62 54.2092 133.069C46.6195 132.97 43.7262 131.375 43.5582 122.741C43.5531 130.49 41.1571 132.65 32.9072 132.746C40.9762 132.746 43.2355 133.714 43.5582 143.72Z" stroke="black" stroke-width="0.459118"/>
<path d="M196.729 132.365C196.389 128.805 200.847 123.794 205.752 116.906C194.742 131.106 188.539 139.447 191.458 143.615C192.293 144.807 193.952 144.818 195.299 144.266C236.124 127.547 293.758 69.3208 323.786 27.2022C325.591 24.6707 327.739 20.5845 328.11 17.4977C328.6 13.4162 324.375 12.4287 320.485 13.7577C314.296 15.872 307.316 21.5253 297.822 28.1865C308.295 21.8077 314.775 17.765 317.425 20.572C318.057 21.2414 318.117 22.1854 317.871 23.0723C310.621 49.1716 210.568 138.154 197.829 133.944C197.175 133.727 196.795 133.051 196.729 132.365Z" fill="black" stroke="black" stroke-width="0.989253"/>
<path d="M262.682 80.2442C262.682 87.8975 257.67 94.1018 251.487 94.1018C245.304 94.1018 240.292 87.8975 240.292 80.2442C240.292 72.5908 245.304 66.3867 251.487 66.3867C257.67 66.3867 262.682 72.5908 262.682 80.2442Z" stroke="#FA351A" stroke-width="0.212969" stroke-miterlimit="10"/>
<path d="M262.682 80.2443C262.682 81.5615 257.67 82.6294 251.487 82.6294C245.304 82.6294 240.292 81.5615 240.292 80.2443C240.292 78.9268 245.304 77.859 251.487 77.859C257.67 77.859 262.682 78.9268 262.682 80.2443Z" stroke="#FA351A" stroke-width="0.212969" stroke-miterlimit="10"/>
<path d="M257.94 91.435C257.94 92.1527 255.051 92.7346 251.487 92.7346C247.923 92.7346 245.034 92.1527 245.034 91.435C245.034 90.7171 247.923 90.1353 251.487 90.1353C255.051 90.1353 257.94 90.7171 257.94 91.435Z" stroke="#FA351A" stroke-width="0.212969" stroke-miterlimit="10"/>
<path d="M261.331 86.6884C261.331 87.7833 256.924 88.6709 251.487 88.6709C246.051 88.6709 241.644 87.7833 241.644 86.6884C241.644 85.5934 246.051 84.7059 251.487 84.7059C256.924 84.7059 261.331 85.5934 261.331 86.6884Z" stroke="#FA351A" stroke-width="0.212969" stroke-miterlimit="10"/>
<path d="M245.034 69.0524C245.034 68.3345 247.923 67.7528 251.487 67.7528C255.051 67.7528 257.94 68.3345 257.94 69.0524C257.94 69.7703 255.051 70.3521 251.487 70.3521C247.923 70.3521 245.034 69.7703 245.034 69.0524Z" stroke="#FA351A" stroke-width="0.212969" stroke-miterlimit="10"/>
<path d="M241.643 73.8C241.643 72.705 246.05 71.8174 251.487 71.8174C256.923 71.8174 261.33 72.705 261.33 73.8C261.33 74.8949 256.923 75.7825 251.487 75.7825C246.05 75.7825 241.643 74.8949 241.643 73.8Z" stroke="#FA351A" stroke-width="0.212969" stroke-miterlimit="10"/>
<path d="M259.14 80.2442C259.14 87.8975 255.713 94.1018 251.487 94.1018C247.261 94.1018 243.835 87.8975 243.835 80.2442C243.835 72.5908 247.261 66.3867 251.487 66.3867C255.713 66.3867 259.14 72.5908 259.14 80.2442Z" stroke="#FA351A" stroke-width="0.212969" stroke-miterlimit="10"/>
<path d="M253.854 80.2442C253.854 87.8975 252.794 94.1018 251.487 94.1018C250.18 94.1018 249.12 87.8975 249.12 80.2442C249.12 72.5908 250.18 66.3867 251.487 66.3867C252.794 66.3867 253.854 72.5908 253.854 80.2442Z" stroke="#FA351A" stroke-width="0.212969" stroke-miterlimit="10"/>
</svg>
