<svg width="153" height="120" viewBox="0 0 153 120" fill="none" xmlns="http://www.w3.org/2000/svg">
<g clip-path="url(#clip0_16_129)">
<g filter="url(#filter0_d_16_129)">
<path d="M7.33296 13.4541C6.17796 13.0931 5.09296 14.1781 5.45396 15.3331L11.673 35.2341C12.009 36.3101 13.368 36.6441 14.165 35.8471L27.847 22.1651C28.644 21.3681 28.31 20.0091 27.234 19.6731L7.33296 13.4541Z" fill="black"/>
</g>
<path d="M7.33296 13.4541C6.17796 13.0931 5.09296 14.1781 5.45396 15.3331L11.673 35.2341C12.009 36.3101 13.368 36.6441 14.165 35.8471L27.847 22.1651C28.644 21.3681 28.31 20.0091 27.234 19.6731L7.33296 13.4541Z" fill="#2BA24C"/>
</g>
<g filter="url(#filter1_dddddd_16_129)">
<rect x="32" y="23.5" width="94.31" height="40" rx="20" fill="#2BA24C"/>
<path d="M53.321 48.5V37.5909H57.0071C57.8629 37.5909 58.5625 37.7454 59.1058 38.0543C59.6527 38.3597 60.0575 38.7734 60.3203 39.2955C60.5831 39.8175 60.7145 40.3999 60.7145 41.0426C60.7145 41.6854 60.5831 42.2695 60.3203 42.7951C60.0611 43.3207 59.6598 43.7397 59.1165 44.0522C58.5732 44.3612 57.8771 44.5156 57.0284 44.5156H54.3864V43.3438H56.9858C57.5717 43.3438 58.0423 43.2425 58.3974 43.0401C58.7525 42.8377 59.0099 42.5643 59.1697 42.2198C59.3331 41.8718 59.4148 41.4794 59.4148 41.0426C59.4148 40.6058 59.3331 40.2152 59.1697 39.8707C59.0099 39.5263 58.7507 39.2564 58.392 39.0611C58.0334 38.8622 57.5575 38.7628 56.9645 38.7628H54.642V48.5H53.321ZM62.5721 48.5V40.3182H63.7865V41.554H63.8718C64.0209 41.1491 64.2908 40.8207 64.6814 40.5685C65.0721 40.3164 65.5124 40.1903 66.0025 40.1903C66.0948 40.1903 66.2102 40.1921 66.3487 40.1957C66.4872 40.1992 66.5919 40.2045 66.663 40.2116V41.4901C66.6203 41.4794 66.5227 41.4634 66.37 41.4421C66.2208 41.4173 66.0628 41.4048 65.8959 41.4048C65.4982 41.4048 65.1431 41.4883 64.8306 41.6552C64.5216 41.8185 64.2766 42.0458 64.0955 42.337C63.9179 42.6246 63.8292 42.9531 63.8292 43.3224V48.5H62.5721ZM71.1279 48.6705C70.3893 48.6705 69.7412 48.4947 69.1837 48.1431C68.6297 47.7915 68.1965 47.2997 67.884 46.6676C67.575 46.0355 67.4206 45.2969 67.4206 44.4517C67.4206 43.5994 67.575 42.8555 67.884 42.2198C68.1965 41.5842 68.6297 41.0906 69.1837 40.739C69.7412 40.3874 70.3893 40.2116 71.1279 40.2116C71.8666 40.2116 72.5129 40.3874 73.0669 40.739C73.6244 41.0906 74.0576 41.5842 74.3666 42.2198C74.6791 42.8555 74.8353 43.5994 74.8353 44.4517C74.8353 45.2969 74.6791 46.0355 74.3666 46.6676C74.0576 47.2997 73.6244 47.7915 73.0669 48.1431C72.5129 48.4947 71.8666 48.6705 71.1279 48.6705ZM71.1279 47.5412C71.689 47.5412 72.1507 47.3974 72.5129 47.1097C72.8751 46.8221 73.1432 46.4439 73.3172 45.9751C73.4912 45.5064 73.5782 44.9986 73.5782 44.4517C73.5782 43.9048 73.4912 43.3952 73.3172 42.9229C73.1432 42.4506 72.8751 42.0689 72.5129 41.7777C72.1507 41.4865 71.689 41.3409 71.1279 41.3409C70.5669 41.3409 70.1052 41.4865 69.743 41.7777C69.3808 42.0689 69.1127 42.4506 68.9387 42.9229C68.7647 43.3952 68.6777 43.9048 68.6777 44.4517C68.6777 44.9986 68.7647 45.5064 68.9387 45.9751C69.1127 46.4439 69.3808 46.8221 69.743 47.1097C70.1052 47.3974 70.5669 47.5412 71.1279 47.5412ZM81.8105 45.1548V40.3182H83.0676V48.5H81.8105V47.1151H81.7253C81.5335 47.5305 81.2352 47.8839 80.8304 48.1751C80.4256 48.4627 79.9142 48.6065 79.2963 48.6065C78.785 48.6065 78.3304 48.4947 77.9327 48.271C77.535 48.0437 77.2225 47.7028 76.9952 47.2482C76.7679 46.7901 76.6543 46.2131 76.6543 45.517V40.3182H77.9114V45.4318C77.9114 46.0284 78.0783 46.5043 78.4121 46.8594C78.7495 47.2145 79.1791 47.392 79.7012 47.392C80.0137 47.392 80.3315 47.3121 80.6546 47.1523C80.9813 46.9925 81.2548 46.7475 81.4749 46.4173C81.6987 46.087 81.8105 45.6662 81.8105 45.1548ZM85.2701 40.3182H86.5272V49.0966C86.5272 49.6009 86.4402 50.0376 86.2662 50.407C86.0957 50.7763 85.8365 51.0621 85.4885 51.2646C85.144 51.467 84.709 51.5682 84.1835 51.5682C84.1408 51.5682 84.0982 51.5682 84.0556 51.5682C84.013 51.5682 83.9704 51.5682 83.9278 51.5682V50.3963C83.9704 50.3963 84.0094 50.3963 84.045 50.3963C84.0805 50.3963 84.1195 50.3963 84.1621 50.3963C84.5457 50.3963 84.8262 50.2827 85.0038 50.0554C85.1813 49.8317 85.2701 49.5121 85.2701 49.0966V40.3182ZM85.888 38.9545C85.643 38.9545 85.4317 38.8711 85.2541 38.7042C85.0801 38.5373 84.9931 38.3366 84.9931 38.1023C84.9931 37.8679 85.0801 37.6673 85.2541 37.5004C85.4317 37.3335 85.643 37.25 85.888 37.25C86.133 37.25 86.3425 37.3335 86.5165 37.5004C86.6941 37.6673 86.7829 37.8679 86.7829 38.1023C86.7829 38.3366 86.6941 38.5373 86.5165 38.7042C86.3425 38.8711 86.133 38.9545 85.888 38.9545ZM89.9015 45.517L89.8802 43.9616H90.1359L93.7155 40.3182H95.2709L91.4569 44.1747H91.3504L89.9015 45.517ZM88.7297 48.5V37.5909H89.9868V48.5H88.7297ZM93.9285 48.5L90.7325 44.4517L91.6274 43.5781L95.5265 48.5H93.9285ZM100.347 40.3182V41.3835H96.107V40.3182H100.347ZM97.3428 38.358H98.5999V46.1562C98.5999 46.5114 98.6514 46.7777 98.7544 46.9553C98.8609 47.1293 98.9959 47.2464 99.1592 47.3068C99.3261 47.3636 99.5019 47.392 99.6866 47.392C99.8251 47.392 99.9387 47.3849 100.027 47.3707C100.116 47.353 100.187 47.3388 100.241 47.3281L100.496 48.4574C100.411 48.4893 100.292 48.5213 100.139 48.5533C99.9866 48.5888 99.7931 48.6065 99.5587 48.6065C99.2036 48.6065 98.8556 48.5302 98.5147 48.3775C98.1773 48.2248 97.8968 47.9922 97.6731 47.6797C97.4529 47.3672 97.3428 46.973 97.3428 46.4972V38.358ZM104.546 48.6918C104.027 48.6918 103.557 48.5941 103.134 48.3988C102.712 48.1999 102.376 47.9141 102.127 47.5412C101.879 47.1648 101.755 46.7102 101.755 46.1776C101.755 45.7088 101.847 45.3288 102.032 45.0376C102.216 44.7429 102.463 44.5121 102.772 44.3452C103.081 44.1783 103.422 44.054 103.795 43.9723C104.171 43.8871 104.549 43.8196 104.929 43.7699C105.426 43.706 105.829 43.658 106.138 43.6261C106.451 43.5906 106.678 43.532 106.82 43.4503C106.966 43.3686 107.039 43.2266 107.039 43.0241V42.9815C107.039 42.456 106.895 42.0476 106.607 41.7564C106.323 41.4652 105.892 41.3196 105.313 41.3196C104.713 41.3196 104.242 41.451 103.901 41.7138C103.56 41.9766 103.321 42.2571 103.182 42.5554L101.989 42.1293C102.202 41.6321 102.486 41.245 102.841 40.968C103.2 40.6875 103.59 40.4922 104.013 40.3821C104.439 40.2685 104.858 40.2116 105.27 40.2116C105.533 40.2116 105.835 40.2436 106.176 40.3075C106.52 40.3679 106.852 40.494 107.172 40.6857C107.495 40.8775 107.763 41.1669 107.976 41.554C108.189 41.9411 108.296 42.4595 108.296 43.1094V48.5H107.039V47.392H106.975C106.889 47.5696 106.747 47.7596 106.549 47.962C106.35 48.1644 106.085 48.3366 105.755 48.4787C105.425 48.6207 105.022 48.6918 104.546 48.6918ZM104.737 47.5625C105.235 47.5625 105.654 47.4648 105.995 47.2695C106.339 47.0742 106.598 46.8221 106.772 46.5131C106.95 46.2042 107.039 45.8793 107.039 45.5384V44.3878C106.985 44.4517 106.868 44.5103 106.687 44.5636C106.51 44.6133 106.304 44.6577 106.069 44.6967C105.838 44.7322 105.613 44.7642 105.393 44.7926C105.176 44.8175 105 44.8388 104.865 44.8565C104.539 44.8991 104.233 44.9684 103.949 45.0643C103.669 45.1566 103.441 45.2969 103.267 45.4851C103.097 45.6697 103.012 45.9219 103.012 46.2415C103.012 46.6783 103.173 47.0085 103.496 47.2322C103.823 47.4524 104.237 47.5625 104.737 47.5625Z" fill="white"/>
</g>
<defs>
<filter id="filter0_d_16_129" x="-8.61658" y="13.3835" width="50.9036" height="52.9036" filterUnits="userSpaceOnUse" color-interpolation-filters="sRGB">
<feFlood flood-opacity="0" result="BackgroundImageFix"/>
<feColorMatrix in="SourceAlpha" type="matrix" values="0 0 0 0 0 0 0 0 0 0 0 0 0 0 0 0 0 0 127 0" result="hardAlpha"/>
<feOffset dy="16"/>
<feGaussianBlur stdDeviation="7"/>
<feColorMatrix type="matrix" values="0 0 0 0 0 0 0 0 0 0 0 0 0 0 0 0 0 0 0.1 0"/>
<feBlend mode="normal" in2="BackgroundImageFix" result="effect1_dropShadow_16_129"/>
<feBlend mode="normal" in="SourceGraphic" in2="effect1_dropShadow_16_129" result="shape"/>
</filter>
<filter id="filter1_dddddd_16_129" x="6" y="23.5" width="146.31" height="96" filterUnits="userSpaceOnUse" color-interpolation-filters="sRGB">
<feFlood flood-opacity="0" result="BackgroundImageFix"/>
<feColorMatrix in="SourceAlpha" type="matrix" values="0 0 0 0 0 0 0 0 0 0 0 0 0 0 0 0 0 0 127 0" result="hardAlpha"/>
<feMorphology radius="4" operator="erode" in="SourceAlpha" result="effect1_dropShadow_16_129"/>
<feOffset dy="30"/>
<feGaussianBlur stdDeviation="15"/>
<feComposite in2="hardAlpha" operator="out"/>
<feColorMatrix type="matrix" values="0 0 0 0 0 0 0 0 0 0 0 0 0 0 0 0 0 0 0.02 0"/>
<feBlend mode="normal" in2="BackgroundImageFix" result="effect1_dropShadow_16_129"/>
<feColorMatrix in="SourceAlpha" type="matrix" values="0 0 0 0 0 0 0 0 0 0 0 0 0 0 0 0 0 0 127 0" result="hardAlpha"/>
<feMorphology radius="3.33333" operator="erode" in="SourceAlpha" result="effect2_dropShadow_16_129"/>
<feOffset dy="13.6468"/>
<feGaussianBlur stdDeviation="6.8234"/>
<feComposite in2="hardAlpha" operator="out"/>
<feColorMatrix type="matrix" values="0 0 0 0 0 0 0 0 0 0 0 0 0 0 0 0 0 0 0.05 0"/>
<feBlend mode="normal" in2="effect1_dropShadow_16_129" result="effect2_dropShadow_16_129"/>
<feColorMatrix in="SourceAlpha" type="matrix" values="0 0 0 0 0 0 0 0 0 0 0 0 0 0 0 0 0 0 127 0" result="hardAlpha"/>
<feMorphology radius="2.66667" operator="erode" in="SourceAlpha" result="effect3_dropShadow_16_129"/>
<feOffset dy="6.8656"/>
<feGaussianBlur stdDeviation="3.4328"/>
<feComposite in2="hardAlpha" operator="out"/>
<feColorMatrix type="matrix" values="0 0 0 0 0 0 0 0 0 0 0 0 0 0 0 0 0 0 0.067 0"/>
<feBlend mode="normal" in2="effect2_dropShadow_16_129" result="effect3_dropShadow_16_129"/>
<feColorMatrix in="SourceAlpha" type="matrix" values="0 0 0 0 0 0 0 0 0 0 0 0 0 0 0 0 0 0 127 0" result="hardAlpha"/>
<feMorphology radius="2" operator="erode" in="SourceAlpha" result="effect4_dropShadow_16_129"/>
<feOffset dy="3.62176"/>
<feGaussianBlur stdDeviation="1.81088"/>
<feComposite in2="hardAlpha" operator="out"/>
<feColorMatrix type="matrix" values="0 0 0 0 0 0 0 0 0 0 0 0 0 0 0 0 0 0 0.075 0"/>
<feBlend mode="normal" in2="effect3_dropShadow_16_129" result="effect4_dropShadow_16_129"/>
<feColorMatrix in="SourceAlpha" type="matrix" values="0 0 0 0 0 0 0 0 0 0 0 0 0 0 0 0 0 0 127 0" result="hardAlpha"/>
<feMorphology radius="1.33333" operator="erode" in="SourceAlpha" result="effect5_dropShadow_16_129"/>
<feOffset dy="1.80656"/>
<feGaussianBlur stdDeviation="0.90328"/>
<feComposite in2="hardAlpha" operator="out"/>
<feColorMatrix type="matrix" values="0 0 0 0 0 0 0 0 0 0 0 0 0 0 0 0 0 0 0.075 0"/>
<feBlend mode="normal" in2="effect4_dropShadow_16_129" result="effect5_dropShadow_16_129"/>
<feColorMatrix in="SourceAlpha" type="matrix" values="0 0 0 0 0 0 0 0 0 0 0 0 0 0 0 0 0 0 127 0" result="hardAlpha"/>
<feMorphology radius="0.666667" operator="erode" in="SourceAlpha" result="effect6_dropShadow_16_129"/>
<feOffset dy="0.706592"/>
<feGaussianBlur stdDeviation="0.353296"/>
<feComposite in2="hardAlpha" operator="out"/>
<feColorMatrix type="matrix" values="0 0 0 0 0 0 0 0 0 0 0 0 0 0 0 0 0 0 0.08 0"/>
<feBlend mode="normal" in2="effect5_dropShadow_16_129" result="effect6_dropShadow_16_129"/>
<feBlend mode="normal" in="SourceGraphic" in2="effect6_dropShadow_16_129" result="shape"/>
</filter>
<clipPath id="clip0_16_129">
<rect width="32" height="87" fill="white"/>
</clipPath>
</defs>
</svg>
