<svg width="977" height="722" viewBox="0 0 977 722" fill="none" xmlns="http://www.w3.org/2000/svg">
<path d="M890.409 546.442C880.434 568.05 860.308 584.398 831.262 595.027C802.182 605.67 764.657 610.37 721.042 608.894C633.843 605.943 523.705 578.355 411.497 526.559C299.289 474.764 206.846 408.841 148.034 344.393C118.618 312.157 97.8524 280.551 87.0873 251.515C76.3351 222.515 75.7199 196.593 85.6942 174.985C95.6685 153.377 115.795 137.03 144.841 126.4C173.921 115.758 211.446 111.058 255.061 112.534C342.26 115.485 452.398 143.073 564.606 194.868C676.814 246.663 769.257 312.587 828.068 377.035C857.485 409.27 878.25 440.877 889.015 469.912C899.768 498.912 900.383 524.834 890.409 546.442Z" fill="#FE5301" stroke="black" stroke-width="13.7746"/>
<ellipse cx="407.608" cy="154.582" rx="65.5" ry="6" fill="black"/>
<ellipse cx="412.608" cy="172.582" rx="65.5" ry="6" fill="black"/>
<ellipse cx="422.608" cy="187.582" rx="65.5" ry="6" fill="black"/>
<ellipse cx="433.608" cy="205.582" rx="65.5" ry="6" fill="black"/>
<ellipse cx="440.608" cy="220.582" rx="65.5" ry="6" fill="black"/>
<ellipse cx="553.339" cy="473.197" rx="50.3846" ry="4.61538" fill="black"/>
<ellipse cx="557.185" cy="487.044" rx="50.3846" ry="4.61538" fill="black"/>
<ellipse cx="564.878" cy="498.582" rx="50.3846" ry="4.61538" fill="black"/>
<ellipse cx="573.339" cy="512.428" rx="50.3846" ry="4.61538" fill="black"/>
<ellipse cx="578.724" cy="523.967" rx="50.3846" ry="4.61538" fill="black"/>
<path d="M309.052 433.205V377.002H383.52L403.191 292.698H309.052V236.495H415.837L434.901 156.449H491.994L472.039 236.495H556.343L574.525 156.45L632.128 156.449L612.546 236.495H674.369V292.698H599.9L580.229 377.002H674.369V433.205H567.115L548.197 521.766H491.878L510.913 433.205H427.077L407.69 521.766H351.002L370.875 433.205H309.052ZM439.723 377.002H524.027L543.698 292.698H459.394L439.723 377.002Z" fill="black"/>
<path d="M337.437 437.462V381.26H411.905L431.576 296.956H337.437V240.753H444.222L463.893 156.449H491.994H520.095L500.425 240.753H584.728L604.399 156.449H660.602L640.931 240.753H702.754V296.956H628.286L608.615 381.26H702.754V437.462H595.501L576.298 521.766H520.095L539.298 437.462H455.462L435.792 521.766H379.589L399.26 437.462H337.437ZM468.108 381.26H552.412L572.083 296.956H487.779L468.108 381.26Z" fill="#095EF7"/>
<path d="M299.827 433.205V442.43H309.052H328.212V446.688H337.437H358.395L342 519.746L339.477 530.992H351.002H367.963H379.589H407.69H415.114H435.792H443.112L444.775 523.863L462.783 446.688H498.579L482.859 519.828L480.459 530.992H491.878H508.533H520.095H548.197H555.659H576.298H583.658L585.293 523.815L602.861 446.688H702.754H711.979V437.462V381.26V372.035H702.754H683.594V367.777H674.369H621.234L635.606 306.181H702.754H711.979V296.956V240.753V231.528H702.754H683.594V227.27H674.369H653.55L669.586 158.545L672.228 147.224H660.602L643.882 147.224L632.128 147.224H604.399H597.079L574.525 147.224L567.161 147.224L565.529 154.406L548.979 227.27H513.044L529.079 158.545L531.721 147.224H520.095H503.801H491.994H463.893H456.572H434.901H427.615L425.927 154.312L408.551 227.27H309.052H299.827V236.495V292.698V301.923H309.052H328.212V306.181H337.437H390.572L376.2 367.777H309.052H299.827V377.002V433.205ZM495.099 306.181H531.079L516.706 367.777H480.727L495.099 306.181Z" stroke="black" stroke-width="18.4504"/>
<path d="M231.626 192.641C215.501 192.428 208.022 198.622 208.108 232.582C207.199 195.382 200.836 191.782 178.108 191.782C201.345 191.424 208.094 183.395 208.108 154.582C208.53 183.21 215.057 191.025 231.626 192.641C233.65 192.668 235.81 192.795 238.108 192.982C235.795 192.942 233.636 192.837 231.626 192.641Z" fill="black"/>
<path d="M208.108 232.582C208.011 194.36 217.497 191.311 238.108 192.982C216.731 192.615 208.582 186.685 208.108 154.582C208.094 183.395 201.345 191.424 178.108 191.782C200.836 191.782 207.199 195.382 208.108 232.582Z" stroke="black" stroke-width="2.94756"/>
<mask id="path-16-outside-1_24_280" maskUnits="userSpaceOnUse" x="652.108" y="488.958" width="196" height="77" fill="black">
<rect fill="white" x="652.108" y="488.958" width="196" height="77"/>
<path d="M690.729 520.965L671.928 534.891C670.489 535.974 669.642 537.489 669.642 539.149V549.9H683.785C687.257 549.9 690.052 547.447 690.052 544.488H693.355L692.677 560.58H657.108V537.128C657.108 533.665 658.886 530.418 661.935 528.181L679.974 514.759C680.482 514.399 680.821 513.821 680.821 513.244V511.296C680.821 510.285 679.889 509.492 678.703 509.492H667.016C663.544 509.492 660.665 511.945 660.665 514.904H657.447L658.124 498.812H683.954C689.12 498.812 693.355 502.42 693.355 506.822V516.13C693.355 517.934 692.423 519.738 690.729 520.965Z"/>
<path d="M702.843 552.209V507.183C702.843 502.565 707.247 498.812 712.667 498.812H729.266C734.686 498.812 739.09 502.565 739.09 507.183V552.209C739.09 556.828 734.686 560.58 729.266 560.58H712.667C707.247 560.58 702.843 556.828 702.843 552.209ZM718.256 549.9H723.592C725.201 549.9 726.556 548.746 726.556 547.375V512.017C726.556 510.646 725.201 509.492 723.592 509.492H718.256C716.647 509.492 715.377 510.646 715.377 512.017V547.375C715.377 548.746 716.647 549.9 718.256 549.9Z"/>
<path d="M783.109 520.965L764.308 534.891C762.868 535.974 762.022 537.489 762.022 539.149V549.9H776.164C779.637 549.9 782.431 547.447 782.431 544.488H785.734L785.057 560.58H749.488V537.128C749.488 533.665 751.266 530.418 754.315 528.181L772.354 514.759C772.862 514.399 773.2 513.821 773.2 513.244V511.296C773.2 510.285 772.269 509.492 771.083 509.492H759.396C755.924 509.492 753.045 511.945 753.045 514.904H749.826L750.504 498.812H776.334C781.5 498.812 785.734 502.42 785.734 506.822V516.13C785.734 517.934 784.803 519.738 783.109 520.965Z"/>
<path d="M819.928 525.15C824.84 525.15 828.059 527.243 828.059 530.345V553.58C828.059 557.477 824.417 560.58 819.928 560.58H793.336L792.659 544.488H795.877C795.877 547.447 798.756 549.9 802.229 549.9H813.916C814.762 549.9 815.525 549.251 815.525 548.529V532.582C815.525 531.789 814.762 531.211 813.916 531.211H805.786L802.991 520.532H812.73C813.492 520.532 814.17 519.955 814.17 519.305V510.718C814.17 510.069 813.492 509.492 812.73 509.492H803.668C800.196 509.492 797.317 511.945 797.317 514.904H794.099L794.776 498.812H818.404C823.824 498.812 826.704 502.853 826.704 505.956V519.089C826.704 523.202 823.062 525.15 819.928 525.15Z"/>
<path d="M705.618 516.111L686.817 530.037C685.378 531.119 684.531 532.635 684.531 534.294V545.046H698.674C702.146 545.046 704.941 542.593 704.941 539.634H708.244L707.566 555.725H671.997V532.274C671.997 528.81 673.775 525.563 676.824 523.326L694.863 509.905C695.371 509.544 695.71 508.967 695.71 508.39V506.441C695.71 505.431 694.778 504.637 693.592 504.637H681.905C678.433 504.637 675.554 507.091 675.554 510.049H672.336L673.013 493.958H698.843C704.009 493.958 708.244 497.566 708.244 501.968V511.276C708.244 513.08 707.312 514.884 705.618 516.111Z"/>
<path d="M717.732 547.355V502.328C717.732 497.71 722.136 493.958 727.556 493.958H744.155C749.575 493.958 753.979 497.71 753.979 502.328V547.355C753.979 551.973 749.575 555.725 744.155 555.725H727.556C722.136 555.725 717.732 551.973 717.732 547.355ZM733.145 545.046H738.481C740.09 545.046 741.445 543.892 741.445 542.52V507.163C741.445 505.792 740.09 504.637 738.481 504.637H733.145C731.536 504.637 730.266 505.792 730.266 507.163V542.52C730.266 543.892 731.536 545.046 733.145 545.046Z"/>
<path d="M797.998 516.111L779.197 530.037C777.757 531.119 776.911 532.635 776.911 534.294V545.046H791.053C794.526 545.046 797.32 542.593 797.32 539.634H800.623L799.946 555.725H764.377V532.274C764.377 528.81 766.155 525.563 769.204 523.326L787.243 509.905C787.751 509.544 788.089 508.967 788.089 508.39V506.441C788.089 505.431 787.158 504.637 785.972 504.637H774.285C770.813 504.637 767.934 507.091 767.934 510.049H764.715L765.393 493.958H791.223C796.389 493.958 800.623 497.566 800.623 501.968V511.276C800.623 513.08 799.692 514.884 797.998 516.111Z"/>
<path d="M834.817 520.296C839.729 520.296 842.948 522.388 842.948 525.491V548.726C842.948 552.623 839.306 555.725 834.817 555.725H808.225L807.548 539.634H810.766C810.766 542.593 813.645 545.046 817.118 545.046H828.805C829.652 545.046 830.414 544.397 830.414 543.675V527.728C830.414 526.934 829.652 526.357 828.805 526.357H820.675L817.88 515.678H827.619C828.381 515.678 829.059 515.1 829.059 514.451V505.864C829.059 505.215 828.381 504.637 827.619 504.637H818.557C815.085 504.637 812.206 507.091 812.206 510.049H808.988L809.665 493.958H833.293C838.713 493.958 841.593 497.999 841.593 501.102V514.234C841.593 518.347 837.951 520.296 834.817 520.296Z"/>
</mask>
<path d="M690.729 520.965L671.928 534.891C670.489 535.974 669.642 537.489 669.642 539.149V549.9H683.785C687.257 549.9 690.052 547.447 690.052 544.488H693.355L692.677 560.58H657.108V537.128C657.108 533.665 658.886 530.418 661.935 528.181L679.974 514.759C680.482 514.399 680.821 513.821 680.821 513.244V511.296C680.821 510.285 679.889 509.492 678.703 509.492H667.016C663.544 509.492 660.665 511.945 660.665 514.904H657.447L658.124 498.812H683.954C689.12 498.812 693.355 502.42 693.355 506.822V516.13C693.355 517.934 692.423 519.738 690.729 520.965Z" fill="black"/>
<path d="M702.843 552.209V507.183C702.843 502.565 707.247 498.812 712.667 498.812H729.266C734.686 498.812 739.09 502.565 739.09 507.183V552.209C739.09 556.828 734.686 560.58 729.266 560.58H712.667C707.247 560.58 702.843 556.828 702.843 552.209ZM718.256 549.9H723.592C725.201 549.9 726.556 548.746 726.556 547.375V512.017C726.556 510.646 725.201 509.492 723.592 509.492H718.256C716.647 509.492 715.377 510.646 715.377 512.017V547.375C715.377 548.746 716.647 549.9 718.256 549.9Z" fill="black"/>
<path d="M783.109 520.965L764.308 534.891C762.868 535.974 762.022 537.489 762.022 539.149V549.9H776.164C779.637 549.9 782.431 547.447 782.431 544.488H785.734L785.057 560.58H749.488V537.128C749.488 533.665 751.266 530.418 754.315 528.181L772.354 514.759C772.862 514.399 773.2 513.821 773.2 513.244V511.296C773.2 510.285 772.269 509.492 771.083 509.492H759.396C755.924 509.492 753.045 511.945 753.045 514.904H749.826L750.504 498.812H776.334C781.5 498.812 785.734 502.42 785.734 506.822V516.13C785.734 517.934 784.803 519.738 783.109 520.965Z" fill="black"/>
<path d="M819.928 525.15C824.84 525.15 828.059 527.243 828.059 530.345V553.58C828.059 557.477 824.417 560.58 819.928 560.58H793.336L792.659 544.488H795.877C795.877 547.447 798.756 549.9 802.229 549.9H813.916C814.762 549.9 815.525 549.251 815.525 548.529V532.582C815.525 531.789 814.762 531.211 813.916 531.211H805.786L802.991 520.532H812.73C813.492 520.532 814.17 519.955 814.17 519.305V510.718C814.17 510.069 813.492 509.492 812.73 509.492H803.668C800.196 509.492 797.317 511.945 797.317 514.904H794.099L794.776 498.812H818.404C823.824 498.812 826.704 502.853 826.704 505.956V519.089C826.704 523.202 823.062 525.15 819.928 525.15Z" fill="black"/>
<path d="M705.618 516.111L686.817 530.037C685.378 531.119 684.531 532.635 684.531 534.294V545.046H698.674C702.146 545.046 704.941 542.593 704.941 539.634H708.244L707.566 555.725H671.997V532.274C671.997 528.81 673.775 525.563 676.824 523.326L694.863 509.905C695.371 509.544 695.71 508.967 695.71 508.39V506.441C695.71 505.431 694.778 504.637 693.592 504.637H681.905C678.433 504.637 675.554 507.091 675.554 510.049H672.336L673.013 493.958H698.843C704.009 493.958 708.244 497.566 708.244 501.968V511.276C708.244 513.08 707.312 514.884 705.618 516.111Z" fill="#F7E7CD"/>
<path d="M717.732 547.355V502.328C717.732 497.71 722.136 493.958 727.556 493.958H744.155C749.575 493.958 753.979 497.71 753.979 502.328V547.355C753.979 551.973 749.575 555.725 744.155 555.725H727.556C722.136 555.725 717.732 551.973 717.732 547.355ZM733.145 545.046H738.481C740.09 545.046 741.445 543.892 741.445 542.52V507.163C741.445 505.792 740.09 504.637 738.481 504.637H733.145C731.536 504.637 730.266 505.792 730.266 507.163V542.52C730.266 543.892 731.536 545.046 733.145 545.046Z" fill="#F7E7CD"/>
<path d="M797.998 516.111L779.197 530.037C777.757 531.119 776.911 532.635 776.911 534.294V545.046H791.053C794.526 545.046 797.32 542.593 797.32 539.634H800.623L799.946 555.725H764.377V532.274C764.377 528.81 766.155 525.563 769.204 523.326L787.243 509.905C787.751 509.544 788.089 508.967 788.089 508.39V506.441C788.089 505.431 787.158 504.637 785.972 504.637H774.285C770.813 504.637 767.934 507.091 767.934 510.049H764.715L765.393 493.958H791.223C796.389 493.958 800.623 497.566 800.623 501.968V511.276C800.623 513.08 799.692 514.884 797.998 516.111Z" fill="#F7E7CD"/>
<path d="M834.817 520.296C839.729 520.296 842.948 522.388 842.948 525.491V548.726C842.948 552.623 839.306 555.725 834.817 555.725H808.225L807.548 539.634H810.766C810.766 542.593 813.645 545.046 817.118 545.046H828.805C829.652 545.046 830.414 544.397 830.414 543.675V527.728C830.414 526.934 829.652 526.357 828.805 526.357H820.675L817.88 515.678H827.619C828.381 515.678 829.059 515.1 829.059 514.451V505.864C829.059 505.215 828.381 504.637 827.619 504.637H818.557C815.085 504.637 812.206 507.091 812.206 510.049H808.988L809.665 493.958H833.293C838.713 493.958 841.593 497.999 841.593 501.102V514.234C841.593 518.347 837.951 520.296 834.817 520.296Z" fill="#F7E7CD"/>
<path d="M690.729 520.965L671.928 534.891C670.489 535.974 669.642 537.489 669.642 539.149V549.9H683.785C687.257 549.9 690.052 547.447 690.052 544.488H693.355L692.677 560.58H657.108V537.128C657.108 533.665 658.886 530.418 661.935 528.181L679.974 514.759C680.482 514.399 680.821 513.821 680.821 513.244V511.296C680.821 510.285 679.889 509.492 678.703 509.492H667.016C663.544 509.492 660.665 511.945 660.665 514.904H657.447L658.124 498.812H683.954C689.12 498.812 693.355 502.42 693.355 506.822V516.13C693.355 517.934 692.423 519.738 690.729 520.965Z" stroke="black" stroke-width="9.35276" mask="url(#path-16-outside-1_24_280)"/>
<path d="M702.843 552.209V507.183C702.843 502.565 707.247 498.812 712.667 498.812H729.266C734.686 498.812 739.09 502.565 739.09 507.183V552.209C739.09 556.828 734.686 560.58 729.266 560.58H712.667C707.247 560.58 702.843 556.828 702.843 552.209ZM718.256 549.9H723.592C725.201 549.9 726.556 548.746 726.556 547.375V512.017C726.556 510.646 725.201 509.492 723.592 509.492H718.256C716.647 509.492 715.377 510.646 715.377 512.017V547.375C715.377 548.746 716.647 549.9 718.256 549.9Z" stroke="black" stroke-width="9.35276" mask="url(#path-16-outside-1_24_280)"/>
<path d="M783.109 520.965L764.308 534.891C762.868 535.974 762.022 537.489 762.022 539.149V549.9H776.164C779.637 549.9 782.431 547.447 782.431 544.488H785.734L785.057 560.58H749.488V537.128C749.488 533.665 751.266 530.418 754.315 528.181L772.354 514.759C772.862 514.399 773.2 513.821 773.2 513.244V511.296C773.2 510.285 772.269 509.492 771.083 509.492H759.396C755.924 509.492 753.045 511.945 753.045 514.904H749.826L750.504 498.812H776.334C781.5 498.812 785.734 502.42 785.734 506.822V516.13C785.734 517.934 784.803 519.738 783.109 520.965Z" stroke="black" stroke-width="9.35276" mask="url(#path-16-outside-1_24_280)"/>
<path d="M819.928 525.15C824.84 525.15 828.059 527.243 828.059 530.345V553.58C828.059 557.477 824.417 560.58 819.928 560.58H793.336L792.659 544.488H795.877C795.877 547.447 798.756 549.9 802.229 549.9H813.916C814.762 549.9 815.525 549.251 815.525 548.529V532.582C815.525 531.789 814.762 531.211 813.916 531.211H805.786L802.991 520.532H812.73C813.492 520.532 814.17 519.955 814.17 519.305V510.718C814.17 510.069 813.492 509.492 812.73 509.492H803.668C800.196 509.492 797.317 511.945 797.317 514.904H794.099L794.776 498.812H818.404C823.824 498.812 826.704 502.853 826.704 505.956V519.089C826.704 523.202 823.062 525.15 819.928 525.15Z" stroke="black" stroke-width="9.35276" mask="url(#path-16-outside-1_24_280)"/>
<path d="M705.618 516.111L686.817 530.037C685.378 531.119 684.531 532.635 684.531 534.294V545.046H698.674C702.146 545.046 704.941 542.593 704.941 539.634H708.244L707.566 555.725H671.997V532.274C671.997 528.81 673.775 525.563 676.824 523.326L694.863 509.905C695.371 509.544 695.71 508.967 695.71 508.39V506.441C695.71 505.431 694.778 504.637 693.592 504.637H681.905C678.433 504.637 675.554 507.091 675.554 510.049H672.336L673.013 493.958H698.843C704.009 493.958 708.244 497.566 708.244 501.968V511.276C708.244 513.08 707.312 514.884 705.618 516.111Z" stroke="black" stroke-width="9.35276" mask="url(#path-16-outside-1_24_280)"/>
<path d="M717.732 547.355V502.328C717.732 497.71 722.136 493.958 727.556 493.958H744.155C749.575 493.958 753.979 497.71 753.979 502.328V547.355C753.979 551.973 749.575 555.725 744.155 555.725H727.556C722.136 555.725 717.732 551.973 717.732 547.355ZM733.145 545.046H738.481C740.09 545.046 741.445 543.892 741.445 542.52V507.163C741.445 505.792 740.09 504.637 738.481 504.637H733.145C731.536 504.637 730.266 505.792 730.266 507.163V542.52C730.266 543.892 731.536 545.046 733.145 545.046Z" stroke="black" stroke-width="9.35276" mask="url(#path-16-outside-1_24_280)"/>
<path d="M797.998 516.111L779.197 530.037C777.757 531.119 776.911 532.635 776.911 534.294V545.046H791.053C794.526 545.046 797.32 542.593 797.32 539.634H800.623L799.946 555.725H764.377V532.274C764.377 528.81 766.155 525.563 769.204 523.326L787.243 509.905C787.751 509.544 788.089 508.967 788.089 508.39V506.441C788.089 505.431 787.158 504.637 785.972 504.637H774.285C770.813 504.637 767.934 507.091 767.934 510.049H764.715L765.393 493.958H791.223C796.389 493.958 800.623 497.566 800.623 501.968V511.276C800.623 513.08 799.692 514.884 797.998 516.111Z" stroke="black" stroke-width="9.35276" mask="url(#path-16-outside-1_24_280)"/>
<path d="M834.817 520.296C839.729 520.296 842.948 522.388 842.948 525.491V548.726C842.948 552.623 839.306 555.725 834.817 555.725H808.225L807.548 539.634H810.766C810.766 542.593 813.645 545.046 817.118 545.046H828.805C829.652 545.046 830.414 544.397 830.414 543.675V527.728C830.414 526.934 829.652 526.357 828.805 526.357H820.675L817.88 515.678H827.619C828.381 515.678 829.059 515.1 829.059 514.451V505.864C829.059 505.215 828.381 504.637 827.619 504.637H818.557C815.085 504.637 812.206 507.091 812.206 510.049H808.988L809.665 493.958H833.293C838.713 493.958 841.593 497.999 841.593 501.102V514.234C841.593 518.347 837.951 520.296 834.817 520.296Z" stroke="black" stroke-width="9.35276" mask="url(#path-16-outside-1_24_280)"/>
<mask id="path-17-outside-2_24_280" maskUnits="userSpaceOnUse" x="57.1084" y="257.167" width="876" height="167" fill="black">
<rect fill="white" x="57.1084" y="257.167" width="876" height="167"/>
<path d="M71.1084 271.521H97.1536V302.465H142.788V271.521H168.994V409.811H142.788V323.74H97.1536V409.811H71.1084V271.521Z"/>
<path d="M177.665 271.521H295.28V292.797H203.71V356.623H229.883V379.339H203.71V392.364H252.235V409.811H177.665V271.521Z"/>
<path d="M331.388 271.521H357.433L321.325 340.666L357.433 409.811H331.388L308.302 365.665L285.217 409.811H259.172L295.28 340.666L269.235 301.639H295.28L308.302 320.338L331.388 271.521Z"/>
<path d="M433.961 388.536H393.315V409.811H367.269V311.058C367.269 305.621 368.453 300.539 370.821 295.811C373.32 290.965 376.675 286.769 380.884 283.223C385.093 279.559 389.96 276.722 395.485 274.713C401.141 272.585 407.192 271.521 413.638 271.521C420.083 271.521 426.069 272.585 431.593 274.713C437.25 276.722 442.182 279.559 446.392 283.223C450.601 286.769 453.89 290.965 456.257 295.811C458.757 300.539 460.006 305.621 460.006 311.058V409.811H433.961V388.536ZM433.961 367.26V311.058C433.961 308.576 433.435 306.212 432.383 303.966C431.33 301.721 429.883 299.77 428.042 298.116C426.2 296.461 424.03 295.161 421.53 294.215C419.031 293.27 416.4 292.797 413.638 292.797C410.875 292.797 408.245 293.27 405.745 294.215C403.246 295.161 401.076 296.461 399.234 298.116C397.392 299.77 395.946 301.721 394.893 303.966C393.841 306.212 393.315 308.576 393.315 311.058V367.26H433.961Z"/>
<path d="M468.816 292.797V271.521L591.59 271.167V292.442L524.261 292.797V409.811H498.215V292.797H468.816Z"/>
<path d="M565.545 303.966H591.59V367.26H632.237V271.521H658.282V409.811H632.237V388.536H591.59V409.811H565.545V303.966Z"/>
<path d="M672.102 340.666C672.102 332.038 673.746 323.587 677.034 315.313C680.454 306.921 685.19 299.475 691.241 292.974C697.292 286.355 704.592 281.095 713.142 277.195C721.693 273.176 731.164 271.167 741.555 271.167C752.21 271.167 761.813 273.176 770.363 277.195C778.913 281.214 786.148 286.473 792.067 292.974C798.118 299.475 802.788 306.921 806.076 315.313C809.365 323.587 811.009 332.038 811.009 340.666C811.009 349.295 809.365 357.805 806.076 366.197C802.788 374.47 798.118 381.858 792.067 388.358C786.148 394.859 778.913 400.119 770.363 404.138C761.813 408.156 752.21 410.166 741.555 410.166C730.901 410.166 721.298 408.156 712.748 404.138C704.198 400.119 696.897 394.859 690.846 388.358C684.927 381.858 680.323 374.47 677.034 366.197C673.746 357.805 672.102 349.295 672.102 340.666ZM698.147 340.666C698.147 347.285 699.265 353.55 701.501 359.459C703.737 365.251 706.828 370.334 710.775 374.707C714.721 379.08 719.325 382.567 724.587 385.167C729.848 387.649 735.505 388.89 741.555 388.89C747.475 388.89 753.065 387.649 758.327 385.167C763.589 382.567 768.193 379.08 772.139 374.707C776.085 370.334 779.176 365.251 781.412 359.459C783.78 353.55 784.964 347.285 784.964 340.666C784.964 334.047 783.78 327.842 781.412 322.05C779.176 316.141 776.085 310.999 772.139 306.626C768.193 302.252 763.589 298.825 758.327 296.343C753.065 293.742 747.475 292.442 741.555 292.442C734.584 292.442 728.401 293.92 723.008 296.875C717.615 299.829 713.077 303.671 709.394 308.399C705.71 313.008 702.882 318.209 700.909 324.001C699.068 329.674 698.147 335.229 698.147 340.666Z"/>
<path d="M823.747 271.521H849.792L892.411 357.332V271.521H918.457V409.811H892.411L849.792 324.001V409.811H823.747V271.521Z"/>
</mask>
<path d="M71.1084 271.521H97.1536V302.465H142.788V271.521H168.994V409.811H142.788V323.74H97.1536V409.811H71.1084V271.521Z" fill="black"/>
<path d="M177.665 271.521H295.28V292.797H203.71V356.623H229.883V379.339H203.71V392.364H252.235V409.811H177.665V271.521Z" fill="black"/>
<path d="M331.388 271.521H357.433L321.325 340.666L357.433 409.811H331.388L308.302 365.665L285.217 409.811H259.172L295.28 340.666L269.235 301.639H295.28L308.302 320.338L331.388 271.521Z" fill="black"/>
<path d="M433.961 388.536H393.315V409.811H367.269V311.058C367.269 305.621 368.453 300.539 370.821 295.811C373.32 290.965 376.675 286.769 380.884 283.223C385.093 279.559 389.96 276.722 395.485 274.713C401.141 272.585 407.192 271.521 413.638 271.521C420.083 271.521 426.069 272.585 431.593 274.713C437.25 276.722 442.182 279.559 446.392 283.223C450.601 286.769 453.89 290.965 456.257 295.811C458.757 300.539 460.006 305.621 460.006 311.058V409.811H433.961V388.536ZM433.961 367.26V311.058C433.961 308.576 433.435 306.212 432.383 303.966C431.33 301.721 429.883 299.77 428.042 298.116C426.2 296.461 424.03 295.161 421.53 294.215C419.031 293.27 416.4 292.797 413.638 292.797C410.875 292.797 408.245 293.27 405.745 294.215C403.246 295.161 401.076 296.461 399.234 298.116C397.392 299.77 395.946 301.721 394.893 303.966C393.841 306.212 393.315 308.576 393.315 311.058V367.26H433.961Z" fill="black"/>
<path d="M468.816 292.797V271.521L591.59 271.167V292.442L524.261 292.797V409.811H498.215V292.797H468.816Z" fill="black"/>
<path d="M565.545 303.966H591.59V367.26H632.237V271.521H658.282V409.811H632.237V388.536H591.59V409.811H565.545V303.966Z" fill="black"/>
<path d="M672.102 340.666C672.102 332.038 673.746 323.587 677.034 315.313C680.454 306.921 685.19 299.475 691.241 292.974C697.292 286.355 704.592 281.095 713.142 277.195C721.693 273.176 731.164 271.167 741.555 271.167C752.21 271.167 761.813 273.176 770.363 277.195C778.913 281.214 786.148 286.473 792.067 292.974C798.118 299.475 802.788 306.921 806.076 315.313C809.365 323.587 811.009 332.038 811.009 340.666C811.009 349.295 809.365 357.805 806.076 366.197C802.788 374.47 798.118 381.858 792.067 388.358C786.148 394.859 778.913 400.119 770.363 404.138C761.813 408.156 752.21 410.166 741.555 410.166C730.901 410.166 721.298 408.156 712.748 404.138C704.198 400.119 696.897 394.859 690.846 388.358C684.927 381.858 680.323 374.47 677.034 366.197C673.746 357.805 672.102 349.295 672.102 340.666ZM698.147 340.666C698.147 347.285 699.265 353.55 701.501 359.459C703.737 365.251 706.828 370.334 710.775 374.707C714.721 379.08 719.325 382.567 724.587 385.167C729.848 387.649 735.505 388.89 741.555 388.89C747.475 388.89 753.065 387.649 758.327 385.167C763.589 382.567 768.193 379.08 772.139 374.707C776.085 370.334 779.176 365.251 781.412 359.459C783.78 353.55 784.964 347.285 784.964 340.666C784.964 334.047 783.78 327.842 781.412 322.05C779.176 316.141 776.085 310.999 772.139 306.626C768.193 302.252 763.589 298.825 758.327 296.343C753.065 293.742 747.475 292.442 741.555 292.442C734.584 292.442 728.401 293.92 723.008 296.875C717.615 299.829 713.077 303.671 709.394 308.399C705.71 313.008 702.882 318.209 700.909 324.001C699.068 329.674 698.147 335.229 698.147 340.666Z" fill="black"/>
<path d="M823.747 271.521H849.792L892.411 357.332V271.521H918.457V409.811H892.411L849.792 324.001V409.811H823.747V271.521Z" fill="black"/>
<path d="M71.1084 271.521H97.1536V302.465H142.788V271.521H168.994V409.811H142.788V323.74H97.1536V409.811H71.1084V271.521Z" stroke="black" stroke-width="27.7022" mask="url(#path-17-outside-2_24_280)"/>
<path d="M177.665 271.521H295.28V292.797H203.71V356.623H229.883V379.339H203.71V392.364H252.235V409.811H177.665V271.521Z" stroke="black" stroke-width="27.7022" mask="url(#path-17-outside-2_24_280)"/>
<path d="M331.388 271.521H357.433L321.325 340.666L357.433 409.811H331.388L308.302 365.665L285.217 409.811H259.172L295.28 340.666L269.235 301.639H295.28L308.302 320.338L331.388 271.521Z" stroke="black" stroke-width="27.7022" mask="url(#path-17-outside-2_24_280)"/>
<path d="M433.961 388.536H393.315V409.811H367.269V311.058C367.269 305.621 368.453 300.539 370.821 295.811C373.32 290.965 376.675 286.769 380.884 283.223C385.093 279.559 389.96 276.722 395.485 274.713C401.141 272.585 407.192 271.521 413.638 271.521C420.083 271.521 426.069 272.585 431.593 274.713C437.25 276.722 442.182 279.559 446.392 283.223C450.601 286.769 453.89 290.965 456.257 295.811C458.757 300.539 460.006 305.621 460.006 311.058V409.811H433.961V388.536ZM433.961 367.26V311.058C433.961 308.576 433.435 306.212 432.383 303.966C431.33 301.721 429.883 299.77 428.042 298.116C426.2 296.461 424.03 295.161 421.53 294.215C419.031 293.27 416.4 292.797 413.638 292.797C410.875 292.797 408.245 293.27 405.745 294.215C403.246 295.161 401.076 296.461 399.234 298.116C397.392 299.77 395.946 301.721 394.893 303.966C393.841 306.212 393.315 308.576 393.315 311.058V367.26H433.961Z" stroke="black" stroke-width="27.7022" mask="url(#path-17-outside-2_24_280)"/>
<path d="M468.816 292.797V271.521L591.59 271.167V292.442L524.261 292.797V409.811H498.215V292.797H468.816Z" stroke="black" stroke-width="27.7022" mask="url(#path-17-outside-2_24_280)"/>
<path d="M565.545 303.966H591.59V367.26H632.237V271.521H658.282V409.811H632.237V388.536H591.59V409.811H565.545V303.966Z" stroke="black" stroke-width="27.7022" mask="url(#path-17-outside-2_24_280)"/>
<path d="M672.102 340.666C672.102 332.038 673.746 323.587 677.034 315.313C680.454 306.921 685.19 299.475 691.241 292.974C697.292 286.355 704.592 281.095 713.142 277.195C721.693 273.176 731.164 271.167 741.555 271.167C752.21 271.167 761.813 273.176 770.363 277.195C778.913 281.214 786.148 286.473 792.067 292.974C798.118 299.475 802.788 306.921 806.076 315.313C809.365 323.587 811.009 332.038 811.009 340.666C811.009 349.295 809.365 357.805 806.076 366.197C802.788 374.47 798.118 381.858 792.067 388.358C786.148 394.859 778.913 400.119 770.363 404.138C761.813 408.156 752.21 410.166 741.555 410.166C730.901 410.166 721.298 408.156 712.748 404.138C704.198 400.119 696.897 394.859 690.846 388.358C684.927 381.858 680.323 374.47 677.034 366.197C673.746 357.805 672.102 349.295 672.102 340.666ZM698.147 340.666C698.147 347.285 699.265 353.55 701.501 359.459C703.737 365.251 706.828 370.334 710.775 374.707C714.721 379.08 719.325 382.567 724.587 385.167C729.848 387.649 735.505 388.89 741.555 388.89C747.475 388.89 753.065 387.649 758.327 385.167C763.589 382.567 768.193 379.08 772.139 374.707C776.085 370.334 779.176 365.251 781.412 359.459C783.78 353.55 784.964 347.285 784.964 340.666C784.964 334.047 783.78 327.842 781.412 322.05C779.176 316.141 776.085 310.999 772.139 306.626C768.193 302.252 763.589 298.825 758.327 296.343C753.065 293.742 747.475 292.442 741.555 292.442C734.584 292.442 728.401 293.92 723.008 296.875C717.615 299.829 713.077 303.671 709.394 308.399C705.71 313.008 702.882 318.209 700.909 324.001C699.068 329.674 698.147 335.229 698.147 340.666Z" stroke="black" stroke-width="27.7022" mask="url(#path-17-outside-2_24_280)"/>
<path d="M823.747 271.521H849.792L892.411 357.332V271.521H918.457V409.811H892.411L849.792 324.001V409.811H823.747V271.521Z" stroke="black" stroke-width="27.7022" mask="url(#path-17-outside-2_24_280)"/>
<rect x="400.99" y="300.253" width="26.2055" height="60.9449" fill="black"/>
<ellipse cx="739.35" cy="340.421" rx="37.7668" ry="42.9385" fill="black"/>
<mask id="path-20-outside-3_24_280" maskUnits="userSpaceOnUse" x="65.1907" y="256.625" width="865" height="157" fill="black">
<rect fill="white" x="65.1907" y="256.625" width="865" height="157"/>
<path d="M74.1907 265.98H100.236V296.923H145.871V265.98H172.076V404.269H145.871V318.199H100.236V404.269H74.1907V265.98Z"/>
<path d="M180.747 265.98H311.385V287.255H206.792V351.081H232.965V373.797H206.792V386.822H255.317V404.269H180.747V265.98Z"/>
<path d="M334.47 265.98H360.515L324.407 335.125L360.515 404.269H334.47L311.385 360.123L288.299 404.269H262.254L298.362 335.125L272.317 296.097H298.362L311.385 314.796L334.47 265.98Z"/>
<path d="M437.043 382.994H396.397V404.269H370.352V305.516C370.352 300.079 371.536 294.997 373.903 290.269C376.403 285.423 379.757 281.227 383.966 277.681C388.176 274.017 393.043 271.18 398.567 269.171C404.224 267.043 410.275 265.98 416.72 265.98C423.166 265.98 429.151 267.043 434.676 269.171C440.332 271.18 445.265 274.017 449.474 277.681C453.683 281.227 456.972 285.423 459.34 290.269C461.839 294.997 463.089 300.079 463.089 305.516V404.269H437.043V382.994ZM437.043 361.719V305.516C437.043 303.034 436.517 300.67 435.465 298.425C434.412 296.179 432.966 294.229 431.124 292.574C429.282 290.919 427.112 289.619 424.613 288.673C422.113 287.728 419.482 287.255 416.72 287.255C413.958 287.255 411.327 287.728 408.828 288.673C406.328 289.619 404.158 290.919 402.316 292.574C400.475 294.229 399.028 296.179 397.975 298.425C396.923 300.67 396.397 303.034 396.397 305.516V361.719H437.043Z"/>
<path d="M471.898 287.255V265.98L594.673 265.625V286.9L527.343 287.255V404.269H501.298V287.255H471.898Z"/>
<path d="M568.627 298.425H594.673V361.719H635.319V265.98H661.364V404.269H635.319V382.994H594.673V404.269H568.627V298.425Z"/>
<path d="M675.184 335.125C675.184 326.496 676.828 318.045 680.117 309.771C683.537 301.379 688.272 293.933 694.323 287.432C700.374 280.813 707.675 275.554 716.225 271.653C724.775 267.634 734.246 265.625 744.638 265.625C755.293 265.625 764.895 267.634 773.445 271.653C781.995 275.672 789.23 280.932 795.15 287.432C801.201 293.933 805.87 301.379 809.159 309.771C812.447 318.045 814.092 326.496 814.092 335.125C814.092 343.753 812.447 352.263 809.159 360.655C805.87 368.929 801.201 376.316 795.15 382.817C789.23 389.317 781.995 394.577 773.445 398.596C764.895 402.615 755.293 404.624 744.638 404.624C733.983 404.624 724.38 402.615 715.83 398.596C707.28 394.577 699.979 389.317 693.928 382.817C688.009 376.316 683.405 368.929 680.117 360.655C676.828 352.263 675.184 343.753 675.184 335.125ZM701.229 335.125C701.229 341.743 702.347 348.008 704.583 353.918C706.819 359.709 709.911 364.792 713.857 369.165C717.803 373.538 722.407 377.025 727.669 379.625C732.93 382.108 738.587 383.349 744.638 383.349C750.557 383.349 756.148 382.108 761.409 379.625C766.671 377.025 771.275 373.538 775.221 369.165C779.167 364.792 782.259 359.709 784.495 353.918C786.862 348.008 788.046 341.743 788.046 335.125C788.046 328.506 786.862 322.3 784.495 316.509C782.259 310.599 779.167 305.457 775.221 301.084C771.275 296.711 766.671 293.283 761.409 290.801C756.148 288.201 750.557 286.9 744.638 286.9C737.666 286.9 731.484 288.378 726.09 291.333C720.697 294.288 716.159 298.129 712.476 302.857C708.793 307.467 705.964 312.667 703.991 318.459C702.15 324.132 701.229 329.687 701.229 335.125Z"/>
<path d="M826.829 265.98H852.874L895.494 351.79V265.98H921.539V404.269H895.494L852.874 318.459V404.269H826.829V265.98Z"/>
</mask>
<path d="M74.1907 265.98H100.236V296.923H145.871V265.98H172.076V404.269H145.871V318.199H100.236V404.269H74.1907V265.98Z" fill="#F6C707"/>
<path d="M180.747 265.98H311.385V287.255H206.792V351.081H232.965V373.797H206.792V386.822H255.317V404.269H180.747V265.98Z" fill="#F6C707"/>
<path d="M334.47 265.98H360.515L324.407 335.125L360.515 404.269H334.47L311.385 360.123L288.299 404.269H262.254L298.362 335.125L272.317 296.097H298.362L311.385 314.796L334.47 265.98Z" fill="#F6C707"/>
<path d="M437.043 382.994H396.397V404.269H370.352V305.516C370.352 300.079 371.536 294.997 373.903 290.269C376.403 285.423 379.757 281.227 383.966 277.681C388.176 274.017 393.043 271.18 398.567 269.171C404.224 267.043 410.275 265.98 416.72 265.98C423.166 265.98 429.151 267.043 434.676 269.171C440.332 271.18 445.265 274.017 449.474 277.681C453.683 281.227 456.972 285.423 459.34 290.269C461.839 294.997 463.089 300.079 463.089 305.516V404.269H437.043V382.994ZM437.043 361.719V305.516C437.043 303.034 436.517 300.67 435.465 298.425C434.412 296.179 432.966 294.229 431.124 292.574C429.282 290.919 427.112 289.619 424.613 288.673C422.113 287.728 419.482 287.255 416.72 287.255C413.958 287.255 411.327 287.728 408.828 288.673C406.328 289.619 404.158 290.919 402.316 292.574C400.475 294.229 399.028 296.179 397.975 298.425C396.923 300.67 396.397 303.034 396.397 305.516V361.719H437.043Z" fill="#F6C707"/>
<path d="M471.898 287.255V265.98L594.673 265.625V286.9L527.343 287.255V404.269H501.298V287.255H471.898Z" fill="#F6C707"/>
<path d="M568.627 298.425H594.673V361.719H635.319V265.98H661.364V404.269H635.319V382.994H594.673V404.269H568.627V298.425Z" fill="#F6C707"/>
<path d="M675.184 335.125C675.184 326.496 676.828 318.045 680.117 309.771C683.537 301.379 688.272 293.933 694.323 287.432C700.374 280.813 707.675 275.554 716.225 271.653C724.775 267.634 734.246 265.625 744.638 265.625C755.293 265.625 764.895 267.634 773.445 271.653C781.995 275.672 789.23 280.932 795.15 287.432C801.201 293.933 805.87 301.379 809.159 309.771C812.447 318.045 814.092 326.496 814.092 335.125C814.092 343.753 812.447 352.263 809.159 360.655C805.87 368.929 801.201 376.316 795.15 382.817C789.23 389.317 781.995 394.577 773.445 398.596C764.895 402.615 755.293 404.624 744.638 404.624C733.983 404.624 724.38 402.615 715.83 398.596C707.28 394.577 699.979 389.317 693.928 382.817C688.009 376.316 683.405 368.929 680.117 360.655C676.828 352.263 675.184 343.753 675.184 335.125ZM701.229 335.125C701.229 341.743 702.347 348.008 704.583 353.918C706.819 359.709 709.911 364.792 713.857 369.165C717.803 373.538 722.407 377.025 727.669 379.625C732.93 382.108 738.587 383.349 744.638 383.349C750.557 383.349 756.148 382.108 761.409 379.625C766.671 377.025 771.275 373.538 775.221 369.165C779.167 364.792 782.259 359.709 784.495 353.918C786.862 348.008 788.046 341.743 788.046 335.125C788.046 328.506 786.862 322.3 784.495 316.509C782.259 310.599 779.167 305.457 775.221 301.084C771.275 296.711 766.671 293.283 761.409 290.801C756.148 288.201 750.557 286.9 744.638 286.9C737.666 286.9 731.484 288.378 726.09 291.333C720.697 294.288 716.159 298.129 712.476 302.857C708.793 307.467 705.964 312.667 703.991 318.459C702.15 324.132 701.229 329.687 701.229 335.125Z" fill="#F6C707"/>
<path d="M826.829 265.98H852.874L895.494 351.79V265.98H921.539V404.269H895.494L852.874 318.459V404.269H826.829V265.98Z" fill="#F6C707"/>
<path d="M74.1907 265.98H100.236V296.923H145.871V265.98H172.076V404.269H145.871V318.199H100.236V404.269H74.1907V265.98Z" stroke="black" stroke-width="16.6213" mask="url(#path-20-outside-3_24_280)"/>
<path d="M180.747 265.98H311.385V287.255H206.792V351.081H232.965V373.797H206.792V386.822H255.317V404.269H180.747V265.98Z" stroke="black" stroke-width="16.6213" mask="url(#path-20-outside-3_24_280)"/>
<path d="M334.47 265.98H360.515L324.407 335.125L360.515 404.269H334.47L311.385 360.123L288.299 404.269H262.254L298.362 335.125L272.317 296.097H298.362L311.385 314.796L334.47 265.98Z" stroke="black" stroke-width="16.6213" mask="url(#path-20-outside-3_24_280)"/>
<path d="M437.043 382.994H396.397V404.269H370.352V305.516C370.352 300.079 371.536 294.997 373.903 290.269C376.403 285.423 379.757 281.227 383.966 277.681C388.176 274.017 393.043 271.18 398.567 269.171C404.224 267.043 410.275 265.98 416.72 265.98C423.166 265.98 429.151 267.043 434.676 269.171C440.332 271.18 445.265 274.017 449.474 277.681C453.683 281.227 456.972 285.423 459.34 290.269C461.839 294.997 463.089 300.079 463.089 305.516V404.269H437.043V382.994ZM437.043 361.719V305.516C437.043 303.034 436.517 300.67 435.465 298.425C434.412 296.179 432.966 294.229 431.124 292.574C429.282 290.919 427.112 289.619 424.613 288.673C422.113 287.728 419.482 287.255 416.72 287.255C413.958 287.255 411.327 287.728 408.828 288.673C406.328 289.619 404.158 290.919 402.316 292.574C400.475 294.229 399.028 296.179 397.975 298.425C396.923 300.67 396.397 303.034 396.397 305.516V361.719H437.043Z" stroke="black" stroke-width="16.6213" mask="url(#path-20-outside-3_24_280)"/>
<path d="M471.898 287.255V265.98L594.673 265.625V286.9L527.343 287.255V404.269H501.298V287.255H471.898Z" stroke="black" stroke-width="16.6213" mask="url(#path-20-outside-3_24_280)"/>
<path d="M568.627 298.425H594.673V361.719H635.319V265.98H661.364V404.269H635.319V382.994H594.673V404.269H568.627V298.425Z" stroke="black" stroke-width="16.6213" mask="url(#path-20-outside-3_24_280)"/>
<path d="M675.184 335.125C675.184 326.496 676.828 318.045 680.117 309.771C683.537 301.379 688.272 293.933 694.323 287.432C700.374 280.813 707.675 275.554 716.225 271.653C724.775 267.634 734.246 265.625 744.638 265.625C755.293 265.625 764.895 267.634 773.445 271.653C781.995 275.672 789.23 280.932 795.15 287.432C801.201 293.933 805.87 301.379 809.159 309.771C812.447 318.045 814.092 326.496 814.092 335.125C814.092 343.753 812.447 352.263 809.159 360.655C805.87 368.929 801.201 376.316 795.15 382.817C789.23 389.317 781.995 394.577 773.445 398.596C764.895 402.615 755.293 404.624 744.638 404.624C733.983 404.624 724.38 402.615 715.83 398.596C707.28 394.577 699.979 389.317 693.928 382.817C688.009 376.316 683.405 368.929 680.117 360.655C676.828 352.263 675.184 343.753 675.184 335.125ZM701.229 335.125C701.229 341.743 702.347 348.008 704.583 353.918C706.819 359.709 709.911 364.792 713.857 369.165C717.803 373.538 722.407 377.025 727.669 379.625C732.93 382.108 738.587 383.349 744.638 383.349C750.557 383.349 756.148 382.108 761.409 379.625C766.671 377.025 771.275 373.538 775.221 369.165C779.167 364.792 782.259 359.709 784.495 353.918C786.862 348.008 788.046 341.743 788.046 335.125C788.046 328.506 786.862 322.3 784.495 316.509C782.259 310.599 779.167 305.457 775.221 301.084C771.275 296.711 766.671 293.283 761.409 290.801C756.148 288.201 750.557 286.9 744.638 286.9C737.666 286.9 731.484 288.378 726.09 291.333C720.697 294.288 716.159 298.129 712.476 302.857C708.793 307.467 705.964 312.667 703.991 318.459C702.15 324.132 701.229 329.687 701.229 335.125Z" stroke="black" stroke-width="16.6213" mask="url(#path-20-outside-3_24_280)"/>
<path d="M826.829 265.98H852.874L895.494 351.79V265.98H921.539V404.269H895.494L852.874 318.459V404.269H826.829V265.98Z" stroke="black" stroke-width="16.6213" mask="url(#path-20-outside-3_24_280)"/>
<path d="M840.589 180.009C815.427 179.784 803.757 186.363 803.892 222.436C802.473 182.921 792.543 179.096 757.077 179.096C793.338 178.717 803.869 170.188 803.892 139.581C804.55 169.992 814.734 178.293 840.589 180.009C843.748 180.038 847.119 180.173 850.706 180.371C847.096 180.329 843.727 180.218 840.589 180.009Z" fill="black"/>
<path d="M803.892 222.436C803.74 181.835 818.542 178.597 850.706 180.371C817.347 179.982 804.63 173.682 803.892 139.581C803.869 170.188 793.338 178.717 757.077 179.096C792.543 179.096 802.473 182.921 803.892 222.436Z" stroke="black" stroke-width="2.54938"/>
<path d="M200.157 465.31C184.497 465.17 177.235 469.264 177.318 491.714C176.435 467.122 170.255 464.742 148.184 464.742C170.75 464.506 177.304 459.198 177.318 440.15C177.728 459.076 184.066 464.242 200.157 465.31C202.122 465.328 204.22 465.412 206.453 465.535C204.206 465.509 202.109 465.44 200.157 465.31Z" fill="black"/>
<path d="M177.318 491.714C177.224 466.446 186.436 464.431 206.453 465.535C185.692 465.293 177.778 461.373 177.318 440.15C177.304 459.198 170.75 464.506 148.184 464.742C170.255 464.742 176.435 467.122 177.318 491.714Z" stroke="black" stroke-width="1.58658"/>
<path d="M596.249 462.635C596.434 453.969 608.149 441.998 620.979 425.808C591.725 459.709 574.877 480.024 581.254 490.548C583.613 494.443 588.996 494.317 593.282 492.722C704.715 451.264 861.41 309.042 943.44 205.838C948.639 199.297 954.988 188.941 955.768 180.641C956.673 170.999 946.517 169.167 937.138 171.623C919.628 176.207 899.987 190.623 872.822 207.748C899.728 193.023 917.001 183.363 925.006 187.959C928.042 189.702 928.238 193.76 927.026 197.059C902.833 262.917 638.398 474.275 600.243 467.898C597.795 467.489 596.196 465.119 596.249 462.635Z" fill="black" stroke="black" stroke-width="3.41858"/>
</svg>
