<svg width="281" height="90" viewBox="0 0 281 90" fill="none" xmlns="http://www.w3.org/2000/svg">
<mask id="path-1-outside-1_394_498" maskUnits="userSpaceOnUse" x="0" y="17.9933" width="258" height="50" fill="black">
<rect fill="white" y="17.9933" width="258" height="50"/>
<path d="M5 23.0975H12.6414V32.176H26.0301V23.0975H33.7186V63.6702H26.0301V38.418H12.6414V63.6702H5V23.0975Z"/>
<path d="M36.2625 23.0975H70.7696V29.3395H43.9039V48.0653H51.5829V54.73H43.9039V58.5514H58.1406V63.6702H36.2625V23.0975Z"/>
<path d="M81.3633 23.0975H89.0047L78.411 43.3839L89.0047 63.6702H81.3633L74.5903 50.7182L67.8172 63.6702H60.1758L70.7696 43.3839L63.1282 31.9337H70.7696L74.5903 37.4197L81.3633 23.0975Z"/>
<path d="M111.457 57.4283H99.532V63.6702H91.8906V34.6971C91.8906 33.102 92.2379 31.6108 92.9326 30.2237C93.6659 28.8019 94.65 27.5709 95.885 26.5306C97.1199 25.4556 98.5479 24.6233 100.169 24.0338C101.828 23.4096 103.604 23.0975 105.495 23.0975C107.386 23.0975 109.142 23.4096 110.763 24.0338C112.422 24.6233 113.869 25.4556 115.104 26.5306C116.339 27.5709 117.304 28.8019 117.999 30.2237C118.732 31.6108 119.099 33.102 119.099 34.6971V63.6702H111.457V57.4283ZM111.457 51.1863V34.6971C111.457 33.9689 111.303 33.2754 110.994 32.6165C110.685 31.9576 110.261 31.3854 109.721 30.8999C109.18 30.4145 108.543 30.033 107.81 29.7556C107.077 29.4782 106.305 29.3395 105.495 29.3395C104.684 29.3395 103.912 29.4782 103.179 29.7556C102.446 30.033 101.809 30.4145 101.269 30.8999C100.728 31.3854 100.304 31.9576 99.9951 32.6165C99.6864 33.2754 99.532 33.9689 99.532 34.6971V51.1863H111.457Z"/>
<path d="M121.683 29.3395V23.0975L157.704 22.9933V29.2353L137.95 29.3395V63.6702H130.309V29.3395H121.683Z"/>
<path d="M150.063 32.6165H157.704V51.1863H169.629V23.0975H177.271V63.6702H169.629V57.4283H157.704V63.6702H150.063V32.6165Z"/>
<path d="M181.325 43.3839C181.325 40.8524 181.808 38.3729 182.772 35.9455C183.776 33.4834 185.165 31.2987 186.94 29.3915C188.716 27.4495 190.858 25.9064 193.366 24.762C195.875 23.583 198.653 22.9935 201.702 22.9935C204.828 22.9935 207.646 23.583 210.154 24.762C212.663 25.9411 214.785 27.4842 216.522 29.3915C218.297 31.2987 219.667 33.4834 220.632 35.9455C221.597 38.3729 222.079 40.8524 222.079 43.3839C222.079 45.9153 221.597 48.4121 220.632 50.8742C219.667 53.3016 218.297 55.469 216.522 57.3762C214.785 59.2835 212.663 60.8267 210.154 62.0057C207.646 63.1847 204.828 63.7743 201.702 63.7743C198.576 63.7743 195.759 63.1847 193.25 62.0057C190.742 60.8267 188.6 59.2835 186.825 57.3762C185.088 55.469 183.737 53.3016 182.772 50.8742C181.808 48.4121 181.325 45.9153 181.325 43.3839ZM188.967 43.3839C188.967 45.3258 189.295 47.1637 189.951 48.8976C190.607 50.5968 191.514 52.0879 192.671 53.371C193.829 54.6541 195.18 55.677 196.724 56.4399C198.267 57.1682 199.927 57.5323 201.702 57.5323C203.439 57.5323 205.079 57.1682 206.623 56.4399C208.167 55.677 209.517 54.6541 210.675 53.371C211.833 52.0879 212.74 50.5968 213.396 48.8976C214.091 47.1637 214.438 45.3258 214.438 43.3839C214.438 41.4419 214.091 39.6213 213.396 37.9221C212.74 36.1883 211.833 34.6798 210.675 33.3967C209.517 32.1137 208.167 31.108 206.623 30.3798C205.079 29.6169 203.439 29.2354 201.702 29.2354C199.657 29.2354 197.843 29.6689 196.261 30.5358C194.678 31.4028 193.347 32.5298 192.266 33.9169C191.186 35.2693 190.356 36.7951 189.777 38.4943C189.237 40.1588 188.967 41.7887 188.967 43.3839Z"/>
<path d="M225.816 23.0975H233.458L245.962 48.2734V23.0975H253.603V63.6702H245.962L233.458 38.4943V63.6702H225.816V23.0975Z"/>
</mask>
<path d="M5 23.0975H12.6414V32.176H26.0301V23.0975H33.7186V63.6702H26.0301V38.418H12.6414V63.6702H5V23.0975Z" fill="black"/>
<path d="M36.2625 23.0975H70.7696V29.3395H43.9039V48.0653H51.5829V54.73H43.9039V58.5514H58.1406V63.6702H36.2625V23.0975Z" fill="black"/>
<path d="M81.3633 23.0975H89.0047L78.411 43.3839L89.0047 63.6702H81.3633L74.5903 50.7182L67.8172 63.6702H60.1758L70.7696 43.3839L63.1282 31.9337H70.7696L74.5903 37.4197L81.3633 23.0975Z" fill="black"/>
<path d="M111.457 57.4283H99.532V63.6702H91.8906V34.6971C91.8906 33.102 92.2379 31.6108 92.9326 30.2237C93.6659 28.8019 94.65 27.5709 95.885 26.5306C97.1199 25.4556 98.5479 24.6233 100.169 24.0338C101.828 23.4096 103.604 23.0975 105.495 23.0975C107.386 23.0975 109.142 23.4096 110.763 24.0338C112.422 24.6233 113.869 25.4556 115.104 26.5306C116.339 27.5709 117.304 28.8019 117.999 30.2237C118.732 31.6108 119.099 33.102 119.099 34.6971V63.6702H111.457V57.4283ZM111.457 51.1863V34.6971C111.457 33.9689 111.303 33.2754 110.994 32.6165C110.685 31.9576 110.261 31.3854 109.721 30.8999C109.18 30.4145 108.543 30.033 107.81 29.7556C107.077 29.4782 106.305 29.3395 105.495 29.3395C104.684 29.3395 103.912 29.4782 103.179 29.7556C102.446 30.033 101.809 30.4145 101.269 30.8999C100.728 31.3854 100.304 31.9576 99.9951 32.6165C99.6864 33.2754 99.532 33.9689 99.532 34.6971V51.1863H111.457Z" fill="black"/>
<path d="M121.683 29.3395V23.0975L157.704 22.9933V29.2353L137.95 29.3395V63.6702H130.309V29.3395H121.683Z" fill="black"/>
<path d="M150.063 32.6165H157.704V51.1863H169.629V23.0975H177.271V63.6702H169.629V57.4283H157.704V63.6702H150.063V32.6165Z" fill="black"/>
<path d="M181.325 43.3839C181.325 40.8524 181.808 38.3729 182.772 35.9455C183.776 33.4834 185.165 31.2987 186.94 29.3915C188.716 27.4495 190.858 25.9064 193.366 24.762C195.875 23.583 198.653 22.9935 201.702 22.9935C204.828 22.9935 207.646 23.583 210.154 24.762C212.663 25.9411 214.785 27.4842 216.522 29.3915C218.297 31.2987 219.667 33.4834 220.632 35.9455C221.597 38.3729 222.079 40.8524 222.079 43.3839C222.079 45.9153 221.597 48.4121 220.632 50.8742C219.667 53.3016 218.297 55.469 216.522 57.3762C214.785 59.2835 212.663 60.8267 210.154 62.0057C207.646 63.1847 204.828 63.7743 201.702 63.7743C198.576 63.7743 195.759 63.1847 193.25 62.0057C190.742 60.8267 188.6 59.2835 186.825 57.3762C185.088 55.469 183.737 53.3016 182.772 50.8742C181.808 48.4121 181.325 45.9153 181.325 43.3839ZM188.967 43.3839C188.967 45.3258 189.295 47.1637 189.951 48.8976C190.607 50.5968 191.514 52.0879 192.671 53.371C193.829 54.6541 195.18 55.677 196.724 56.4399C198.267 57.1682 199.927 57.5323 201.702 57.5323C203.439 57.5323 205.079 57.1682 206.623 56.4399C208.167 55.677 209.517 54.6541 210.675 53.371C211.833 52.0879 212.74 50.5968 213.396 48.8976C214.091 47.1637 214.438 45.3258 214.438 43.3839C214.438 41.4419 214.091 39.6213 213.396 37.9221C212.74 36.1883 211.833 34.6798 210.675 33.3967C209.517 32.1137 208.167 31.108 206.623 30.3798C205.079 29.6169 203.439 29.2354 201.702 29.2354C199.657 29.2354 197.843 29.6689 196.261 30.5358C194.678 31.4028 193.347 32.5298 192.266 33.9169C191.186 35.2693 190.356 36.7951 189.777 38.4943C189.237 40.1588 188.967 41.7887 188.967 43.3839Z" fill="black"/>
<path d="M225.816 23.0975H233.458L245.962 48.2734V23.0975H253.603V63.6702H245.962L233.458 38.4943V63.6702H225.816V23.0975Z" fill="black"/>
<path d="M5 23.0975H12.6414V32.176H26.0301V23.0975H33.7186V63.6702H26.0301V38.418H12.6414V63.6702H5V23.0975Z" stroke="black" stroke-width="8.12755" mask="url(#path-1-outside-1_394_498)"/>
<path d="M36.2625 23.0975H70.7696V29.3395H43.9039V48.0653H51.5829V54.73H43.9039V58.5514H58.1406V63.6702H36.2625V23.0975Z" stroke="black" stroke-width="8.12755" mask="url(#path-1-outside-1_394_498)"/>
<path d="M81.3633 23.0975H89.0047L78.411 43.3839L89.0047 63.6702H81.3633L74.5903 50.7182L67.8172 63.6702H60.1758L70.7696 43.3839L63.1282 31.9337H70.7696L74.5903 37.4197L81.3633 23.0975Z" stroke="black" stroke-width="8.12755" mask="url(#path-1-outside-1_394_498)"/>
<path d="M111.457 57.4283H99.532V63.6702H91.8906V34.6971C91.8906 33.102 92.2379 31.6108 92.9326 30.2237C93.6659 28.8019 94.65 27.5709 95.885 26.5306C97.1199 25.4556 98.5479 24.6233 100.169 24.0338C101.828 23.4096 103.604 23.0975 105.495 23.0975C107.386 23.0975 109.142 23.4096 110.763 24.0338C112.422 24.6233 113.869 25.4556 115.104 26.5306C116.339 27.5709 117.304 28.8019 117.999 30.2237C118.732 31.6108 119.099 33.102 119.099 34.6971V63.6702H111.457V57.4283ZM111.457 51.1863V34.6971C111.457 33.9689 111.303 33.2754 110.994 32.6165C110.685 31.9576 110.261 31.3854 109.721 30.8999C109.18 30.4145 108.543 30.033 107.81 29.7556C107.077 29.4782 106.305 29.3395 105.495 29.3395C104.684 29.3395 103.912 29.4782 103.179 29.7556C102.446 30.033 101.809 30.4145 101.269 30.8999C100.728 31.3854 100.304 31.9576 99.9951 32.6165C99.6864 33.2754 99.532 33.9689 99.532 34.6971V51.1863H111.457Z" stroke="black" stroke-width="8.12755" mask="url(#path-1-outside-1_394_498)"/>
<path d="M121.683 29.3395V23.0975L157.704 22.9933V29.2353L137.95 29.3395V63.6702H130.309V29.3395H121.683Z" stroke="black" stroke-width="8.12755" mask="url(#path-1-outside-1_394_498)"/>
<path d="M150.063 32.6165H157.704V51.1863H169.629V23.0975H177.271V63.6702H169.629V57.4283H157.704V63.6702H150.063V32.6165Z" stroke="black" stroke-width="8.12755" mask="url(#path-1-outside-1_394_498)"/>
<path d="M181.325 43.3839C181.325 40.8524 181.808 38.3729 182.772 35.9455C183.776 33.4834 185.165 31.2987 186.94 29.3915C188.716 27.4495 190.858 25.9064 193.366 24.762C195.875 23.583 198.653 22.9935 201.702 22.9935C204.828 22.9935 207.646 23.583 210.154 24.762C212.663 25.9411 214.785 27.4842 216.522 29.3915C218.297 31.2987 219.667 33.4834 220.632 35.9455C221.597 38.3729 222.079 40.8524 222.079 43.3839C222.079 45.9153 221.597 48.4121 220.632 50.8742C219.667 53.3016 218.297 55.469 216.522 57.3762C214.785 59.2835 212.663 60.8267 210.154 62.0057C207.646 63.1847 204.828 63.7743 201.702 63.7743C198.576 63.7743 195.759 63.1847 193.25 62.0057C190.742 60.8267 188.6 59.2835 186.825 57.3762C185.088 55.469 183.737 53.3016 182.772 50.8742C181.808 48.4121 181.325 45.9153 181.325 43.3839ZM188.967 43.3839C188.967 45.3258 189.295 47.1637 189.951 48.8976C190.607 50.5968 191.514 52.0879 192.671 53.371C193.829 54.6541 195.18 55.677 196.724 56.4399C198.267 57.1682 199.927 57.5323 201.702 57.5323C203.439 57.5323 205.079 57.1682 206.623 56.4399C208.167 55.677 209.517 54.6541 210.675 53.371C211.833 52.0879 212.74 50.5968 213.396 48.8976C214.091 47.1637 214.438 45.3258 214.438 43.3839C214.438 41.4419 214.091 39.6213 213.396 37.9221C212.74 36.1883 211.833 34.6798 210.675 33.3967C209.517 32.1137 208.167 31.108 206.623 30.3798C205.079 29.6169 203.439 29.2354 201.702 29.2354C199.657 29.2354 197.843 29.6689 196.261 30.5358C194.678 31.4028 193.347 32.5298 192.266 33.9169C191.186 35.2693 190.356 36.7951 189.777 38.4943C189.237 40.1588 188.967 41.7887 188.967 43.3839Z" stroke="black" stroke-width="8.12755" mask="url(#path-1-outside-1_394_498)"/>
<path d="M225.816 23.0975H233.458L245.962 48.2734V23.0975H253.603V63.6702H245.962L233.458 38.4943V63.6702H225.816V23.0975Z" stroke="black" stroke-width="8.12755" mask="url(#path-1-outside-1_394_498)"/>
<rect x="103.706" y="33.4493" width="3.84422" height="14.0364" fill="black" stroke="black" stroke-width="3.84422"/>
<path d="M210.103 43.3119C210.103 49.4001 205.815 53.8777 201.055 53.8777C196.295 53.8777 192.006 49.4001 192.006 43.3119C192.006 37.2237 196.295 32.7461 201.055 32.7461C205.815 32.7461 210.103 37.2237 210.103 43.3119Z" fill="black" stroke="black" stroke-width="4.06377"/>
<mask id="path-4-outside-2_394_498" maskUnits="userSpaceOnUse" x="2.90405" y="18.3673" width="255" height="47" fill="black">
<rect fill="white" x="2.90405" y="18.3673" width="255" height="47"/>
<path d="M5.90405 21.4715H13.5454V30.55H26.9342V21.4715H34.6226V62.0442H26.9342V36.792H13.5454V62.0442H5.90405V21.4715Z"/>
<path d="M37.1666 21.4715H75.4943V27.7134H44.808V46.4393H52.4869V53.104H44.808V56.9253H59.0447V62.0442H37.1666V21.4715Z"/>
<path d="M82.2674 21.4715H89.9088L79.315 41.7578L89.9088 62.0442H82.2674L75.4943 49.0921L68.7213 62.0442H61.0799L71.6736 41.7578L64.0322 30.3076H71.6736L75.4943 35.7937L82.2674 21.4715Z"/>
<path d="M112.361 55.8022H100.436V62.0442H92.7946V33.0711C92.7946 31.4759 93.142 29.9848 93.8366 28.5977C94.5699 27.1759 95.554 25.9449 96.789 24.9045C98.024 23.8295 99.4519 22.9973 101.073 22.4077C102.732 21.7836 104.508 21.4715 106.399 21.4715C108.29 21.4715 110.046 21.7836 111.667 22.4077C113.326 22.9973 114.773 23.8295 116.008 24.9045C117.243 25.9449 118.208 27.1759 118.903 28.5977C119.636 29.9848 120.003 31.4759 120.003 33.0711V62.0442H112.361V55.8022ZM112.361 49.5603V33.0711C112.361 32.3429 112.207 31.6493 111.898 30.9904C111.589 30.3316 111.165 29.7594 110.625 29.2739C110.084 28.7884 109.447 28.407 108.714 28.1295C107.981 27.8521 107.209 27.7134 106.399 27.7134C105.588 27.7134 104.816 27.8521 104.083 28.1295C103.35 28.407 102.713 28.7884 102.173 29.2739C101.632 29.7594 101.208 30.3316 100.899 30.9904C100.59 31.6493 100.436 32.3429 100.436 33.0711V49.5603H112.361Z"/>
<path d="M122.587 27.7134V21.4715L158.608 21.3673V27.6093L138.854 27.7134V62.0442H131.213V27.7134H122.587Z"/>
<path d="M150.967 30.9904H158.608V49.5603H170.533V21.4715H178.175V62.0442H170.533V55.8022H158.608V62.0442H150.967V30.9904Z"/>
<path d="M182.229 41.7578C182.229 39.2264 182.712 36.7469 183.676 34.3195C184.68 31.8574 186.069 29.6727 187.844 27.7654C189.62 25.8235 191.762 24.2803 194.27 23.136C196.779 21.9569 199.557 21.3674 202.606 21.3674C205.732 21.3674 208.55 21.9569 211.058 23.136C213.567 24.315 215.689 25.8582 217.426 27.7654C219.201 29.6727 220.571 31.8574 221.536 34.3195C222.501 36.7469 222.983 39.2264 222.983 41.7578C222.983 44.2893 222.501 46.7861 221.536 49.2482C220.571 51.6756 219.201 53.8429 217.426 55.7502C215.689 57.6575 213.567 59.2006 211.058 60.3797C208.55 61.5587 205.732 62.1482 202.606 62.1482C199.48 62.1482 196.663 61.5587 194.154 60.3797C191.646 59.2006 189.504 57.6575 187.729 55.7502C185.992 53.8429 184.641 51.6756 183.676 49.2482C182.712 46.7861 182.229 44.2893 182.229 41.7578ZM189.871 41.7578C189.871 43.6998 190.199 45.5377 190.855 47.2715C191.511 48.9707 192.418 50.4619 193.576 51.7449C194.733 53.028 196.084 54.051 197.628 54.8139C199.171 55.5421 200.831 55.9063 202.606 55.9063C204.343 55.9063 205.983 55.5421 207.527 54.8139C209.071 54.051 210.421 53.028 211.579 51.7449C212.737 50.4619 213.644 48.9707 214.3 47.2715C214.995 45.5377 215.342 43.6998 215.342 41.7578C215.342 39.8159 214.995 37.9953 214.3 36.2961C213.644 34.5622 212.737 33.0538 211.579 31.7707C210.421 30.4876 209.071 29.482 207.527 28.7537C205.983 27.9908 204.343 27.6094 202.606 27.6094C200.561 27.6094 198.747 28.0428 197.165 28.9098C195.582 29.7767 194.251 30.9037 193.17 32.2908C192.09 33.6433 191.26 35.1691 190.681 36.8683C190.141 38.5328 189.871 40.1627 189.871 41.7578Z"/>
<path d="M226.72 21.4715H234.362L246.866 46.6474V21.4715H254.507V62.0442H246.866L234.362 36.8683V62.0442H226.72V21.4715Z"/>
</mask>
<path d="M5.90405 21.4715H13.5454V30.55H26.9342V21.4715H34.6226V62.0442H26.9342V36.792H13.5454V62.0442H5.90405V21.4715Z" fill="#F6C707"/>
<path d="M37.1666 21.4715H75.4943V27.7134H44.808V46.4393H52.4869V53.104H44.808V56.9253H59.0447V62.0442H37.1666V21.4715Z" fill="#F6C707"/>
<path d="M82.2674 21.4715H89.9088L79.315 41.7578L89.9088 62.0442H82.2674L75.4943 49.0921L68.7213 62.0442H61.0799L71.6736 41.7578L64.0322 30.3076H71.6736L75.4943 35.7937L82.2674 21.4715Z" fill="#F6C707"/>
<path d="M112.361 55.8022H100.436V62.0442H92.7946V33.0711C92.7946 31.4759 93.142 29.9848 93.8366 28.5977C94.5699 27.1759 95.554 25.9449 96.789 24.9045C98.024 23.8295 99.4519 22.9973 101.073 22.4077C102.732 21.7836 104.508 21.4715 106.399 21.4715C108.29 21.4715 110.046 21.7836 111.667 22.4077C113.326 22.9973 114.773 23.8295 116.008 24.9045C117.243 25.9449 118.208 27.1759 118.903 28.5977C119.636 29.9848 120.003 31.4759 120.003 33.0711V62.0442H112.361V55.8022ZM112.361 49.5603V33.0711C112.361 32.3429 112.207 31.6493 111.898 30.9904C111.589 30.3316 111.165 29.7594 110.625 29.2739C110.084 28.7884 109.447 28.407 108.714 28.1295C107.981 27.8521 107.209 27.7134 106.399 27.7134C105.588 27.7134 104.816 27.8521 104.083 28.1295C103.35 28.407 102.713 28.7884 102.173 29.2739C101.632 29.7594 101.208 30.3316 100.899 30.9904C100.59 31.6493 100.436 32.3429 100.436 33.0711V49.5603H112.361Z" fill="#F6C707"/>
<path d="M122.587 27.7134V21.4715L158.608 21.3673V27.6093L138.854 27.7134V62.0442H131.213V27.7134H122.587Z" fill="#F6C707"/>
<path d="M150.967 30.9904H158.608V49.5603H170.533V21.4715H178.175V62.0442H170.533V55.8022H158.608V62.0442H150.967V30.9904Z" fill="#F6C707"/>
<path d="M182.229 41.7578C182.229 39.2264 182.712 36.7469 183.676 34.3195C184.68 31.8574 186.069 29.6727 187.844 27.7654C189.62 25.8235 191.762 24.2803 194.27 23.136C196.779 21.9569 199.557 21.3674 202.606 21.3674C205.732 21.3674 208.55 21.9569 211.058 23.136C213.567 24.315 215.689 25.8582 217.426 27.7654C219.201 29.6727 220.571 31.8574 221.536 34.3195C222.501 36.7469 222.983 39.2264 222.983 41.7578C222.983 44.2893 222.501 46.7861 221.536 49.2482C220.571 51.6756 219.201 53.8429 217.426 55.7502C215.689 57.6575 213.567 59.2006 211.058 60.3797C208.55 61.5587 205.732 62.1482 202.606 62.1482C199.48 62.1482 196.663 61.5587 194.154 60.3797C191.646 59.2006 189.504 57.6575 187.729 55.7502C185.992 53.8429 184.641 51.6756 183.676 49.2482C182.712 46.7861 182.229 44.2893 182.229 41.7578ZM189.871 41.7578C189.871 43.6998 190.199 45.5377 190.855 47.2715C191.511 48.9707 192.418 50.4619 193.576 51.7449C194.733 53.028 196.084 54.051 197.628 54.8139C199.171 55.5421 200.831 55.9063 202.606 55.9063C204.343 55.9063 205.983 55.5421 207.527 54.8139C209.071 54.051 210.421 53.028 211.579 51.7449C212.737 50.4619 213.644 48.9707 214.3 47.2715C214.995 45.5377 215.342 43.6998 215.342 41.7578C215.342 39.8159 214.995 37.9953 214.3 36.2961C213.644 34.5622 212.737 33.0538 211.579 31.7707C210.421 30.4876 209.071 29.482 207.527 28.7537C205.983 27.9908 204.343 27.6094 202.606 27.6094C200.561 27.6094 198.747 28.0428 197.165 28.9098C195.582 29.7767 194.251 30.9037 193.17 32.2908C192.09 33.6433 191.26 35.1691 190.681 36.8683C190.141 38.5328 189.871 40.1627 189.871 41.7578Z" fill="#F6C707"/>
<path d="M226.72 21.4715H234.362L246.866 46.6474V21.4715H254.507V62.0442H246.866L234.362 36.8683V62.0442H226.72V21.4715Z" fill="#F6C707"/>
<path d="M5.90405 21.4715H13.5454V30.55H26.9342V21.4715H34.6226V62.0442H26.9342V36.792H13.5454V62.0442H5.90405V21.4715Z" stroke="black" stroke-width="4.87653" mask="url(#path-4-outside-2_394_498)"/>
<path d="M37.1666 21.4715H75.4943V27.7134H44.808V46.4393H52.4869V53.104H44.808V56.9253H59.0447V62.0442H37.1666V21.4715Z" stroke="black" stroke-width="4.87653" mask="url(#path-4-outside-2_394_498)"/>
<path d="M82.2674 21.4715H89.9088L79.315 41.7578L89.9088 62.0442H82.2674L75.4943 49.0921L68.7213 62.0442H61.0799L71.6736 41.7578L64.0322 30.3076H71.6736L75.4943 35.7937L82.2674 21.4715Z" stroke="black" stroke-width="4.87653" mask="url(#path-4-outside-2_394_498)"/>
<path d="M112.361 55.8022H100.436V62.0442H92.7946V33.0711C92.7946 31.4759 93.142 29.9848 93.8366 28.5977C94.5699 27.1759 95.554 25.9449 96.789 24.9045C98.024 23.8295 99.4519 22.9973 101.073 22.4077C102.732 21.7836 104.508 21.4715 106.399 21.4715C108.29 21.4715 110.046 21.7836 111.667 22.4077C113.326 22.9973 114.773 23.8295 116.008 24.9045C117.243 25.9449 118.208 27.1759 118.903 28.5977C119.636 29.9848 120.003 31.4759 120.003 33.0711V62.0442H112.361V55.8022ZM112.361 49.5603V33.0711C112.361 32.3429 112.207 31.6493 111.898 30.9904C111.589 30.3316 111.165 29.7594 110.625 29.2739C110.084 28.7884 109.447 28.407 108.714 28.1295C107.981 27.8521 107.209 27.7134 106.399 27.7134C105.588 27.7134 104.816 27.8521 104.083 28.1295C103.35 28.407 102.713 28.7884 102.173 29.2739C101.632 29.7594 101.208 30.3316 100.899 30.9904C100.59 31.6493 100.436 32.3429 100.436 33.0711V49.5603H112.361Z" stroke="black" stroke-width="4.87653" mask="url(#path-4-outside-2_394_498)"/>
<path d="M122.587 27.7134V21.4715L158.608 21.3673V27.6093L138.854 27.7134V62.0442H131.213V27.7134H122.587Z" stroke="black" stroke-width="4.87653" mask="url(#path-4-outside-2_394_498)"/>
<path d="M150.967 30.9904H158.608V49.5603H170.533V21.4715H178.175V62.0442H170.533V55.8022H158.608V62.0442H150.967V30.9904Z" stroke="black" stroke-width="4.87653" mask="url(#path-4-outside-2_394_498)"/>
<path d="M182.229 41.7578C182.229 39.2264 182.712 36.7469 183.676 34.3195C184.68 31.8574 186.069 29.6727 187.844 27.7654C189.62 25.8235 191.762 24.2803 194.27 23.136C196.779 21.9569 199.557 21.3674 202.606 21.3674C205.732 21.3674 208.55 21.9569 211.058 23.136C213.567 24.315 215.689 25.8582 217.426 27.7654C219.201 29.6727 220.571 31.8574 221.536 34.3195C222.501 36.7469 222.983 39.2264 222.983 41.7578C222.983 44.2893 222.501 46.7861 221.536 49.2482C220.571 51.6756 219.201 53.8429 217.426 55.7502C215.689 57.6575 213.567 59.2006 211.058 60.3797C208.55 61.5587 205.732 62.1482 202.606 62.1482C199.48 62.1482 196.663 61.5587 194.154 60.3797C191.646 59.2006 189.504 57.6575 187.729 55.7502C185.992 53.8429 184.641 51.6756 183.676 49.2482C182.712 46.7861 182.229 44.2893 182.229 41.7578ZM189.871 41.7578C189.871 43.6998 190.199 45.5377 190.855 47.2715C191.511 48.9707 192.418 50.4619 193.576 51.7449C194.733 53.028 196.084 54.051 197.628 54.8139C199.171 55.5421 200.831 55.9063 202.606 55.9063C204.343 55.9063 205.983 55.5421 207.527 54.8139C209.071 54.051 210.421 53.028 211.579 51.7449C212.737 50.4619 213.644 48.9707 214.3 47.2715C214.995 45.5377 215.342 43.6998 215.342 41.7578C215.342 39.8159 214.995 37.9953 214.3 36.2961C213.644 34.5622 212.737 33.0538 211.579 31.7707C210.421 30.4876 209.071 29.482 207.527 28.7537C205.983 27.9908 204.343 27.6094 202.606 27.6094C200.561 27.6094 198.747 28.0428 197.165 28.9098C195.582 29.7767 194.251 30.9037 193.17 32.2908C192.09 33.6433 191.26 35.1691 190.681 36.8683C190.141 38.5328 189.871 40.1627 189.871 41.7578Z" stroke="black" stroke-width="4.87653" mask="url(#path-4-outside-2_394_498)"/>
<path d="M226.72 21.4715H234.362L246.866 46.6474V21.4715H254.507V62.0442H246.866L234.362 36.8683V62.0442H226.72V21.4715Z" stroke="black" stroke-width="4.87653" mask="url(#path-4-outside-2_394_498)"/>
<path d="M277.032 12.8611C269.65 12.7949 266.226 14.7252 266.265 25.3086C265.849 13.7152 262.936 12.5933 252.53 12.5933C263.169 12.4818 266.259 9.97953 266.265 0.999878C266.458 9.92209 269.446 12.3575 277.032 12.8611C277.959 12.8694 278.948 12.9092 280 12.9673C278.941 12.9549 277.953 12.9222 277.032 12.8611Z" fill="black"/>
<path d="M266.265 25.3086C266.221 13.3968 270.564 12.4466 280 12.9673C270.213 12.8531 266.482 11.0049 266.265 0.999878C266.259 9.97953 263.169 12.4818 252.53 12.5933C262.936 12.5933 265.849 13.7152 266.265 25.3086Z" stroke="black" stroke-width="0.747962"/>
<path d="M183.58 80.8196C183.117 79.1532 184.578 76.1701 185.988 72.3332C182.598 80.4869 180.674 85.3743 182.419 87.0388C183.123 87.7099 184.225 87.3144 184.987 86.7034C203.53 71.8333 224.346 35.1161 233.457 10.436C234.036 8.86956 234.594 6.50717 234.224 4.88297C233.793 2.99616 231.751 3.28284 230.124 4.33486C227.087 6.2988 224.259 10.262 220.172 15.2097C224.304 10.7931 226.964 7.89855 228.769 8.18052C229.508 8.29586 229.823 9.12476 229.79 9.87453C229.177 23.9929 192.451 80.2269 184.726 81.6105C184.204 81.704 183.722 81.3307 183.58 80.8196Z" fill="black" stroke="black" stroke-width="0.729957"/>
<path d="M210.709 83.34C213.995 83.1579 216.544 82.9557 218.354 82.7332C218.182 83.2591 218.051 83.8153 217.96 84.4019C217.869 84.9885 217.823 85.5195 217.823 85.9948H206.977L206.961 85.6762C206.961 84.6851 207.25 83.8254 207.826 83.0973C208.413 82.3691 209.227 81.6965 210.269 81.0796C210.572 80.8976 211.047 80.6649 211.695 80.3818C212.534 80.0177 213.181 79.6991 213.636 79.426C214.092 79.1428 214.319 78.8647 214.319 78.5917C214.319 78.2478 214.178 77.9747 213.894 77.7724C213.611 77.5702 213.171 77.469 212.574 77.469C211.917 77.469 211.416 77.6359 211.073 77.9697C210.739 78.3034 210.572 78.7282 210.572 79.244C210.572 79.4058 210.587 79.5727 210.618 79.7446C209.343 79.5828 208.104 79.4715 206.901 79.4109C206.901 78.5512 207.123 77.7775 207.568 77.0898C208.023 76.3919 208.701 75.8407 209.601 75.4362C210.511 75.0317 211.624 74.8294 212.939 74.8294C214.142 74.8294 215.143 74.9963 215.942 75.33C216.751 75.6536 217.343 76.0683 217.717 76.574C218.102 77.0696 218.294 77.5803 218.294 78.1062C218.294 78.713 218.157 79.2339 217.884 79.6688C217.621 80.1036 217.237 80.493 216.731 80.8369C216.236 81.1706 215.568 81.5347 214.729 81.9291C214.607 81.9898 214.41 82.0606 214.137 82.1415C213.864 82.2123 213.692 82.2578 213.621 82.2781C212.903 82.4904 212.332 82.6674 211.907 82.809C211.482 82.9506 211.083 83.1276 210.709 83.34ZM225.924 86.1465C223.749 86.1465 222.146 85.6459 221.115 84.6446C220.083 83.6434 219.567 82.2528 219.567 80.4728C219.567 78.7029 220.083 77.3224 221.115 76.3313C222.157 75.33 223.76 74.8294 225.924 74.8294C228.088 74.8294 229.686 75.33 230.718 76.3313C231.749 77.3224 232.265 78.7029 232.265 80.4728C232.265 82.2528 231.749 83.6434 230.718 84.6446C229.686 85.6459 228.088 86.1465 225.924 86.1465ZM225.939 83.4917C226.869 83.4917 227.547 83.2085 227.972 82.6422C228.397 82.0657 228.609 81.3426 228.609 80.4728C228.609 79.6131 228.397 78.9001 227.972 78.3338C227.547 77.7573 226.869 77.469 225.939 77.469C224.978 77.469 224.28 77.7573 223.846 78.3338C223.421 78.9001 223.208 79.6131 223.208 80.4728C223.208 81.3324 223.421 82.0505 223.846 82.627C224.28 83.2035 224.978 83.4917 225.939 83.4917ZM237.286 83.34C240.573 83.1579 243.122 82.9557 244.932 82.7332C244.76 83.2591 244.629 83.8153 244.538 84.4019C244.447 84.9885 244.401 85.5195 244.401 85.9948H233.554L233.539 85.6762C233.539 84.6851 233.828 83.8254 234.404 83.0973C234.991 82.3691 235.805 81.6965 236.846 81.0796C237.15 80.8976 237.625 80.6649 238.272 80.3818C239.112 80.0177 239.759 79.6991 240.214 79.426C240.669 79.1428 240.897 78.8647 240.897 78.5917C240.897 78.2478 240.755 77.9747 240.472 77.7724C240.189 77.5702 239.749 77.469 239.152 77.469C238.495 77.469 237.994 77.6359 237.65 77.9697C237.317 78.3034 237.15 78.7282 237.15 79.244C237.15 79.4058 237.165 79.5727 237.195 79.7446C235.921 79.5828 234.682 79.4715 233.479 79.4109C233.479 78.5512 233.701 77.7775 234.146 77.0898C234.601 76.3919 235.279 75.8407 236.179 75.4362C237.089 75.0317 238.202 74.8294 239.516 74.8294C240.72 74.8294 241.721 74.9963 242.52 75.33C243.329 75.6536 243.921 76.0683 244.295 76.574C244.679 77.0696 244.872 77.5803 244.872 78.1062C244.872 78.713 244.735 79.2339 244.462 79.6688C244.199 80.1036 243.815 80.493 243.309 80.8369C242.813 81.1706 242.146 81.5347 241.307 81.9291C241.185 81.9898 240.988 82.0606 240.715 82.1415C240.442 82.2123 240.27 82.2578 240.199 82.2781C239.481 82.4904 238.91 82.6674 238.485 82.809C238.06 82.9506 237.661 83.1276 237.286 83.34ZM254.61 80.4121C254.974 80.3413 255.334 80.3059 255.687 80.3059C256.304 80.3059 256.805 80.4121 257.189 80.6245C257.584 80.8268 257.867 81.0897 258.039 81.4133C258.211 81.7269 258.297 82.0556 258.297 82.3994C258.297 83.1984 258.034 83.8811 257.508 84.4474C256.982 85.0037 256.269 85.4284 255.369 85.7217C254.469 86.0049 253.468 86.1465 252.365 86.1465C249.169 86.1465 247.101 85.034 246.16 82.809L247.01 82.5966C247.637 82.4449 248.168 82.3033 248.603 82.1719C249.048 82.0303 249.437 81.8735 249.771 81.7016C249.973 82.2073 250.262 82.5714 250.636 82.7939C251.02 83.0062 251.546 83.1124 252.213 83.1124C252.921 83.1124 253.498 83.0315 253.943 82.8697C254.388 82.7079 254.61 82.4652 254.61 82.1415C254.61 81.9696 254.524 81.8381 254.353 81.7471C254.181 81.6561 253.908 81.5954 253.533 81.5651C253.159 81.5246 252.633 81.5044 251.956 81.5044H250.803V78.8495H251.5C252.269 78.8495 252.896 78.8192 253.382 78.7585C253.867 78.6877 254.11 78.5411 254.11 78.3186C254.11 78.0657 253.978 77.8635 253.715 77.7118C253.463 77.5499 253.063 77.469 252.517 77.469C251.809 77.469 251.232 77.6157 250.787 77.909C250.353 78.2023 250.014 78.627 249.771 79.1833C248.689 78.7484 247.536 78.4399 246.312 78.2579C246.798 77.1656 247.541 76.3211 248.542 75.7244C249.554 75.1277 250.853 74.8294 252.441 74.8294C253.473 74.8294 254.398 74.9659 255.217 75.239C256.047 75.5019 256.694 75.8711 257.159 76.3464C257.634 76.8218 257.872 77.3527 257.872 77.9393C257.872 78.2832 257.791 78.5917 257.629 78.8647C257.467 79.1277 257.149 79.3906 256.674 79.6536C256.198 79.9064 255.511 80.1593 254.61 80.4121Z" fill="black"/>
<path d="M210.709 83.34L209.984 82.0629C209.391 82.3994 209.107 83.0998 209.3 83.7539C209.492 84.4081 210.109 84.8439 210.79 84.8062L210.709 83.34ZM218.354 82.7332L219.75 83.1895C219.906 82.712 219.807 82.188 219.488 81.8001C219.169 81.4122 218.674 81.2144 218.175 81.2757L218.354 82.7332ZM217.96 84.4019L216.509 84.1768L217.96 84.4019ZM217.823 85.9948V87.4632C218.634 87.4632 219.292 86.8058 219.292 85.9948H217.823ZM206.977 85.9948L205.51 86.0647C205.547 86.8476 206.193 87.4632 206.977 87.4632V85.9948ZM206.961 85.6762H205.493C205.493 85.6995 205.494 85.7228 205.495 85.7461L206.961 85.6762ZM207.826 83.0973L206.683 82.176L206.675 82.1858L207.826 83.0973ZM210.269 81.0796L211.017 82.3431L211.024 82.3388L210.269 81.0796ZM211.695 80.3818L211.11 79.0346L211.106 79.0364L211.695 80.3818ZM213.636 79.426L214.392 80.6852C214.399 80.6811 214.405 80.677 214.412 80.6728L213.636 79.426ZM213.894 77.7724L214.748 76.5775L214.748 76.5775L213.894 77.7724ZM211.073 77.9697L210.05 76.9159C210.045 76.921 210.039 76.9262 210.034 76.9313L211.073 77.9697ZM210.618 79.7446L210.433 81.2013C210.895 81.2601 211.359 81.0954 211.681 80.7575C212.003 80.4197 212.145 79.949 212.064 79.4894L210.618 79.7446ZM206.901 79.4109H205.432C205.432 80.1931 206.046 80.838 206.827 80.8774L206.901 79.4109ZM207.568 77.0898L206.338 76.2876L206.335 76.2921L207.568 77.0898ZM209.601 75.4362L209.005 74.0943L208.999 74.0968L209.601 75.4362ZM215.942 75.33L215.376 76.685C215.383 76.6878 215.39 76.6907 215.397 76.6934L215.942 75.33ZM217.717 76.574L216.537 77.4475C216.543 77.4563 216.55 77.4651 216.557 77.4739L217.717 76.574ZM217.884 79.6687L216.641 78.8879C216.636 78.8949 216.632 78.9019 216.628 78.909L217.884 79.6687ZM216.731 80.8369L217.551 82.0549L217.557 82.0512L216.731 80.8369ZM214.729 81.9291L214.104 80.6001C214.093 80.6052 214.083 80.6104 214.072 80.6157L214.729 81.9291ZM214.137 82.1415L214.506 83.563C214.522 83.5587 214.538 83.5542 214.554 83.5495L214.137 82.1415ZM213.621 82.2781L213.218 80.8661L213.205 80.8699L213.621 82.2781ZM211.907 82.809L211.443 81.4159H211.443L211.907 82.809ZM210.79 84.8062C214.088 84.6235 216.675 84.4191 218.534 84.1906L218.175 81.2757C216.413 81.4922 213.903 81.6924 210.627 81.8738L210.79 84.8062ZM216.959 82.2769C216.76 82.8834 216.611 83.5174 216.509 84.1768L219.411 84.6271C219.491 84.1133 219.605 83.6347 219.75 83.1895L216.959 82.2769ZM216.509 84.1768C216.409 84.8204 216.355 85.4283 216.355 85.9948H219.292C219.292 85.6107 219.329 85.1566 219.411 84.6271L216.509 84.1768ZM217.823 84.5264H206.977V87.4632H217.823V84.5264ZM208.443 85.925L208.428 85.6064L205.495 85.7461L205.51 86.0647L208.443 85.925ZM208.43 85.6762C208.43 84.9922 208.621 84.4594 208.977 84.0087L206.675 82.1858C205.879 83.1915 205.493 84.378 205.493 85.6762H208.43ZM208.97 84.0185C209.419 83.4608 210.084 82.8955 211.017 82.3431L209.52 79.8161C208.37 80.4975 207.407 81.2774 206.683 82.1761L208.97 84.0185ZM211.024 82.3388C211.244 82.2069 211.649 82.0047 212.283 81.7271L211.106 79.0364C210.446 79.3252 209.9 79.5882 209.513 79.8204L211.024 82.3388ZM212.279 81.7289C213.142 81.3547 213.856 81.0066 214.392 80.6852L212.881 78.1669C212.506 78.3916 211.926 78.6806 211.11 79.0346L212.279 81.7289ZM214.412 80.6728C214.906 80.3657 215.788 79.7059 215.788 78.5917H212.851C212.851 78.295 212.979 78.1149 213.012 78.0752C213.037 78.0443 213.012 78.0851 212.861 78.1792L214.412 80.6728ZM215.788 78.5917C215.788 77.7668 215.411 77.0515 214.748 76.5775L213.041 78.9674C213.018 78.9514 212.959 78.9002 212.909 78.8049C212.86 78.709 212.851 78.6269 212.851 78.5917H215.788ZM214.748 76.5775C214.093 76.1101 213.282 76.0006 212.574 76.0006V78.9375C212.795 78.9375 212.939 78.9567 213.023 78.976C213.108 78.9955 213.096 79.0068 213.041 78.9674L214.748 76.5775ZM212.574 76.0006C211.68 76.0006 210.756 76.2302 210.05 76.9159L212.095 79.0234C212.097 79.0222 212.1 79.019 212.109 79.0138C212.118 79.0083 212.137 78.9984 212.17 78.9873C212.239 78.9643 212.366 78.9375 212.574 78.9375V76.0006ZM210.034 76.9313C209.398 77.5674 209.104 78.3785 209.104 79.244H212.04C212.04 79.0779 212.08 79.0395 212.111 79.008L210.034 76.9313ZM209.104 79.244C209.104 79.4978 209.127 79.7502 209.171 79.9998L212.064 79.4894C212.047 79.3952 212.04 79.3138 212.04 79.244H209.104ZM210.802 78.2879C209.494 78.1217 208.218 78.007 206.975 77.9443L206.827 80.8774C207.991 80.9361 209.193 81.0439 210.433 81.2013L210.802 78.2879ZM208.369 79.4109C208.369 78.8195 208.518 78.3255 208.801 77.8875L206.335 76.2921C205.729 77.2295 205.432 78.2829 205.432 79.4109H208.369ZM208.798 77.8919C209.073 77.4701 209.511 77.0865 210.203 76.7756L208.999 74.0968C207.891 74.595 206.973 75.3138 206.338 76.2876L208.798 77.8919ZM210.197 76.7781C210.87 76.4791 211.767 76.2978 212.939 76.2978V73.361C211.481 73.361 210.153 73.5842 209.005 74.0943L210.197 76.7781ZM212.939 76.2978C214.018 76.2978 214.812 76.4492 215.376 76.685L216.508 73.975C215.475 73.5433 214.266 73.361 212.939 73.361V76.2978ZM215.397 76.6934C216.047 76.9533 216.376 77.2297 216.537 77.4475L218.898 75.7005C218.31 74.9069 217.456 74.354 216.488 73.9666L215.397 76.6934ZM216.557 77.4739C216.781 77.7632 216.825 77.9656 216.825 78.1062H219.762C219.762 77.195 219.422 76.3759 218.878 75.6741L216.557 77.4739ZM216.825 78.1062C216.825 78.4876 216.742 78.7266 216.641 78.8879L219.128 80.4496C219.573 79.7411 219.762 78.9384 219.762 78.1062H216.825ZM216.628 78.909C216.494 79.1302 216.271 79.3737 215.905 79.6226L217.557 82.0512C218.202 81.6123 218.749 81.0771 219.141 80.4285L216.628 78.909ZM215.911 79.6189C215.502 79.8944 214.908 80.2222 214.104 80.6001L215.353 83.2582C216.228 82.8472 216.969 82.4468 217.551 82.0548L215.911 79.6189ZM214.072 80.6157C214.083 80.61 214.063 80.6206 213.994 80.6457C213.928 80.6691 213.839 80.6984 213.72 80.7336L214.554 83.5495C214.841 83.4646 215.142 83.3643 215.385 83.2425L214.072 80.6157ZM213.769 80.7201C213.501 80.7893 213.31 80.8398 213.218 80.8661L214.025 83.69C214.074 83.6758 214.226 83.6353 214.506 83.563L213.769 80.7201ZM213.205 80.8699C212.48 81.0844 211.89 81.2667 211.443 81.4159L212.371 84.2021C212.773 84.0681 213.327 83.8965 214.038 83.6862L213.205 80.8699ZM211.443 81.4159C210.931 81.5864 210.444 81.8016 209.984 82.0629L211.433 84.6171C211.721 84.4536 212.033 84.3148 212.371 84.2021L211.443 81.4159ZM221.115 84.6446L220.092 85.6984L221.115 84.6446ZM221.115 76.3313L222.132 77.3902L222.132 77.39L221.115 76.3313ZM230.718 76.3313L229.695 77.385L229.7 77.3902L230.718 76.3313ZM230.718 84.6446L231.74 85.6984L230.718 84.6446ZM227.972 82.6422L229.147 83.5232L229.154 83.5132L227.972 82.6422ZM227.972 78.3338L226.79 79.2049L226.797 79.2148L227.972 78.3338ZM223.846 78.3338L222.673 77.4494L222.671 77.4527L223.846 78.3338ZM223.846 82.627L222.663 83.4981C222.667 83.5025 222.67 83.5069 222.673 83.5113L223.846 82.627ZM225.924 84.6781C223.939 84.6781 222.783 84.2173 222.138 83.5909L220.092 85.6984C221.51 87.0745 223.559 87.6149 225.924 87.6149V84.6781ZM222.138 83.5909C221.456 82.9293 221.036 81.9564 221.036 80.4728H218.099C218.099 82.5492 218.711 84.3575 220.092 85.6984L222.138 83.5909ZM221.036 80.4728C221.036 79.0014 221.454 78.0414 222.132 77.3902L220.097 75.2724C218.712 76.6034 218.099 78.4044 218.099 80.4728H221.036ZM222.132 77.39C222.791 76.757 223.953 76.2978 225.924 76.2978V73.361C223.566 73.361 221.522 73.903 220.097 75.2726L222.132 77.39ZM225.924 76.2978C227.896 76.2978 229.049 76.7576 229.695 77.385L231.74 75.2775C230.324 73.9024 228.28 73.361 225.924 73.361V76.2978ZM229.7 77.3902C230.378 78.0414 230.797 79.0014 230.797 80.4728H233.734C233.734 78.4044 233.12 76.6034 231.735 75.2724L229.7 77.3902ZM230.797 80.4728C230.797 81.9564 230.377 82.9293 229.695 83.5909L231.74 85.6984C233.122 84.3575 233.734 82.5492 233.734 80.4728H230.797ZM229.695 83.5909C229.049 84.2183 227.896 84.6781 225.924 84.6781V87.6149C228.28 87.6149 230.324 87.0735 231.74 85.6984L229.695 83.5909ZM225.939 84.9601C227.173 84.9601 228.362 84.5699 229.147 83.5232L226.797 81.7611C226.733 81.8471 226.566 82.0233 225.939 82.0233V84.9601ZM229.154 83.5132C229.802 82.6341 230.077 81.5872 230.077 80.4728H227.141C227.141 81.0979 226.991 81.4972 226.79 81.7711L229.154 83.5132ZM230.077 80.4728C230.077 79.3652 229.8 78.3239 229.147 77.4527L226.797 79.2148C226.993 79.4763 227.141 79.8611 227.141 80.4728H230.077ZM229.154 77.4627C228.373 76.4022 227.183 76.0006 225.939 76.0006V78.9375C226.556 78.9375 226.722 79.1124 226.79 79.2048L229.154 77.4627ZM225.939 76.0006C224.683 76.0006 223.472 76.3907 222.673 77.4494L225.018 79.2181C225.089 79.1238 225.274 78.9375 225.939 78.9375V76.0006ZM222.671 77.4527C222.017 78.3239 221.74 79.3652 221.74 80.4728H224.677C224.677 79.8611 224.824 79.4763 225.02 79.2148L222.671 77.4527ZM221.74 80.4728C221.74 81.5814 222.018 82.6218 222.663 83.4981L225.028 81.7559C224.824 81.4792 224.677 81.0835 224.677 80.4728H221.74ZM222.673 83.5113C223.472 84.57 224.683 84.9601 225.939 84.9601V82.0233C225.274 82.0233 225.089 81.8369 225.018 81.7426L222.673 83.5113ZM237.286 83.34L236.562 82.0629C235.969 82.3994 235.685 83.0998 235.878 83.7539C236.07 84.4081 236.687 84.8439 237.368 84.8062L237.286 83.34ZM244.932 82.7332L246.328 83.1895C246.484 82.712 246.385 82.188 246.066 81.8001C245.747 81.4122 245.252 81.2144 244.753 81.2757L244.932 82.7332ZM244.538 84.4019L243.087 84.1768L244.538 84.4019ZM244.401 85.9948V87.4632C245.212 87.4632 245.87 86.8058 245.87 85.9948H244.401ZM233.554 85.9948L232.088 86.0647C232.125 86.8476 232.771 87.4632 233.554 87.4632V85.9948ZM233.539 85.6762H232.071C232.071 85.6995 232.071 85.7228 232.073 85.7461L233.539 85.6762ZM234.404 83.0973L233.26 82.176L233.253 82.1858L234.404 83.0973ZM236.846 81.0796L237.595 82.3431L237.602 82.3388L236.846 81.0796ZM238.272 80.3818L237.688 79.0346L237.684 79.0364L238.272 80.3818ZM240.214 79.426L240.97 80.6852C240.977 80.6811 240.983 80.677 240.99 80.6728L240.214 79.426ZM240.472 77.7724L241.326 76.5775V76.5775L240.472 77.7724ZM237.65 77.9697L236.628 76.9159C236.623 76.921 236.617 76.9262 236.612 76.9313L237.65 77.9697ZM237.195 79.7446L237.01 81.2013C237.473 81.2601 237.937 81.0954 238.259 80.7575C238.58 80.4197 238.723 79.949 238.641 79.4894L237.195 79.7446ZM233.479 79.4109H232.01C232.01 80.1931 232.623 80.838 233.405 80.8774L233.479 79.4109ZM234.146 77.0898L232.916 76.2876L232.913 76.2921L234.146 77.0898ZM236.179 75.4362L235.583 74.0943L235.577 74.0968L236.179 75.4362ZM242.52 75.33L241.954 76.685C241.961 76.6878 241.968 76.6907 241.975 76.6934L242.52 75.33ZM244.295 76.574L243.115 77.4475C243.121 77.4563 243.128 77.4651 243.135 77.4739L244.295 76.574ZM244.462 79.6687L243.218 78.8879C243.214 78.8949 243.21 78.9019 243.205 78.909L244.462 79.6687ZM243.309 80.8369L244.129 82.0549L244.135 82.0512L243.309 80.8369ZM241.307 81.9291L240.682 80.6001C240.671 80.6052 240.661 80.6104 240.65 80.6157L241.307 81.9291ZM240.715 82.1415L241.083 83.563C241.1 83.5587 241.116 83.5542 241.132 83.5495L240.715 82.1415ZM240.199 82.2781L239.796 80.8661L239.783 80.8699L240.199 82.2781ZM238.485 82.809L238.02 81.4159L238.485 82.809ZM237.368 84.8062C240.666 84.6235 243.253 84.4191 245.111 84.1906L244.753 81.2757C242.991 81.4922 240.481 81.6924 237.205 81.8738L237.368 84.8062ZM243.537 82.2769C243.338 82.8834 243.189 83.5174 243.087 84.1768L245.989 84.6271C246.069 84.1133 246.182 83.6347 246.328 83.1895L243.537 82.2769ZM243.087 84.1768C242.987 84.8204 242.933 85.4283 242.933 85.9948H245.87C245.87 85.6107 245.907 85.1566 245.989 84.6271L243.087 84.1768ZM244.401 84.5264H233.554V87.4632H244.401V84.5264ZM235.021 85.925L235.006 85.6064L232.073 85.7461L232.088 86.0647L235.021 85.925ZM235.008 85.6762C235.008 84.9922 235.199 84.4594 235.555 84.0087L233.253 82.1858C232.457 83.1915 232.071 84.378 232.071 85.6762H235.008ZM235.548 84.0185C235.997 83.4608 236.662 82.8955 237.595 82.3431L236.098 79.8161C234.948 80.4975 233.984 81.2774 233.26 82.1761L235.548 84.0185ZM237.602 82.3388C237.822 82.2069 238.227 82.0047 238.861 81.7271L237.684 79.0364C237.024 79.3252 236.478 79.5882 236.091 79.8204L237.602 82.3388ZM238.857 81.7289C239.72 81.3547 240.434 81.0066 240.97 80.6852L239.459 78.1669C239.084 78.3916 238.504 78.6806 237.688 79.0346L238.857 81.7289ZM240.99 80.6728C241.484 80.3657 242.365 79.7059 242.365 78.5917H239.429C239.429 78.295 239.557 78.1149 239.59 78.0752C239.615 78.0443 239.59 78.0851 239.438 78.1792L240.99 80.6728ZM242.365 78.5917C242.365 77.7668 241.989 77.0515 241.326 76.5775L239.619 78.9674C239.596 78.9514 239.537 78.9002 239.487 78.8049C239.437 78.709 239.429 78.6269 239.429 78.5917H242.365ZM241.326 76.5775C240.671 76.1101 239.86 76.0006 239.152 76.0006V78.9375C239.373 78.9375 239.517 78.9567 239.601 78.976C239.686 78.9955 239.674 79.0068 239.619 78.9674L241.326 76.5775ZM239.152 76.0006C238.258 76.0006 237.334 76.2302 236.628 76.9159L238.673 79.0234C238.674 79.0222 238.678 79.019 238.687 79.0138C238.696 79.0083 238.715 78.9984 238.748 78.9873C238.817 78.9643 238.944 78.9375 239.152 78.9375V76.0006ZM236.612 76.9313C235.976 77.5674 235.681 78.3785 235.681 79.244H238.618C238.618 79.0779 238.657 79.0395 238.689 79.008L236.612 76.9313ZM235.681 79.244C235.681 79.4978 235.705 79.7502 235.749 79.9998L238.641 79.4894C238.625 79.3952 238.618 79.3138 238.618 79.244H235.681ZM237.38 78.2879C236.072 78.1217 234.796 78.007 233.553 77.9443L233.405 80.8774C234.569 80.9361 235.771 81.0439 237.01 81.2013L237.38 78.2879ZM234.947 79.4109C234.947 78.8195 235.096 78.3255 235.379 77.8875L232.913 76.2921C232.307 77.2295 232.01 78.2829 232.01 79.4109H234.947ZM235.376 77.8919C235.651 77.4701 236.089 77.0865 236.781 76.7756L235.577 74.0968C234.468 74.595 233.551 75.3138 232.916 76.2876L235.376 77.8919ZM236.775 76.7781C237.448 76.4791 238.345 76.2978 239.516 76.2978V73.361C238.059 73.361 236.73 73.5842 235.583 74.0943L236.775 76.7781ZM239.516 76.2978C240.596 76.2978 241.39 76.4492 241.954 76.685L243.086 73.975C242.053 73.5433 240.844 73.361 239.516 73.361V76.2978ZM241.975 76.6934C242.624 76.9533 242.954 77.2297 243.115 77.4475L245.476 75.7005C244.888 74.9069 244.034 74.354 243.066 73.9666L241.975 76.6934ZM243.135 77.4739C243.359 77.7632 243.403 77.9656 243.403 78.1062H246.34C246.34 77.195 246 76.3759 245.455 75.6741L243.135 77.4739ZM243.403 78.1062C243.403 78.4876 243.32 78.7266 243.218 78.8879L245.706 80.4496C246.15 79.7411 246.34 78.9384 246.34 78.1062H243.403ZM243.205 78.909C243.072 79.1302 242.849 79.3737 242.483 79.6226L244.135 82.0512C244.78 81.6123 245.326 81.0771 245.719 80.4285L243.205 78.909ZM242.489 79.6189C242.08 79.8944 241.486 80.2222 240.682 80.6001L241.931 83.2582C242.806 82.8472 243.547 82.4468 244.129 82.0548L242.489 79.6189ZM240.65 80.6157C240.661 80.61 240.641 80.6206 240.571 80.6457C240.506 80.6691 240.416 80.6984 240.298 80.7336L241.132 83.5495C241.418 83.4646 241.72 83.3643 241.963 83.2425L240.65 80.6157ZM240.346 80.7201C240.079 80.7893 239.888 80.8398 239.796 80.8661L240.603 83.69C240.652 83.6758 240.804 83.6353 241.083 83.563L240.346 80.7201ZM239.783 80.8699C239.058 81.0844 238.468 81.2667 238.02 81.4159L238.949 84.2021C239.351 84.0681 239.904 83.8965 240.616 83.6862L239.783 80.8699ZM238.02 81.4159C237.509 81.5864 237.022 81.8016 236.562 82.0629L238.011 84.6171C238.299 84.4536 238.611 84.3148 238.949 84.2021L238.02 81.4159ZM254.61 80.4121L254.213 78.9984C253.455 79.2114 253 79.9847 253.182 80.7511C253.363 81.5174 254.118 82.0039 254.891 81.8535L254.61 80.4121ZM257.189 80.6245L256.479 81.9097C256.492 81.9171 256.506 81.9242 256.519 81.9311L257.189 80.6245ZM258.039 81.4133L256.742 82.1023C256.745 82.108 256.748 82.1137 256.751 82.1194L258.039 81.4133ZM257.508 84.4474L258.575 85.4563L258.584 85.4466L257.508 84.4474ZM255.369 85.7217L255.81 87.1225C255.814 87.121 255.819 87.1195 255.824 87.1179L255.369 85.7217ZM246.16 82.809L245.804 81.3844C245.388 81.4885 245.038 81.7694 244.847 82.1533C244.655 82.5371 244.641 82.9856 244.808 83.3808L246.16 82.809ZM247.01 82.5966L246.665 81.1693L246.654 81.1721L247.01 82.5966ZM248.603 82.1719L249.028 83.5775C249.035 83.5754 249.041 83.5733 249.048 83.5712L248.603 82.1719ZM249.771 81.7016L251.134 81.1562C250.981 80.7721 250.672 80.4706 250.285 80.3259C249.897 80.1812 249.466 80.2067 249.099 80.3962L249.771 81.7016ZM250.636 82.7939L249.885 84.056C249.899 84.0639 249.912 84.0716 249.925 84.0791L250.636 82.7939ZM253.943 82.8697L253.441 81.4897L253.943 82.8697ZM254.353 81.7471L253.665 83.0449V83.0449L254.353 81.7471ZM253.533 81.5651L253.375 83.025C253.389 83.0264 253.402 83.0276 253.415 83.0287L253.533 81.5651ZM250.803 81.5044H249.334C249.334 82.3154 249.992 82.9728 250.803 82.9728V81.5044ZM250.803 78.8495V77.3811C249.992 77.3811 249.334 78.0386 249.334 78.8495H250.803ZM253.382 78.7585L253.564 80.2156C253.574 80.2144 253.584 80.213 253.594 80.2116L253.382 78.7585ZM253.715 77.7118L252.924 78.9486C252.943 78.9607 252.962 78.9724 252.982 78.9837L253.715 77.7118ZM250.787 77.909L249.979 76.6829C249.975 76.6858 249.971 76.6886 249.966 76.6915L250.787 77.909ZM249.771 79.1833L249.223 80.5458C249.96 80.842 250.799 80.4985 251.117 79.7706L249.771 79.1833ZM246.312 78.2579L244.97 77.6615C244.784 78.0808 244.804 78.563 245.025 78.9651C245.246 79.3671 245.642 79.6428 246.096 79.7104L246.312 78.2579ZM248.542 75.7244L247.796 74.4597L247.79 74.463L248.542 75.7244ZM255.217 75.239L254.753 76.6321C254.76 76.6343 254.767 76.6366 254.773 76.6387L255.217 75.239ZM257.159 76.3464L256.11 77.3735C256.113 77.3773 256.117 77.381 256.121 77.3848L257.159 76.3464ZM257.629 78.8647L258.88 79.6343C258.884 79.6274 258.888 79.6204 258.893 79.6133L257.629 78.8647ZM256.674 79.6536L257.363 80.95C257.37 80.9462 257.377 80.9424 257.384 80.9385L256.674 79.6536ZM254.891 81.8535C255.167 81.7998 255.432 81.7743 255.688 81.7743V78.8375C255.235 78.8375 254.782 78.8828 254.33 78.9707L254.891 81.8535ZM255.688 81.7743C256.151 81.7743 256.383 81.8564 256.479 81.9097L257.9 79.3393C257.228 78.9678 256.458 78.8375 255.688 78.8375V81.7743ZM256.519 81.9311C256.704 82.0256 256.738 82.0952 256.742 82.1023L259.336 80.7244C258.996 80.0843 258.464 79.6279 257.859 79.3178L256.519 81.9311ZM256.751 82.1194C256.81 82.2255 256.828 82.3124 256.828 82.3994H259.765C259.765 81.7987 259.612 81.2283 259.326 80.7073L256.751 82.1194ZM256.828 82.3994C256.828 82.8416 256.696 83.1634 256.432 83.4482L258.584 85.4466C259.371 84.5987 259.765 83.5552 259.765 82.3994H256.828ZM256.441 83.4386C256.119 83.7792 255.635 84.0905 254.914 84.3256L255.824 87.1179C256.903 86.7664 257.845 86.2281 258.575 85.4563L256.441 83.4386ZM254.928 84.321C254.192 84.5525 253.343 84.6781 252.365 84.6781V87.6149C253.593 87.6149 254.745 87.4573 255.81 87.1225L254.928 84.321ZM252.365 84.6781C250.926 84.6781 249.87 84.4262 249.113 84.0189C248.382 83.6261 247.857 83.051 247.513 82.2373L244.808 83.3808C245.405 84.7921 246.384 85.8857 247.721 86.6054C249.033 87.3106 250.608 87.6149 252.365 87.6149V84.6781ZM246.517 84.2336L247.366 84.0212L246.654 81.1721L245.804 81.3844L246.517 84.2336ZM247.355 84.0239C247.999 83.8682 248.558 83.7194 249.028 83.5775L248.178 80.7663C247.778 80.8873 247.275 81.0217 246.665 81.1694L247.355 84.0239ZM249.048 83.5712C249.553 83.4104 250.022 83.2243 250.444 83.007L249.099 80.3962C248.853 80.5227 248.542 80.6501 248.158 80.7726L249.048 83.5712ZM248.408 82.2469C248.699 82.9759 249.17 83.6308 249.885 84.056L251.386 81.5317C251.353 81.5119 251.247 81.4386 251.134 81.1562L248.408 82.2469ZM249.925 84.0791C250.612 84.4583 251.416 84.5809 252.213 84.5809V81.644C251.676 81.644 251.429 81.5542 251.346 81.5086L249.925 84.0791ZM252.213 84.5809C253.016 84.5809 253.78 84.4914 254.445 84.2497L253.441 81.4897C253.216 81.5716 252.827 81.644 252.213 81.644V84.5809ZM254.445 84.2497C254.798 84.1211 255.201 83.9134 255.526 83.5586C255.881 83.1716 256.079 82.6778 256.079 82.1415H253.142C253.142 82.0505 253.158 81.9431 253.202 81.8321C253.245 81.7216 253.305 81.6354 253.361 81.574C253.464 81.4619 253.532 81.4565 253.441 81.4897L254.445 84.2497ZM256.079 82.1415C256.079 81.7982 255.989 81.4375 255.775 81.1104C255.567 80.7927 255.293 80.5837 255.04 80.4493L253.665 83.0449C253.584 83.0015 253.439 82.9037 253.317 82.7176C253.189 82.5219 253.142 82.3129 253.142 82.1415H256.079ZM255.04 80.4493C254.594 80.2137 254.074 80.1357 253.652 80.1014L253.415 83.0287C253.556 83.0401 253.647 83.0551 253.7 83.0668C253.725 83.0724 253.735 83.0757 253.731 83.0744C253.728 83.0733 253.703 83.065 253.665 83.0449L255.04 80.4493ZM253.691 80.1051C253.239 80.0562 252.651 80.0359 251.956 80.0359V82.9728C252.615 82.9728 253.079 82.993 253.375 83.025L253.691 80.1051ZM251.956 80.0359H250.803V82.9728H251.956V80.0359ZM252.271 81.5044V78.8495H249.334V81.5044H252.271ZM250.803 80.318H251.5V77.3811H250.803V80.318ZM251.5 80.318C252.3 80.318 252.994 80.2868 253.564 80.2156L253.199 77.3014C252.798 77.3516 252.238 77.3811 251.5 77.3811V80.318ZM253.594 80.2116C253.909 80.1656 254.318 80.0751 254.687 79.8523C255.11 79.5968 255.578 79.0876 255.578 78.3186H252.641C252.641 78.0897 252.709 77.8597 252.837 77.6645C252.956 77.4833 253.093 77.3842 253.168 77.3386C253.294 77.2624 253.34 77.2807 253.17 77.3055L253.594 80.2116ZM255.578 78.3186C255.578 77.4275 255.059 76.7917 254.449 76.4398L252.982 78.9837C252.963 78.973 252.869 78.9143 252.78 78.7775C252.683 78.6287 252.641 78.4619 252.641 78.3186H255.578ZM254.507 76.4749C253.893 76.0822 253.146 76.0006 252.517 76.0006V78.9375C252.723 78.9375 252.857 78.9532 252.935 78.9689C253.016 78.9854 252.994 78.9936 252.924 78.9486L254.507 76.4749ZM252.517 76.0006C251.614 76.0006 250.731 76.1873 249.979 76.6829L251.596 79.1351C251.734 79.044 252.004 78.9375 252.517 78.9375V76.0006ZM249.966 76.6915C249.266 77.164 248.762 77.8251 248.425 78.596L251.117 79.7706C251.266 79.429 251.439 79.2405 251.609 79.1264L249.966 76.6915ZM250.319 77.8208C249.124 77.3405 247.859 77.0034 246.528 76.8055L246.096 79.7104C247.213 79.8765 248.254 80.1563 249.223 80.5458L250.319 77.8208ZM247.654 78.8543C248.02 78.0318 248.56 77.423 249.294 76.9859L247.79 74.463C246.522 75.2193 245.576 76.2995 244.97 77.6615L247.654 78.8543ZM249.288 76.9892C250.008 76.5648 251.027 76.2978 252.441 76.2978V73.361C250.68 73.361 249.1 73.6907 247.796 74.4597L249.288 76.9892ZM252.441 76.2978C253.345 76.2978 254.109 76.4175 254.753 76.6321L255.682 73.8459C254.687 73.5143 253.601 73.361 252.441 73.361V76.2978ZM254.773 76.6387C255.442 76.8506 255.857 77.115 256.11 77.3735L258.208 75.3193C257.531 74.6272 256.651 74.1533 255.661 73.8392L254.773 76.6387ZM256.121 77.3848C256.364 77.6284 256.404 77.7999 256.404 77.9393H259.34C259.34 76.9056 258.904 76.0152 258.197 75.3081L256.121 77.3848ZM256.404 77.9393C256.404 78.0425 256.382 78.0884 256.366 78.1161L258.893 79.6133C259.2 79.0949 259.34 78.5239 259.34 77.9393H256.404ZM256.379 78.0951C256.406 78.0515 256.408 78.0655 256.334 78.1267C256.263 78.1858 256.144 78.2682 255.963 78.3687L257.384 80.9385C257.936 80.6335 258.52 80.2199 258.88 79.6343L256.379 78.0951ZM255.984 78.3571C255.645 78.5373 255.074 78.7565 254.213 78.9984L255.008 81.8258C255.947 81.562 256.751 81.2756 257.363 80.95L255.984 78.3571Z" fill="black"/>
<path d="M212.597 81.452C215.884 81.2699 218.432 81.0677 220.243 80.8452C220.071 81.3711 219.939 81.9273 219.848 82.5139C219.757 83.1005 219.712 83.6315 219.712 84.1068H208.865L208.85 83.7882C208.85 82.7971 209.138 81.9374 209.714 81.2093C210.301 80.4811 211.115 79.8085 212.157 79.1916C212.46 79.0096 212.936 78.7769 213.583 78.4938C214.422 78.1297 215.069 77.8111 215.525 77.538C215.98 77.2548 216.207 76.9767 216.207 76.7037C216.207 76.3598 216.066 76.0867 215.783 75.8844C215.499 75.6822 215.059 75.581 214.463 75.581C213.805 75.581 213.305 75.7479 212.961 76.0817C212.627 76.4154 212.46 76.8402 212.46 77.356C212.46 77.5178 212.475 77.6847 212.506 77.8566C211.231 77.6948 209.992 77.5835 208.789 77.5229C208.789 76.6632 209.011 75.8895 209.456 75.2018C209.912 74.5039 210.589 73.9527 211.489 73.5482C212.4 73.1437 213.512 72.9414 214.827 72.9414C216.03 72.9414 217.032 73.1083 217.831 73.442C218.64 73.7656 219.231 74.1803 219.605 74.686C219.99 75.1816 220.182 75.6923 220.182 76.2182C220.182 76.825 220.045 77.3459 219.772 77.7807C219.509 78.2156 219.125 78.605 218.619 78.9489C218.124 79.2826 217.456 79.6467 216.617 80.0411C216.496 80.1018 216.298 80.1726 216.025 80.2535C215.752 80.3243 215.58 80.3698 215.509 80.3901C214.791 80.6024 214.22 80.7794 213.795 80.921C213.37 81.0626 212.971 81.2396 212.597 81.452ZM227.812 84.2585C225.638 84.2585 224.035 83.7579 223.003 82.7566C221.971 81.7554 221.456 80.3648 221.456 78.5848C221.456 76.8149 221.971 75.4344 223.003 74.4433C224.045 73.442 225.648 72.9414 227.812 72.9414C229.976 72.9414 231.574 73.442 232.606 74.4433C233.637 75.4344 234.153 76.8149 234.153 78.5848C234.153 80.3648 233.637 81.7554 232.606 82.7566C231.574 83.7579 229.976 84.2585 227.812 84.2585ZM227.827 81.6037C228.758 81.6037 229.435 81.3205 229.86 80.7542C230.285 80.1777 230.497 79.4546 230.497 78.5848C230.497 77.7251 230.285 77.0121 229.86 76.4458C229.435 75.8693 228.758 75.581 227.827 75.581C226.866 75.581 226.169 75.8693 225.734 76.4458C225.309 77.0121 225.097 77.7251 225.097 78.5848C225.097 79.4444 225.309 80.1625 225.734 80.739C226.169 81.3155 226.866 81.6037 227.827 81.6037ZM239.175 81.452C242.461 81.2699 245.01 81.0677 246.82 80.8452C246.649 81.3711 246.517 81.9273 246.426 82.5139C246.335 83.1005 246.289 83.6315 246.289 84.1068H235.443L235.427 83.7882C235.427 82.7971 235.716 81.9374 236.292 81.2093C236.879 80.4811 237.693 79.8085 238.735 79.1916C239.038 79.0096 239.513 78.7769 240.161 78.4938C241 78.1297 241.647 77.8111 242.102 77.538C242.558 77.2548 242.785 76.9767 242.785 76.7037C242.785 76.3598 242.644 76.0867 242.36 75.8844C242.077 75.6822 241.637 75.581 241.041 75.581C240.383 75.581 239.883 75.7479 239.539 76.0817C239.205 76.4154 239.038 76.8402 239.038 77.356C239.038 77.5178 239.053 77.6847 239.084 77.8566C237.809 77.6948 236.57 77.5835 235.367 77.5229C235.367 76.6632 235.589 75.8895 236.034 75.2018C236.489 74.5039 237.167 73.9527 238.067 73.5482C238.977 73.1437 240.09 72.9414 241.405 72.9414C242.608 72.9414 243.609 73.1083 244.408 73.442C245.217 73.7656 245.809 74.1803 246.183 74.686C246.568 75.1816 246.76 75.6923 246.76 76.2182C246.76 76.825 246.623 77.3459 246.35 77.7807C246.087 78.2156 245.703 78.605 245.197 78.9489C244.702 79.2826 244.034 79.6467 243.195 80.0411C243.073 80.1018 242.876 80.1726 242.603 80.2535C242.33 80.3243 242.158 80.3698 242.087 80.3901C241.369 80.6024 240.798 80.7794 240.373 80.921C239.948 81.0626 239.549 81.2396 239.175 81.452ZM256.499 78.5241C256.863 78.4533 257.222 78.4179 257.576 78.4179C258.193 78.4179 258.693 78.5241 259.078 78.7365C259.472 78.9388 259.755 79.2017 259.927 79.5253C260.099 79.8389 260.185 80.1676 260.185 80.5114C260.185 81.3104 259.922 81.9931 259.396 82.5594C258.87 83.1157 258.157 83.5404 257.257 83.8337C256.357 84.1169 255.356 84.2585 254.253 84.2585C251.057 84.2585 248.989 83.146 248.049 80.921L248.898 80.7086C249.525 80.5569 250.056 80.4153 250.491 80.2839C250.936 80.1423 251.325 79.9855 251.659 79.8136C251.861 80.3193 252.15 80.6834 252.524 80.9059C252.908 81.1182 253.434 81.2244 254.102 81.2244C254.81 81.2244 255.386 81.1435 255.831 80.9817C256.276 80.8199 256.499 80.5772 256.499 80.2535C256.499 80.0816 256.413 79.9501 256.241 79.8591C256.069 79.7681 255.796 79.7074 255.421 79.6771C255.047 79.6366 254.521 79.6164 253.844 79.6164H252.691V76.9615H253.389C254.157 76.9615 254.784 76.9312 255.27 76.8705C255.755 76.7997 255.998 76.6531 255.998 76.4306C255.998 76.1777 255.866 75.9755 255.604 75.8238C255.351 75.6619 254.951 75.581 254.405 75.581C253.697 75.581 253.121 75.7277 252.676 76.021C252.241 76.3143 251.902 76.739 251.659 77.2953C250.577 76.8604 249.424 76.5519 248.2 76.3699C248.686 75.2776 249.429 74.4331 250.43 73.8364C251.442 73.2397 252.741 72.9414 254.329 72.9414C255.361 72.9414 256.286 73.0779 257.105 73.351C257.935 73.6139 258.582 73.9831 259.047 74.4584C259.523 74.9338 259.76 75.4647 259.76 76.0513C259.76 76.3952 259.679 76.7037 259.517 76.9767C259.356 77.2397 259.037 77.5026 258.562 77.7656C258.086 78.0184 257.399 78.2713 256.499 78.5241Z" fill="#F7E7CD"/>
<path d="M212.597 81.452L212.079 80.5398L212.655 82.4993L212.597 81.452ZM220.243 80.8452L221.24 81.1711L221.752 79.6029L220.115 79.8041L220.243 80.8452ZM219.848 82.5139L218.812 82.3531L219.848 82.5139ZM219.712 84.1068V85.1557H220.761V84.1068H219.712ZM208.865 84.1068L207.817 84.1567L207.865 85.1557H208.865V84.1068ZM208.85 83.7882H207.801V83.8132L207.802 83.8381L208.85 83.7882ZM209.714 81.2093L208.897 80.5512L208.892 80.5582L209.714 81.2093ZM212.157 79.1916L212.691 80.0941L212.696 80.091L212.157 79.1916ZM213.583 78.4938L213.165 77.5315L213.162 77.5328L213.583 78.4938ZM215.525 77.538L216.064 78.4374L216.072 78.4331L216.079 78.4286L215.525 77.538ZM215.783 75.8844L216.392 75.0309L216.392 75.0309L215.783 75.8844ZM212.961 76.0817L212.23 75.329L212.225 75.3345L212.219 75.34L212.961 76.0817ZM212.506 77.8566L212.374 78.8971L213.786 79.0765L213.539 77.6743L212.506 77.8566ZM208.789 77.5229H207.74V78.5202L208.736 78.5704L208.789 77.5229ZM209.456 75.2018L208.578 74.6288L208.576 74.632L209.456 75.2018ZM211.489 73.5482L211.063 72.5897L211.059 72.5915L211.489 73.5482ZM217.831 73.442L217.426 74.4098L217.434 74.4129L217.441 74.4159L217.831 73.442ZM219.605 74.686L218.762 75.3099L218.769 75.3194L218.777 75.3288L219.605 74.686ZM219.772 77.7807L218.884 77.223L218.879 77.2305L218.875 77.238L219.772 77.7807ZM218.619 78.9489L219.205 79.8189L219.209 79.8162L218.619 78.9489ZM216.617 80.0411L216.171 79.0918L216.159 79.0973L216.148 79.103L216.617 80.0411ZM216.025 80.2535L216.288 81.2688L216.306 81.2643L216.323 81.2592L216.025 80.2535ZM215.509 80.3901L215.221 79.3815L215.212 79.3843L215.509 80.3901ZM213.795 80.921L213.463 79.926L213.795 80.921ZM212.655 82.4993C215.95 82.3168 218.526 82.113 220.371 81.8862L220.115 79.8041C218.339 80.0224 215.818 80.2231 212.539 80.4047L212.655 82.4993ZM219.246 80.5192C219.055 81.1028 218.911 81.7145 218.812 82.3531L220.885 82.6748C220.968 82.1401 221.086 81.6394 221.24 81.1711L219.246 80.5192ZM218.812 82.3531C218.714 82.9804 218.663 83.5663 218.663 84.1068H220.761C220.761 83.6966 220.8 83.2206 220.885 82.6748L218.812 82.3531ZM219.712 83.0579H208.865V85.1557H219.712V83.0579ZM209.912 84.0569L209.897 83.7383L207.802 83.8381L207.817 84.1567L209.912 84.0569ZM209.899 83.7882C209.899 83.0164 210.117 82.3903 210.537 81.8603L208.892 80.5582C208.159 81.4846 207.801 82.5778 207.801 83.7882H209.899ZM210.531 81.8673C211.02 81.2609 211.727 80.665 212.691 80.0941L211.622 78.2891C210.503 78.9521 209.582 79.7013 208.898 80.5513L210.531 81.8673ZM212.696 80.091C212.94 79.9448 213.365 79.7339 214.003 79.4547L213.162 77.5328C212.506 77.82 211.98 78.0743 211.617 78.2922L212.696 80.091ZM214 79.456C214.856 79.0847 215.552 78.745 216.064 78.4374L214.985 76.6386C214.587 76.8772 213.988 77.1746 213.165 77.5315L214 79.456ZM216.079 78.4286C216.561 78.1283 217.256 77.5775 217.256 76.7037H215.158C215.158 76.6224 215.176 76.5554 215.195 76.5091C215.213 76.4656 215.229 76.4473 215.225 76.4529C215.22 76.4586 215.201 76.4805 215.157 76.5164C215.114 76.552 215.053 76.5961 214.97 76.6475L216.079 78.4286ZM217.256 76.7037C217.256 76.0162 216.947 75.4273 216.392 75.0309L215.173 76.738C215.186 76.7476 215.189 76.7517 215.186 76.7483C215.183 76.7446 215.176 76.7363 215.17 76.7238C215.163 76.7112 215.16 76.7003 215.158 76.6937C215.157 76.6875 215.158 76.6899 215.158 76.7037H217.256ZM216.392 75.0309C215.844 74.6393 215.138 74.5322 214.463 74.5322V76.6299C214.706 76.6299 214.882 76.6509 215.005 76.6791C215.065 76.6929 215.107 76.7073 215.135 76.7189C215.162 76.7304 215.173 76.738 215.173 76.738L216.392 75.0309ZM214.463 74.5322C213.636 74.5322 212.833 74.7438 212.23 75.329L213.691 76.8343C213.776 76.752 213.975 76.6299 214.463 76.6299V74.5322ZM212.219 75.34C211.669 75.8897 211.411 76.5904 211.411 77.356H213.509C213.509 77.0899 213.585 76.9412 213.702 76.8233L212.219 75.34ZM211.411 77.356C211.411 77.5835 211.433 77.8115 211.473 78.0389L213.539 77.6743C213.518 77.5579 213.509 77.4521 213.509 77.356H211.411ZM212.638 76.8161C211.339 76.6511 210.073 76.5374 208.842 76.4753L208.736 78.5704C209.911 78.6297 211.124 78.7384 212.374 78.8971L212.638 76.8161ZM209.838 77.5229C209.838 76.8549 210.007 76.2809 210.337 75.7716L208.576 74.632C208.015 75.4981 207.74 76.4715 207.74 77.5229H209.838ZM210.335 75.7747C210.662 75.2741 211.168 74.8425 211.919 74.5049L211.059 72.5915C210.01 73.063 209.162 73.7338 208.578 74.6288L210.335 75.7747ZM211.915 74.5067C212.656 74.1776 213.614 73.9903 214.827 73.9903V71.8925C213.41 71.8925 212.143 72.1098 211.063 72.5897L211.915 74.5067ZM214.827 73.9903C215.942 73.9903 216.795 74.1461 217.426 74.4098L218.235 72.4742C217.268 72.0704 216.119 71.8925 214.827 71.8925V73.9903ZM217.441 74.4159C218.136 74.6939 218.54 75.0099 218.762 75.3099L220.449 74.0621C219.922 73.3507 219.143 72.8374 218.22 72.4682L217.441 74.4159ZM218.777 75.3288C219.047 75.677 219.133 75.9675 219.133 76.2182H221.231C221.231 75.4171 220.933 74.6861 220.434 74.0432L218.777 75.3288ZM219.133 76.2182C219.133 76.664 219.034 76.9835 218.884 77.223L220.661 78.3385C221.056 77.7082 221.231 76.986 221.231 76.2182H219.133ZM218.875 77.238C218.704 77.5203 218.435 77.8055 218.03 78.0815L219.209 79.8162C219.815 79.4045 220.315 78.911 220.67 78.3235L218.875 77.238ZM218.033 78.0789C217.6 78.371 216.985 78.7092 216.171 79.0918L217.063 80.9904C217.928 80.5842 218.648 80.1942 219.205 79.8189L218.033 78.0789ZM216.148 79.103C216.114 79.1201 215.991 79.1698 215.727 79.2479L216.323 81.2592C216.606 81.1755 216.877 81.0836 217.086 80.9793L216.148 79.103ZM215.762 79.2382C215.493 79.3079 215.307 79.357 215.221 79.3815L215.798 81.3986C215.853 81.3827 216.011 81.3407 216.288 81.2688L215.762 79.2382ZM215.212 79.3843C214.489 79.5981 213.905 79.7789 213.463 79.926L214.127 81.9161C214.535 81.7799 215.094 81.6068 215.807 81.3959L215.212 79.3843ZM213.463 79.926C212.977 80.0882 212.515 80.2925 212.079 80.5398L213.114 82.3642C213.427 82.1867 213.764 82.037 214.127 81.9161L213.463 79.926ZM223.003 82.7566L222.273 83.5093L223.003 82.7566ZM223.003 74.4433L223.73 75.1996L223.73 75.1995L223.003 74.4433ZM232.606 74.4433L231.875 75.1959L231.879 75.1996L232.606 74.4433ZM232.606 82.7566L233.336 83.5093L232.606 82.7566ZM229.86 80.7542L230.699 81.3835L230.704 81.3763L229.86 80.7542ZM229.86 76.4458L229.016 77.068L229.021 77.0751L229.86 76.4458ZM225.734 76.4458L224.896 75.8141L224.895 75.8164L225.734 76.4458ZM225.734 80.739L224.889 81.3612L224.896 81.3707L225.734 80.739ZM227.812 83.2096C225.773 83.2096 224.489 82.7374 223.734 82.004L222.273 83.5093C223.58 84.7783 225.502 85.3074 227.812 85.3074V83.2096ZM223.734 82.004C222.952 81.2453 222.505 80.1531 222.505 78.5848H220.407C220.407 80.5765 220.991 82.2655 222.273 83.5093L223.734 82.004ZM222.505 78.5848C222.505 77.0281 222.951 75.948 223.73 75.1996L222.276 73.6869C220.992 74.9208 220.407 76.6017 220.407 78.5848H222.505ZM223.73 75.1995C224.498 74.4613 225.786 73.9903 227.812 73.9903V71.8925C225.509 71.8925 223.592 72.4227 222.276 73.6871L223.73 75.1995ZM227.812 73.9903C229.839 73.9903 231.119 74.4617 231.875 75.1959L233.336 73.6906C232.03 72.4223 230.114 71.8925 227.812 71.8925V73.9903ZM231.879 75.1996C232.658 75.948 233.104 77.0281 233.104 78.5848H235.202C235.202 76.6017 234.617 74.9208 233.333 73.6869L231.879 75.1996ZM233.104 78.5848C233.104 80.1531 232.657 81.2453 231.875 82.004L233.336 83.5093C234.618 82.2655 235.202 80.5765 235.202 78.5848H233.104ZM231.875 82.004C231.119 82.7382 229.839 83.2096 227.812 83.2096V85.3074C230.114 85.3074 232.03 84.7776 233.336 83.5093L231.875 82.004ZM227.827 82.6526C228.975 82.6526 230.017 82.2929 230.699 81.3835L229.021 80.1248C228.854 80.3481 228.541 80.5548 227.827 80.5548V82.6526ZM230.704 81.3763C231.289 80.5837 231.546 79.6293 231.546 78.5848H229.448C229.448 79.2798 229.281 79.7716 229.016 80.132L230.704 81.3763ZM231.546 78.5848C231.546 77.548 231.287 76.6005 230.699 75.8164L229.021 77.0751C229.282 77.4237 229.448 77.9022 229.448 78.5848H231.546ZM230.704 75.8236C230.025 74.9014 228.981 74.5322 227.827 74.5322V76.6299C228.534 76.6299 228.846 76.8372 229.016 77.0679L230.704 75.8236ZM227.827 74.5322C226.655 74.5322 225.591 74.8932 224.896 75.8141L226.571 77.0774C226.746 76.8454 227.078 76.6299 227.827 76.6299V74.5322ZM224.895 75.8164C224.307 76.6005 224.048 77.548 224.048 78.5848H226.145C226.145 77.9022 226.311 77.4237 226.573 77.0751L224.895 75.8164ZM224.048 78.5848C224.048 79.6223 224.307 80.5706 224.889 81.3612L226.578 80.1168C226.311 79.7544 226.145 79.2666 226.145 78.5848H224.048ZM224.896 81.3707C225.591 82.2916 226.655 82.6526 227.827 82.6526V80.5548C227.078 80.5548 226.746 80.3393 226.571 80.1073L224.896 81.3707ZM239.175 81.452L238.657 80.5398L239.233 82.4993L239.175 81.452ZM246.82 80.8452L247.817 81.1711L248.33 79.6029L246.693 79.8041L246.82 80.8452ZM246.426 82.5139L245.39 82.3531L246.426 82.5139ZM246.289 84.1068V85.1557H247.338V84.1068H246.289ZM235.443 84.1068L234.395 84.1567L234.443 85.1557H235.443V84.1068ZM235.427 83.7882H234.379V83.8132L234.38 83.8381L235.427 83.7882ZM236.292 81.2093L235.475 80.5512L235.47 80.5582L236.292 81.2093ZM238.735 79.1916L239.269 80.0941L239.274 80.091L238.735 79.1916ZM240.161 78.4938L239.743 77.5315L239.74 77.5328L240.161 78.4938ZM242.102 77.538L242.642 78.4374L242.649 78.4331L242.657 78.4286L242.102 77.538ZM242.36 75.8844L242.97 75.0309L242.97 75.0309L242.36 75.8844ZM239.539 76.0817L238.808 75.329L238.803 75.3345L238.797 75.34L239.539 76.0817ZM239.084 77.8566L238.951 78.8971L240.364 79.0765L240.116 77.6743L239.084 77.8566ZM235.367 77.5229H234.318V78.5202L235.314 78.5704L235.367 77.5229ZM236.034 75.2018L235.156 74.6288L235.154 74.632L236.034 75.2018ZM238.067 73.5482L237.641 72.5897L237.637 72.5915L238.067 73.5482ZM244.408 73.442L244.004 74.4098L244.011 74.4129L244.019 74.4159L244.408 73.442ZM246.183 74.686L245.34 75.3099L245.347 75.3194L245.354 75.3288L246.183 74.686ZM246.35 77.7807L245.462 77.223L245.457 77.2305L245.453 77.238L246.35 77.7807ZM245.197 78.9489L245.783 79.8189L245.787 79.8162L245.197 78.9489ZM243.195 80.0411L242.749 79.0918L242.737 79.0973L242.726 79.103L243.195 80.0411ZM242.603 80.2535L242.866 81.2688L242.884 81.2643L242.901 81.2592L242.603 80.2535ZM242.087 80.3901L241.799 79.3815L241.79 79.3843L242.087 80.3901ZM240.373 80.921L240.041 79.926L240.373 80.921ZM239.233 82.4993C242.528 82.3168 245.103 82.113 246.948 81.8862L246.693 79.8041C244.917 80.0224 242.395 80.2231 239.117 80.4047L239.233 82.4993ZM245.823 80.5192C245.633 81.1028 245.489 81.7145 245.39 82.3531L247.463 82.6748C247.545 82.1401 247.664 81.6394 247.817 81.1711L245.823 80.5192ZM245.39 82.3531C245.292 82.9804 245.241 83.5663 245.241 84.1068H247.338C247.338 83.6966 247.378 83.2206 247.463 82.6748L245.39 82.3531ZM246.289 83.0579H235.443V85.1557H246.289V83.0579ZM236.49 84.0569L236.475 83.7383L234.38 83.8381L234.395 84.1567L236.49 84.0569ZM236.476 83.7882C236.476 83.0164 236.695 82.3903 237.115 81.8603L235.47 80.5582C234.736 81.4846 234.379 82.5778 234.379 83.7882H236.476ZM237.109 81.8673C237.597 81.2609 238.305 80.665 239.269 80.0941L238.2 78.2891C237.081 78.9521 236.16 79.7013 235.475 80.5513L237.109 81.8673ZM239.274 80.091C239.518 79.9448 239.943 79.7339 240.581 79.4547L239.74 77.5328C239.084 77.82 238.558 78.0743 238.195 78.2922L239.274 80.091ZM240.578 79.456C241.434 79.0847 242.129 78.745 242.642 78.4374L241.563 76.6386C241.165 76.8772 240.566 77.1746 239.743 77.5315L240.578 79.456ZM242.657 78.4286C243.139 78.1283 243.834 77.5775 243.834 76.7037H241.736C241.736 76.6224 241.754 76.5554 241.773 76.5091C241.791 76.4656 241.807 76.4473 241.803 76.4529C241.798 76.4586 241.779 76.4805 241.735 76.5164C241.692 76.552 241.631 76.5961 241.548 76.6475L242.657 78.4286ZM243.834 76.7037C243.834 76.0162 243.525 75.4273 242.97 75.0309L241.751 76.738C241.764 76.7476 241.767 76.7517 241.764 76.7483C241.761 76.7446 241.754 76.7363 241.748 76.7238C241.741 76.7112 241.738 76.7003 241.736 76.6937C241.735 76.6875 241.736 76.6899 241.736 76.7037H243.834ZM242.97 75.0309C242.422 74.6393 241.716 74.5322 241.041 74.5322V76.6299C241.283 76.6299 241.46 76.6509 241.583 76.6791C241.643 76.6929 241.685 76.7073 241.713 76.7189C241.74 76.7304 241.751 76.738 241.751 76.738L242.97 75.0309ZM241.041 74.5322C240.214 74.5322 239.411 74.7438 238.808 75.329L240.269 76.8343C240.354 76.752 240.553 76.6299 241.041 76.6299V74.5322ZM238.797 75.34C238.247 75.8897 237.989 76.5904 237.989 77.356H240.087C240.087 77.0899 240.163 76.9412 240.28 76.8233L238.797 75.34ZM237.989 77.356C237.989 77.5835 238.01 77.8115 238.051 78.0389L240.116 77.6743C240.096 77.5579 240.087 77.4521 240.087 77.356H237.989ZM239.216 76.8161C237.917 76.6511 236.651 76.5374 235.42 76.4753L235.314 78.5704C236.489 78.6297 237.702 78.7384 238.951 78.8971L239.216 76.8161ZM236.416 77.5229C236.416 76.8549 236.585 76.2809 236.915 75.7716L235.154 74.632C234.593 75.4981 234.318 76.4715 234.318 77.5229H236.416ZM236.913 75.7747C237.239 75.2741 237.746 74.8425 238.497 74.5049L237.637 72.5915C236.588 73.063 235.739 73.7338 235.156 74.6288L236.913 75.7747ZM238.493 74.5067C239.234 74.1776 240.192 73.9903 241.405 73.9903V71.8925C239.988 71.8925 238.721 72.1098 237.641 72.5897L238.493 74.5067ZM241.405 73.9903C242.52 73.9903 243.373 74.1461 244.004 74.4098L244.813 72.4742C243.846 72.0704 242.697 71.8925 241.405 71.8925V73.9903ZM244.019 74.4159C244.714 74.6939 245.118 75.0099 245.34 75.3099L247.026 74.0621C246.5 73.3507 245.721 72.8374 244.798 72.4682L244.019 74.4159ZM245.354 75.3288C245.625 75.677 245.711 75.9675 245.711 76.2182H247.809C247.809 75.4171 247.511 74.6861 247.012 74.0432L245.354 75.3288ZM245.711 76.2182C245.711 76.664 245.612 76.9835 245.462 77.223L247.238 78.3385C247.634 77.7082 247.809 76.986 247.809 76.2182H245.711ZM245.453 77.238C245.282 77.5203 245.013 77.8055 244.607 78.0815L245.787 79.8162C246.393 79.4045 246.893 78.911 247.248 78.3235L245.453 77.238ZM244.611 78.0789C244.178 78.371 243.563 78.7092 242.749 79.0918L243.641 80.9904C244.505 80.5842 245.226 80.1942 245.783 79.8189L244.611 78.0789ZM242.726 79.103C242.691 79.1201 242.569 79.1698 242.305 79.2479L242.901 81.2592C243.184 81.1755 243.455 81.0836 243.664 80.9793L242.726 79.103ZM242.34 79.2382C242.071 79.3079 241.885 79.357 241.799 79.3815L242.375 81.3986C242.431 81.3827 242.589 81.3407 242.866 81.2688L242.34 79.2382ZM241.79 79.3843C241.067 79.5981 240.482 79.7789 240.041 79.926L240.705 81.9161C241.113 81.7799 241.672 81.6068 242.385 81.3959L241.79 79.3843ZM240.041 79.926C239.555 80.0882 239.093 80.2925 238.657 80.5398L239.692 82.3642C240.005 82.1867 240.342 82.037 240.705 81.9161L240.041 79.926ZM256.499 78.5241L256.215 77.5143L256.699 79.5537L256.499 78.5241ZM259.078 78.7365L258.57 79.6545L258.584 79.6624L258.599 79.6698L259.078 78.7365ZM259.927 79.5253L259.001 80.0175L259.007 80.0297L259.927 79.5253ZM259.396 82.5594L260.158 83.2801L260.165 83.2731L259.396 82.5594ZM257.257 83.8337L257.572 84.8343L257.582 84.831L257.257 83.8337ZM248.049 80.921L247.794 79.9035L246.605 80.2007L247.083 81.3294L248.049 80.921ZM248.898 80.7086L248.652 79.6891L248.644 79.6911L248.898 80.7086ZM250.491 80.2839L250.795 81.2879L250.802 81.2857L250.809 81.2834L250.491 80.2839ZM251.659 79.8136L252.633 79.424L252.205 78.3528L251.179 78.8812L251.659 79.8136ZM252.524 80.9059L251.988 81.8074L252.002 81.8159L252.017 81.8239L252.524 80.9059ZM255.831 80.9817L255.473 79.996L255.831 80.9817ZM256.241 79.8591L255.75 80.7861L255.75 80.7861L256.241 79.8591ZM255.421 79.6771L255.309 80.7199L255.323 80.7214L255.337 80.7225L255.421 79.6771ZM252.691 79.6164H251.642V80.6652H252.691V79.6164ZM252.691 76.9615V75.9127H251.642V76.9615H252.691ZM255.27 76.8705L255.4 77.9113L255.411 77.91L255.421 77.9084L255.27 76.8705ZM255.604 75.8238L255.038 76.7072L255.058 76.7202L255.079 76.7323L255.604 75.8238ZM252.676 76.021L252.098 75.1452L252.089 75.1514L252.676 76.021ZM251.659 77.2953L251.268 78.2685L252.213 78.6483L252.621 77.7148L251.659 77.2953ZM248.2 76.3699L247.242 75.9439L246.682 77.2044L248.046 77.4074L248.2 76.3699ZM250.43 73.8364L249.897 72.9331L249.893 72.9354L250.43 73.8364ZM257.105 73.351L256.774 74.346L256.781 74.3485L256.788 74.3508L257.105 73.351ZM259.047 74.4584L258.298 75.1921L258.306 75.2001L259.047 74.4584ZM259.517 76.9767L260.411 77.5264L260.415 77.519L260.42 77.5114L259.517 76.9767ZM258.562 77.7656L259.054 78.6916L259.062 78.6876L259.069 78.6834L258.562 77.7656ZM256.699 79.5537C257 79.4951 257.292 79.4668 257.576 79.4668V77.369C257.151 77.369 256.725 77.4115 256.298 77.4945L256.699 79.5537ZM257.576 79.4668C258.083 79.4668 258.391 79.5557 258.57 79.6545L259.585 77.8185C258.995 77.4925 258.302 77.369 257.576 77.369V79.4668ZM258.599 79.6698C258.843 79.7951 258.949 79.9199 259.001 80.0174L260.853 79.0333C260.561 78.4835 260.101 78.0824 259.556 77.8032L258.599 79.6698ZM259.007 80.0297C259.098 80.195 259.136 80.351 259.136 80.5114H261.234C261.234 79.9841 261.1 79.4827 260.847 79.021L259.007 80.0297ZM259.136 80.5114C259.136 81.0555 258.967 81.4805 258.628 81.8457L260.165 83.2731C260.877 82.5057 261.234 81.5653 261.234 80.5114H259.136ZM258.634 81.8388C258.254 82.2411 257.705 82.5848 256.932 82.8365L257.582 84.831C258.61 84.4961 259.487 83.9903 260.158 83.28L258.634 81.8388ZM256.942 82.8332C256.16 83.0795 255.266 83.2096 254.253 83.2096V85.3074C255.445 85.3074 256.554 85.1544 257.572 84.8343L256.942 82.8332ZM254.253 83.2096C252.769 83.2096 251.638 82.9502 250.802 82.5004C249.985 82.0609 249.395 81.4117 249.015 80.5126L247.083 81.3294C247.643 82.6553 248.557 83.6749 249.808 84.3479C251.04 85.0105 252.542 85.3074 254.253 85.3074V83.2096ZM248.303 81.9386L249.153 81.7262L248.644 79.6911L247.794 79.9035L248.303 81.9386ZM249.145 81.7281C249.784 81.5735 250.335 81.4268 250.795 81.2879L250.188 79.2799C249.777 79.4039 249.267 79.5403 248.652 79.6892L249.145 81.7281ZM250.809 81.2834C251.297 81.1281 251.743 80.9504 252.14 80.746L251.179 78.8812C250.908 79.0207 250.575 79.1565 250.173 79.2844L250.809 81.2834ZM250.685 80.2031C250.951 80.8683 251.37 81.4401 251.988 81.8074L253.06 80.0043C252.929 79.9266 252.772 79.7703 252.633 79.424L250.685 80.2031ZM252.017 81.8239C252.617 82.1554 253.341 82.2733 254.102 82.2733V80.1756C253.527 80.1756 253.2 80.0811 253.031 79.9878L252.017 81.8239ZM254.102 82.2733C254.877 82.2733 255.588 82.1863 256.19 81.9674L255.473 79.996C255.185 80.1007 254.742 80.1756 254.102 80.1756V82.2733ZM256.19 81.9674C256.506 81.8524 256.841 81.6752 257.105 81.3871C257.39 81.076 257.547 80.6828 257.547 80.2535H255.45C255.45 80.2116 255.457 80.1566 255.481 80.0976C255.504 80.0389 255.534 79.996 255.559 79.9695C255.6 79.9241 255.601 79.9491 255.473 79.996L256.19 81.9674ZM257.547 80.2535C257.547 79.9837 257.477 79.7044 257.312 79.452C257.151 79.2063 256.937 79.0411 256.731 78.9321L255.75 80.7861C255.716 80.7681 255.631 80.7142 255.556 80.6C255.477 80.479 255.45 80.3514 255.45 80.2535H257.547ZM256.731 78.9321C256.364 78.7378 255.915 78.6647 255.506 78.6316L255.337 80.7225C255.491 80.735 255.603 80.7522 255.679 80.7692C255.761 80.7873 255.774 80.7991 255.75 80.7861L256.731 78.9321ZM255.534 78.6342C255.104 78.5878 254.534 78.5675 253.844 78.5675V80.6652C254.508 80.6652 254.99 80.6854 255.309 80.7199L255.534 78.6342ZM253.844 78.5675H252.691V80.6652H253.844V78.5675ZM253.74 79.6164V76.9615H251.642V79.6164H253.74ZM252.691 78.0104H253.389V75.9127H252.691V78.0104ZM253.389 78.0104C254.179 78.0104 254.854 77.9795 255.4 77.9113L255.14 75.8297C254.714 75.8829 254.135 75.9127 253.389 75.9127V78.0104ZM255.421 77.9084C255.716 77.8654 256.06 77.7853 256.358 77.6052C256.695 77.4018 257.047 77.0116 257.047 76.4306H254.949C254.949 76.283 254.993 76.1333 255.076 76.007C255.152 75.8908 255.237 75.8318 255.274 75.8097C255.309 75.788 255.321 75.7884 255.288 75.7982C255.258 75.8073 255.203 75.8203 255.118 75.8326L255.421 77.9084ZM257.047 76.4306C257.047 75.7218 256.638 75.2099 256.128 74.9152L255.079 76.7323C255.104 76.7463 255.065 76.7297 255.02 76.6609C254.97 76.5835 254.949 76.4968 254.949 76.4306H257.047ZM256.169 74.9403C255.658 74.6136 255.01 74.5322 254.405 74.5322V76.6299C254.63 76.6299 254.793 76.6469 254.906 76.6697C255.021 76.6931 255.052 76.7162 255.038 76.7072L256.169 74.9403ZM254.405 74.5322C253.558 74.5322 252.763 74.7074 252.098 75.1452L253.253 76.8968C253.479 76.7479 253.836 76.6299 254.405 76.6299V74.5322ZM252.089 75.1514C251.464 75.5727 251.008 76.1662 250.698 76.8758L252.621 77.7148C252.796 77.3119 253.017 77.0559 253.262 76.8906L252.089 75.1514ZM252.05 76.3221C250.888 75.8548 249.655 75.5258 248.355 75.3324L248.046 77.4074C249.194 77.5781 250.267 77.866 251.268 78.2685L252.05 76.3221ZM249.159 76.7959C249.559 75.8963 250.157 75.2202 250.967 74.7375L249.893 72.9354C248.701 73.6461 247.813 74.6589 247.242 75.9439L249.159 76.7959ZM250.963 74.7398C251.766 74.2662 252.865 73.9903 254.329 73.9903V71.8925C252.618 71.8925 251.117 72.2133 249.897 72.9331L250.963 74.7398ZM254.329 73.9903C255.269 73.9903 256.08 74.1148 256.774 74.346L257.437 72.3559C256.492 72.0411 255.452 71.8925 254.329 71.8925V73.9903ZM256.788 74.3508C257.503 74.5773 257.984 74.8716 258.298 75.1921L259.797 73.7248C259.18 73.0946 258.367 72.6506 257.422 72.3512L256.788 74.3508ZM258.306 75.2001C258.615 75.5099 258.711 75.7841 258.711 76.0513H260.809C260.809 75.1454 260.43 74.3576 259.789 73.7168L258.306 75.2001ZM258.711 76.0513C258.711 76.2232 258.673 76.3442 258.615 76.442L260.42 77.5114C260.686 77.0631 260.809 76.5671 260.809 76.0513H258.711ZM258.624 76.427C258.604 76.4595 258.475 76.6149 258.054 76.8478L259.069 78.6834C259.599 78.3904 260.107 78.0198 260.411 77.5264L258.624 76.427ZM258.069 76.8396C257.691 77.0405 257.087 77.2693 256.215 77.5143L256.782 79.5339C257.71 79.2732 258.481 78.9964 259.054 78.6916L258.069 76.8396Z" fill="black"/>
</svg>
