<svg width="1728" height="1117" viewBox="0 0 1728 1117" fill="none" xmlns="http://www.w3.org/2000/svg">
<g clip-path="url(#clip0_514_66)">
<rect width="1728" height="1117" fill="#DD6417"/>
<path d="M1108.63 526.543H1102.25V534.616H1108.63V526.543Z" fill="#F1EABE"/>
<path d="M1108.63 539.968H1102.25V548.04H1108.63V539.968Z" fill="#F1EABE"/>
<path d="M1108.63 553.437H1102.25V561.51H1108.63V553.437Z" fill="#F1EABE"/>
<path d="M1108.63 566.862H1102.25V574.934H1108.63V566.862Z" fill="#F1EABE"/>
<path d="M1108.63 580.331H1102.25V588.404H1108.63V580.331Z" fill="#F1EABE"/>
<path d="M1108.63 593.801H1102.25V601.873H1108.63V593.801Z" fill="#F1EABE"/>
<path d="M1108.63 607.225H1102.25V615.298H1108.63V607.225Z" fill="#F1EABE"/>
<path d="M1108.63 620.694H1102.25V628.767H1108.63V620.694Z" fill="#F1EABE"/>
<path d="M1108.63 634.119H1102.25V642.192H1108.63V634.119Z" fill="#F1EABE"/>
<path d="M1108.63 647.59H1102.25V655.662H1108.63V647.59Z" fill="#F1EABE"/>
<path d="M1108.63 661.059H1102.25V669.132H1108.63V661.059Z" fill="#F1EABE"/>
<path d="M1108.63 674.484H1102.25V682.557H1108.63V674.484Z" fill="#F1EABE"/>
<path d="M1108.63 687.953H1102.25V696.026H1108.63V687.953Z" fill="#F1EABE"/>
<path d="M1108.63 701.378H1102.25V709.451H1108.63V701.378Z" fill="#F1EABE"/>
<path d="M1108.63 714.847H1102.25V722.919H1108.63V714.847Z" fill="#F1EABE"/>
<path d="M1108.63 741.741H1102.25V749.814H1108.63V741.741Z" fill="#F1EABE"/>
<path d="M1108.63 504.275H1102.25V520.829H1108.63V504.275Z" fill="#F1EABE"/>
<path d="M1124.72 526.543H1118.34V534.616H1124.72V526.543Z" fill="#F1EABE"/>
<path d="M1124.72 539.968H1118.34V548.04H1124.72V539.968Z" fill="#F1EABE"/>
<path d="M1124.72 553.437H1118.34V561.51H1124.72V553.437Z" fill="#F1EABE"/>
<path d="M1124.72 566.862H1118.34V574.934H1124.72V566.862Z" fill="#F1EABE"/>
<path d="M1124.72 580.331H1118.34V588.404H1124.72V580.331Z" fill="#F1EABE"/>
<path d="M1124.72 593.801H1118.34V601.873H1124.72V593.801Z" fill="#F1EABE"/>
<path d="M1124.72 607.225H1118.34V615.298H1124.72V607.225Z" fill="#F1EABE"/>
<path d="M1124.72 620.694H1118.34V628.767H1124.72V620.694Z" fill="#F1EABE"/>
<path d="M1124.72 634.119H1118.34V642.192H1124.72V634.119Z" fill="#F1EABE"/>
<path d="M1124.72 647.59H1118.34V655.662H1124.72V647.59Z" fill="#F1EABE"/>
<path d="M1124.72 661.059H1118.34V669.132H1124.72V661.059Z" fill="#F1EABE"/>
<path d="M1124.72 674.484H1118.34V682.557H1124.72V674.484Z" fill="#F1EABE"/>
<path d="M1124.72 687.953H1118.34V696.026H1124.72V687.953Z" fill="#F1EABE"/>
<path d="M1124.72 701.378H1118.34V709.451H1124.72V701.378Z" fill="#F1EABE"/>
<path d="M1124.72 714.847H1118.34V722.919H1124.72V714.847Z" fill="#F1EABE"/>
<path d="M1124.72 741.741H1118.34V749.814H1124.72V741.741Z" fill="#F1EABE"/>
<path d="M1124.72 504.275H1118.34V520.829H1124.72V504.275Z" fill="#F1EABE"/>
<path d="M1140.82 526.543H1134.43V534.616H1140.82V526.543Z" fill="#F1EABE"/>
<path d="M1140.82 539.968H1134.43V548.04H1140.82V539.968Z" fill="#F1EABE"/>
<path d="M1140.82 553.437H1134.43V561.51H1140.82V553.437Z" fill="#F1EABE"/>
<path d="M1140.82 566.862H1134.43V574.934H1140.82V566.862Z" fill="#F1EABE"/>
<path d="M1140.82 580.331H1134.43V588.404H1140.82V580.331Z" fill="#F1EABE"/>
<path d="M1140.82 593.801H1134.43V601.873H1140.82V593.801Z" fill="#F1EABE"/>
<path d="M1140.82 607.225H1134.43V615.298H1140.82V607.225Z" fill="#F1EABE"/>
<path d="M1140.82 620.694H1134.43V628.767H1140.82V620.694Z" fill="#F1EABE"/>
<path d="M1140.82 634.119H1134.43V642.192H1140.82V634.119Z" fill="#F1EABE"/>
<path d="M1140.82 647.59H1134.43V655.662H1140.82V647.59Z" fill="#F1EABE"/>
<path d="M1140.82 661.059H1134.43V669.132H1140.82V661.059Z" fill="#F1EABE"/>
<path d="M1140.82 674.484H1134.43V682.557H1140.82V674.484Z" fill="#F1EABE"/>
<path d="M1140.82 687.953H1134.43V696.026H1140.82V687.953Z" fill="#F1EABE"/>
<path d="M1140.82 701.378H1134.43V709.451H1140.82V701.378Z" fill="#F1EABE"/>
<path d="M1140.82 714.847H1134.43V722.919H1140.82V714.847Z" fill="#F1EABE"/>
<path d="M1140.82 741.741H1134.43V749.814H1140.82V741.741Z" fill="#F1EABE"/>
<path d="M1140.82 504.275H1134.43V520.829H1140.82V504.275Z" fill="#F1EABE"/>
<path d="M1781.19 783.211C1778.18 781.397 1774.85 779.719 1771.35 779.81C1767.85 779.9 1764.66 781.669 1761.33 782.758C1758.01 783.846 1753.93 784.027 1751.45 781.533C1750.29 780.354 1749.67 778.767 1748.79 777.361C1747.9 775.955 1746.57 774.64 1744.93 774.685C1744.13 774.685 1743.25 775.048 1742.54 774.64C1741.69 774.141 1741.61 772.961 1741.52 771.964C1741.16 767.61 1738.46 763.483 1734.6 761.578C1730.75 759.628 1725.91 759.945 1722.32 762.304C1720.68 759.084 1718.07 757.179 1715.23 756.589C1712.39 756 1709.38 756.68 1706.85 758.086C1704.99 759.129 1703.13 760.626 1701.04 760.217C1699.85 759.991 1698.83 759.129 1697.76 758.539C1694.62 756.861 1690.41 757.859 1688.23 760.716C1687.08 762.258 1686.5 764.163 1685.26 765.614C1683.49 767.701 1680.34 768.426 1677.86 767.383C1675.78 766.521 1674.31 764.617 1672.72 762.984C1671.17 761.351 1669.17 759.809 1666.91 759.9C1665.23 759.991 1663.67 761.034 1661.99 761.034C1660.22 761.034 1658.67 759.809 1657.51 758.449C1656.98 757.814 1656.45 757.179 1655.78 756.725C1654.28 755.773 1652.37 756.181 1650.69 756.635C1650.02 756.045 1650.02 722.711 1650.02 722.711C1654.76 722.167 1659.55 723.255 1664.12 724.661C1669.04 726.158 1673.83 727.972 1678.53 730.103C1674.23 724.117 1667.35 720.398 1660.22 718.992C1660.79 718.629 1661.5 718.629 1662.21 718.584C1669.08 718.448 1676.04 718.357 1682.78 719.763C1673.74 715.001 1663.5 712.552 1653.35 712.688C1664.92 709.604 1676.57 706.701 1687.44 701.713C1679.28 701.441 1671.12 702.62 1663.36 705.159C1669.39 699.944 1675.51 694.365 1681.32 688.424C1670.77 692.234 1661.02 698.311 1652.9 706.157C1658.18 698.357 1662.3 690.057 1665.05 681.259C1660 685.431 1655.08 689.694 1650.24 694.093C1651.88 688.016 1653.17 681.621 1653.57 675.181C1649.62 680.714 1645.59 686.474 1644.3 693.186C1642.18 687.472 1640.05 681.077 1637.21 675C1636.15 681.123 1636.24 687.427 1637.48 693.504C1634.06 688.651 1629.76 684.388 1624.89 681.077C1628.21 686.746 1631.36 692.506 1634.33 698.402C1628.57 692.688 1620.63 689.286 1612.56 689.105C1618.55 693.549 1624.09 698.629 1629.01 704.298C1623.02 703.391 1615.58 704.933 1610.21 709.287C1614.6 708.107 1619.21 708.425 1623.69 709.014C1624.4 709.105 1625.15 709.241 1625.64 709.785C1619.79 710.874 1614.34 714.185 1610.66 718.992C1616.46 715.953 1623.29 714.91 1629.67 716.135C1626.35 717.132 1623.11 718.357 1620.19 720.216C1617.26 722.076 1614.65 724.57 1612.96 727.654C1619.48 724.208 1626.7 722.393 1633.97 721.124C1637.03 720.625 1640.22 720.217 1643.11 721.214C1643.11 720.851 1643.11 756.499 1643.11 756.499C1640.05 757.723 1637.61 760.172 1635.84 762.984C1634.06 765.796 1632.95 768.97 1632.07 772.19C1630.87 770.104 1630.21 767.61 1629.76 765.115C1628.08 768.834 1627.06 772.871 1626.88 776.953C1625.2 772.644 1622.8 768.608 1619.83 765.115C1620.19 771.011 1620.94 776.862 1622.05 782.667C1619.88 778.721 1616.51 775.683 1613.01 772.961C1615.53 777.723 1618.06 782.667 1618.46 788.064C1613.14 783.755 1605.83 781.76 1599.09 783.075C1592.35 784.345 1586.23 788.88 1582.95 795.048C1582.06 796.726 1581.31 798.586 1579.8 799.72C1576.61 802.123 1572.05 800.082 1568.23 801.171C1565.31 801.987 1563.05 804.618 1560.12 805.434C1555.6 806.658 1551.21 803.393 1546.69 802.395C1543.59 801.715 1540.26 802.078 1537.38 803.484C1538.53 799.583 1540.53 796.318 1542.88 793.37C1536.54 795.547 1530.69 799.13 1525.85 803.801C1529.09 794.867 1533.92 787.112 1539.73 780.309C1535.47 781.941 1531.57 784.526 1528.43 787.882C1530.55 782.395 1533.7 777.406 1536.85 772.417C1531.79 775.002 1527.49 778.993 1523.95 783.529C1520.4 788.064 1517.57 793.098 1514.86 798.178C1517.21 788.064 1521.24 778.404 1526.48 769.515C1519.78 772.508 1514.42 778.494 1512.02 785.569C1511.94 780.989 1512.11 776.454 1511.89 771.918C1511.63 767.383 1510.92 762.802 1508.92 758.721L1507.06 777.86C1504.98 771.964 1502.49 766.113 1498.64 761.215C1500.28 770.649 1501.74 780.127 1502.98 789.651C1500.06 784.118 1496.77 778.903 1492.83 774.231C1490.57 771.601 1487.86 769.016 1484.5 768.381C1484.5 769.288 1484.98 770.15 1485.43 770.921C1489.73 778.268 1493.63 785.978 1495.71 794.277C1493.32 790.876 1490.92 787.429 1487.91 784.526C1484.89 781.669 1481.26 779.356 1477.23 778.676C1484.23 786.023 1489.95 794.685 1494.03 804.073C1486.76 796.59 1478.51 789.697 1468.58 786.794C1472.88 791.102 1476.92 795.683 1480.64 800.536C1478.42 799.402 1475.98 798.586 1473.41 798.404C1470.89 798.223 1468.27 798.767 1466.1 800.128C1464.9 800.899 1463.84 801.896 1462.51 802.441C1460.51 803.212 1458.3 802.713 1456.26 801.987C1454.26 801.261 1452.27 800.309 1450.14 800.173C1444.78 799.856 1440.25 804.663 1434.89 804.935C1437.11 802.169 1438.88 799.311 1440.39 796.363C1435.2 799.992 1429.62 803.212 1423.5 804.708C1427.67 799.039 1431.74 792.781 1435.33 786.25C1428.86 791.284 1421.55 795.003 1414.28 798.676C1418.84 792.1 1423.14 785.66 1427.09 778.948C1423.28 780.263 1419.86 782.486 1416.85 785.207C1413.83 787.883 1411.26 791.057 1408.87 794.323C1411.17 789.47 1413.21 784.935 1415.03 780.263C1416.23 777.179 1417.34 774.05 1419.15 771.283C1419.42 770.83 1419.73 770.422 1420 769.968C1414.85 772.599 1410.55 776.771 1407.72 781.896C1407.72 775.093 1407.72 768.199 1405.37 761.941L1404.44 767.02C1403.33 773.052 1402.18 779.22 1403.02 785.297C1401.73 782.213 1400.62 779.311 1399.03 776.68C1397.43 774.05 1395.39 771.646 1392.78 770.059C1394.42 774.277 1396.06 778.54 1396.77 783.03C1395.39 780.807 1393.84 778.721 1391.8 777.089C1389.81 775.456 1387.33 774.367 1384.75 774.367C1385.82 775.683 1387.02 776.907 1388.17 778.132C1393.22 783.665 1396.99 790.422 1398.72 797.769C1393.44 789.288 1385.46 782.576 1376.29 778.993C1375.8 778.812 1375.27 778.631 1374.78 778.585C1383.82 786.749 1391.32 796.726 1396.63 807.792C1390.92 801.534 1384.58 795.366 1376.64 792.645C1381.16 796.001 1384.84 800.491 1387.33 805.615C1386.13 803.847 1383.96 803.302 1382.23 804.119C1381.34 804.527 1380.59 805.207 1379.61 805.389C1378.68 805.57 1377.71 805.162 1376.82 804.799C1374.12 803.665 1371.15 802.259 1369.9 799.538C1369.19 797.996 1369.15 796.273 1368.97 794.595C1368.8 792.917 1368.4 791.148 1367.24 789.969C1365.56 788.291 1362.9 788.336 1360.59 788.835C1358.56 789.288 1356.56 790.014 1355.05 791.465C1354.12 792.372 1353.5 793.506 1352.62 794.459C1351.73 795.411 1350.53 796.182 1349.25 796.001C1347.61 795.728 1346.68 794.096 1345.43 792.962C1344.02 791.647 1341.93 791.012 1340.03 791.511C1338.16 792.01 1336.57 793.688 1336.35 795.638C1336.13 795.728 1336.13 762.44 1336.13 762.44C1340.07 761.079 1344.33 761.487 1348.4 762.077C1351.46 762.485 1354.52 762.939 1357.36 764.118C1352.35 758.857 1345.17 755.864 1337.99 756.045C1341.49 754.049 1345.26 753.233 1349.02 752.644C1353.06 752.009 1357.14 751.555 1361.22 751.374C1358.56 749.242 1354.92 749.106 1351.55 749.061C1354.12 747.111 1357.18 745.432 1360.24 743.709C1356.16 743.392 1351.99 744.163 1348.32 745.977C1350.18 743.528 1351.77 741.305 1353.41 739.083C1349.91 739.99 1346.59 741.668 1343.75 743.981C1345.61 740.217 1347.47 736.634 1349.16 732.961C1344.64 735.999 1340.82 740.081 1338.08 744.843C1339.58 738.811 1341.49 732.235 1340.78 725.659C1338.16 730.194 1336.35 735.137 1334.53 740.081C1333.73 735.364 1332.62 730.693 1331.2 726.112C1329.65 731.691 1329.43 737.586 1329.79 743.346C1326.42 738.902 1321.63 735.682 1316.4 734.412C1319.99 738.267 1322.87 742.757 1324.91 747.655C1322.03 745.886 1319.01 744.208 1315.78 743.165C1312.54 742.122 1309.08 741.759 1305.8 742.621C1310.99 745.206 1316.09 748.063 1321.01 751.192C1317.15 750.966 1312.63 752.099 1309.17 754.73C1312.85 753.823 1316.71 754.276 1320.48 754.73C1322.6 754.957 1324.82 755.229 1326.68 756.317C1322.43 758.358 1318.61 761.351 1315.6 765.07C1319.99 762.304 1325.13 760.671 1330.27 760.49C1330.72 760.172 1330.72 801.76 1330.72 801.76C1329.21 800.581 1327.21 800.264 1325.35 800.627C1323.49 800.989 1321.81 801.942 1320.34 803.121C1319.1 804.119 1317.77 805.389 1316.18 805.298C1315.02 805.298 1314 804.482 1312.94 803.983C1309.66 802.395 1305.36 803.484 1303.14 806.386C1302.26 807.52 1301.59 808.971 1300.31 809.516C1298.62 810.241 1296.54 809.198 1294.99 810.196C1299.29 804.345 1303.94 798.268 1307.98 791.828C1301.64 796.59 1295.25 801.307 1288.91 806.069C1294.63 800.128 1299.95 794.005 1304.34 787.202C1299.29 790.15 1294.32 793.325 1289.49 796.681C1295.79 789.651 1302.17 782.44 1306.11 773.823C1298.76 780.989 1291.35 788.155 1283.06 794.141C1287.19 784.164 1294.19 775.365 1302.79 768.789C1297.47 769.968 1292.73 773.007 1288.69 776.726C1284.66 780.445 1281.25 784.799 1277.88 789.152C1278.9 782.984 1279.43 776.318 1279.38 769.651C1276.41 775.547 1274.37 781.896 1273.31 788.427C1271.94 781.669 1268.7 775.547 1265.46 769.515L1268.57 793.098C1263.38 786.295 1256.55 780.082 1248.71 775.637C1250.08 777.633 1251.5 779.674 1252.87 781.715C1250.26 779.719 1247.29 778.132 1244.19 777.043C1246.89 780.354 1250.04 783.302 1252.96 786.386C1259.08 792.826 1264.36 800.082 1269.59 807.293C1263.16 801.896 1256.73 796.046 1248.93 792.917C1246.18 791.783 1243.25 791.057 1240.37 790.332C1240.02 790.241 1239.66 790.15 1239.31 790.195C1240.24 791.601 1241.57 792.599 1242.86 793.642C1250.66 799.992 1257.53 807.565 1263.11 816.001C1254.82 809.742 1246.05 803.574 1235.94 801.624C1239.93 804.98 1243.65 808.609 1247.11 812.509C1243.83 811.829 1239.62 812.101 1236.03 813.779C1233.41 815.049 1231.11 817.044 1228.32 817.634C1221.98 818.949 1215.95 812.645 1209.56 813.733C1206.24 814.278 1203.31 816.863 1199.95 816.908C1193.3 816.999 1189.26 807.747 1182.61 807.702C1179.29 807.702 1175.74 810.015 1172.95 808.2C1172.33 807.792 1171.8 807.203 1171.18 806.794C1169.18 805.434 1166.48 806.069 1164.26 807.067C1162.09 808.064 1159.92 809.47 1157.52 809.516C1155.84 809.561 1154.24 808.971 1152.56 808.699C1150.92 808.427 1149.01 808.518 1147.81 809.742C1150.07 804.073 1153.49 798.812 1154.82 792.826C1150.47 798.268 1145.73 803.348 1140.54 807.974C1143.56 803.484 1146 798.359 1148.43 793.279C1150.16 789.651 1151.89 785.978 1153 782.123C1153.75 779.492 1154.24 776.68 1153.53 774.05C1148.97 782.077 1144.31 790.241 1137.66 796.59C1142.89 785.66 1146.75 774.594 1149.32 763.301C1147.41 764.934 1145.51 766.612 1143.82 768.472C1138.99 773.914 1136.42 780.989 1133.94 787.882C1135.58 779.402 1137.53 770.921 1136.07 762.621C1133.72 767.701 1132.39 773.234 1132.12 778.812C1130.35 774.005 1128.22 769.333 1125.78 764.843C1125.47 765.796 1125.65 766.839 1125.78 767.837C1126.89 774.912 1128.26 781.896 1129.64 788.88C1126.54 781.216 1122.19 774.05 1116.78 767.837C1117.18 777.814 1121.04 787.248 1125.38 796.182C1121.57 790.059 1117.71 784.345 1113.24 779.084C1112.97 778.767 1112.57 778.449 1112.22 778.631C1114.48 786.567 1117.94 794.096 1122.41 800.944C1118.6 796.59 1113.81 793.053 1108.41 791.284C1114.61 796.862 1119.98 803.484 1124.14 810.786C1119.49 808.019 1114.66 804.935 1109.78 801.851C1110.31 803.756 1111.38 805.434 1112.39 807.112C1111.02 807.112 1109.69 807.928 1108.27 807.928C1106.41 807.928 1104.86 806.568 1103.62 805.116C1102.38 803.711 1101.22 802.078 1099.54 801.352C1097.63 800.581 1095.51 801.035 1093.55 801.534C1093.82 799.901 1093.51 798.132 1092.45 796.998C1091.52 796.001 1090.14 795.502 1088.77 795.366C1087.57 795.275 1086.37 795.366 1085.22 795.774C1084.47 796.046 1083.71 796.409 1082.92 796.454C1080.79 796.59 1079.24 794.549 1077.64 793.053C1075.65 791.193 1073.07 789.969 1070.37 789.833C1067.67 789.697 1064.92 790.694 1063.06 792.69C1061.19 794.685 1060.31 797.633 1060.97 800.309C1061.06 800.581 1061.15 800.899 1061.11 801.171C1060.97 802.123 1059.78 802.35 1058.89 802.758C1057.51 803.393 1056.72 804.844 1056.45 806.341C1056.19 807.838 1056.45 809.38 1056.63 810.876C1054.32 809.697 1052.02 809.47 1050.07 810.241C1048.91 810.695 1047.76 811.511 1046.52 811.33C1045.15 811.103 1044.22 809.788 1043.11 808.926C1041.6 807.838 1039.56 807.611 1037.88 808.382C1036.28 809.108 1035.08 810.649 1033.44 811.239C1032.16 811.693 1030.7 811.511 1029.54 810.786C1028.92 810.377 1028.39 809.833 1027.73 809.425C1025.82 808.246 1023.38 808.881 1021.21 809.561C1026.13 806.205 1031.36 802.214 1035.93 797.497C1030.61 798.903 1025.24 800.264 1019.79 800.989C1023.07 798.041 1025.51 794.459 1026.84 790.513C1023.16 792.191 1019.48 793.914 1015.8 795.592C1016.38 793.098 1017.22 790.83 1017.04 788.472C1016.86 786.114 1015.36 783.71 1013.1 783.393C1010.53 782.984 1008.31 785.207 1005.87 786.023C1005.38 786.159 1004.9 786.295 1004.41 786.204C1002.81 785.887 1002.28 783.891 1001.17 782.758C999.576 781.125 996.872 781.397 994.833 782.304C992.75 783.211 990.932 784.708 988.76 785.297C986.544 785.887 984.105 785.524 982.155 784.254C980.736 783.347 979.628 781.987 978.254 781.034C975.284 779.039 971.028 779.22 968.236 781.488C966.285 783.03 964.955 785.479 962.606 786.341C960.389 787.112 957.907 786.159 955.557 786.341C952.72 786.522 950.105 788.472 949.041 791.193C948.465 792.644 948.154 794.459 946.78 795.139C945.14 795.91 943.367 794.413 941.682 793.733C939.244 792.781 936.274 793.688 934.767 795.819C933.836 795.411 933.57 795.048 933.304 794.685C932.284 793.325 931.043 791.783 929.359 791.783C926.965 791.783 925.458 794.821 923.064 794.957C921.158 795.094 919.695 793.325 917.833 792.826C916.592 792.508 915.262 792.826 914.287 793.597C912.735 794.821 912.026 797.225 910.164 797.815C907.549 798.631 904.978 795.275 902.318 796.001C900.633 796.454 899.614 798.495 897.885 798.812C896.2 799.175 894.693 797.815 893.097 797.18C890.349 796.137 887.157 797.316 884.985 799.357C882.813 801.398 881.483 804.209 880.197 806.885C878.07 804.119 874.922 802.713 871.908 802.713C868.893 802.713 865.968 803.847 863.264 805.298C862.155 805.887 861.047 806.522 859.85 806.885C858.653 807.203 857.279 807.203 856.215 806.522C854.708 805.57 854.087 803.484 852.492 802.713C851.827 802.395 851.117 802.35 850.408 802.395C849.122 802.395 847.881 802.713 846.729 803.212C845.798 803.62 844.911 804.119 843.98 804.482C843.049 804.799 841.985 804.98 841.055 804.572C840.611 804.391 840.212 804.119 839.813 803.892C838.794 803.348 837.553 803.257 836.444 803.62C836.444 803.529 836.755 800.536 836.755 800.536C842.872 799.357 849.034 797.316 853.6 793.007C854.398 792.236 855.151 791.42 855.55 790.377C849.699 791.601 843.98 793.642 838.705 796.499C842.207 793.143 845.443 789.561 848.413 785.706C849.211 784.662 850.053 783.483 850.186 782.168C844.823 784.118 839.946 787.384 836.001 791.601C838.882 786.658 841.454 781.578 842.163 776.091C840.434 777.996 838.705 779.9 837.021 781.805C837.331 778.903 837.597 776.045 837.907 773.143C835.868 775.32 834.494 778.177 834.05 781.125C834.05 777.678 833.563 774.231 832.676 770.966C831.036 774.866 830.238 779.175 830.371 783.393C828.465 779.855 826.027 776.68 823.057 774.141C823.145 778.903 824.52 783.619 826.913 787.656C823.012 784.889 818.668 782.032 814.014 779.81C816.363 785.524 820.619 790.377 825.938 793.416C820.973 791.692 815.388 790.059 809.758 788.971C812.196 791.601 815.211 793.597 818.269 795.456C813.349 794.731 808.428 793.96 803.552 793.234C810.911 798.586 820.175 800.4 829.219 800.808C829.307 800.899 829.307 804.345 829.307 804.345C827.357 804.164 825.318 804.572 823.589 805.479C821.816 806.386 819.998 807.883 818.092 807.203C816.319 806.568 815.654 804.391 814.59 802.803C812.817 800.173 809.226 799.039 806.3 800.082C803.995 800.944 801.734 802.985 799.474 801.987C798.764 801.67 798.188 801.035 797.479 800.672C795.041 799.311 791.982 801.035 790.253 803.257C789.145 804.708 788.081 806.477 786.352 806.885C785.2 807.157 784.003 806.794 782.806 806.84C780.235 806.931 777.974 809.425 778.063 812.055C778.063 812.418 778.107 812.826 777.929 813.144C777.796 813.325 777.619 813.461 777.398 813.552C775.048 814.731 771.723 813.643 769.95 815.638C768.842 816.908 768.886 818.904 767.911 820.264C766.803 821.806 764.586 822.169 762.858 821.443C761.129 820.718 759.887 819.13 759.134 817.362C758.646 816.228 758.336 815.049 757.76 814.006C757.183 812.962 756.208 812.01 755.056 811.874C753.903 811.738 752.573 812.327 751.686 811.602C751.155 811.194 750.977 810.468 750.8 809.833C750.179 807.792 748.938 805.887 747.165 804.754C745.392 803.62 743.087 803.257 741.18 804.073C739.895 802.214 737.9 801.125 736.083 801.261C734.265 801.398 732.669 802.441 731.251 803.62C729.832 804.799 728.547 806.114 726.951 806.976C724.025 808.563 720.213 808.291 717.509 806.296C716.09 805.253 714.982 803.801 713.43 802.894C710.593 801.216 707.003 801.942 703.855 802.894C700.708 803.847 697.339 804.98 694.191 803.983C691.93 803.302 690.113 801.579 687.852 800.944C685.015 800.173 681.779 801.307 680.05 803.71C678.676 805.57 678.011 808.246 675.883 809.062C674.731 809.516 673.357 809.198 672.47 808.382C671.672 807.656 671.317 806.568 670.519 805.797C668.968 804.345 666.574 804.708 664.535 805.207C668.525 800.853 672.248 796.772 675.396 792.236C674.598 792.1 673.844 792.372 673.091 792.69C670.032 793.869 667.017 795.003 663.959 796.182C666.574 793.597 669.057 790.876 671.317 787.973C668.303 788.88 665.333 790.014 662.452 791.375C663.471 788.835 664.801 787.066 665.599 785.071C666.397 783.03 666.618 780.671 665.732 778.676C664.845 776.68 662.673 775.229 660.59 775.683C659.747 775.864 658.949 776.363 658.063 776.454C655.314 776.771 653.275 773.596 650.527 773.324C648.754 773.143 647.025 774.322 646.05 775.864C645.03 777.406 644.587 779.22 644.188 780.989C640.907 777.361 637.494 774.322 633.682 771.918C634.214 776.953 635.588 781.851 636.918 786.749C633.637 783.12 630.002 779.855 626.057 777.043C627.786 782.123 629.781 787.157 631.953 792.055C629.337 790.059 626.589 788.291 623.708 786.794C621.447 785.615 618.92 784.617 616.438 785.116C620.782 788.336 624.771 792.01 628.318 796.046C625.835 795.366 623.309 793.869 620.56 793.688C617.812 793.506 614.797 794.867 613.778 797.497C612.758 795.638 610.808 794.368 608.724 794.232C606.641 794.096 604.513 795.139 603.316 796.908C602.651 797.905 602.252 799.039 601.587 800.082C599.903 802.667 596.356 803.801 593.519 802.667C592.101 802.123 590.904 801.08 589.485 800.4C586.427 798.948 582.526 799.674 580.176 802.078C578.846 803.438 577.915 805.253 576.231 806.114C574.103 807.248 571.488 806.341 569.315 805.298C567.143 804.255 564.883 802.985 562.489 803.302C559.829 803.711 557.435 806.114 554.82 805.525C553.091 805.162 551.85 803.529 551.096 801.896C550.342 800.264 549.899 798.45 548.924 796.953C546.353 793.007 540.945 792.236 536.379 793.143C530.439 794.323 525.208 797.679 520.065 800.989C522.105 796.227 524.365 791.964 526.626 787.656C519.755 789.334 513.283 792.781 508.008 797.588C511.599 793.279 514.835 788.608 517.273 783.483C517.893 782.213 518.47 780.807 518.337 779.402C514.391 781.306 510.712 783.846 507.476 786.885C508.673 784.39 509.692 781.669 510.579 778.857C509.648 779.084 508.85 779.764 508.141 780.445C505.924 782.531 504.018 784.935 502.467 787.61C503.309 783.03 505.348 778.54 504.55 773.959C501.137 777.451 498.521 781.669 496.926 786.341C495.551 782.531 494 778.177 491.916 774.095C490.054 779.084 489.877 784.708 491.384 789.833C489.567 785.978 487.395 782.349 484.912 778.948C484.203 785.706 486.552 792.418 489.345 798.586C486.641 795.502 483.494 792.69 479.903 790.604C479.105 790.15 478.307 789.697 477.376 789.561C476.268 789.334 475.115 789.561 474.14 789.016C476.445 792.418 478.928 795.638 481.588 798.767C478.928 801.398 475.337 801.307 473.165 799.357C472.456 798.676 471.879 797.86 471.126 797.225C468.555 795.139 464.875 796.227 461.772 797.225C458.669 798.223 454.68 798.767 452.685 796.137C451.532 794.64 451.355 792.418 449.848 791.329C448.03 790.014 445.503 791.103 443.73 792.508C441.957 793.914 440.14 795.638 437.923 795.592C435.84 795.547 434.155 793.869 432.205 793.007C428.614 791.42 424.004 793.189 422.275 796.772C421.344 794.413 419.659 792.282 417.443 791.556C415.271 790.83 412.7 791.556 411.148 793.325C410.794 793.733 410.483 794.232 410.04 794.595C408.4 795.865 406.006 794.685 404.499 793.189C402.992 791.692 401.529 789.833 399.445 789.742C396.254 789.606 393.727 793.824 390.624 792.917C389.56 792.599 388.806 791.783 387.964 791.057C386.102 789.47 383.753 788.381 381.315 788.291C378.256 788.155 375.64 788.653 373.646 790.15C371.473 791.783 370.365 794.504 369.301 797.089C369.124 797.497 368.991 797.86 368.681 798.178C368.016 798.812 366.907 798.767 366.154 798.268C365.356 797.815 364.824 796.998 364.248 796.273C363.272 794.957 362.164 793.688 360.746 792.917C358.928 791.964 356.756 791.874 354.761 792.418C352.766 792.962 350.993 794.05 349.309 795.275C348.91 795.547 348.378 795.819 348.067 795.456C347.934 795.32 347.934 795.094 347.89 794.912C347.624 792.146 347.89 788.971 346.117 786.885C345.408 786.068 344.388 785.479 343.369 785.116C338.226 783.166 331.887 785.57 329.183 790.422C328.341 791.964 327.809 793.688 326.789 795.094C325.681 796.636 324.13 797.679 322.445 798.495C320.849 799.266 319.032 799.901 318.012 801.398C316.638 803.438 317.48 807.248 318.189 809.606C317.525 809.334 316.904 809.062 316.239 808.835C314.82 808.427 313.313 808.382 311.85 808.427C307.417 808.609 302.984 809.878 299.083 812.055C301.566 805.797 305.866 800.218 310.875 795.411C303.605 797.316 297.532 802.35 291.769 807.248C297.488 799.629 303.738 792.1 305.6 782.894C302.719 785.524 300.014 788.427 297.665 791.556C299.793 786.975 301.965 782.349 303.073 777.406C295.493 782.712 290.484 791.012 286.095 799.311C286.937 795.32 288.71 791.375 290.129 787.338C291.548 783.256 292.567 778.948 292.079 774.685C288.046 779.719 284.676 785.343 282.061 791.284C283.125 782.848 282.327 774.594 279.756 766.884C276.298 774.277 274.924 782.712 275.855 790.83C273.417 786.522 269.782 782.984 265.526 780.626C267.654 785.569 269.915 790.468 272.264 795.32C268.94 790.15 263.31 787.111 257.769 784.617C257.68 784.617 257.547 784.526 257.458 784.526C257.059 784.572 257.192 785.207 257.458 785.524C261.625 791.692 265.039 798.404 267.61 805.434C264.241 801.443 259.586 798.722 254.577 797.905C256.439 801.307 258.123 804.844 259.675 808.427C258.832 807.112 257.769 805.797 256.572 804.663C253.69 801.851 250.1 799.901 246.332 798.54C241.588 796.817 236.269 795.955 231.659 797.951C229.619 798.812 227.758 800.218 225.63 800.899C223.236 801.624 220.532 801.352 218.315 800.082C216.454 799.039 214.902 797.316 212.863 796.862C210.779 796.409 208.563 797.361 206.967 798.858C205.371 800.309 204.263 802.259 203.066 804.073C202.711 804.663 202.268 805.252 201.692 805.57C200.85 806.023 199.786 805.797 198.988 805.298C198.19 804.799 197.569 804.028 196.949 803.257C197.481 798.812 198.013 795.23 198.367 791.601C193.624 793.778 189.413 797.134 186.221 801.307C186.842 795.819 188.881 790.83 191.629 786.341C185.866 789.515 181.212 794.685 178.552 800.763C180.547 791.148 185.246 782.395 190.033 773.869C182.763 776.998 176.779 783.166 173.72 790.604C172.833 783.166 172.213 775.411 171.459 767.701C169.908 770.104 169.553 773.098 169.243 775.955C168.622 781.851 168.046 787.746 167.691 793.642C165.12 785.297 162.327 776.59 156.21 770.467C158.205 779.81 159.756 789.243 160.776 798.722C156.166 791.465 149.383 785.66 141.537 782.349C144.064 785.978 146.369 789.697 148.497 793.597C149.295 795.048 150.048 796.59 150.137 798.268C146.635 794.096 141.714 791.148 136.395 790.105C141.714 793.96 146.058 799.266 148.718 805.389C146.058 807.067 143.62 805.479 141.98 803.574C140.34 801.67 139.187 799.311 137.414 797.543C134.666 794.776 130.543 793.597 126.731 794.277C122.919 794.958 119.505 797.407 117.422 800.717C116.712 801.851 116.092 803.166 115.028 803.983C113.255 805.434 110.373 805.071 108.955 803.302C108.334 802.758 108.334 742.439 108.334 742.439C115.383 742.394 122.786 742.122 128.77 738.312C124.115 736.271 118.929 735.41 113.875 735.908C118.796 731.827 124.204 728.38 129.967 725.613C124.426 724.434 118.441 725.296 113.432 728.062C115.737 724.48 118.397 721.214 120.436 717.586C121.5 715.727 122.387 713.731 122.608 711.599C118.264 714.638 114.23 718.13 110.639 722.031C110.373 718.538 110.063 714.774 109.575 711.01C106.783 714.729 105.985 719.582 105.32 724.253C103.059 720.398 100.976 716.996 98.4487 714.003C98.4487 717.949 99.7343 721.758 100.976 725.523C99.291 722.62 96.5426 720.398 93.3509 719.4C95.7003 722.938 97.6508 726.747 99.1137 730.738C96.1879 726.475 92.021 723.164 87.2334 721.35C88.3416 724.344 89.4499 727.382 91.1344 730.058C93.2622 733.505 96.2766 736.317 99.7786 738.267C96.9416 738.403 93.8828 739.128 91.1344 740.444C89.5829 741.215 88.0757 742.212 87.1891 743.709C90.1148 743.482 93.0849 744.435 96.0106 744.208C97.8281 744.072 99.6013 743.528 101.33 742.938C101.773 743.392 101.773 800.581 101.773 800.581C99.2467 799.13 96.0106 798.994 93.3509 800.218C91.7993 800.944 90.4251 802.078 88.7406 802.259C87.5437 802.395 86.3025 801.987 85.1943 801.534C83.5097 800.899 81.8252 800.128 80.185 799.311C78.8995 798.631 77.6139 797.905 76.2397 797.497C73.2697 796.59 70.0336 797.18 66.9749 797.769C66.7089 797.406 66.7089 751.419 66.7089 751.419C70.3439 750.693 74.0676 750.512 77.7912 750.875C77.2593 749.877 76.2841 749.242 75.3088 748.698C72.6491 747.201 69.7676 746.113 66.7532 745.478C72.5161 743.165 77.8356 741.441 81.249 737.36C77.7913 737.587 74.3779 738.176 71.0089 738.766C76.417 736.226 81.5593 733.006 86.1695 729.151C79.7861 728.833 73.314 730.965 68.3048 735.092C71.9841 730.557 75.7078 725.886 77.7469 720.398C73.58 721.804 69.7676 724.207 66.6646 727.337C66.2213 723.981 65.911 720.489 65.3347 717.087C62.6306 720.715 60.9461 725.069 60.5471 729.604C59.0843 727.201 57.2667 724.978 54.9173 723.436C52.6122 721.895 49.7308 721.033 47.0267 721.486C49.9081 724.525 52.3019 728.062 54.075 731.872C51.3709 730.693 48.8885 729.06 46.0514 728.289C43.2587 727.564 40.0669 727.79 37.7175 729.559C42.904 731.101 47.7359 734.094 51.4596 738.131C48.6669 737.405 45.8298 736.906 42.9927 737.224C40.1556 737.496 37.3185 738.63 35.368 740.761C35.3237 740.807 35.235 740.897 35.235 740.988C35.0577 741.441 35.8113 741.623 36.2989 741.532C42.0618 740.217 48.2235 740.716 53.7204 742.938C54.7843 743.392 55.8925 743.89 56.6018 744.843C51.5039 744.389 45.9628 744.389 41.7071 747.292C44.4999 748.562 47.2926 749.877 50.307 750.512C53.2771 751.192 56.4688 751.238 59.3059 750.104C59.8379 750.058 59.4389 799.765 59.4389 799.765C57.1338 799.039 54.5626 799.402 52.5235 800.672C51.6812 801.216 50.8833 801.896 49.9081 802.032C48.0906 802.305 46.672 800.581 45.1648 799.538C42.638 797.769 39.0031 797.86 36.5206 799.72C34.3041 801.398 32.9742 804.345 30.4031 805.298C29.5166 804.754 29.5166 792.01 29.5166 792.01C31.5557 791.375 33.6835 790.921 35.8113 790.694C34.8804 789.787 33.8165 789.062 32.6639 788.427C38.2938 786.567 44.2339 786.477 50.0411 787.293C47.1153 783.393 42.5051 780.898 37.7175 780.581C40.1999 777.86 42.9927 775.864 45.9184 774.186C41.7515 772.825 37.2299 773.823 33.0186 775.002C35.9443 770.649 39.2247 766.748 42.8154 763.165C38.9144 762.576 35.1464 764.571 31.733 766.657C33.1516 763.029 34.7031 759.719 36.5649 756.589C32.531 757.224 29.2506 760.172 26.6795 763.437C25.5712 761.124 24.9506 758.721 24.596 756.272C22.9558 759.673 22.2909 763.573 22.7785 767.292C19.9414 763.12 15.0652 760.535 10.1446 760.535C12.1394 763.075 14.2229 765.75 15.1095 768.88C13.1147 768.154 11.0312 767.746 8.94772 767.655C8.10546 767.655 7.13021 767.701 6.64259 768.426C10.2776 770.648 13.5136 773.642 15.9518 777.179C11.3415 774.413 5.4457 774.231 0.658126 776.635C3.49521 777.86 5.97765 779.855 7.75082 782.395C4.29313 783.257 1.27874 785.751 -0.317121 789.016C3.1849 786.885 7.92815 786.159 12.4497 785.706C15.2425 785.388 18.3012 785.207 20.7393 786.658C16.2177 788.608 12.1394 791.647 8.94772 795.502C13.6023 794.549 18.1682 793.053 22.4682 791.057C23.0001 791.057 23.4434 805.615 23.4434 805.615C20.6064 802.985 16.2177 802.214 12.6714 803.71C10.4992 804.618 8.59308 806.296 6.28796 806.522C1.98801 806.885 -1.46968 802.123 -5.76963 802.441C-9.183 802.667 -12.1974 806.114 -15.5221 805.253C-17.7386 804.663 -19.0684 802.35 -19.822 800.173C-20.62 797.951 -21.1519 795.547 -22.7921 793.914C-25.4962 791.148 -30.4611 791.828 -32.9435 794.776C-35.426 797.724 -35.6476 802.214 -34.0961 805.797C-36.8889 803.529 -40.8785 802.214 -44.6465 802.713C-48.4588 803.212 -51.9608 805.525 -54 808.835V1335.2H1781.37L1780.97 783.483L1781.19 783.211Z" fill="#33112F"/>
<path d="M1624.57 584.01H1636.9V588.355H1652.19V604.334H1663.24V624.283H1680.78V865.219H1616.21L1597.4 763.93L1624.57 584.01Z" fill="#33112F"/>
<path d="M1351.93 606.95H1364.85V616.761H1411.65V642.223H1417.04V730.01H1431.15V748.979H1418V759.397H1408.5V745.521H1360.97V723.376H1351.93V606.95Z" fill="#33112F"/>
<path d="M1300.01 793.877L1308.96 783.879V760.099C1308.96 760.099 1326.68 748.792 1326.18 748.792C1325.67 748.792 1326.18 615.5 1326.18 615.5H1335.35V606.95H1351.93V723.33H1360.97V745.522H1408.5V759.398H1458V779.908H1503.66V763.93H1549.5V623.255H1566.08V603.633H1583.29V592.327H1613.2L1617.08 584.01H1624.57V749.96L1611.83 760.426V770.891L1616.21 774.629V865.172H1307.04L1300.06 793.831L1300.01 793.877Z" fill="#ED4B32"/>
<path d="M1347.18 614.284H1342.29V621.246H1347.18V614.284Z" fill="#33112F"/>
<path d="M1347.18 627.553H1342.29V634.515H1347.18V627.553Z" fill="#33112F"/>
<path d="M1347.18 640.775H1342.29V647.736H1347.18V640.775Z" fill="#33112F"/>
<path d="M1347.18 653.996H1342.29V660.958H1347.18V653.996Z" fill="#33112F"/>
<path d="M1347.18 667.266H1342.29V674.227H1347.18V667.266Z" fill="#33112F"/>
<path d="M1347.18 680.488H1342.29V687.449H1347.18V680.488Z" fill="#33112F"/>
<path d="M1347.18 693.755H1342.29V700.717H1347.18V693.755Z" fill="#33112F"/>
<path d="M1347.18 706.977H1342.29V713.938H1347.18V706.977Z" fill="#33112F"/>
<path d="M1575.89 637.645H1571.01V644.606H1575.89V637.645Z" fill="#33112F"/>
<path d="M1575.89 650.866H1571.01V657.828H1575.89V650.866Z" fill="#33112F"/>
<path d="M1575.89 664.136H1571.01V671.097H1575.89V664.136Z" fill="#33112F"/>
<path d="M1575.89 677.357H1571.01V684.318H1575.89V677.357Z" fill="#33112F"/>
<path d="M1575.89 690.625H1571.01V697.586H1575.89V690.625Z" fill="#33112F"/>
<path d="M1575.89 703.847H1571.01V710.808H1575.89V703.847Z" fill="#33112F"/>
<path d="M1575.89 717.116H1571.01V724.077H1575.89V717.116Z" fill="#33112F"/>
<path d="M1575.89 730.337H1571.01V737.299H1575.89V730.337Z" fill="#33112F"/>
<path d="M1575.89 743.606H1571.01V750.567H1575.89V743.606Z" fill="#33112F"/>
<path d="M1575.89 756.828H1571.01V763.79H1575.89V756.828Z" fill="#33112F"/>
<path d="M1599.86 637.645H1594.98V644.606H1599.86V637.645Z" fill="#33112F"/>
<path d="M1599.86 650.866H1594.98V657.828H1599.86V650.866Z" fill="#33112F"/>
<path d="M1599.86 664.136H1594.98V671.097H1599.86V664.136Z" fill="#33112F"/>
<path d="M1599.86 690.625H1594.98V697.586H1599.86V690.625Z" fill="#33112F"/>
<path d="M1599.86 703.847H1594.98V710.808H1599.86V703.847Z" fill="#33112F"/>
<path d="M1599.86 717.116H1594.98V724.077H1599.86V717.116Z" fill="#33112F"/>
<path d="M1599.86 730.337H1594.98V737.299H1599.86V730.337Z" fill="#33112F"/>
<path d="M1599.86 756.828H1594.98V763.79H1599.86V756.828Z" fill="#33112F"/>
<path d="M1452.66 765.004H1447.77V771.965H1452.66V765.004Z" fill="#33112F"/>
<path d="M1452.66 777.665H1447.77V784.627H1452.66V777.665Z" fill="#33112F"/>
<path d="M1443.39 765.004H1438.5V771.965H1443.39V765.004Z" fill="#33112F"/>
<path d="M1443.39 777.665H1438.5V784.627H1443.39V777.665Z" fill="#33112F"/>
<path d="M1434.07 765.004H1429.19V771.965H1434.07V765.004Z" fill="#33112F"/>
<path d="M1434.07 777.665H1429.19V784.627H1434.07V777.665Z" fill="#33112F"/>
<path d="M1424.76 765.004H1419.87V771.965H1424.76V765.004Z" fill="#33112F"/>
<path d="M1424.76 777.665H1419.87V784.627H1424.76V777.665Z" fill="#33112F"/>
<path d="M1415.44 765.004H1410.56V771.965H1415.44V765.004Z" fill="#33112F"/>
<path d="M1415.44 777.665H1410.56V784.627H1415.44V777.665Z" fill="#33112F"/>
<path d="M1552.06 777.665H1547.17V784.627H1552.06V777.665Z" fill="#33112F"/>
<path d="M1542.74 777.665H1537.86V784.627H1542.74V777.665Z" fill="#33112F"/>
<path d="M1524.16 777.665H1519.28V784.627H1524.16V777.665Z" fill="#33112F"/>
<path d="M1499.41 616.2H1504.89V602.324H1512.33V591.672H1522.01V576.115H1523.8V622.414H1499.41V616.2Z" fill="#5B9B9B"/>
<path d="M1549.5 623.255V617.041L1541.83 606.062H1534.3V593.821H1528.91V576.115H1523.79V594.102H1515.53V606.576H1509.68V619.284H1503.66V763.929H1549.5V623.255Z" fill="#33112F"/>
<path d="M1499.41 607.557H1455.53V619.284H1499.41V607.557Z" fill="#5B9B9B"/>
<path d="M1418 759.398V748.979H1431.15V619.284H1470.65V757.716H1462.29L1456.76 749.213H1451.65V759.398H1418Z" fill="#5B9B9B"/>
<path d="M1452.61 626.432H1441.74V632.739H1452.61V626.432Z" fill="#F1EABE"/>
<path d="M1452.61 638.392H1441.74V644.699H1452.61V638.392Z" fill="#F1EABE"/>
<path d="M1452.61 650.353H1441.74V656.66H1452.61V650.353Z" fill="#F1EABE"/>
<path d="M1452.61 662.359H1441.74V668.667H1452.61V662.359Z" fill="#F1EABE"/>
<path d="M1452.61 674.32H1441.74V680.627H1452.61V674.32Z" fill="#F1EABE"/>
<path d="M1452.61 686.281H1441.74V692.588H1452.61V686.281Z" fill="#F1EABE"/>
<path d="M1452.61 698.287H1441.74V704.595H1452.61V698.287Z" fill="#F1EABE"/>
<path d="M1452.61 710.248H1441.74V716.555H1452.61V710.248Z" fill="#F1EABE"/>
<path d="M1452.61 722.208H1441.74V728.516H1452.61V722.208Z" fill="#F1EABE"/>
<path d="M1452.61 734.215H1441.74V740.522H1452.61V734.215Z" fill="#F1EABE"/>
<path d="M1503.66 619.284H1470.65V779.908H1503.66V619.284Z" fill="#F5CE92"/>
<path d="M1498.04 626.432H1492.61V632.739H1498.04V626.432Z" fill="#5B9B9B"/>
<path d="M1498.04 638.392H1492.61V644.699H1498.04V638.392Z" fill="#5B9B9B"/>
<path d="M1498.04 650.353H1492.61V656.66H1498.04V650.353Z" fill="#5B9B9B"/>
<path d="M1498.04 662.359H1492.61V668.667H1498.04V662.359Z" fill="#5B9B9B"/>
<path d="M1498.04 674.32H1492.61V680.627H1498.04V674.32Z" fill="#5B9B9B"/>
<path d="M1498.04 686.281H1492.61V692.588H1498.04V686.281Z" fill="#5B9B9B"/>
<path d="M1498.04 698.287H1492.61V704.595H1498.04V698.287Z" fill="#5B9B9B"/>
<path d="M1498.04 710.248H1492.61V716.555H1498.04V710.248Z" fill="#5B9B9B"/>
<path d="M1498.04 722.208H1492.61V728.516H1498.04V722.208Z" fill="#5B9B9B"/>
<path d="M1498.04 734.215H1492.61V740.522H1498.04V734.215Z" fill="#5B9B9B"/>
<path d="M1503.66 779.908L1493.07 768.415H1476.49L1470.65 757.716H1462.29L1456.77 749.213H1451.65V759.398H1458V779.908H1503.66Z" fill="#33112F"/>
<path d="M333.882 649.979V630.777H371.917L379.908 605.175C382.876 595.644 391.505 589.196 401.277 589.196C411.916 589.196 421.048 596.812 423.24 607.464L424.244 612.323H431.413V623.956H446.024V671.19H333.882V649.979Z" fill="#609AA1"/>
<path d="M417.395 621.947L422.919 637.925V671.19H445.978V623.956H431.367V612.323H424.198L423.193 607.464C421.002 596.812 411.87 589.196 401.231 589.196V624.283L417.349 621.947H417.395Z" fill="#33112F"/>
<path d="M392.19 591.158L401.825 555.791L408.856 590.551C408.856 590.551 407.486 596.484 401.231 596.578C394.975 596.718 392.145 591.158 392.145 591.158H392.19Z" fill="#609AA1"/>
<path d="M407.212 648.718H400.82V654.324H407.212V648.718Z" fill="#33112F"/>
<path d="M396.345 648.718H389.953V654.324H396.345V648.718Z" fill="#33112F"/>
<path d="M418.079 648.718H411.687V654.324H418.079V648.718Z" fill="#33112F"/>
<path d="M407.212 637.552H400.82V643.158H407.212V637.552Z" fill="#33112F"/>
<path d="M396.345 637.552H389.953V643.158H396.345V637.552Z" fill="#33112F"/>
<path d="M418.079 637.552H411.687V643.158H418.079V637.552Z" fill="#33112F"/>
<path d="M407.212 659.883H400.82V665.489H407.212V659.883Z" fill="#33112F"/>
<path d="M396.345 659.883H389.953V665.489H396.345V659.883Z" fill="#33112F"/>
<path d="M418.079 659.883H411.687V665.489H418.079V659.883Z" fill="#33112F"/>
<path d="M121.606 786.215L145.76 762.715H457.713V854.239H121.606V786.215Z" fill="#F5CE92"/>
<path d="M249.364 786.215H68V854.24H249.364V786.215Z" fill="#ED4B32"/>
<path d="M418.765 669.181H429.906V662.08H439.495V648.718H452.188V641.336C452.188 633.393 458.489 626.946 466.252 626.946C474.014 626.946 480.315 633.393 480.315 641.336V651.895C480.315 651.895 477.21 798.502 480.315 798.502C483.42 798.502 397.259 798.502 397.259 798.502V668.947L418.81 669.181H418.765Z" fill="#ED4B32"/>
<path d="M384.884 649.979H284.796V762.715H384.884V649.979Z" fill="#ED4B32"/>
<path d="M349.452 748.745H344.201V755.846H349.452V748.745Z" fill="#33112F"/>
<path d="M349.452 731.412H344.201V738.513H349.452V731.412Z" fill="#33112F"/>
<path d="M349.452 714.079H344.201V721.18H349.452V714.079Z" fill="#33112F"/>
<path d="M349.452 696.746H344.201V703.848H349.452V696.746Z" fill="#33112F"/>
<path d="M357.579 762.715V689.178H342.238V655.492L357.579 664.93H418.765V675.769H411.231V721.041L420.226 715.808L431.961 724.545H438.764V746.457L447.805 753.091V762.715" fill="#33112F"/>
<path d="M468.078 748.745H462.827V755.846H468.078V748.745Z" fill="#33112F"/>
<path d="M468.078 731.412H462.827V738.513H468.078V731.412Z" fill="#33112F"/>
<path d="M468.078 714.079H462.827V721.181H468.078V714.079Z" fill="#33112F"/>
<path d="M468.078 696.746H462.827V703.848H468.078V696.746Z" fill="#33112F"/>
<path d="M468.078 679.413H462.827V686.514H468.078V679.413Z" fill="#33112F"/>
<path d="M468.078 662.032H462.827V669.134H468.078V662.032Z" fill="#33112F"/>
<path d="M383.606 768.602H257.811V857.043H383.606V768.602Z" fill="#609AA1"/>
<path d="M383.606 768.601H466.799V789.532H474.927V651.848H489.538V661.752H499.492L496.707 674.133H502.734V719.545L516.524 711.556V857.089H383.606V768.601Z" fill="#33112F"/>
<path d="M87.4971 786.215V622.274L112.382 601.157V576.021H126.035V544.765H139.002V525.937H143.751V513.37H164.846V492.719H174.754V466.136H182.151L186.489 395.448L189.548 466.136L199.32 504.212L225.803 560.09V762.715H145.76L121.606 786.215H87.4971Z" fill="#609AA1"/>
<path d="M182.151 482.861V489.823H189.548V510.52H198.909V543.457H209.137V604.801L219.136 613.304V762.715H284.796V615.64L256.852 593.354V575.087H245.939V545.279H230.186V515.005H212.47V492.065H197.996V466.135H189.548V482.955L182.151 482.861Z" fill="#33112F"/>
<path d="M200.005 753.091H191.101V759.959H200.005V753.091Z" fill="#F1EABE"/>
<path d="M176.216 753.091H167.312V759.959H176.216V753.091Z" fill="#F1EABE"/>
<path d="M152.472 753.091H143.568V759.959H152.472V753.091Z" fill="#F1EABE"/>
<path d="M128.683 753.091H119.779V759.959H128.683V753.091Z" fill="#F1EABE"/>
<path d="M104.939 753.091H96.0356V759.959H104.939V753.091Z" fill="#F1EABE"/>
<path d="M200.005 736.271H191.101V743.139H200.005V736.271Z" fill="#F1EABE"/>
<path d="M176.216 736.271H167.312V743.139H176.216V736.271Z" fill="#F1EABE"/>
<path d="M152.472 736.271H143.568V743.139H152.472V736.271Z" fill="#F1EABE"/>
<path d="M128.683 736.271H119.779V743.139H128.683V736.271Z" fill="#F1EABE"/>
<path d="M104.939 736.271H96.0356V743.139H104.939V736.271Z" fill="#F1EABE"/>
<path d="M200.005 719.405H191.101V726.273H200.005V719.405Z" fill="#F1EABE"/>
<path d="M176.216 719.405H167.312V726.273H176.216V719.405Z" fill="#F1EABE"/>
<path d="M152.472 719.405H143.568V726.273H152.472V719.405Z" fill="#F1EABE"/>
<path d="M128.683 719.405H119.779V726.273H128.683V719.405Z" fill="#F1EABE"/>
<path d="M104.939 719.405H96.0356V726.273H104.939V719.405Z" fill="#F1EABE"/>
<path d="M200.005 702.586H191.101V709.454H200.005V702.586Z" fill="#F1EABE"/>
<path d="M176.216 702.586H167.312V709.454H176.216V702.586Z" fill="#F1EABE"/>
<path d="M152.472 702.586H143.568V709.454H152.472V702.586Z" fill="#F1EABE"/>
<path d="M128.683 702.586H119.779V709.454H128.683V702.586Z" fill="#F1EABE"/>
<path d="M104.939 702.586H96.0356V709.454H104.939V702.586Z" fill="#F1EABE"/>
<path d="M200.005 685.766H191.101V692.634H200.005V685.766Z" fill="#F1EABE"/>
<path d="M176.216 685.766H167.312V692.634H176.216V685.766Z" fill="#F1EABE"/>
<path d="M152.472 685.766H143.568V692.634H152.472V685.766Z" fill="#F1EABE"/>
<path d="M128.683 685.766H119.779V692.634H128.683V685.766Z" fill="#F1EABE"/>
<path d="M104.939 685.766H96.0356V692.634H104.939V685.766Z" fill="#F1EABE"/>
<path d="M200.005 668.9H191.101V675.768H200.005V668.9Z" fill="#F1EABE"/>
<path d="M176.216 668.9H167.312V675.768H176.216V668.9Z" fill="#F1EABE"/>
<path d="M152.472 668.9H143.568V675.768H152.472V668.9Z" fill="#F1EABE"/>
<path d="M128.683 668.9H119.779V675.768H128.683V668.9Z" fill="#F1EABE"/>
<path d="M104.939 668.9H96.0356V675.768H104.939V668.9Z" fill="#F1EABE"/>
<path d="M200.005 652.082H191.101V658.95H200.005V652.082Z" fill="#F1EABE"/>
<path d="M176.216 652.082H167.312V658.95H176.216V652.082Z" fill="#F1EABE"/>
<path d="M152.472 652.082H143.568V658.95H152.472V652.082Z" fill="#F1EABE"/>
<path d="M128.683 652.082H119.779V658.95H128.683V652.082Z" fill="#F1EABE"/>
<path d="M104.939 652.082H96.0356V658.95H104.939V652.082Z" fill="#F1EABE"/>
<path d="M200.005 635.262H191.101V642.13H200.005V635.262Z" fill="#F1EABE"/>
<path d="M176.216 635.262H167.312V642.13H176.216V635.262Z" fill="#F1EABE"/>
<path d="M152.472 635.262H143.568V642.13H152.472V635.262Z" fill="#F1EABE"/>
<path d="M128.683 635.262H119.779V642.13H128.683V635.262Z" fill="#F1EABE"/>
<path d="M104.939 635.262H96.0356V642.13H104.939V635.262Z" fill="#F1EABE"/>
<path d="M200.005 618.396H191.101V625.264H200.005V618.396Z" fill="#F5CE92"/>
<path d="M176.216 618.396H167.312V625.264H176.216V618.396Z" fill="#F5CE92"/>
<path d="M152.472 618.396H143.568V625.264H152.472V618.396Z" fill="#F5CE92"/>
<path d="M128.683 618.396H119.779V625.264H128.683V618.396Z" fill="#F5CE92"/>
<path d="M200.005 601.577H191.101V608.445H200.005V601.577Z" fill="#F5CE92"/>
<path d="M176.216 601.577H167.312V608.445H176.216V601.577Z" fill="#F5CE92"/>
<path d="M152.472 601.577H143.568V608.445H152.472V601.577Z" fill="#F5CE92"/>
<path d="M128.683 601.577H119.779V608.445H128.683V601.577Z" fill="#F5CE92"/>
<path d="M200.005 584.711H191.101V591.579H200.005V584.711Z" fill="#F5CE92"/>
<path d="M176.216 584.711H167.312V591.579H176.216V584.711Z" fill="#F5CE92"/>
<path d="M152.472 584.711H143.568V591.579H152.472V584.711Z" fill="#F5CE92"/>
<path d="M128.683 584.711H119.779V591.579H128.683V584.711Z" fill="#F5CE92"/>
<path d="M200.005 567.891H191.101V574.759H200.005V567.891Z" fill="#F5CE92"/>
<path d="M176.216 567.891H167.312V574.759H176.216V567.891Z" fill="#F5CE92"/>
<path d="M152.472 567.891H143.568V574.759H152.472V567.891Z" fill="#F5CE92"/>
<path d="M176.216 551.073H167.312V557.941H176.216V551.073Z" fill="#F5CE92"/>
<path d="M152.472 551.073H143.568V557.941H152.472V551.073Z" fill="#F5CE92"/>
<path d="M603.325 766.593H516.524V857.697H603.325V766.593Z" fill="#ED4B32"/>
<path d="M703.732 706.324V766.593H603.324V857.744H771.994V706.324H703.732Z" fill="#5B9B9B"/>
<path d="M759.529 687.309H727.658V706.371H759.529V687.309Z" fill="#ED4B32"/>
<path d="M703.732 706.323H681.312V655.491H644.282V645.447H607.708L595.745 651.52V766.592H703.732V706.323Z" fill="#ED4B32"/>
<path d="M619.899 651.101V665.491H611.589V766.593H623.05V665.491V651.101H619.899Z" fill="#33112F"/>
<path d="M632.775 665.817H628.529V672.404H632.775V665.817Z" fill="#33112F"/>
<path d="M643.14 665.817H638.894V672.404H643.14V665.817Z" fill="#33112F"/>
<path d="M653.505 665.817H649.259V672.404H653.505V665.817Z" fill="#33112F"/>
<path d="M663.87 665.817H659.624V672.404H663.87V665.817Z" fill="#33112F"/>
<path d="M674.235 665.817H669.989V672.404H674.235V665.817Z" fill="#33112F"/>
<path d="M632.775 677.404H628.529V683.991H632.775V677.404Z" fill="#33112F"/>
<path d="M643.14 677.404H638.894V683.991H643.14V677.404Z" fill="#33112F"/>
<path d="M653.505 677.404H649.259V683.991H653.505V677.404Z" fill="#33112F"/>
<path d="M632.775 700.577H628.529V707.164H632.775V700.577Z" fill="#33112F"/>
<path d="M643.14 700.577H638.894V707.164H643.14V700.577Z" fill="#33112F"/>
<path d="M653.505 700.577H649.259V707.164H653.505V700.577Z" fill="#33112F"/>
<path d="M663.87 700.577H659.624V707.164H663.87V700.577Z" fill="#33112F"/>
<path d="M632.775 712.21H628.529V718.798H632.775V712.21Z" fill="#33112F"/>
<path d="M643.14 712.21H638.894V718.798H643.14V712.21Z" fill="#33112F"/>
<path d="M643.14 746.97H638.894V753.557H643.14V746.97Z" fill="#33112F"/>
<path d="M653.505 712.21H649.259V718.798H653.505V712.21Z" fill="#33112F"/>
<path d="M663.87 712.21H659.624V718.798H663.87V712.21Z" fill="#33112F"/>
<path d="M632.775 723.796H628.529V730.384H632.775V723.796Z" fill="#33112F"/>
<path d="M653.505 723.796H649.259V730.384H653.505V723.796Z" fill="#33112F"/>
<path d="M663.87 723.796H659.624V730.384H663.87V723.796Z" fill="#33112F"/>
<path d="M632.775 735.384H628.529V741.971H632.775V735.384Z" fill="#33112F"/>
<path d="M632.775 746.97H628.529V753.557H632.775V746.97Z" fill="#33112F"/>
<path d="M632.775 758.604H628.529V765.191H632.775V758.604Z" fill="#33112F"/>
<path d="M663.87 735.384H659.624V741.971H663.87V735.384Z" fill="#33112F"/>
<path d="M663.87 746.97H659.624V753.557H663.87V746.97Z" fill="#33112F"/>
<path d="M603.279 700.577H599.032V707.164H603.279V700.577Z" fill="#33112F"/>
<path d="M603.279 712.21H599.032V718.798H603.279V712.21Z" fill="#33112F"/>
<path d="M603.279 723.796H599.032V730.384H603.279V723.796Z" fill="#33112F"/>
<path d="M603.279 735.384H599.032V741.971H603.279V735.384Z" fill="#33112F"/>
<path d="M603.279 746.97H599.032V753.557H603.279V746.97Z" fill="#33112F"/>
<path d="M674.235 677.404H669.989V683.991H674.235V677.404Z" fill="#33112F"/>
<path d="M674.235 688.99H669.989V695.577H674.235V688.99Z" fill="#33112F"/>
<path d="M674.235 700.577H669.989V707.164H674.235V700.577Z" fill="#33112F"/>
<path d="M644.281 645.447V607.323L681.084 597.559V566.63L698.617 546.307L702.635 553.782V593.634H706.197V642.457H693.777V634.514H672.134L644.281 655.492V645.447Z" fill="#ED4B32"/>
<path d="M657.842 609.847H653.595V616.435H657.842V609.847Z" fill="#33112F"/>
<path d="M668.207 609.847H663.961V616.435H668.207V609.847Z" fill="#33112F"/>
<path d="M678.573 609.847H674.326V616.435H678.573V609.847Z" fill="#33112F"/>
<path d="M688.938 609.847H684.691V616.435H688.938V609.847Z" fill="#33112F"/>
<path d="M699.303 609.847H695.057V616.435H699.303V609.847Z" fill="#33112F"/>
<path d="M657.842 621.433H653.595V628.021H657.842V621.433Z" fill="#33112F"/>
<path d="M678.573 621.433H674.326V628.021H678.573V621.433Z" fill="#33112F"/>
<path d="M699.303 621.433H695.057V628.021H699.303V621.433Z" fill="#33112F"/>
<path d="M532.139 766.592V596.578L563.645 584.337H595.744V651.521V766.592H532.139Z" fill="#5B9B9B"/>
<path d="M624.785 645.447V589.85H613.324V584.337H595.745V656.052L624.785 645.447Z" fill="#33112F"/>
<path d="M644.281 655.492L672.134 634.515H693.777V642.457H706.197V593.635H702.635V553.782L715.923 568.406V593.728H720.078V604.66H744.689V687.308H727.657V706.323H681.312V655.492H644.281Z" fill="#33112F"/>
<path d="M907.241 453.615H894.228V800.885H907.241V453.615Z" fill="#F5CE92"/>
<path d="M851.17 462.444V432.03L875.37 421.891V376.152L889.022 371.854V448.755L851.17 462.444Z" fill="#F5CE92"/>
<path d="M792 858V502.622L797.201 501.048V480.587L816.727 473.26V479.827L892.61 449L898 454.644V858H792Z" fill="#5B9B9B"/>
<path d="M772 858.36V496.587L777.198 494.984V474.155L796.714 466.697V473.382L872.557 442L877.944 447.746V858.36H772Z" fill="#5B9B9B"/>
<path d="M811.172 492.906H804.825V505.053H811.172V492.906Z" fill="#E9C323"/>
<path d="M823.865 492.906H817.519V505.053H823.865V492.906Z" fill="#E9C323"/>
<path d="M836.558 492.906H830.212V505.053H836.558V492.906Z" fill="#E9C323"/>
<path d="M849.207 492.906H842.86V505.053H849.207V492.906Z" fill="#E9C323"/>
<path d="M861.9 492.906H855.554V505.053H861.9V492.906Z" fill="#E9C323"/>
<path d="M811.172 514.117H804.825V526.264H811.172V514.117Z" fill="#E9C323"/>
<path d="M823.865 514.117H817.519V526.264H823.865V514.117Z" fill="#E9C323"/>
<path d="M836.558 514.117H830.212V526.264H836.558V514.117Z" fill="#E9C323"/>
<path d="M849.207 514.117H842.86V526.264H849.207V514.117Z" fill="#E9C323"/>
<path d="M861.9 514.117H855.554V526.264H861.9V514.117Z" fill="#E9C323"/>
<path d="M874.549 514.117H868.202V526.264H874.549V514.117Z" fill="#E9C323"/>
<path d="M811.172 535.281H804.825V547.429H811.172V535.281Z" fill="#E9C323"/>
<path d="M823.865 535.281H817.519V547.429H823.865V535.281Z" fill="#E9C323"/>
<path d="M861.9 535.281H855.554V547.429H861.9V535.281Z" fill="#E9C323"/>
<path d="M874.549 535.281H868.202V547.429H874.549V535.281Z" fill="#E9C323"/>
<path d="M811.172 556.492H804.825V568.639H811.172V556.492Z" fill="#F1EABE"/>
<path d="M823.865 556.492H817.519V568.639H823.865V556.492Z" fill="#F1EABE"/>
<path d="M836.558 556.492H830.212V568.639H836.558V556.492Z" fill="#F1EABE"/>
<path d="M849.207 556.492H842.86V568.639H849.207V556.492Z" fill="#F1EABE"/>
<path d="M861.9 556.492H855.554V568.639H861.9V556.492Z" fill="#F1EABE"/>
<path d="M874.549 556.492H868.202V568.639H874.549V556.492Z" fill="#F1EABE"/>
<path d="M811.172 577.703H804.825V589.851H811.172V577.703Z" fill="#F1EABE"/>
<path d="M823.865 577.703H817.519V589.851H823.865V577.703Z" fill="#F1EABE"/>
<path d="M836.558 577.703H830.212V589.851H836.558V577.703Z" fill="#F1EABE"/>
<path d="M849.207 577.703H842.86V589.851H849.207V577.703Z" fill="#F1EABE"/>
<path d="M861.9 577.703H855.554V589.851H861.9V577.703Z" fill="#F1EABE"/>
<path d="M874.549 577.703H868.202V589.851H874.549V577.703Z" fill="#F1EABE"/>
<path d="M811.172 598.914H804.825V611.062H811.172V598.914Z" fill="#F1EABE"/>
<path d="M836.558 598.914H830.212V611.062H836.558V598.914Z" fill="#F1EABE"/>
<path d="M849.207 598.914H842.86V611.062H849.207V598.914Z" fill="#F1EABE"/>
<path d="M861.9 598.914H855.554V611.062H861.9V598.914Z" fill="#F1EABE"/>
<path d="M874.549 598.914H868.202V611.062H874.549V598.914Z" fill="#F1EABE"/>
<path d="M811.172 620.124H804.825V632.271H811.172V620.124Z" fill="#F5CE92"/>
<path d="M823.865 620.124H817.519V632.271H823.865V620.124Z" fill="#F5CE92"/>
<path d="M836.558 620.124H830.212V632.271H836.558V620.124Z" fill="#F5CE92"/>
<path d="M849.207 620.124H842.86V632.271H849.207V620.124Z" fill="#F5CE92"/>
<path d="M861.9 620.124H855.554V632.271H861.9V620.124Z" fill="#F5CE92"/>
<path d="M874.549 620.124H868.202V632.271H874.549V620.124Z" fill="#F5CE92"/>
<path d="M811.172 641.289H804.825V653.436H811.172V641.289Z" fill="#F1EABE"/>
<path d="M823.865 641.289H817.519V653.436H823.865V641.289Z" fill="#F1EABE"/>
<path d="M836.558 641.289H830.212V653.436H836.558V641.289Z" fill="#F1EABE"/>
<path d="M849.207 641.289H842.86V653.436H849.207V641.289Z" fill="#F1EABE"/>
<path d="M861.9 641.289H855.554V653.436H861.9V641.289Z" fill="#F1EABE"/>
<path d="M874.549 641.289H868.202V653.436H874.549V641.289Z" fill="#F1EABE"/>
<path d="M823.865 662.5H817.519V674.648H823.865V662.5Z" fill="#F1EABE"/>
<path d="M836.558 662.5H830.212V674.648H836.558V662.5Z" fill="#F1EABE"/>
<path d="M849.207 662.5H842.86V674.648H849.207V662.5Z" fill="#F1EABE"/>
<path d="M861.9 662.5H855.554V674.648H861.9V662.5Z" fill="#F1EABE"/>
<path d="M874.549 662.5H868.202V674.648H874.549V662.5Z" fill="#F1EABE"/>
<path d="M811.172 683.71H804.825V695.857H811.172V683.71Z" fill="#F1EABE"/>
<path d="M823.865 683.71H817.519V695.857H823.865V683.71Z" fill="#F1EABE"/>
<path d="M836.558 683.71H830.212V695.857H836.558V683.71Z" fill="#F1EABE"/>
<path d="M849.207 683.71H842.86V695.857H849.207V683.71Z" fill="#F1EABE"/>
<path d="M1063.08 611.061H1047.46V638.252H1063.08V611.061Z" fill="#5B9B9B"/>
<path d="M1020.16 865.218V833.028L1038.7 809.855V638.252H1068.7V744.727H1098.42L1106.23 754.445V807.846H1171.57V865.218H1020.16Z" fill="#5B9B9B"/>
<path d="M1063.08 610.454V638.252H1068.7V744.727L1106.23 754.445V638.252H1092.16V610.454H1063.08Z" fill="#33112F"/>
<path d="M1155.22 430.955H1150.34V453.614H1155.22V430.955Z" fill="#33112F"/>
<path d="M1184.72 430.955H1179.83V453.614H1184.72V430.955Z" fill="#33112F"/>
<path d="M1195.45 417.593H1190.56V453.567H1195.45V417.593Z" fill="#33112F"/>
<path d="M1092.17 629.983L1104.27 624.797V517.248H1113.76V495.055H1120.84V451.185H1193.72V478.61H1203.99V507.53H1212.53V865.219H1171.57V807.847H1106.23V638.253H1092.17V629.983Z" fill="#5B9B9B"/>
<path d="M1197.82 798.222H1184.49V865.219H1197.82V798.222Z" fill="#33112F"/>
<path d="M1178.05 484.076C1178.05 474.125 1170.15 466.042 1160.43 466.042C1150.7 466.042 1142.8 474.125 1142.8 484.076C1142.8 494.028 1150.7 502.11 1160.43 502.11C1170.15 502.11 1178.05 494.028 1178.05 484.076Z" fill="#E9C323"/>
<path d="M1171.48 484.076C1171.48 477.815 1166.55 472.769 1160.43 472.769C1154.31 472.769 1149.38 477.815 1149.38 484.076C1149.38 490.336 1154.31 495.382 1160.43 495.382C1166.55 495.382 1171.48 490.336 1171.48 484.076Z" fill="#5B9B9B"/>
<path d="M1339.51 793.877H1260.52V865.219H1339.51V793.877Z" fill="#5B9B9B"/>
<path d="M1073.95 491.224L1027.14 482.254V462.771L983.859 455.67L976.964 400.026L972.169 398.765L904.638 385.31V449.923H919.98V472.863H929.614V800.838V865.218H1073.95V491.224Z" fill="#33112F"/>
<path d="M888.985 372L972.289 389.166V398.509L904.63 385.255V448.904H920.001V471.501H929.653V794.581H984V858H898.271L870 779.071L888.985 372Z" fill="#ED4B32"/>
<path d="M1193.71 451.185H1229.83V466.042H1233.71V482.581L1271.52 528.974V748.979H1296.13V865.219H1212.53V507.53H1203.99V478.61H1193.71V451.185Z" fill="#33112F"/>
<path d="M900.254 295H895.049V377.134H900.254V295Z" fill="#33112F"/>
<path d="M909.843 363.351H904.638V380.965H909.843V363.351Z" fill="#33112F"/>
<path d="M929.569 367.696H924.364V385.31H929.569V367.696Z" fill="#33112F"/>
<path d="M940.984 375.498H935.779V393.112H940.984V375.498Z" fill="#33112F"/>
<path d="M952.398 377.321H947.193V394.934H952.398V377.321Z" fill="#33112F"/>
<path d="M965.731 364.519H960.526V391.103H965.731V364.519Z" fill="#33112F"/>
<rect y="-18" width="1728" height="1152" fill="#350C24" fill-opacity="0.8"/>
</g>
<defs>
<clipPath id="clip0_514_66">
<rect width="1728" height="1117" fill="white"/>
</clipPath>
</defs>
</svg>
