<svg width="63" height="63" viewBox="0 0 63 63" fill="none" xmlns="http://www.w3.org/2000/svg">
<path d="M44.6248 24.0712C44.1329 23.5823 43.4676 23.3079 42.7741 23.3079C42.0807 23.3079 41.4153 23.5823 40.9235 24.0712L31.4998 33.3637L22.2073 24.0712C21.7154 23.5823 21.0501 23.3079 20.3566 23.3079C19.6632 23.3079 18.9979 23.5823 18.506 24.0712C18.26 24.3152 18.0647 24.6055 17.9314 24.9254C17.7982 25.2453 17.7296 25.5884 17.7296 25.9349C17.7296 26.2815 17.7982 26.6246 17.9314 26.9445C18.0647 27.2643 18.26 27.5547 18.506 27.7987L29.636 38.9287C29.8801 39.1747 30.1704 39.37 30.4903 39.5033C30.8101 39.6365 31.1532 39.7052 31.4998 39.7052C31.8463 39.7052 32.1894 39.6365 32.5093 39.5033C32.8292 39.37 33.1195 39.1747 33.3635 38.9287L44.6248 27.7987C44.8708 27.5547 45.0661 27.2643 45.1994 26.9445C45.3326 26.6246 45.4012 26.2815 45.4012 25.9349C45.4012 25.5884 45.3326 25.2453 45.1994 24.9254C45.0661 24.6055 44.8708 24.3152 44.6248 24.0712Z" fill="#EAD3C1"/>
</svg>
