<svg width="470" height="53" viewBox="0 0 470 53" fill="none" xmlns="http://www.w3.org/2000/svg">
<path d="M22.3987 29.8738L6.69663 20.8174C6.18749 20.5251 5.62576 20.3359 5.04351 20.2606C4.46126 20.1854 3.86989 20.2256 3.30317 20.3789C2.73645 20.5322 2.20548 20.7957 1.74057 21.1542C1.27566 21.5127 0.885912 21.9592 0.593589 22.4684C0.301267 22.9775 0.112088 23.5393 0.0368558 24.1215C-0.0383761 24.7038 0.00181895 25.2951 0.155131 25.8619C0.308443 26.4286 0.571873 26.9595 0.930389 27.4244C1.28891 27.8894 1.73548 28.2791 2.24462 28.5714L17.9467 37.6278C18.9725 38.22 20.1916 38.3805 21.3357 38.0739C22.4798 37.7673 23.4552 37.0188 24.0474 35.993C24.6396 34.9672 24.8001 33.7481 24.4935 32.604C24.1869 31.4599 23.4384 30.4845 22.4126 29.8922L22.3987 29.8738Z" fill="#F4EEC3"/>
<path d="M53.6735 20.8174L37.9714 11.7656C36.9456 11.1734 35.7266 11.0129 34.5825 11.3195C33.4384 11.6261 32.463 12.3747 31.8708 13.4005C31.2785 14.4263 31.1181 15.6453 31.4247 16.7894C31.7313 17.9335 32.4798 18.909 33.5056 19.5012L49.2077 28.553C50.2335 29.1452 51.4525 29.3056 52.5966 28.999C53.7407 28.6924 54.7162 27.9439 55.3084 26.9181C55.9006 25.8923 56.0611 24.6733 55.7545 23.5291C55.4479 22.385 54.6993 21.4096 53.6735 20.8174Z" fill="#F4EEC3"/>
<path d="M48.5888 29.629L41.2689 25.4033L33.5241 29.8738C33.0162 30.167 32.571 30.5574 32.2139 31.0227C31.8569 31.488 31.595 32.019 31.4432 32.5856C31.2914 33.1521 31.2526 33.7429 31.3291 34.3244C31.4057 34.9059 31.596 35.4666 31.8892 35.9745C32.1825 36.4824 32.5729 36.9276 33.0382 37.2847C33.5034 37.6417 34.0345 37.9036 34.601 38.0554C35.1675 38.2073 35.7584 38.246 36.3398 38.1695C36.9213 38.0929 37.482 37.9026 37.99 37.6094L50.5978 30.331C49.8902 30.2245 49.2088 29.9864 48.5888 29.629Z" fill="#F4EEC3"/>
<path d="M7.32477 19.7413L14.654 23.9532L22.3988 19.4827C22.9503 19.2148 23.4407 18.8361 23.8395 18.3703C24.2383 17.9046 24.5369 17.3617 24.7167 16.7755C24.8965 16.1893 24.9537 15.5724 24.8846 14.9631C24.8156 14.3538 24.6219 13.7654 24.3155 13.2342C24.0091 12.7031 23.5966 12.2408 23.1037 11.8761C22.6108 11.5113 22.0481 11.252 21.4507 11.1142C20.8532 10.9764 20.2338 10.9632 19.6309 11.0752C19.0281 11.1873 18.4548 11.4223 17.9468 11.7656L5.33893 19.044C6.03815 19.1523 6.71137 19.3887 7.32477 19.7413Z" fill="#F4EEC3"/>
<path d="M73.1347 19.8233C71.5371 18.9186 70.2154 17.5969 69.3108 15.9994C68.3901 14.3539 67.9067 12.5 67.9067 10.6145C67.9067 8.72901 68.3901 6.875 69.3108 5.22957C70.2154 3.63204 71.5371 2.31034 73.1347 1.40567C74.7412 0.482226 76.565 0.00396482 78.418 0.0201871C79.8599 0.0122627 81.2898 0.281935 82.6298 0.814514C83.8692 1.29528 84.9771 2.06288 85.8626 3.05439L84.1354 4.78161C83.4774 3.96691 82.6243 3.33151 81.6554 2.93431C80.6311 2.50829 79.5319 2.29159 78.4226 2.29699C77.0285 2.2923 75.657 2.6487 74.4416 3.33147C73.2061 4.01964 72.1788 5.02787 71.4675 6.25022C70.7341 7.58295 70.3496 9.07944 70.3496 10.6006C70.3496 12.1218 70.7341 13.6183 71.4675 14.951C72.1788 16.1734 73.2061 17.1816 74.4416 17.8697C75.9812 18.7857 77.7843 19.1568 79.5604 18.923C81.3365 18.6893 82.9822 17.8644 84.2324 16.5813C84.7453 16.0169 85.1493 15.3624 85.4238 14.6508C85.7315 13.8636 85.9138 13.033 85.9642 12.1893H78.4826V9.94945H88.2271C88.3193 10.4352 88.3672 10.9283 88.3703 11.4227C88.372 12.6601 88.1707 13.8895 87.7745 15.0619C87.3874 16.2279 86.7381 17.2895 85.8764 18.1653C83.9706 20.1881 81.486 21.1995 78.4226 21.1995C76.5692 21.2172 74.7443 20.7422 73.1347 19.8233Z" fill="#F4EEC3"/>
<path d="M93.663 20.2343C92.5757 19.5916 91.6883 18.6595 91.0999 17.5419C90.496 16.3626 90.181 15.0567 90.181 13.7318C90.181 12.4069 90.496 11.101 91.0999 9.92173C91.6883 8.80412 92.5757 7.87196 93.663 7.22928C94.7977 6.58738 96.0793 6.25004 97.383 6.25004C98.6867 6.25004 99.9683 6.58738 101.103 7.22928C102.197 7.86986 103.091 8.80211 103.685 9.92173C104.289 11.101 104.603 12.4069 104.603 13.7318C104.603 15.0567 104.289 16.3626 103.685 17.5419C103.091 18.6615 102.197 19.5937 101.103 20.2343C99.9683 20.8762 98.6867 21.2136 97.383 21.2136C96.0793 21.2136 94.7977 20.8762 93.663 20.2343ZM99.7591 18.387C100.505 17.9428 101.116 17.3043 101.528 16.5397C101.965 15.674 102.193 14.7178 102.193 13.748C102.193 12.7781 101.965 11.8219 101.528 10.9562C101.116 10.1922 100.505 9.55387 99.7591 9.10892C99.0397 8.67635 98.2155 8.44952 97.3761 8.45313C96.5472 8.45213 95.734 8.67898 95.0254 9.10892C94.2779 9.55129 93.6661 10.1902 93.2566 10.9562C92.8166 11.821 92.5872 12.7776 92.5872 13.748C92.5872 14.7183 92.8166 15.6749 93.2566 16.5397C93.6653 17.3062 94.2773 17.9454 95.0254 18.387C95.7352 18.8136 96.5479 19.0387 97.3761 19.0382C98.2157 19.0388 99.0396 18.8104 99.7591 18.3778V18.387Z" fill="#F4EEC3"/>
<path d="M109.735 20.2343C108.645 19.5931 107.756 18.6607 107.167 17.5419C106.563 16.3626 106.248 15.0567 106.248 13.7318C106.248 12.4069 106.563 11.101 107.167 9.92173C107.756 8.80293 108.645 7.87051 109.735 7.22927C110.854 6.57213 112.131 6.23356 113.429 6.2502C114.737 6.23165 116.026 6.57014 117.156 7.22927C118.25 7.86985 119.144 8.8021 119.738 9.92173C120.342 11.101 120.656 12.4069 120.656 13.7318C120.656 15.0567 120.342 16.3626 119.738 17.5419C119.144 18.6615 118.25 19.5937 117.156 20.2343C116.026 20.8934 114.737 21.2319 113.429 21.2134C112.131 21.23 110.854 20.8915 109.735 20.2343ZM115.826 18.387C116.572 17.9428 117.183 17.3043 117.595 16.5397C118.032 15.674 118.26 14.7177 118.26 13.7479C118.26 12.7781 118.032 11.8219 117.595 10.9562C117.183 10.1922 116.571 9.55386 115.826 9.10891C115.108 8.6731 114.283 8.44305 113.443 8.44388C112.614 8.44287 111.801 8.66973 111.092 9.09966C110.346 9.54333 109.734 10.182 109.323 10.947C108.883 11.8118 108.654 12.7684 108.654 13.7387C108.654 14.7091 108.883 15.6656 109.323 16.5305C109.734 17.296 110.345 17.9348 111.092 18.3778C111.802 18.8043 112.615 19.0294 113.443 19.0289C114.282 19.0323 115.106 18.8072 115.826 18.3778V18.387Z" fill="#F4EEC3"/>
<path d="M125.118 26.1134C124.123 25.4103 123.364 24.4237 122.938 23.2824L125.178 22.3587C125.452 23.1797 125.983 23.8907 126.693 24.3861C127.451 24.9154 128.359 25.1888 129.284 25.1666C130.774 25.1666 131.922 24.7325 132.729 23.8643C133.535 22.996 133.937 21.7861 133.934 20.2343V18.7334H133.809C133.32 19.4839 132.648 20.0974 131.856 20.516C130.97 20.9998 129.974 21.2449 128.965 21.2272C127.789 21.2315 126.637 20.8947 125.649 20.2574C124.614 19.5979 123.772 18.6751 123.21 17.5834C122.615 16.3908 122.305 15.0762 122.305 13.7433C122.305 12.4105 122.615 11.0958 123.21 9.90326C123.774 8.81276 124.615 7.89034 125.649 7.22929C126.638 6.59537 127.79 6.26026 128.965 6.26409C129.973 6.24714 130.969 6.49049 131.856 6.97067C132.648 7.39112 133.32 8.00615 133.809 8.75794H133.925V6.71667H136.234V20.2066C136.272 21.5775 135.953 22.9347 135.31 24.146C134.748 25.1817 133.883 26.0211 132.83 26.5521C131.725 27.0952 130.506 27.3675 129.274 27.3464C127.791 27.4052 126.329 26.9717 125.118 26.1134ZM131.639 18.387C132.358 17.936 132.941 17.2973 133.324 16.5397C133.767 15.6662 133.986 14.6967 133.962 13.7179C133.985 12.7348 133.766 11.7611 133.324 10.8824C132.946 10.1216 132.362 9.48182 131.639 9.03505C130.941 8.61799 130.142 8.40069 129.33 8.40694C128.515 8.39975 127.715 8.62223 127.021 9.04889C126.3 9.50018 125.716 10.1387 125.33 10.8962C124.911 11.7777 124.693 12.7417 124.693 13.7179C124.693 14.6942 124.911 15.6582 125.33 16.5397C125.714 17.2986 126.299 17.9375 127.021 18.387C127.713 18.8069 128.506 19.029 129.316 19.029C130.125 19.029 130.919 18.8069 131.611 18.387H131.639Z" fill="#F4EEC3"/>
<path d="M139.485 0.46814H141.896V20.7608H139.485V0.46814Z" fill="#F4EEC3"/>
<path d="M147.604 20.2481C146.538 19.6082 145.671 18.686 145.096 17.5834C144.472 16.3966 144.155 15.0726 144.173 13.7318C144.158 12.431 144.449 11.145 145.023 9.97714C145.561 8.86351 146.399 7.92168 147.442 7.25698C148.524 6.57696 149.781 6.2271 151.059 6.2502C152.315 6.22409 153.555 6.54359 154.642 7.17385C155.67 7.78625 156.493 8.68944 157.007 9.76931C157.575 10.9722 157.857 12.2907 157.829 13.621C157.837 13.812 157.819 14.0032 157.774 14.189H146.625C146.633 15.1349 146.898 16.0609 147.392 16.8676C147.826 17.5599 148.439 18.1229 149.165 18.4978C149.843 18.8497 150.595 19.0335 151.359 19.0335C153.138 19.0335 154.508 18.1653 155.469 16.4288L157.593 17.4495C157.006 18.5609 156.142 19.5025 155.086 20.1835C153.954 20.8489 152.667 21.2055 151.354 21.2177C150.041 21.2298 148.748 20.8971 147.604 20.2528V20.2481ZM155.298 12.1708C155.258 11.5793 155.101 11.0017 154.836 10.4713C154.516 9.87112 154.037 9.3709 153.451 9.02578C152.715 8.60191 151.875 8.39532 151.026 8.43C150.007 8.40801 149.017 8.77266 148.255 9.45065C147.466 10.161 146.946 11.1217 146.782 12.1708H155.298Z" fill="#F4EEC3"/>
<path d="M167.061 0.468145H173.212C175.106 0.424057 176.98 0.867784 178.653 1.75666C180.165 2.58203 181.405 3.82857 182.223 5.34503C183.042 6.98058 183.469 8.78491 183.469 10.6145C183.469 12.444 183.042 14.2484 182.223 15.8839C181.405 17.4004 180.165 18.6469 178.653 19.4723C176.979 20.3596 175.106 20.8032 173.212 20.7608H167.061V0.468145ZM173.212 18.4794C175.611 18.4794 177.509 17.7897 178.907 16.4104C180.304 15.0311 181.003 13.1037 181.003 10.6283C181.003 8.16525 180.304 6.23791 178.907 4.84627C177.509 3.45464 175.611 2.76496 173.212 2.77727H169.472V18.4794H173.212Z" fill="#F4EEC3"/>
<path d="M188.919 20.2481C187.853 19.6082 186.985 18.686 186.411 17.5834C185.787 16.3966 185.47 15.0726 185.488 13.7318C185.473 12.431 185.764 11.145 186.337 9.97714C186.878 8.86446 187.715 7.92299 188.757 7.25698C189.839 6.57696 191.096 6.2271 192.373 6.2502C193.63 6.22409 194.87 6.54359 195.957 7.17385C196.986 7.78406 197.81 8.68787 198.322 9.76931C198.89 10.9722 199.172 12.2907 199.144 13.621C199.152 13.812 199.133 14.0032 199.088 14.189H187.94C187.945 15.1352 188.211 16.0617 188.707 16.8676C189.141 17.5587 189.751 18.1215 190.475 18.4978C191.155 18.8493 191.909 19.0329 192.674 19.0335C194.447 19.0335 195.817 18.1653 196.784 16.4288L198.908 17.4495C198.321 18.5609 197.457 19.5025 196.401 20.1835C195.269 20.8489 193.982 21.2055 192.669 21.2177C191.356 21.2298 190.063 20.8971 188.919 20.2528V20.2481ZM196.618 12.1708C196.578 11.5793 196.421 11.0017 196.156 10.4713C195.836 9.87112 195.356 9.3709 194.77 9.02578C194.035 8.60191 193.194 8.39532 192.346 8.43C191.326 8.40801 190.336 8.77266 189.575 9.45065C188.786 10.161 188.265 11.1217 188.102 12.1708H196.618Z" fill="#F4EEC3"/>
<path d="M199.73 6.70279H202.335L206.644 17.9252H206.699L211.064 6.70279H213.618L207.863 20.7608H205.425L199.73 6.70279Z" fill="#F4EEC3"/>
<path d="M218.019 20.2482C216.955 19.6056 216.088 18.684 215.511 17.5834C214.889 16.3959 214.572 15.0724 214.587 13.7318C214.573 12.431 214.864 11.145 215.437 9.97716C215.979 8.86417 216.818 7.92273 217.862 7.257C218.942 6.5776 220.197 6.22775 221.473 6.25022C222.73 6.22364 223.97 6.54317 225.057 7.17387C226.086 7.78599 226.91 8.68914 227.426 9.76934C227.993 10.973 228.274 12.291 228.248 13.621C228.258 13.8123 228.238 14.0039 228.188 14.189H217.044C217.048 15.1348 217.312 16.0614 217.806 16.8676C218.243 17.5583 218.855 18.1209 219.58 18.4979C220.258 18.8492 221.01 19.0329 221.773 19.0336C223.553 19.0336 224.923 18.1653 225.884 16.4289L228.013 17.4495C227.422 18.5598 226.557 19.5009 225.5 20.1835C224.369 20.8489 223.082 21.2055 221.769 21.2177C220.456 21.2298 219.163 20.8971 218.019 20.2528V20.2482ZM225.713 12.1708C225.673 11.5794 225.516 11.0018 225.251 10.4713C224.934 9.86912 224.454 9.36822 223.866 9.0258C223.132 8.60207 222.292 8.39546 221.446 8.43003C220.426 8.40711 219.436 8.77188 218.675 9.45068C217.885 10.1611 217.365 11.1217 217.201 12.1708H225.713Z" fill="#F4EEC3"/>
<path d="M230.701 0.46814H233.102V20.7608H230.701V0.46814Z" fill="#F4EEC3"/>
<path d="M238.893 20.2343C237.807 19.5917 236.921 18.6594 236.335 17.5419C235.731 16.3626 235.416 15.0567 235.416 13.7318C235.416 12.4069 235.731 11.101 236.335 9.92173C236.924 8.80293 237.813 7.87051 238.903 7.22927C240.022 6.57213 241.299 6.23356 242.597 6.2502C243.905 6.23165 245.194 6.57014 246.324 7.22927C247.418 7.86985 248.312 8.8021 248.906 9.92173C249.51 11.101 249.824 12.4069 249.824 13.7318C249.824 15.0567 249.51 16.3626 248.906 17.5419C248.312 18.6615 247.418 19.5937 246.324 20.2343C245.194 20.8934 243.905 21.2319 242.597 21.2134C241.296 21.2317 240.015 20.8931 238.893 20.2343ZM244.985 18.387C245.731 17.9428 246.342 17.3043 246.754 16.5397C247.191 15.674 247.418 14.7177 247.418 13.7479C247.418 12.7781 247.191 11.8219 246.754 10.9562C246.341 10.1922 245.73 9.55386 244.985 9.10891C244.265 8.67634 243.441 8.44951 242.602 8.45312C241.773 8.45212 240.96 8.67897 240.251 9.10891C239.506 9.55386 238.894 10.1922 238.482 10.9562C238.042 11.821 237.813 12.7776 237.813 13.7479C237.813 14.7183 238.042 15.6749 238.482 16.5397C238.894 17.3043 239.505 17.9428 240.251 18.387C240.961 18.8136 241.774 19.0387 242.602 19.0382C243.441 19.0387 244.265 18.8104 244.985 18.3778V18.387Z" fill="#F4EEC3"/>
<path d="M252.037 6.70278H254.346V8.77178H254.457C254.949 8.01904 255.62 7.40017 256.41 6.97065C257.314 6.47733 258.332 6.22897 259.361 6.2502C260.547 6.24487 261.709 6.58508 262.705 7.22927C263.737 7.89356 264.576 8.81724 265.139 9.90785C265.737 11.0938 266.048 12.4036 266.048 13.7318C266.048 15.06 265.737 16.3697 265.139 17.5557C264.576 18.6463 263.737 19.57 262.705 20.2343C261.709 20.8785 260.547 21.2187 259.361 21.2134C258.327 21.2341 257.305 20.9842 256.396 20.4883C255.595 20.0594 254.924 19.4209 254.457 18.641H254.346L254.457 20.5991V26.8615H252.037V6.70278ZM261.273 18.3778C261.997 17.9274 262.584 17.2889 262.973 16.5305C263.392 15.6596 263.61 14.7054 263.61 13.7387C263.61 12.7721 263.392 11.8178 262.973 10.947C262.583 10.1891 261.996 9.55073 261.273 9.09966C260.582 8.66604 259.781 8.43856 258.964 8.44387C258.15 8.43817 257.35 8.66054 256.655 9.08582C255.927 9.53221 255.337 10.1717 254.951 10.9331C254.534 11.8122 254.318 12.7728 254.318 13.7456C254.318 14.7184 254.534 15.6791 254.951 16.5582C255.336 17.3205 255.926 17.9602 256.655 18.4055C257.351 18.8273 258.15 19.0479 258.964 19.0428C259.781 19.0433 260.582 18.8128 261.273 18.3778Z" fill="#F4EEC3"/>
<path d="M271.632 20.2482C270.569 19.6056 269.701 18.684 269.124 17.5834C268.502 16.3959 268.185 15.0724 268.201 13.7318C268.186 12.431 268.477 11.145 269.051 9.97716C269.592 8.86417 270.431 7.92273 271.475 7.257C272.556 6.5776 273.811 6.22775 275.087 6.25022C276.343 6.22364 277.583 6.54317 278.67 7.17387C279.699 7.78599 280.524 8.68914 281.04 9.76934C281.606 10.973 281.887 12.291 281.862 13.621C281.871 13.8123 281.851 14.0039 281.802 14.189H270.639C270.643 15.1348 270.907 16.0614 271.401 16.8676C271.838 17.5583 272.45 18.1209 273.175 18.4979C273.853 18.8487 274.605 19.0324 275.368 19.0336C277.148 19.0336 278.518 18.1653 279.479 16.4289L281.608 17.4495C281.018 18.5593 280.155 19.5003 279.1 20.1835C277.967 20.8489 276.68 21.2054 275.366 21.2176C274.052 21.2298 272.759 20.8971 271.614 20.2528L271.632 20.2482ZM279.331 12.1708C279.291 11.5794 279.134 11.0018 278.869 10.4713C278.552 9.86912 278.072 9.36822 277.483 9.0258C276.749 8.60207 275.91 8.39546 275.063 8.43003C274.052 8.41297 273.071 8.77735 272.316 9.45068C271.526 10.1611 271.006 11.1217 270.842 12.1708H279.331Z" fill="#F4EEC3"/>
<path d="M284.314 6.70279H286.623V9.01192H286.738C287.039 8.19144 287.615 7.50089 288.369 7.0584C289.09 6.56042 289.94 6.28431 290.816 6.26408C291.377 6.25863 291.934 6.35405 292.46 6.54578V9.12737C291.847 8.81861 291.165 8.67233 290.479 8.7025C289.818 8.70312 289.174 8.90621 288.632 9.28441C288.048 9.67623 287.572 10.2081 287.246 10.8315C286.907 11.4796 286.733 12.2013 286.738 12.9328V20.7839H284.328L284.314 6.70279Z" fill="#F4EEC3"/>
<path d="M303.004 20.5761C302.04 20.1501 301.179 19.5198 300.482 18.7288C299.734 17.8677 299.195 16.845 298.908 15.7407L301.217 14.8171C301.503 15.9643 302.125 16.9999 303.004 17.7913C303.829 18.5501 304.912 18.9663 306.034 18.9551C307.115 18.9898 308.176 18.6541 309.04 18.0037C309.436 17.6937 309.751 17.2922 309.958 16.8337C310.164 16.3752 310.257 15.8734 310.227 15.3713C310.238 14.9295 310.151 14.4908 309.972 14.0867C309.793 13.6826 309.527 13.3232 309.192 13.0345C308.183 12.2532 307.034 11.6702 305.807 11.3164L304.528 10.8546C303.233 10.4261 302.038 9.74133 301.014 8.84106C300.552 8.39684 300.192 7.85825 299.957 7.26208C299.723 6.6659 299.62 6.0262 299.656 5.38661C299.651 4.43504 299.927 3.50328 300.45 2.70803C300.995 1.87041 301.752 1.1917 302.644 0.740643C303.621 0.237508 304.708 -0.0163373 305.807 0.0017048C306.868 -0.021957 307.919 0.200973 308.878 0.652895C309.681 1.02936 310.395 1.57067 310.975 2.24158C311.448 2.78123 311.809 3.40906 312.037 4.08888L309.802 5.04949C309.546 4.21736 309.02 3.49467 308.306 2.99667C307.592 2.49866 306.732 2.25399 305.863 2.30162C304.9 2.27644 303.958 2.58659 303.198 3.17907C302.853 3.43466 302.573 3.7683 302.381 4.15276C302.189 4.53721 302.091 4.9616 302.094 5.39124C302.084 5.76446 302.163 6.1347 302.323 6.47178C302.484 6.80886 302.722 7.10325 303.018 7.33091C303.879 7.94716 304.838 8.41541 305.853 8.71639L307.156 9.17822C308.649 9.66889 310.023 10.4647 311.192 11.5151C311.688 12.014 312.074 12.6111 312.325 13.268C312.577 13.925 312.688 14.6273 312.651 15.3297C312.692 16.506 312.338 17.6621 311.645 18.6133C310.996 19.4875 310.119 20.1652 309.109 20.5715C308.103 20.9849 307.025 21.1968 305.937 21.1949C304.926 21.1969 303.927 20.9861 303.004 20.5761Z" fill="#F4EEC3"/>
<path d="M318.54 20.9132C318.081 20.7364 317.662 20.4712 317.307 20.1327C316.933 19.7744 316.647 19.3351 316.471 18.8488C316.28 18.287 316.189 17.6962 316.203 17.1031V8.90571H313.709V6.72128H316.203V2.52789H318.586V6.72128H322.04V8.90571H318.586V16.5582C318.529 17.1923 318.692 17.8267 319.048 18.3547C319.223 18.5722 319.449 18.7439 319.706 18.8549C319.962 18.9659 320.242 19.0129 320.521 18.992C321.057 19.0043 321.587 18.8667 322.05 18.5948V20.9039C321.77 21.0124 321.481 21.0929 321.186 21.1441C320.825 21.2005 320.461 21.2252 320.096 21.218C319.562 21.2172 319.034 21.1137 318.54 20.9132Z" fill="#F4EEC3"/>
<path d="M325.786 19.7125C324.89 18.7103 324.437 17.3202 324.437 15.556V6.70279H326.853V15.1496C326.853 17.7358 328.015 19.0289 330.339 19.0289C331.085 19.0374 331.814 18.8095 332.422 18.3778C333.035 17.9442 333.523 17.3584 333.84 16.6783C334.167 15.9868 334.336 15.231 334.334 14.4661V6.70279H336.712V20.7608H334.445V18.6595H334.334C333.877 19.4202 333.227 20.0465 332.45 20.4744C331.632 20.9621 330.696 21.2175 329.744 21.2134C328.002 21.2134 326.682 20.71 325.786 19.7125Z" fill="#F4EEC3"/>
<path d="M342.374 20.2482C341.34 19.5867 340.5 18.6623 339.941 17.5696C339.342 16.3779 339.031 15.0629 339.031 13.7295C339.031 12.396 339.342 11.0811 339.941 9.8894C340.501 8.79834 341.341 7.87559 342.374 7.21544C343.375 6.5794 344.537 6.24434 345.723 6.25021C346.75 6.23421 347.765 6.48227 348.669 6.97066C349.467 7.3898 350.14 8.01086 350.623 8.77179H350.738L350.623 6.84596V0.46814H353.006V20.7608H350.738V18.6595H350.623C350.152 19.442 349.477 20.0809 348.669 20.5068C347.766 20.9989 346.751 21.2487 345.723 21.2319C344.535 21.2322 343.373 20.8907 342.374 20.2482ZM348.378 18.4009C349.107 17.9556 349.697 17.3159 350.082 16.5536C350.502 15.6753 350.72 14.7143 350.72 13.741C350.72 12.7677 350.502 11.8068 350.082 10.9285C349.696 10.167 349.106 9.5276 348.378 9.08121C347.683 8.65593 346.884 8.43356 346.069 8.43926C345.253 8.43472 344.452 8.66213 343.76 9.09505C343.037 9.54612 342.45 10.1845 342.06 10.9424C341.641 11.8132 341.423 12.7675 341.423 13.7341C341.423 14.7008 341.641 15.655 342.06 16.5258C342.449 17.2843 343.036 17.9228 343.76 18.3731C344.453 18.8026 345.254 19.0282 346.069 19.0243C346.889 19.0343 347.695 18.8151 348.397 18.3916L348.378 18.4009Z" fill="#F4EEC3"/>
<path d="M358.742 20.2481C357.676 19.6082 356.808 18.686 356.234 17.5834C355.61 16.3966 355.292 15.0726 355.31 13.7318C355.296 12.431 355.587 11.145 356.16 9.97714C356.7 8.86446 357.538 7.92299 358.58 7.25698C359.662 6.57696 360.919 6.2271 362.196 6.2502C363.453 6.22409 364.692 6.54359 365.78 7.17385C366.807 7.78625 367.63 8.68944 368.144 9.76931C368.713 10.9722 368.994 12.2907 368.966 13.621C368.975 13.812 368.956 14.0032 368.911 14.189H357.744C357.752 15.1349 358.017 16.0609 358.511 16.8676C358.945 17.5599 359.558 18.1229 360.284 18.4978C360.962 18.8497 361.714 19.0335 362.478 19.0335C364.254 19.0335 365.624 18.1653 366.588 16.4288L368.713 17.4495C368.125 18.5609 367.261 19.5025 366.205 20.1835C365.073 20.8489 363.786 21.2055 362.473 21.2177C361.16 21.2298 359.867 20.8971 358.723 20.2528L358.742 20.2481ZM366.436 12.1708C366.396 11.5793 366.239 11.0017 365.974 10.4713C365.654 9.87112 365.174 9.3709 364.588 9.02578C363.853 8.60191 363.012 8.39532 362.164 8.43C361.144 8.40801 360.154 8.77266 359.393 9.45065C358.604 10.161 358.083 11.1217 357.92 12.1708H366.436Z" fill="#F4EEC3"/>
<path d="M371.423 6.70278H373.733V8.79949H373.843C374.282 8.03876 374.921 7.41267 375.691 6.98911C376.515 6.50314 377.454 6.24792 378.411 6.2502C380.133 6.2502 381.44 6.75359 382.336 7.75113C383.232 8.74868 383.685 10.1249 383.685 11.8614V20.7608H381.302V12.2309C381.302 9.70004 380.121 8.43308 377.76 8.43C377.028 8.42166 376.313 8.65188 375.723 9.08582C375.121 9.52244 374.644 10.1082 374.338 10.7853C374.007 11.4743 373.837 12.2289 373.839 12.9928V20.7608H371.433L371.423 6.70278Z" fill="#F4EEC3"/>
<path d="M389.97 20.9132C389.511 20.7386 389.092 20.4732 388.737 20.1327C388.364 19.7744 388.078 19.3351 387.901 18.8488C387.709 18.2873 387.617 17.6965 387.629 17.1031V8.90571H385.135V6.72128H387.629V2.52789H390.012V6.72128H393.466V8.90571H390.012V16.5582C389.958 17.1921 390.12 17.8256 390.474 18.3547C390.65 18.5719 390.875 18.7433 391.132 18.8543C391.389 18.9653 391.668 19.0126 391.947 18.992C392.485 19.0037 393.016 18.8662 393.48 18.5948V20.9039C393.199 21.0125 392.909 21.0929 392.612 21.1441C392.252 21.2005 391.887 21.2252 391.522 21.218C390.99 21.2166 390.463 21.1132 389.97 20.9132Z" fill="#F4EEC3"/>
<path d="M406.361 19.8233C404.774 18.9182 403.466 17.5957 402.578 15.9994C401.675 14.3482 401.202 12.4965 401.202 10.6145C401.202 8.73251 401.675 6.88074 402.578 5.22958C403.466 3.63324 404.774 2.31072 406.361 1.40567C407.981 0.475933 409.822 -0.00248534 411.69 0.0201915C413.122 0.00403178 414.54 0.298679 415.846 0.883804C417.09 1.45531 418.194 2.29236 419.079 3.3361L417.38 5.00791C416.702 4.14251 415.835 3.44418 414.844 2.96664C413.843 2.51868 412.755 2.29636 411.658 2.31545C410.261 2.31588 408.888 2.677 407.672 3.36381C406.448 4.0524 405.434 5.06141 404.74 6.28255C404.025 7.62123 403.651 9.1154 403.651 10.6329C403.651 12.1505 404.025 13.6447 404.74 14.9833C405.434 16.2045 406.448 17.2135 407.672 17.9021C408.902 18.591 410.29 18.9476 411.699 18.9366C412.909 18.9417 414.105 18.6712 415.195 18.1455C416.284 17.6197 417.24 16.8526 417.989 15.9024L419.717 17.6019C418.775 18.7319 417.593 19.6376 416.258 20.2528C414.692 20.9617 412.982 21.2939 411.265 21.2225C409.548 21.1511 407.871 20.6782 406.37 19.8418L406.361 19.8233Z" fill="#F4EEC3"/>
<path d="M422.058 0.46814H424.469V20.7608H422.058V0.46814Z" fill="#F4EEC3"/>
<path d="M428.916 19.7125C428.02 18.7118 427.572 17.3264 427.572 15.556V6.70279H429.983V15.1496C429.983 17.7358 431.143 19.0289 433.465 19.0289C434.211 19.0381 434.94 18.81 435.548 18.3778C436.16 17.9442 436.649 17.3584 436.966 16.6783C437.295 15.9875 437.464 15.2313 437.46 14.4661V6.70279H439.843V20.7608H437.575V18.6595H437.46C437.003 19.4202 436.353 20.0465 435.576 20.4744C434.757 20.9621 433.822 21.2175 432.869 21.2134C431.147 21.2134 429.84 20.71 428.916 19.7125Z" fill="#F4EEC3"/>
<path d="M447.463 20.4883C446.661 20.0594 445.991 19.4209 445.523 18.641H445.408V20.7423H443.099V0.46814H445.542V6.84596L445.426 8.77179H445.542C446.034 8.01906 446.705 7.40018 447.495 6.97066C448.398 6.47732 449.413 6.22893 450.442 6.25021C451.628 6.24408 452.79 6.58436 453.785 7.22928C454.818 7.89345 455.659 8.81706 456.224 9.90787C456.822 11.0938 457.133 12.4036 457.133 13.7318C457.133 15.06 456.822 16.3697 456.224 17.5557C455.659 18.6465 454.818 19.5702 453.785 20.2343C452.79 20.8792 451.628 21.2195 450.442 21.2134C449.402 21.2374 448.375 20.9873 447.463 20.4883ZM452.368 18.3778C453.091 17.9274 453.678 17.2889 454.067 16.5305C454.486 15.6596 454.704 14.7054 454.704 13.7387C454.704 12.7721 454.486 11.8179 454.067 10.947C453.678 10.1891 453.09 9.55075 452.368 9.09967C451.675 8.66676 450.875 8.43934 450.058 8.44389C449.244 8.43965 448.445 8.66191 447.749 9.08583C447.023 9.53288 446.435 10.1723 446.05 10.9331C445.63 11.8114 445.413 12.7723 445.413 13.7456C445.413 14.7189 445.63 15.6799 446.05 16.5582C446.435 17.319 447.023 17.9584 447.749 18.4055C448.446 18.826 449.245 19.0465 450.058 19.0428C450.875 19.0426 451.676 18.8121 452.368 18.3778Z" fill="#F4EEC3"/>
<path d="M460.57 20.0773C459.577 19.384 458.817 18.4069 458.39 17.274L460.514 16.3504C460.837 17.1715 461.393 17.8808 462.112 18.3916C462.772 18.8565 463.559 19.105 464.366 19.1028C465.16 19.1342 465.945 18.9266 466.62 18.5071C466.88 18.3637 467.1 18.1551 467.256 17.9018C467.412 17.6485 467.5 17.359 467.511 17.0616C467.518 16.7944 467.462 16.5293 467.346 16.2884C467.23 16.0474 467.059 15.8375 466.846 15.6761C466.156 15.2169 465.38 14.9026 464.564 14.7524L462.639 14.2906C461.641 14.0752 460.712 13.6185 459.932 12.9606C459.566 12.6477 459.275 12.2557 459.081 11.8142C458.887 11.3726 458.796 10.893 458.815 10.4113C458.795 9.60025 459.06 8.8079 459.563 8.1714C460.092 7.52979 460.782 7.04048 461.563 6.75362C462.433 6.43351 463.355 6.27694 464.283 6.2918C465.438 6.27712 466.576 6.56533 467.585 7.1277C468.541 7.64753 469.287 8.48333 469.695 9.49225L467.571 10.4159C467.298 9.76857 466.808 9.23634 466.185 8.91034C465.548 8.59197 464.843 8.43347 464.13 8.44852C463.447 8.41991 462.768 8.57796 462.168 8.90572C461.906 9.03247 461.684 9.22871 461.526 9.47302C461.368 9.71734 461.28 10.0004 461.272 10.2912C461.264 10.5184 461.312 10.744 461.414 10.9473C461.516 11.1507 461.667 11.3252 461.854 11.455C462.42 11.8153 463.045 12.0746 463.701 12.2216L465.798 12.7297C466.968 12.9676 468.051 13.5219 468.929 14.3322C469.262 14.6639 469.526 15.0593 469.703 15.4948C469.881 15.9304 469.97 16.3972 469.963 16.8676C469.969 17.6614 469.721 18.4363 469.257 19.0798C468.746 19.7674 468.06 20.3049 467.271 20.6361C466.358 21.0273 465.373 21.2209 464.38 21.2041C463.021 21.2514 461.684 20.8559 460.57 20.0773Z" fill="#F4EEC3"/>
<path d="M74.1043 46.5758L78.265 34.5977H80.2921L75.0644 48.7192H73.6193L74.1043 46.5758ZM70.215 34.5977L74.337 46.5758L74.8511 48.7192H73.4059L68.188 34.5977H70.215Z" fill="#F4EEC3"/>
<path d="M85.8495 48.9132C85.1188 48.9132 84.4561 48.7903 83.8612 48.5446C83.2728 48.2924 82.7653 47.9401 82.3385 47.4874C81.9182 47.0348 81.595 46.4982 81.3686 45.8774C81.1423 45.2567 81.0292 44.5778 81.0292 43.8407V43.4333C81.0292 42.5799 81.1553 41.8201 81.4074 41.1541C81.6596 40.4817 82.0023 39.9127 82.4355 39.4471C82.8687 38.9816 83.3601 38.6292 83.9097 38.39C84.4593 38.1507 85.0283 38.0311 85.6167 38.0311C86.3668 38.0311 87.0133 38.1604 87.5565 38.4191C88.1061 38.6777 88.5555 39.0398 88.9046 39.5053C89.2538 39.9644 89.5124 40.5075 89.6805 41.1347C89.8486 41.7555 89.9327 42.4344 89.9327 43.1715V43.9765H82.0961V42.512H88.1384V42.3762C88.1125 41.9106 88.0156 41.458 87.8474 41.0183C87.6858 40.5787 87.4272 40.2166 87.0715 39.9321C86.7159 39.6476 86.231 39.5053 85.6167 39.5053C85.2094 39.5053 84.8343 39.5926 84.4917 39.7672C84.149 39.9353 83.8548 40.1875 83.6091 40.5237C83.3634 40.8599 83.1726 41.2705 83.0368 41.7555C82.9011 42.2404 82.8332 42.7997 82.8332 43.4333V43.8407C82.8332 44.3386 82.9011 44.8073 83.0368 45.247C83.1791 45.6802 83.3828 46.0617 83.6479 46.3915C83.9194 46.7212 84.246 46.9799 84.6274 47.1674C85.0154 47.3549 85.4551 47.4486 85.9465 47.4486C86.5801 47.4486 87.1168 47.3193 87.5565 47.0607C87.9962 46.8021 88.3809 46.4561 88.7106 46.0229L89.7969 46.8861C89.5706 47.2288 89.2829 47.5553 88.9337 47.8657C88.5845 48.1761 88.1546 48.4282 87.6438 48.6222C87.1394 48.8162 86.5413 48.9132 85.8495 48.9132Z" fill="#F4EEC3"/>
<path d="M93.9771 33.8218V48.7192H92.1731V33.8218H93.9771Z" fill="#F4EEC3"/>
<path d="M98.8071 33.8218V48.7192H97.0031V33.8218H98.8071Z" fill="#F4EEC3"/>
<path d="M101.212 43.5885V43.3655C101.212 42.6089 101.322 41.9074 101.542 41.2608C101.762 40.6078 102.079 40.042 102.493 39.5635C102.906 39.0786 103.408 38.7036 103.996 38.4385C104.584 38.1669 105.244 38.0311 105.974 38.0311C106.712 38.0311 107.374 38.1669 107.963 38.4385C108.558 38.7036 109.062 39.0786 109.476 39.5635C109.896 40.042 110.216 40.6078 110.436 41.2608C110.656 41.9074 110.766 42.6089 110.766 43.3655V43.5885C110.766 44.345 110.656 45.0466 110.436 45.6932C110.216 46.3398 109.896 46.9055 109.476 47.3905C109.062 47.8689 108.561 48.244 107.972 48.5155C107.39 48.7806 106.731 48.9132 105.994 48.9132C105.257 48.9132 104.594 48.7806 104.006 48.5155C103.417 48.244 102.913 47.8689 102.493 47.3905C102.079 46.9055 101.762 46.3398 101.542 45.6932C101.322 45.0466 101.212 44.345 101.212 43.5885ZM103.007 43.3655V43.5885C103.007 44.1123 103.068 44.6069 103.191 45.0724C103.314 45.5315 103.498 45.9389 103.744 46.2945C103.996 46.6501 104.31 46.9314 104.685 47.1383C105.06 47.3387 105.496 47.4389 105.994 47.4389C106.485 47.4389 106.915 47.3387 107.284 47.1383C107.659 46.9314 107.969 46.6501 108.215 46.2945C108.461 45.9389 108.645 45.5315 108.768 45.0724C108.897 44.6069 108.962 44.1123 108.962 43.5885V43.3655C108.962 42.8482 108.897 42.36 108.768 41.9009C108.645 41.4354 108.457 41.0248 108.205 40.6692C107.959 40.3071 107.649 40.0226 107.274 39.8157C106.906 39.6088 106.472 39.5053 105.974 39.5053C105.483 39.5053 105.05 39.6088 104.675 39.8157C104.306 40.0226 103.996 40.3071 103.744 40.6692C103.498 41.0248 103.314 41.4354 103.191 41.9009C103.068 42.36 103.007 42.8482 103.007 43.3655Z" fill="#F4EEC3"/>
<path d="M114.81 39.8739V48.7192H113.016V38.2251H114.762L114.81 39.8739ZM118.088 38.1669L118.079 39.8351C117.93 39.8028 117.788 39.7834 117.652 39.7769C117.523 39.764 117.374 39.7575 117.206 39.7575C116.792 39.7575 116.427 39.8222 116.11 39.9515C115.793 40.0808 115.525 40.2618 115.305 40.4946C115.085 40.7274 114.91 41.0054 114.781 41.3287C114.658 41.6455 114.577 41.9947 114.539 42.3762L114.034 42.6671C114.034 42.0335 114.096 41.4386 114.218 40.8826C114.348 40.3265 114.545 39.8351 114.81 39.4083C115.075 38.9751 115.411 38.6389 115.819 38.3997C116.233 38.154 116.724 38.0311 117.293 38.0311C117.422 38.0311 117.571 38.0473 117.739 38.0796C117.907 38.1055 118.024 38.1346 118.088 38.1669Z" fill="#F4EEC3"/>
<path d="M123.908 48.9132C123.177 48.9132 122.514 48.7903 121.919 48.5446C121.331 48.2924 120.823 47.9401 120.397 47.4874C119.976 47.0348 119.653 46.4982 119.427 45.8774C119.2 45.2567 119.087 44.5778 119.087 43.8407V43.4333C119.087 42.5799 119.213 41.8201 119.465 41.1541C119.718 40.4817 120.06 39.9127 120.494 39.4471C120.927 38.9816 121.418 38.6292 121.968 38.39C122.517 38.1507 123.086 38.0311 123.675 38.0311C124.425 38.0311 125.071 38.1604 125.615 38.4191C126.164 38.6777 126.614 39.0398 126.963 39.5053C127.312 39.9644 127.57 40.5075 127.739 41.1347C127.907 41.7555 127.991 42.4344 127.991 43.1715V43.9765H120.154V42.512H126.196V42.3762C126.171 41.9106 126.074 41.458 125.905 41.0183C125.744 40.5787 125.485 40.2166 125.13 39.9321C124.774 39.6476 124.289 39.5053 123.675 39.5053C123.267 39.5053 122.892 39.5926 122.55 39.7672C122.207 39.9353 121.913 40.1875 121.667 40.5237C121.421 40.8599 121.231 41.2705 121.095 41.7555C120.959 42.2404 120.891 42.7997 120.891 43.4333V43.8407C120.891 44.3386 120.959 44.8073 121.095 45.247C121.237 45.6802 121.441 46.0617 121.706 46.3915C121.977 46.7212 122.304 46.9799 122.685 47.1674C123.073 47.3549 123.513 47.4486 124.005 47.4486C124.638 47.4486 125.175 47.3193 125.615 47.0607C126.054 46.8021 126.439 46.4561 126.769 46.0229L127.855 46.8861C127.629 47.2288 127.341 47.5553 126.992 47.8657C126.643 48.1761 126.213 48.4282 125.702 48.6222C125.197 48.8162 124.599 48.9132 123.908 48.9132Z" fill="#F4EEC3"/>
<path d="M137.292 34.5977V48.7192H135.42V34.5977H137.292Z" fill="#F4EEC3"/>
<path d="M142.219 40.4655V48.7192H140.425V38.2251H142.122L142.219 40.4655ZM141.792 43.0745L141.045 43.0454C141.052 42.3277 141.158 41.6649 141.365 41.0571C141.572 40.4429 141.863 39.9095 142.238 39.4568C142.613 39.0042 143.059 38.6551 143.577 38.4094C144.1 38.1572 144.679 38.0311 145.313 38.0311C145.83 38.0311 146.296 38.1022 146.709 38.2445C147.123 38.3803 147.476 38.6001 147.767 38.904C148.064 39.2079 148.29 39.6023 148.445 40.0873C148.601 40.5657 148.678 41.1509 148.678 41.8427V48.7192H146.874V41.8233C146.874 41.2737 146.793 40.8341 146.632 40.5043C146.47 40.1681 146.234 39.9256 145.924 39.7769C145.613 39.6217 145.232 39.5441 144.779 39.5441C144.333 39.5441 143.926 39.6379 143.557 39.8254C143.195 40.0129 142.882 40.2715 142.617 40.6013C142.358 40.9311 142.154 41.3093 142.005 41.7361C141.863 42.1563 141.792 42.6025 141.792 43.0745Z" fill="#F4EEC3"/>
<path d="M157.514 45.9356C157.514 45.677 157.456 45.4378 157.339 45.2179C157.229 44.9916 157 44.7879 156.651 44.6069C156.308 44.4194 155.791 44.2577 155.099 44.122C154.517 43.9991 153.99 43.8536 153.518 43.6855C153.052 43.5174 152.655 43.3137 152.325 43.0745C152.002 42.8353 151.753 42.554 151.578 42.2307C151.404 41.9074 151.316 41.5291 151.316 41.0959C151.316 40.6821 151.407 40.2909 151.588 39.9224C151.775 39.5538 152.037 39.2273 152.373 38.9428C152.716 38.6583 153.127 38.4352 153.605 38.2736C154.084 38.1119 154.617 38.0311 155.206 38.0311C156.046 38.0311 156.764 38.1798 157.359 38.4773C157.954 38.7747 158.409 39.1723 158.726 39.6702C159.043 40.1616 159.201 40.708 159.201 41.3093H157.407C157.407 41.0183 157.32 40.7371 157.145 40.4655C156.977 40.1875 156.728 39.9579 156.398 39.7769C156.075 39.5959 155.678 39.5053 155.206 39.5053C154.708 39.5053 154.304 39.5829 153.993 39.7381C153.689 39.8868 153.466 40.0776 153.324 40.3103C153.188 40.5431 153.12 40.7888 153.12 41.0474C153.12 41.2414 153.153 41.416 153.217 41.5712C153.288 41.7199 153.411 41.8589 153.586 41.9882C153.76 42.1111 154.006 42.2275 154.323 42.3374C154.64 42.4473 155.044 42.5572 155.535 42.6671C156.395 42.8611 157.103 43.0939 157.659 43.3655C158.215 43.637 158.629 43.97 158.901 44.3644C159.172 44.7588 159.308 45.2373 159.308 45.7999C159.308 46.2589 159.211 46.6792 159.017 47.0607C158.83 47.4422 158.555 47.7719 158.193 48.05C157.837 48.3215 157.41 48.5349 156.913 48.6901C156.421 48.8388 155.868 48.9132 155.254 48.9132C154.329 48.9132 153.547 48.7483 152.907 48.4185C152.267 48.0888 151.782 47.662 151.452 47.1383C151.122 46.6146 150.957 46.0617 150.957 45.4798H152.761C152.787 45.9712 152.93 46.3624 153.188 46.6533C153.447 46.9378 153.764 47.1415 154.139 47.2644C154.514 47.3808 154.885 47.4389 155.254 47.4389C155.745 47.4389 156.156 47.3743 156.486 47.245C156.822 47.1157 157.077 46.9378 157.252 46.7115C157.427 46.4852 157.514 46.2266 157.514 45.9356Z" fill="#F4EEC3"/>
<path d="M166.058 38.2251V39.6023H160.385V38.2251H166.058ZM162.305 35.6743H164.099V46.1199C164.099 46.4755 164.154 46.7439 164.264 46.9249C164.374 47.106 164.516 47.2256 164.691 47.2838C164.866 47.342 165.053 47.3711 165.253 47.3711C165.402 47.3711 165.557 47.3581 165.719 47.3323C165.887 47.2999 166.013 47.2741 166.097 47.2547L166.107 48.7192C165.965 48.7645 165.777 48.8065 165.544 48.8453C165.318 48.8905 165.043 48.9132 164.72 48.9132C164.28 48.9132 163.876 48.8259 163.508 48.6513C163.139 48.4767 162.845 48.1858 162.625 47.7784C162.412 47.3646 162.305 46.8085 162.305 46.1102V35.6743Z" fill="#F4EEC3"/>
<path d="M170.113 38.2251V48.7192H168.309V38.2251H170.113ZM168.173 35.4415C168.173 35.1506 168.26 34.9049 168.435 34.7044C168.616 34.504 168.881 34.4038 169.23 34.4038C169.573 34.4038 169.835 34.504 170.016 34.7044C170.203 34.9049 170.297 35.1506 170.297 35.4415C170.297 35.7196 170.203 35.9588 170.016 36.1592C169.835 36.3532 169.573 36.4502 169.23 36.4502C168.881 36.4502 168.616 36.3532 168.435 36.1592C168.26 35.9588 168.173 35.7196 168.173 35.4415Z" fill="#F4EEC3"/>
<path d="M177.387 38.2251V39.6023H171.713V38.2251H177.387ZM173.633 35.6743H175.428V46.1199C175.428 46.4755 175.482 46.7439 175.592 46.9249C175.702 47.106 175.845 47.2256 176.019 47.2838C176.194 47.342 176.381 47.3711 176.582 47.3711C176.73 47.3711 176.886 47.3581 177.047 47.3323C177.215 47.2999 177.341 47.2741 177.425 47.2547L177.435 48.7192C177.293 48.7645 177.105 48.8065 176.873 48.8453C176.646 48.8905 176.372 48.9132 176.048 48.9132C175.609 48.9132 175.204 48.8259 174.836 48.6513C174.467 48.4767 174.173 48.1858 173.953 47.7784C173.74 47.3646 173.633 46.8085 173.633 46.1102V35.6743Z" fill="#F4EEC3"/>
<path d="M185.912 46.2945V38.2251H187.716V48.7192H185.999L185.912 46.2945ZM186.251 44.0832L186.998 44.0638C186.998 44.7621 186.924 45.4087 186.775 46.0035C186.633 46.5919 186.4 47.1027 186.077 47.5359C185.754 47.9692 185.33 48.3086 184.806 48.5543C184.283 48.7935 183.646 48.9132 182.896 48.9132C182.385 48.9132 181.916 48.8388 181.489 48.6901C181.069 48.5414 180.707 48.3118 180.403 48.0015C180.099 47.6911 179.863 47.287 179.695 46.7891C179.533 46.2913 179.453 45.6932 179.453 44.9949V38.2251H181.247V45.0143C181.247 45.4863 181.299 45.8774 181.402 46.1878C181.512 46.4917 181.657 46.7342 181.838 46.9152C182.026 47.0898 182.233 47.2126 182.459 47.2838C182.692 47.3549 182.931 47.3905 183.177 47.3905C183.94 47.3905 184.544 47.245 184.991 46.954C185.437 46.6566 185.757 46.2589 185.951 45.7611C186.151 45.2567 186.251 44.6974 186.251 44.0832Z" fill="#F4EEC3"/>
<path d="M194.845 38.2251V39.6023H189.171V38.2251H194.845ZM191.091 35.6743H192.885V46.1199C192.885 46.4755 192.94 46.7439 193.05 46.9249C193.16 47.106 193.302 47.2256 193.477 47.2838C193.652 47.342 193.839 47.3711 194.04 47.3711C194.188 47.3711 194.343 47.3581 194.505 47.3323C194.673 47.2999 194.799 47.2741 194.883 47.2547L194.893 48.7192C194.751 48.7645 194.563 48.8065 194.33 48.8453C194.104 48.8905 193.829 48.9132 193.506 48.9132C193.066 48.9132 192.662 48.8259 192.294 48.6513C191.925 48.4767 191.631 48.1858 191.411 47.7784C191.198 47.3646 191.091 46.8085 191.091 46.1102V35.6743Z" fill="#F4EEC3"/>
<path d="M201.304 48.9132C200.573 48.9132 199.911 48.7903 199.316 48.5446C198.727 48.2924 198.22 47.9401 197.793 47.4874C197.373 47.0348 197.049 46.4982 196.823 45.8774C196.597 45.2567 196.484 44.5778 196.484 43.8407V43.4333C196.484 42.5799 196.61 41.8201 196.862 41.1541C197.114 40.4817 197.457 39.9127 197.89 39.4471C198.323 38.9816 198.815 38.6292 199.364 38.39C199.914 38.1507 200.483 38.0311 201.071 38.0311C201.821 38.0311 202.468 38.1604 203.011 38.4191C203.56 38.6777 204.01 39.0398 204.359 39.5053C204.708 39.9644 204.967 40.5075 205.135 41.1347C205.303 41.7555 205.387 42.4344 205.387 43.1715V43.9765H197.55V42.512H203.593V42.3762C203.567 41.9106 203.47 41.458 203.302 41.0183C203.14 40.5787 202.882 40.2166 202.526 39.9321C202.17 39.6476 201.685 39.5053 201.071 39.5053C200.664 39.5053 200.289 39.5926 199.946 39.7672C199.603 39.9353 199.309 40.1875 199.063 40.5237C198.818 40.8599 198.627 41.2705 198.491 41.7555C198.355 42.2404 198.288 42.7997 198.288 43.4333V43.8407C198.288 44.3386 198.355 44.8073 198.491 45.247C198.633 45.6802 198.837 46.0617 199.102 46.3915C199.374 46.7212 199.7 46.9799 200.082 47.1674C200.47 47.3549 200.909 47.4486 201.401 47.4486C202.035 47.4486 202.571 47.3193 203.011 47.0607C203.451 46.8021 203.835 46.4561 204.165 46.0229L205.251 46.8861C205.025 47.2288 204.737 47.5553 204.388 47.8657C204.039 48.1761 203.609 48.4282 203.098 48.6222C202.594 48.8162 201.996 48.9132 201.304 48.9132Z" fill="#F4EEC3"/>
<path d="M211.934 43.5885V43.3655C211.934 42.6089 212.044 41.9074 212.264 41.2608C212.483 40.6078 212.8 40.042 213.214 39.5635C213.628 39.0786 214.129 38.7036 214.717 38.4385C215.306 38.1669 215.965 38.0311 216.696 38.0311C217.433 38.0311 218.096 38.1669 218.684 38.4385C219.279 38.7036 219.783 39.0786 220.197 39.5635C220.617 40.042 220.937 40.6078 221.157 41.2608C221.377 41.9074 221.487 42.6089 221.487 43.3655V43.5885C221.487 44.345 221.377 45.0466 221.157 45.6932C220.937 46.3398 220.617 46.9055 220.197 47.3905C219.783 47.8689 219.282 48.244 218.694 48.5155C218.112 48.7806 217.452 48.9132 216.715 48.9132C215.978 48.9132 215.315 48.7806 214.727 48.5155C214.139 48.244 213.634 47.8689 213.214 47.3905C212.8 46.9055 212.483 46.3398 212.264 45.6932C212.044 45.0466 211.934 44.345 211.934 43.5885ZM213.728 43.3655V43.5885C213.728 44.1123 213.789 44.6069 213.912 45.0724C214.035 45.5315 214.219 45.9389 214.465 46.2945C214.717 46.6501 215.031 46.9314 215.406 47.1383C215.781 47.3387 216.217 47.4389 216.715 47.4389C217.207 47.4389 217.637 47.3387 218.005 47.1383C218.38 46.9314 218.691 46.6501 218.936 46.2945C219.182 45.9389 219.366 45.5315 219.489 45.0724C219.618 44.6069 219.683 44.1123 219.683 43.5885V43.3655C219.683 42.8482 219.618 42.36 219.489 41.9009C219.366 41.4354 219.179 41.0248 218.927 40.6692C218.681 40.3071 218.371 40.0226 217.996 39.8157C217.627 39.6088 217.194 39.5053 216.696 39.5053C216.204 39.5053 215.771 39.6088 215.396 39.8157C215.028 40.0226 214.717 40.3071 214.465 40.6692C214.219 41.0248 214.035 41.4354 213.912 41.9009C213.789 42.36 213.728 42.8482 213.728 43.3655Z" fill="#F4EEC3"/>
<path d="M226.414 48.7192H224.62V37.1194C224.62 36.3629 224.756 35.726 225.027 35.2088C225.305 34.685 225.703 34.2906 226.22 34.0255C226.737 33.7539 227.352 33.6182 228.063 33.6182C228.27 33.6182 228.477 33.6311 228.684 33.657C228.897 33.6828 229.104 33.7216 229.304 33.7733L229.207 35.2379C229.072 35.2055 228.916 35.1829 228.742 35.17C228.574 35.157 228.406 35.1506 228.237 35.1506C227.856 35.1506 227.526 35.2282 227.248 35.3833C226.977 35.5321 226.77 35.7519 226.627 36.0429C226.485 36.3338 226.414 36.6927 226.414 37.1194V48.7192ZM228.645 38.2251V39.6023H222.961V38.2251H228.645Z" fill="#F4EEC3"/>
<path d="M240.671 34.5977V48.7192H238.829V34.5977H240.671ZM245.21 34.5977V36.1302H234.299V34.5977H245.21Z" fill="#F4EEC3"/>
<path d="M250.419 48.9132C249.688 48.9132 249.025 48.7903 248.43 48.5446C247.842 48.2924 247.334 47.9401 246.908 47.4874C246.487 47.0348 246.164 46.4982 245.938 45.8774C245.711 45.2567 245.598 44.5778 245.598 43.8407V43.4333C245.598 42.5799 245.724 41.8201 245.977 41.1541C246.229 40.4817 246.571 39.9127 247.005 39.4471C247.438 38.9816 247.929 38.6292 248.479 38.39C249.028 38.1507 249.597 38.0311 250.186 38.0311C250.936 38.0311 251.582 38.1604 252.126 38.4191C252.675 38.6777 253.125 39.0398 253.474 39.5053C253.823 39.9644 254.081 40.5075 254.25 41.1347C254.418 41.7555 254.502 42.4344 254.502 43.1715V43.9765H246.665V42.512H252.707V42.3762C252.682 41.9106 252.585 41.458 252.417 41.0183C252.255 40.5787 251.996 40.2166 251.641 39.9321C251.285 39.6476 250.8 39.5053 250.186 39.5053C249.778 39.5053 249.403 39.5926 249.061 39.7672C248.718 39.9353 248.424 40.1875 248.178 40.5237C247.932 40.8599 247.742 41.2705 247.606 41.7555C247.47 42.2404 247.402 42.7997 247.402 43.4333V43.8407C247.402 44.3386 247.47 44.8073 247.606 45.247C247.748 45.6802 247.952 46.0617 248.217 46.3915C248.489 46.7212 248.815 46.9799 249.197 47.1674C249.584 47.3549 250.024 47.4486 250.516 47.4486C251.149 47.4486 251.686 47.3193 252.126 47.0607C252.565 46.8021 252.95 46.4561 253.28 46.0229L254.366 46.8861C254.14 47.2288 253.852 47.5553 253.503 47.8657C253.154 48.1761 252.724 48.4282 252.213 48.6222C251.709 48.8162 251.11 48.9132 250.419 48.9132Z" fill="#F4EEC3"/>
<path d="M260.796 47.4389C261.223 47.4389 261.617 47.3517 261.98 47.1771C262.342 47.0025 262.639 46.7633 262.872 46.4594C263.105 46.149 263.237 45.7966 263.269 45.4022H264.976C264.944 46.0229 264.734 46.6016 264.346 47.1383C263.965 47.6685 263.463 48.0985 262.843 48.4282C262.222 48.7515 261.54 48.9132 260.796 48.9132C260.007 48.9132 259.319 48.7742 258.73 48.4961C258.149 48.2181 257.664 47.8366 257.276 47.3517C256.894 46.8667 256.606 46.3107 256.412 45.6835C256.225 45.0498 256.131 44.3806 256.131 43.6758V43.2685C256.131 42.5637 256.225 41.8977 256.412 41.2705C256.606 40.6369 256.894 40.0776 257.276 39.5926C257.664 39.1077 258.149 38.7262 258.73 38.4482C259.319 38.1701 260.007 38.0311 260.796 38.0311C261.617 38.0311 262.335 38.1992 262.949 38.5355C263.564 38.8652 264.045 39.3178 264.395 39.8933C264.75 40.4623 264.944 41.1089 264.976 41.833H263.269C263.237 41.3998 263.114 41.0086 262.901 40.6595C262.694 40.3103 262.41 40.0323 262.047 39.8254C261.692 39.612 261.275 39.5053 260.796 39.5053C260.247 39.5053 259.784 39.6153 259.409 39.8351C259.041 40.0485 258.747 40.3394 258.527 40.708C258.313 41.0701 258.158 41.4742 258.061 41.9203C257.971 42.36 257.925 42.8094 257.925 43.2685V43.6758C257.925 44.1349 257.971 44.5875 258.061 45.0336C258.152 45.4798 258.304 45.8839 258.517 46.246C258.737 46.6081 259.031 46.8991 259.4 47.1189C259.775 47.3323 260.24 47.4389 260.796 47.4389Z" fill="#F4EEC3"/>
<path d="M268.788 33.8218V48.7192H266.994V33.8218H268.788ZM268.361 43.0745L267.615 43.0454C267.621 42.3277 267.728 41.6649 267.935 41.0571C268.141 40.4429 268.432 39.9095 268.807 39.4568C269.183 39.0042 269.629 38.6551 270.146 38.4094C270.67 38.1572 271.248 38.0311 271.882 38.0311C272.399 38.0311 272.865 38.1022 273.279 38.2445C273.692 38.3803 274.045 38.6001 274.336 38.904C274.633 39.2079 274.86 39.6023 275.015 40.0873C275.17 40.5657 275.247 41.1509 275.247 41.8427V48.7192H273.444V41.8233C273.444 41.2737 273.363 40.8341 273.201 40.5043C273.039 40.1681 272.803 39.9256 272.493 39.7769C272.183 39.6217 271.801 39.5441 271.349 39.5441C270.902 39.5441 270.495 39.6379 270.127 39.8254C269.764 40.0129 269.451 40.2715 269.186 40.6013C268.927 40.9311 268.723 41.3093 268.575 41.7361C268.432 42.1563 268.361 42.6025 268.361 43.0745Z" fill="#F4EEC3"/>
<path d="M279.728 40.4655V48.7192H277.934V38.2251H279.631L279.728 40.4655ZM279.302 43.0745L278.555 43.0454C278.561 42.3277 278.668 41.6649 278.875 41.0571C279.082 40.4429 279.373 39.9095 279.748 39.4568C280.123 39.0042 280.569 38.6551 281.086 38.4094C281.61 38.1572 282.189 38.0311 282.822 38.0311C283.34 38.0311 283.805 38.1022 284.219 38.2445C284.633 38.3803 284.985 38.6001 285.276 38.904C285.573 39.2079 285.8 39.6023 285.955 40.0873C286.11 40.5657 286.188 41.1509 286.188 41.8427V48.7192H284.384V41.8233C284.384 41.2737 284.303 40.8341 284.141 40.5043C283.98 40.1681 283.744 39.9256 283.433 39.7769C283.123 39.6217 282.741 39.5441 282.289 39.5441C281.843 39.5441 281.435 39.6379 281.067 39.8254C280.705 40.0129 280.391 40.2715 280.126 40.6013C279.867 40.9311 279.664 41.3093 279.515 41.7361C279.373 42.1563 279.302 42.6025 279.302 43.0745Z" fill="#F4EEC3"/>
<path d="M288.438 43.5885V43.3655C288.438 42.6089 288.548 41.9074 288.768 41.2608C288.987 40.6078 289.304 40.042 289.718 39.5635C290.132 39.0786 290.633 38.7036 291.221 38.4385C291.81 38.1669 292.469 38.0311 293.2 38.0311C293.937 38.0311 294.6 38.1669 295.188 38.4385C295.783 38.7036 296.287 39.0786 296.701 39.5635C297.121 40.042 297.442 40.6078 297.661 41.2608C297.881 41.9074 297.991 42.6089 297.991 43.3655V43.5885C297.991 44.345 297.881 45.0466 297.661 45.6932C297.442 46.3398 297.121 46.9055 296.701 47.3905C296.287 47.8689 295.786 48.244 295.198 48.5155C294.616 48.7806 293.956 48.9132 293.219 48.9132C292.482 48.9132 291.819 48.7806 291.231 48.5155C290.643 48.244 290.138 47.8689 289.718 47.3905C289.304 46.9055 288.987 46.3398 288.768 45.6932C288.548 45.0466 288.438 44.345 288.438 43.5885ZM290.232 43.3655V43.5885C290.232 44.1123 290.294 44.6069 290.416 45.0724C290.539 45.5315 290.724 45.9389 290.969 46.2945C291.221 46.6501 291.535 46.9314 291.91 47.1383C292.285 47.3387 292.721 47.4389 293.219 47.4389C293.711 47.4389 294.141 47.3387 294.509 47.1383C294.884 46.9314 295.195 46.6501 295.44 46.2945C295.686 45.9389 295.87 45.5315 295.993 45.0724C296.123 44.6069 296.187 44.1123 296.187 43.5885V43.3655C296.187 42.8482 296.123 42.36 295.993 41.9009C295.87 41.4354 295.683 41.0248 295.431 40.6692C295.185 40.3071 294.875 40.0226 294.5 39.8157C294.131 39.6088 293.698 39.5053 293.2 39.5053C292.709 39.5053 292.275 39.6088 291.9 39.8157C291.532 40.0226 291.221 40.3071 290.969 40.6692C290.724 41.0248 290.539 41.4354 290.416 41.9009C290.294 42.36 290.232 42.8482 290.232 43.3655Z" fill="#F4EEC3"/>
<path d="M302.191 33.8218V48.7192H300.387V33.8218H302.191Z" fill="#F4EEC3"/>
<path d="M304.596 43.5885V43.3655C304.596 42.6089 304.706 41.9074 304.926 41.2608C305.146 40.6078 305.462 40.042 305.876 39.5635C306.29 39.0786 306.791 38.7036 307.38 38.4385C307.968 38.1669 308.628 38.0311 309.358 38.0311C310.095 38.0311 310.758 38.1669 311.346 38.4385C311.941 38.7036 312.446 39.0786 312.859 39.5635C313.28 40.042 313.6 40.6078 313.82 41.2608C314.039 41.9074 314.149 42.6089 314.149 43.3655V43.5885C314.149 44.345 314.039 45.0466 313.82 45.6932C313.6 46.3398 313.28 46.9055 312.859 47.3905C312.446 47.8689 311.944 48.244 311.356 48.5155C310.774 48.7806 310.115 48.9132 309.378 48.9132C308.64 48.9132 307.978 48.7806 307.389 48.5155C306.801 48.244 306.297 47.8689 305.876 47.3905C305.462 46.9055 305.146 46.3398 304.926 45.6932C304.706 45.0466 304.596 44.345 304.596 43.5885ZM306.39 43.3655V43.5885C306.39 44.1123 306.452 44.6069 306.575 45.0724C306.697 45.5315 306.882 45.9389 307.127 46.2945C307.38 46.6501 307.693 46.9314 308.068 47.1383C308.443 47.3387 308.88 47.4389 309.378 47.4389C309.869 47.4389 310.299 47.3387 310.667 47.1383C311.042 46.9314 311.353 46.6501 311.599 46.2945C311.844 45.9389 312.029 45.5315 312.151 45.0724C312.281 44.6069 312.345 44.1123 312.345 43.5885V43.3655C312.345 42.8482 312.281 42.36 312.151 41.9009C312.029 41.4354 311.841 41.0248 311.589 40.6692C311.343 40.3071 311.033 40.0226 310.658 39.8157C310.289 39.6088 309.856 39.5053 309.358 39.5053C308.867 39.5053 308.434 39.6088 308.058 39.8157C307.69 40.0226 307.38 40.3071 307.127 40.6692C306.882 41.0248 306.697 41.4354 306.575 41.9009C306.452 42.36 306.39 42.8482 306.39 43.3655Z" fill="#F4EEC3"/>
<path d="M323.198 38.2251H324.828V48.4961C324.828 49.4207 324.64 50.2096 324.265 50.8626C323.89 51.5157 323.366 52.0103 322.694 52.3465C322.028 52.6892 321.259 52.8606 320.386 52.8606C320.024 52.8606 319.597 52.8024 319.105 52.686C318.62 52.5761 318.142 52.3853 317.67 52.1138C317.204 51.8487 316.813 51.4898 316.496 51.0372L317.437 49.9703C317.877 50.5005 318.336 50.8691 318.814 51.076C319.299 51.2829 319.778 51.3864 320.25 51.3864C320.819 51.3864 321.31 51.2797 321.724 51.0663C322.138 50.8529 322.458 50.5361 322.684 50.1158C322.917 49.702 323.033 49.1912 323.033 48.5834V40.5334L323.198 38.2251ZM315.973 43.5885V43.3849C315.973 42.5831 316.066 41.8557 316.254 41.2026C316.448 40.5431 316.723 39.9773 317.078 39.5053C317.44 39.0333 317.877 38.6712 318.388 38.4191C318.898 38.1604 319.474 38.0311 320.114 38.0311C320.774 38.0311 321.349 38.1475 321.84 38.3803C322.338 38.6066 322.759 38.9396 323.101 39.3792C323.45 39.8125 323.725 40.3362 323.926 40.9505C324.126 41.5647 324.265 42.2598 324.343 43.0357V43.928C324.272 44.6974 324.133 45.3893 323.926 46.0035C323.725 46.6178 323.45 47.1415 323.101 47.5747C322.759 48.0079 322.338 48.3409 321.84 48.5737C321.343 48.8 320.761 48.9132 320.095 48.9132C319.467 48.9132 318.898 48.7806 318.388 48.5155C317.883 48.2504 317.45 47.8786 317.088 47.4002C316.726 46.9217 316.448 46.3592 316.254 45.7126C316.066 45.0595 315.973 44.3515 315.973 43.5885ZM317.767 43.3849V43.5885C317.767 44.1123 317.819 44.6037 317.922 45.0627C318.032 45.5218 318.197 45.9259 318.417 46.2751C318.643 46.6243 318.931 46.8991 319.28 47.0995C319.629 47.2935 320.046 47.3905 320.531 47.3905C321.126 47.3905 321.617 47.2644 322.005 47.0122C322.393 46.76 322.7 46.427 322.927 46.0132C323.16 45.5994 323.341 45.15 323.47 44.6651V42.3277C323.399 41.9721 323.289 41.6294 323.14 41.2996C322.998 40.9634 322.81 40.666 322.578 40.4073C322.351 40.1422 322.07 39.9321 321.734 39.7769C321.398 39.6217 321.003 39.5441 320.551 39.5441C320.059 39.5441 319.636 39.6476 319.28 39.8545C318.931 40.0549 318.643 40.333 318.417 40.6886C318.197 41.0377 318.032 41.4451 317.922 41.9106C317.819 42.3697 317.767 42.8611 317.767 43.3849Z" fill="#F4EEC3"/>
<path d="M330.501 47.6329L333.421 38.2251H335.341L331.132 50.3389C331.035 50.5975 330.906 50.8756 330.744 51.173C330.589 51.4769 330.388 51.7646 330.143 52.0362C329.897 52.3077 329.6 52.5276 329.25 52.6957C328.908 52.8703 328.497 52.9576 328.019 52.9576C327.876 52.9576 327.695 52.9382 327.475 52.8994C327.256 52.8606 327.1 52.8282 327.01 52.8024L327 51.3476C327.052 51.354 327.133 51.3605 327.243 51.367C327.359 51.3799 327.44 51.3864 327.485 51.3864C327.893 51.3864 328.238 51.3314 328.523 51.2215C328.807 51.118 329.047 50.9402 329.241 50.688C329.441 50.4423 329.612 50.1029 329.755 49.6697L330.501 47.6329ZM328.358 38.2251L331.083 46.3721L331.549 48.2633L330.259 48.9229L326.399 38.2251H328.358Z" fill="#F4EEC3"/>
</svg>
