<svg width="322" height="238" viewBox="0 0 322 238" fill="none" xmlns="http://www.w3.org/2000/svg">
<path d="M293.585 180.173C290.297 187.298 283.66 192.688 274.084 196.192C264.495 199.701 252.122 201.251 237.742 200.764C208.991 199.791 172.676 190.695 135.679 173.617C98.6814 156.539 68.2012 134.803 48.8097 113.553C39.1106 102.925 32.2637 92.5031 28.7143 82.9297C25.169 73.3677 24.9662 64.8208 28.2549 57.6961C31.5437 50.5715 38.1798 45.1815 47.7567 41.6767C57.345 38.1677 69.7177 36.618 84.0984 37.1047C112.85 38.0777 149.164 47.174 186.162 64.2519C223.159 81.3299 253.639 103.066 273.031 124.316C282.73 134.945 289.576 145.366 293.126 154.939C296.671 164.501 296.874 173.048 293.585 180.173Z" fill="#FE5301" stroke="black" stroke-width="4.54175"/>
<ellipse cx="134.397" cy="50.9686" rx="21.5967" ry="1.97832" fill="black"/>
<ellipse cx="136.046" cy="56.9036" rx="21.5967" ry="1.97832" fill="black"/>
<ellipse cx="139.343" cy="61.8494" rx="21.5967" ry="1.97832" fill="black"/>
<ellipse cx="142.97" cy="67.7845" rx="21.5967" ry="1.97832" fill="black"/>
<ellipse cx="145.277" cy="72.73" rx="21.5967" ry="1.97832" fill="black"/>
<ellipse cx="182.445" cy="156.023" rx="16.6128" ry="1.52178" fill="black"/>
<ellipse cx="183.712" cy="160.588" rx="16.6128" ry="1.52178" fill="black"/>
<ellipse cx="186.251" cy="164.392" rx="16.6128" ry="1.52178" fill="black"/>
<ellipse cx="189.04" cy="168.958" rx="16.6128" ry="1.52178" fill="black"/>
<ellipse cx="190.815" cy="172.763" rx="16.6128" ry="1.52178" fill="black"/>
<path d="M101.899 142.836V124.305H126.453L132.939 96.5084H101.899V77.9773H137.108L143.394 51.5845H162.219L155.639 77.9773H183.436L189.431 51.5846L208.424 51.5845L201.967 77.9773H222.351V96.5084H197.798L191.312 124.305H222.351V142.836H186.988L180.75 172.037H162.18L168.457 142.836H140.814L134.422 172.037H115.731L122.283 142.836H101.899ZM144.984 124.305H172.781L179.267 96.5084H151.47L144.984 124.305Z" fill="black"/>
<path d="M111.258 144.24V125.709H135.812L142.298 97.9123H111.258V79.3812H146.467L152.953 51.5845H162.219H171.484L164.998 79.3812H192.795L199.281 51.5845H217.812L211.326 79.3812H231.711V97.9123H207.157L200.671 125.709H231.711V144.24H196.347L190.015 172.037H171.484L177.816 144.24H150.174L143.688 172.037H125.157L131.642 144.24H111.258ZM154.343 125.709H182.14L188.626 97.9123H160.829L154.343 125.709Z" fill="#095EF7"/>
<path d="M98.8573 142.836V145.878H101.899H108.216V147.282H111.258H118.168L112.763 171.371L111.931 175.079H115.731H121.323H125.157H134.422H136.87H143.688H146.101L146.65 172.728L152.587 147.282H164.39L159.207 171.398L158.415 175.079H162.18H167.672H171.484H180.75H183.211H190.015H192.442L192.981 172.712L198.774 147.282H231.711H234.752V144.24V125.709V122.667H231.711H225.393V121.263H222.351H204.832L209.57 100.954H231.711H234.752V97.9123V79.3812V76.3394H231.711H225.393V74.9356H222.351H215.487L220.774 52.2756L221.645 48.5427H217.812L212.299 48.5427L208.424 48.5427H199.281H196.867L189.431 48.5428L187.003 48.5429L186.465 50.9108L181.008 74.9356H169.159L174.447 52.2756L175.318 48.5427H171.484H166.112H162.219H152.953H150.54H143.394H140.992L140.435 50.8797L134.706 74.9356H101.899H98.8573V77.9773V96.5084V99.5501H101.899H108.216V100.954H111.258H128.778L124.039 121.263H101.899H98.8573V124.305V142.836ZM163.243 100.954H175.106L170.367 121.263H158.504L163.243 100.954Z" stroke="black" stroke-width="6.08345"/>
<path d="M76.3708 63.5175C71.0541 63.4474 68.5884 65.4896 68.6168 76.6867C68.317 64.4211 66.2188 63.2341 58.7252 63.2341C66.3868 63.1162 68.612 60.4688 68.6168 50.9685C68.7559 60.408 70.9078 62.9846 76.3708 63.5175C77.0382 63.5262 77.7505 63.5683 78.5084 63.6298C77.7455 63.6167 77.0338 63.5821 76.3708 63.5175Z" fill="black"/>
<path d="M68.6168 76.6867C68.5848 64.0842 71.7124 63.0789 78.5084 63.6298C71.4597 63.5089 68.7728 61.5536 68.6168 50.9685C68.612 60.4688 66.3868 63.1162 58.7252 63.2341C66.2188 63.2341 68.317 64.4211 68.6168 76.6867Z" stroke="black" stroke-width="0.971871"/>
<path d="M221.292 178.657C226.458 178.371 230.464 178.053 233.31 177.704C233.039 178.53 232.833 179.404 232.69 180.326C232.547 181.248 232.475 182.083 232.475 182.83H215.426L215.402 182.329C215.402 180.772 215.856 179.42 216.762 178.276C217.684 177.131 218.963 176.074 220.601 175.104C221.077 174.818 221.825 174.453 222.842 174.008C224.161 173.435 225.179 172.935 225.894 172.505C226.609 172.06 226.967 171.623 226.967 171.194C226.967 170.654 226.744 170.224 226.299 169.906C225.854 169.588 225.163 169.43 224.225 169.43C223.192 169.43 222.405 169.692 221.864 170.216C221.34 170.741 221.077 171.409 221.077 172.219C221.077 172.474 221.101 172.736 221.149 173.006C219.146 172.752 217.199 172.577 215.307 172.482C215.307 171.13 215.657 169.914 216.356 168.833C217.072 167.737 218.137 166.87 219.551 166.234C220.982 165.599 222.731 165.281 224.797 165.281C226.689 165.281 228.263 165.543 229.518 166.067C230.79 166.576 231.72 167.228 232.308 168.023C232.912 168.802 233.214 169.604 233.214 170.431C233.214 171.385 233 172.203 232.57 172.887C232.157 173.57 231.553 174.183 230.758 174.723C229.979 175.248 228.93 175.82 227.611 176.44C227.42 176.535 227.11 176.646 226.681 176.774C226.252 176.885 225.981 176.956 225.87 176.988C224.742 177.322 223.843 177.6 223.176 177.823C222.508 178.045 221.88 178.323 221.292 178.657ZM245.207 183.069C241.789 183.069 239.27 182.282 237.648 180.708C236.027 179.134 235.216 176.948 235.216 174.151C235.216 171.369 236.027 169.199 237.648 167.641C239.286 166.067 241.805 165.281 245.207 165.281C248.609 165.281 251.121 166.067 252.742 167.641C254.363 169.199 255.174 171.369 255.174 174.151C255.174 176.948 254.363 179.134 252.742 180.708C251.121 182.282 248.609 183.069 245.207 183.069ZM245.231 178.896C246.693 178.896 247.758 178.451 248.426 177.56C249.094 176.654 249.428 175.518 249.428 174.151C249.428 172.8 249.094 171.679 248.426 170.789C247.758 169.883 246.693 169.43 245.231 169.43C243.721 169.43 242.624 169.883 241.94 170.789C241.273 171.679 240.939 172.8 240.939 174.151C240.939 175.502 241.273 176.631 241.94 177.537C242.624 178.443 243.721 178.896 245.231 178.896ZM263.066 178.657C268.233 178.371 272.239 178.053 275.084 177.704C274.814 178.53 274.607 179.404 274.464 180.326C274.321 181.248 274.249 182.083 274.249 182.83H257.201L257.177 182.329C257.177 180.772 257.63 179.42 258.536 178.276C259.458 177.131 260.738 176.074 262.375 175.104C262.852 174.818 263.599 174.453 264.616 174.008C265.936 173.435 266.953 172.935 267.668 172.505C268.384 172.06 268.741 171.623 268.741 171.194C268.741 170.654 268.519 170.224 268.074 169.906C267.629 169.588 266.937 169.43 265.999 169.43C264.966 169.43 264.179 169.692 263.639 170.216C263.114 170.741 262.852 171.409 262.852 172.219C262.852 172.474 262.876 172.736 262.923 173.006C260.92 172.752 258.973 172.577 257.081 172.482C257.081 171.13 257.431 169.914 258.131 168.833C258.846 167.737 259.911 166.87 261.326 166.234C262.756 165.599 264.505 165.281 266.572 165.281C268.463 165.281 270.037 165.543 271.293 166.067C272.564 166.576 273.494 167.228 274.082 168.023C274.687 168.802 274.989 169.604 274.989 170.431C274.989 171.385 274.774 172.203 274.345 172.887C273.931 173.57 273.327 174.183 272.533 174.723C271.754 175.248 270.705 175.82 269.385 176.44C269.194 176.535 268.884 176.646 268.455 176.774C268.026 176.885 267.756 176.956 267.645 176.988C266.516 177.322 265.618 177.6 264.95 177.823C264.282 178.045 263.655 178.323 263.066 178.657ZM290.296 174.055C290.868 173.944 291.432 173.888 291.989 173.888C292.958 173.888 293.745 174.055 294.349 174.389C294.969 174.707 295.414 175.12 295.685 175.629C295.955 176.122 296.09 176.638 296.09 177.179C296.09 178.435 295.677 179.508 294.85 180.398C294.023 181.272 292.903 181.94 291.488 182.401C290.073 182.846 288.499 183.069 286.767 183.069C281.744 183.069 278.493 181.32 277.014 177.823L278.35 177.489C279.335 177.25 280.17 177.028 280.853 176.821C281.553 176.599 282.165 176.352 282.689 176.082C283.007 176.877 283.46 177.449 284.049 177.799C284.653 178.133 285.479 178.3 286.528 178.3C287.641 178.3 288.547 178.172 289.247 177.918C289.946 177.664 290.296 177.282 290.296 176.774C290.296 176.503 290.161 176.297 289.89 176.154C289.62 176.011 289.191 175.915 288.603 175.868C288.015 175.804 287.188 175.772 286.123 175.772H284.311V171.599H285.408C286.616 171.599 287.601 171.552 288.364 171.456C289.127 171.345 289.509 171.115 289.509 170.765C289.509 170.367 289.302 170.049 288.889 169.811C288.492 169.557 287.864 169.43 287.005 169.43C285.893 169.43 284.986 169.66 284.287 170.121C283.603 170.582 283.071 171.25 282.689 172.124C280.989 171.44 279.176 170.956 277.253 170.669C278.016 168.953 279.184 167.625 280.758 166.687C282.348 165.75 284.39 165.281 286.886 165.281C288.507 165.281 289.962 165.495 291.25 165.924C292.553 166.338 293.57 166.918 294.302 167.665C295.049 168.412 295.422 169.247 295.422 170.169C295.422 170.709 295.295 171.194 295.041 171.623C294.786 172.037 294.286 172.45 293.539 172.863C292.791 173.261 291.711 173.658 290.296 174.055Z" fill="black"/>
<path d="M221.292 178.657L220.153 176.65C219.221 177.179 218.776 178.28 219.078 179.308C219.38 180.336 220.35 181.021 221.42 180.962L221.292 178.657ZM233.31 177.704L235.503 178.421C235.749 177.67 235.593 176.847 235.092 176.237C234.59 175.627 233.812 175.316 233.028 175.413L233.31 177.704ZM232.69 180.326L230.409 179.973L232.69 180.326ZM232.475 182.83V185.138C233.75 185.138 234.783 184.105 234.783 182.83H232.475ZM215.426 182.83L213.121 182.94C213.18 184.17 214.194 185.138 215.426 185.138V182.83ZM215.402 182.329H213.094C213.094 182.366 213.095 182.403 213.097 182.439L215.402 182.329ZM216.762 178.276L214.964 176.828C214.96 176.833 214.956 176.838 214.952 176.843L216.762 178.276ZM220.601 175.104L221.777 177.09L221.788 177.084L220.601 175.104ZM222.842 174.008L221.924 171.89L221.917 171.893L222.842 174.008ZM225.894 172.505L227.082 174.485C227.092 174.478 227.103 174.472 227.113 174.465L225.894 172.505ZM226.299 169.906L227.641 168.028L227.641 168.028L226.299 169.906ZM221.864 170.216L220.257 168.56C220.249 168.568 220.24 168.576 220.232 168.584L221.864 170.216ZM221.149 173.006L220.858 175.296C221.586 175.388 222.314 175.129 222.82 174.598C223.326 174.067 223.549 173.327 223.422 172.605L221.149 173.006ZM215.307 172.482H212.999C212.999 173.711 213.963 174.725 215.191 174.787L215.307 172.482ZM216.356 168.833L214.423 167.573L214.419 167.58L216.356 168.833ZM219.551 166.234L218.614 164.125L218.605 164.129L219.551 166.234ZM229.518 166.067L228.629 168.197C228.64 168.202 228.65 168.206 228.661 168.21L229.518 166.067ZM232.308 168.023L230.453 169.396C230.463 169.41 230.474 169.423 230.484 169.437L232.308 168.023ZM232.57 172.887L230.616 171.66C230.609 171.671 230.602 171.682 230.595 171.693L232.57 172.887ZM230.758 174.723L232.048 176.637L232.056 176.632L230.758 174.723ZM227.611 176.44L226.629 174.351C226.612 174.359 226.595 174.367 226.579 174.375L227.611 176.44ZM226.681 176.774L227.26 179.008C227.286 179.001 227.311 178.994 227.337 178.987L226.681 176.774ZM225.87 176.988L225.236 174.769C225.229 174.771 225.222 174.773 225.216 174.775L225.87 176.988ZM223.176 177.823L222.446 175.633H222.446L223.176 177.823ZM221.42 180.962C226.604 180.675 230.669 180.353 233.591 179.994L233.028 175.413C230.259 175.753 226.313 176.068 221.164 176.353L221.42 180.962ZM231.116 176.986C230.804 177.94 230.57 178.936 230.409 179.973L234.97 180.68C235.096 179.873 235.275 179.121 235.503 178.421L231.116 176.986ZM230.409 179.973C230.252 180.984 230.167 181.94 230.167 182.83H234.783C234.783 182.226 234.841 181.513 234.97 180.68L230.409 179.973ZM232.475 180.522H215.426V185.138H232.475V180.522ZM217.732 182.72L217.708 182.22L213.097 182.439L213.121 182.94L217.732 182.72ZM217.711 182.329C217.711 181.254 218.01 180.417 218.571 179.708L214.952 176.843C213.701 178.424 213.094 180.289 213.094 182.329H217.711ZM218.559 179.724C219.265 178.847 220.31 177.959 221.777 177.09L219.424 173.119C217.616 174.19 216.102 175.415 214.964 176.828L218.559 179.724ZM221.788 177.084C222.133 176.876 222.77 176.559 223.767 176.122L221.917 171.893C220.879 172.347 220.021 172.76 219.413 173.125L221.788 177.084ZM223.76 176.125C225.116 175.537 226.24 174.99 227.082 174.485L224.707 170.526C224.118 170.88 223.206 171.334 221.924 171.89L223.76 176.125ZM227.113 174.465C227.889 173.982 229.275 172.945 229.275 171.194H224.659C224.659 170.728 224.861 170.445 224.912 170.382C224.952 170.334 224.912 170.398 224.675 170.546L227.113 174.465ZM229.275 171.194C229.275 169.898 228.684 168.773 227.641 168.028L224.958 171.785C224.923 171.759 224.829 171.679 224.751 171.529C224.673 171.378 224.659 171.249 224.659 171.194H229.275ZM227.641 168.028C226.612 167.294 225.336 167.121 224.225 167.121V171.738C224.572 171.738 224.798 171.768 224.93 171.798C225.063 171.829 225.045 171.847 224.958 171.785L227.641 168.028ZM224.225 167.121C222.819 167.121 221.367 167.482 220.257 168.56L223.472 171.873C223.474 171.871 223.479 171.866 223.493 171.858C223.507 171.849 223.537 171.833 223.59 171.816C223.698 171.78 223.898 171.738 224.225 171.738V167.121ZM220.232 168.584C219.233 169.584 218.769 170.859 218.769 172.219H223.385C223.385 171.958 223.447 171.898 223.496 171.848L220.232 168.584ZM218.769 172.219C218.769 172.618 218.807 173.015 218.876 173.407L223.422 172.605C223.396 172.457 223.385 172.329 223.385 172.219H218.769ZM221.44 170.717C219.383 170.455 217.377 170.275 215.423 170.176L215.191 174.787C217.021 174.879 218.91 175.048 220.858 175.296L221.44 170.717ZM217.615 172.482C217.615 171.552 217.849 170.776 218.294 170.087L214.419 167.58C213.465 169.053 212.999 170.709 212.999 172.482H217.615ZM218.29 170.094C218.722 169.431 219.41 168.828 220.498 168.34L218.605 164.129C216.863 164.912 215.421 166.042 214.423 167.573L218.29 170.094ZM220.489 168.343C221.546 167.874 222.955 167.589 224.797 167.589V162.973C222.506 162.973 220.418 163.323 218.614 164.125L220.489 168.343ZM224.797 167.589C226.494 167.589 227.742 167.827 228.629 168.197L230.408 163.938C228.783 163.259 226.883 162.973 224.797 162.973V167.589ZM228.661 168.21C229.682 168.619 230.2 169.053 230.453 169.396L234.163 166.65C233.24 165.402 231.898 164.533 230.376 163.924L228.661 168.21ZM230.484 169.437C230.837 169.892 230.906 170.21 230.906 170.431H235.522C235.522 168.999 234.987 167.711 234.132 166.608L230.484 169.437ZM230.906 170.431C230.906 171.031 230.775 171.406 230.616 171.66L234.525 174.114C235.224 173.001 235.522 171.739 235.522 170.431H230.906ZM230.595 171.693C230.385 172.04 230.036 172.423 229.46 172.814L232.056 176.632C233.071 175.942 233.929 175.101 234.546 174.081L230.595 171.693ZM229.469 172.809C228.826 173.242 227.893 173.757 226.629 174.351L228.592 178.529C229.967 177.883 231.133 177.253 232.048 176.637L229.469 172.809ZM226.579 174.375C226.597 174.366 226.565 174.383 226.455 174.422C226.353 174.459 226.212 174.505 226.025 174.561L227.337 178.987C227.787 178.853 228.26 178.695 228.643 178.504L226.579 174.375ZM226.102 174.539C225.682 174.648 225.381 174.728 225.236 174.769L226.504 179.207C226.582 179.185 226.821 179.121 227.26 179.008L226.102 174.539ZM225.216 174.775C224.076 175.112 223.149 175.399 222.446 175.633L223.906 180.012C224.537 179.802 225.407 179.532 226.525 179.201L225.216 174.775ZM222.446 175.633C221.642 175.901 220.876 176.239 220.153 176.65L222.431 180.665C222.884 180.408 223.374 180.189 223.906 180.012L222.446 175.633ZM237.648 180.708L236.041 182.364L237.648 180.708ZM237.648 167.641L239.247 169.306L239.248 169.305L237.648 167.641ZM252.742 167.641L251.134 169.297L251.143 169.306L252.742 167.641ZM252.742 180.708L254.349 182.364L252.742 180.708ZM248.426 177.56L250.273 178.945C250.276 178.94 250.28 178.935 250.284 178.93L248.426 177.56ZM248.426 170.789L246.568 172.158C246.572 172.163 246.576 172.168 246.58 172.173L248.426 170.789ZM241.94 170.789L240.098 169.399L240.094 169.404L241.94 170.789ZM241.94 177.537L240.082 178.906C240.087 178.913 240.093 178.92 240.098 178.927L241.94 177.537ZM245.207 180.76C242.088 180.76 240.27 180.036 239.256 179.052L236.041 182.364C238.269 184.527 241.491 185.377 245.207 185.377V180.76ZM239.256 179.052C238.184 178.012 237.524 176.483 237.524 174.151H232.908C232.908 177.414 233.87 180.257 236.041 182.364L239.256 179.052ZM237.524 174.151C237.524 171.838 238.182 170.329 239.247 169.306L236.049 165.977C233.872 168.069 232.908 170.9 232.908 174.151H237.524ZM239.248 169.305C240.283 168.31 242.11 167.589 245.207 167.589V162.973C241.501 162.973 238.289 163.825 236.049 165.977L239.248 169.305ZM245.207 167.589C248.307 167.589 250.118 168.311 251.134 169.297L254.349 165.985C252.123 163.824 248.911 162.973 245.207 162.973V167.589ZM251.143 169.306C252.208 170.329 252.866 171.838 252.866 174.151H257.482C257.482 170.9 256.518 168.069 254.341 165.977L251.143 169.306ZM252.866 174.151C252.866 176.483 252.206 178.012 251.134 179.052L254.349 182.364C256.521 180.257 257.482 177.414 257.482 174.151H252.866ZM251.134 179.052C250.118 180.038 248.307 180.76 245.207 180.76V185.377C248.911 185.377 252.123 184.525 254.349 182.364L251.134 179.052ZM245.231 181.204C247.171 181.204 249.039 180.59 250.273 178.945L246.58 176.176C246.478 176.311 246.216 176.588 245.231 176.588V181.204ZM250.284 178.93C251.302 177.548 251.736 175.902 251.736 174.151H247.12C247.12 175.133 246.885 175.761 246.568 176.191L250.284 178.93ZM251.736 174.151C251.736 172.41 251.3 170.773 250.273 169.404L246.58 172.173C246.888 172.585 247.12 173.189 247.12 174.151H251.736ZM250.284 169.42C249.056 167.753 247.186 167.121 245.231 167.121V171.738C246.201 171.738 246.461 172.012 246.568 172.158L250.284 169.42ZM245.231 167.121C243.256 167.121 241.353 167.735 240.098 169.399L243.783 172.179C243.895 172.03 244.185 171.738 245.231 171.738V167.121ZM240.094 169.404C239.067 170.773 238.631 172.41 238.631 174.151H243.247C243.247 173.189 243.479 172.585 243.787 172.173L240.094 169.404ZM238.631 174.151C238.631 175.893 239.067 177.528 240.082 178.906L243.799 176.167C243.478 175.733 243.247 175.111 243.247 174.151H238.631ZM240.098 178.927C241.353 180.591 243.256 181.204 245.231 181.204V176.588C244.185 176.588 243.895 176.295 243.783 176.147L240.098 178.927ZM263.066 178.657L261.927 176.65C260.995 177.179 260.55 178.28 260.852 179.308C261.154 180.336 262.124 181.021 263.194 180.962L263.066 178.657ZM275.084 177.704L277.278 178.421C277.523 177.67 277.368 176.847 276.866 176.237C276.364 175.627 275.586 175.316 274.802 175.413L275.084 177.704ZM274.464 180.326L272.183 179.973L274.464 180.326ZM274.249 182.83V185.138C275.524 185.138 276.557 184.105 276.557 182.83H274.249ZM257.201 182.83L254.895 182.94C254.954 184.17 255.969 185.138 257.201 185.138V182.83ZM257.177 182.329H254.869C254.869 182.366 254.87 182.403 254.871 182.439L257.177 182.329ZM258.536 178.276L256.739 176.828C256.734 176.833 256.73 176.838 256.726 176.843L258.536 178.276ZM262.375 175.104L263.551 177.09L263.562 177.084L262.375 175.104ZM264.616 174.008L263.698 171.89L263.691 171.893L264.616 174.008ZM267.668 172.505L268.856 174.485C268.867 174.478 268.877 174.472 268.888 174.465L267.668 172.505ZM268.074 169.906L269.415 168.028L269.415 168.028L268.074 169.906ZM263.639 170.216L262.031 168.56C262.023 168.568 262.015 168.576 262.007 168.584L263.639 170.216ZM262.923 173.006L262.633 175.296C263.36 175.388 264.088 175.129 264.594 174.598C265.1 174.067 265.324 173.327 265.196 172.605L262.923 173.006ZM257.081 172.482H254.773C254.773 173.711 255.737 174.725 256.965 174.787L257.081 172.482ZM258.131 168.833L256.197 167.573L256.193 167.58L258.131 168.833ZM261.326 166.234L260.388 164.125L260.38 164.129L261.326 166.234ZM271.293 166.067L270.403 168.197C270.414 168.202 270.425 168.206 270.436 168.21L271.293 166.067ZM274.083 168.023L272.227 169.396C272.238 169.41 272.248 169.423 272.259 169.437L274.083 168.023ZM274.345 172.887L272.39 171.66C272.383 171.671 272.376 171.682 272.37 171.693L274.345 172.887ZM272.533 174.723L273.822 176.637L273.83 176.632L272.533 174.723ZM269.385 176.44L268.404 174.351C268.387 174.359 268.37 174.367 268.353 174.375L269.385 176.44ZM268.455 176.774L269.034 179.008C269.06 179.001 269.086 178.994 269.111 178.987L268.455 176.774ZM267.645 176.988L267.01 174.769C267.004 174.771 266.997 174.773 266.99 174.775L267.645 176.988ZM264.95 177.823L264.22 175.633L264.95 177.823ZM263.194 180.962C268.378 180.675 272.444 180.353 275.366 179.994L274.802 175.413C272.033 175.753 268.087 176.068 262.939 176.353L263.194 180.962ZM272.89 176.986C272.579 177.94 272.344 178.936 272.183 179.973L276.745 180.68C276.87 179.873 277.049 179.121 277.278 178.421L272.89 176.986ZM272.183 179.973C272.026 180.984 271.941 181.94 271.941 182.83H276.557C276.557 182.226 276.616 181.513 276.745 180.68L272.183 179.973ZM274.249 180.522H257.201V185.138H274.249V180.522ZM259.506 182.72L259.482 182.22L254.871 182.439L254.895 182.94L259.506 182.72ZM259.485 182.329C259.485 181.254 259.785 180.417 260.346 179.708L256.726 176.843C255.475 178.424 254.869 180.289 254.869 182.329H259.485ZM260.333 179.724C261.039 178.847 262.085 177.959 263.551 177.09L261.199 173.119C259.39 174.19 257.876 175.415 256.739 176.828L260.333 179.724ZM263.562 177.084C263.908 176.876 264.544 176.559 265.541 176.122L263.691 171.893C262.654 172.347 261.796 172.76 261.187 173.125L263.562 177.084ZM265.535 176.125C266.891 175.537 268.014 174.99 268.856 174.485L266.481 170.526C265.892 170.88 264.981 171.334 263.698 171.89L265.535 176.125ZM268.888 174.465C269.663 173.982 271.049 172.945 271.049 171.194H266.433C266.433 170.728 266.636 170.445 266.687 170.382C266.727 170.334 266.687 170.398 266.449 170.546L268.888 174.465ZM271.049 171.194C271.049 169.898 270.458 168.773 269.415 168.028L266.732 171.785C266.697 171.759 266.603 171.679 266.525 171.529C266.447 171.378 266.433 171.249 266.433 171.194H271.049ZM269.415 168.028C268.387 167.294 267.111 167.121 265.999 167.121V171.738C266.346 171.738 266.572 171.768 266.704 171.798C266.837 171.829 266.819 171.847 266.732 171.785L269.415 168.028ZM265.999 167.121C264.593 167.121 263.142 167.482 262.031 168.56L265.246 171.873C265.248 171.871 265.253 171.866 265.267 171.858C265.282 171.849 265.312 171.833 265.364 171.816C265.472 171.78 265.672 171.738 265.999 171.738V167.121ZM262.007 168.584C261.007 169.584 260.544 170.859 260.544 172.219H265.16C265.16 171.958 265.221 171.898 265.271 171.848L262.007 168.584ZM260.544 172.219C260.544 172.618 260.581 173.015 260.65 173.407L265.196 172.605C265.17 172.457 265.16 172.329 265.16 172.219H260.544ZM263.214 170.717C261.157 170.455 259.151 170.275 257.198 170.176L256.965 174.787C258.795 174.879 260.684 175.048 262.633 175.296L263.214 170.717ZM259.389 172.482C259.389 171.552 259.623 170.776 260.068 170.087L256.193 167.58C255.239 169.053 254.773 170.709 254.773 172.482H259.389ZM260.064 170.094C260.496 169.431 261.185 168.828 262.272 168.34L260.38 164.129C258.637 164.912 257.196 166.042 256.197 167.573L260.064 170.094ZM262.263 168.343C263.32 167.874 264.73 167.589 266.572 167.589V162.973C264.28 162.973 262.192 163.323 260.388 164.125L262.263 168.343ZM266.572 167.589C268.269 167.589 269.516 167.827 270.403 168.197L272.182 163.938C270.558 163.259 268.658 162.973 266.572 162.973V167.589ZM270.436 168.21C271.457 168.619 271.974 169.053 272.227 169.396L275.938 166.65C275.015 165.402 273.672 164.533 272.15 163.924L270.436 168.21ZM272.259 169.437C272.611 169.892 272.681 170.21 272.681 170.431H277.297C277.297 168.999 276.762 167.711 275.906 166.608L272.259 169.437ZM272.681 170.431C272.681 171.031 272.549 171.406 272.39 171.66L276.299 174.114C276.999 173.001 277.297 171.739 277.297 170.431H272.681ZM272.37 171.693C272.159 172.04 271.81 172.423 271.235 172.814L273.83 176.632C274.845 175.942 275.703 175.101 276.32 174.081L272.37 171.693ZM271.243 172.809C270.6 173.242 269.668 173.757 268.404 174.351L270.367 178.529C271.741 177.883 272.907 177.253 273.822 176.637L271.243 172.809ZM268.353 174.375C268.371 174.366 268.34 174.383 268.23 174.422C268.127 174.459 267.986 174.505 267.8 174.561L269.111 178.987C269.561 178.853 270.035 178.695 270.417 178.504L268.353 174.375ZM267.876 174.539C267.456 174.648 267.155 174.728 267.01 174.769L268.279 179.207C268.357 179.185 268.596 179.121 269.034 179.008L267.876 174.539ZM266.99 174.775C265.85 175.112 264.924 175.399 264.22 175.633L265.68 180.012C266.312 179.802 267.181 179.532 268.299 179.201L266.99 174.775ZM264.22 175.633C263.416 175.901 262.651 176.239 261.927 176.65L264.206 180.665C264.658 180.408 265.149 180.189 265.68 180.012L264.22 175.633ZM290.296 174.055L289.672 171.833C288.48 172.168 287.764 173.384 288.05 174.588C288.336 175.793 289.521 176.557 290.736 176.321L290.296 174.055ZM294.349 174.389L293.233 176.409C293.254 176.421 293.275 176.432 293.296 176.443L294.349 174.389ZM295.685 175.629L293.646 176.712C293.651 176.721 293.656 176.73 293.661 176.739L295.685 175.629ZM294.85 180.398L296.527 181.984C296.532 181.979 296.537 181.974 296.541 181.968L294.85 180.398ZM291.488 182.401L292.181 184.603C292.188 184.6 292.196 184.598 292.203 184.595L291.488 182.401ZM277.014 177.823L276.455 175.584C275.8 175.747 275.25 176.189 274.949 176.792C274.648 177.395 274.626 178.1 274.889 178.721L277.014 177.823ZM278.35 177.489L277.807 175.246C277.801 175.247 277.796 175.248 277.79 175.25L278.35 177.489ZM280.853 176.821L281.521 179.031C281.532 179.027 281.543 179.024 281.553 179.021L280.853 176.821ZM282.689 176.082L284.832 175.225C284.591 174.621 284.106 174.147 283.497 173.92C282.887 173.692 282.211 173.733 281.632 174.03L282.689 176.082ZM284.049 177.799L282.869 179.783C282.89 179.795 282.911 179.807 282.932 179.819L284.049 177.799ZM289.247 177.918L288.458 175.749L289.247 177.918ZM289.89 176.154L288.811 178.193V178.193L289.89 176.154ZM288.603 175.868L288.355 178.162C288.375 178.164 288.396 178.166 288.416 178.168L288.603 175.868ZM284.311 175.772H282.003C282.003 177.047 283.036 178.08 284.311 178.08V175.772ZM284.311 171.599V169.291C283.036 169.291 282.003 170.325 282.003 171.599H284.311ZM288.364 171.456L288.651 173.747C288.666 173.745 288.682 173.742 288.697 173.74L288.364 171.456ZM288.889 169.811L287.645 171.755C287.675 171.774 287.705 171.793 287.736 171.81L288.889 169.811ZM284.287 170.121L283.017 168.194C283.01 168.198 283.003 168.203 282.996 168.207L284.287 170.121ZM282.689 172.124L281.829 174.266C282.987 174.731 284.306 174.191 284.805 173.047L282.689 172.124ZM277.253 170.669L275.144 169.732C274.851 170.391 274.883 171.149 275.23 171.781C275.577 172.413 276.2 172.846 276.913 172.952L277.253 170.669ZM280.758 166.687L279.585 164.7L279.576 164.705L280.758 166.687ZM291.25 165.924L290.52 168.114C290.53 168.118 290.541 168.121 290.552 168.124L291.25 165.924ZM294.302 167.665L292.652 169.279C292.658 169.285 292.664 169.291 292.67 169.297L294.302 167.665ZM295.041 171.623L297.006 172.833C297.013 172.822 297.02 172.811 297.026 172.8L295.041 171.623ZM293.539 172.863L294.622 174.901C294.634 174.895 294.645 174.889 294.656 174.883L293.539 172.863ZM290.736 176.321C291.17 176.237 291.587 176.196 291.989 176.196V171.58C291.278 171.58 290.566 171.652 289.855 171.79L290.736 176.321ZM291.989 176.196C292.717 176.196 293.081 176.325 293.233 176.409L295.466 172.369C294.409 171.785 293.199 171.58 291.989 171.58V176.196ZM293.296 176.443C293.586 176.591 293.64 176.701 293.646 176.712L297.723 174.546C297.188 173.54 296.353 172.823 295.403 172.335L293.296 176.443ZM293.661 176.739C293.752 176.906 293.782 177.042 293.782 177.179H298.398C298.398 176.235 298.157 175.338 297.708 174.519L293.661 176.739ZM293.782 177.179C293.782 177.874 293.574 178.38 293.159 178.827L296.541 181.968C297.779 180.636 298.398 178.996 298.398 177.179H293.782ZM293.173 178.812C292.667 179.348 291.907 179.837 290.773 180.206L292.203 184.595C293.899 184.043 295.38 183.197 296.527 181.984L293.173 178.812ZM290.795 180.199C289.639 180.563 288.303 180.76 286.767 180.76V185.377C288.696 185.377 290.508 185.129 292.181 184.603L290.795 180.199ZM286.767 180.76C284.505 180.76 282.845 180.365 281.655 179.724C280.507 179.107 279.681 178.203 279.14 176.924L274.889 178.721C275.826 180.94 277.365 182.659 279.468 183.79C281.529 184.898 284.005 185.377 286.767 185.377V180.76ZM277.574 180.062L278.91 179.728L277.79 175.25L276.455 175.584L277.574 180.062ZM278.892 179.732C279.904 179.487 280.783 179.254 281.521 179.031L280.185 174.612C279.556 174.802 278.766 175.013 277.807 175.246L278.892 179.732ZM281.553 179.021C282.347 178.768 283.083 178.475 283.746 178.134L281.632 174.03C281.246 174.229 280.758 174.429 280.154 174.622L281.553 179.021ZM280.546 176.939C281.005 178.085 281.745 179.114 282.869 179.783L285.228 175.815C285.176 175.784 285.01 175.669 284.832 175.225L280.546 176.939ZM282.932 179.819C284.011 180.415 285.275 180.608 286.528 180.608V175.992C285.683 175.992 285.295 175.85 285.165 175.779L282.932 179.819ZM286.528 180.608C287.79 180.608 288.991 180.467 290.035 180.087L288.458 175.749C288.104 175.878 287.492 175.992 286.528 175.992V180.608ZM290.035 180.087C290.591 179.885 291.224 179.559 291.735 179.001C292.292 178.393 292.604 177.616 292.604 176.774H287.988C287.988 176.631 288.013 176.462 288.082 176.287C288.15 176.114 288.244 175.978 288.332 175.882C288.494 175.705 288.601 175.697 288.458 175.749L290.035 180.087ZM292.604 176.774C292.604 176.234 292.462 175.667 292.126 175.153C291.8 174.654 291.369 174.325 290.97 174.114L288.811 178.193C288.682 178.125 288.454 177.972 288.263 177.679C288.062 177.372 287.988 177.043 287.988 176.774H292.604ZM290.97 174.114C290.271 173.743 289.453 173.621 288.789 173.567L288.416 178.168C288.638 178.186 288.782 178.209 288.865 178.228C288.905 178.237 288.919 178.242 288.913 178.24C288.908 178.238 288.87 178.225 288.811 178.193L290.97 174.114ZM288.851 173.573C288.14 173.496 287.217 173.464 286.123 173.464V178.08C287.159 178.08 287.889 178.112 288.355 178.162L288.851 173.573ZM286.123 173.464H284.311V178.08H286.123V173.464ZM286.619 175.772V171.599H282.003V175.772H286.619ZM284.311 173.907H285.408V169.291H284.311V173.907ZM285.408 173.907C286.664 173.907 287.755 173.858 288.651 173.747L288.078 169.166C287.448 169.245 286.567 169.291 285.408 169.291V173.907ZM288.697 173.74C289.194 173.668 289.837 173.526 290.416 173.175C291.081 172.774 291.817 171.973 291.817 170.765H287.201C287.201 170.405 287.307 170.044 287.509 169.737C287.696 169.452 287.911 169.296 288.029 169.224C288.227 169.105 288.298 169.133 288.031 169.172L288.697 173.74ZM291.817 170.765C291.817 169.364 291.001 168.365 290.042 167.812L287.736 171.81C287.706 171.793 287.559 171.701 287.419 171.486C287.267 171.252 287.201 170.99 287.201 170.765H291.817ZM290.133 167.867C289.169 167.25 287.994 167.121 287.005 167.121V171.738C287.329 171.738 287.54 171.762 287.662 171.787C287.79 171.813 287.755 171.826 287.645 171.755L290.133 167.867ZM287.005 167.121C285.586 167.121 284.199 167.415 283.017 168.194L285.557 172.048C285.774 171.905 286.199 171.738 287.005 171.738V167.121ZM282.996 168.207C281.895 168.95 281.103 169.989 280.574 171.201L284.805 173.047C285.039 172.51 285.312 172.214 285.577 172.035L282.996 168.207ZM283.55 169.982C281.672 169.228 279.684 168.698 277.592 168.387L276.913 172.952C278.669 173.214 280.305 173.653 281.829 174.266L283.55 169.982ZM279.362 171.607C279.937 170.314 280.787 169.357 281.94 168.67L279.576 164.705C277.582 165.893 276.095 167.591 275.144 169.732L279.362 171.607ZM281.931 168.675C283.061 168.008 284.663 167.589 286.886 167.589V162.973C284.118 162.973 281.634 163.491 279.585 164.7L281.931 168.675ZM286.886 167.589C288.306 167.589 289.508 167.777 290.52 168.114L291.979 163.735C290.416 163.214 288.709 162.973 286.886 162.973V167.589ZM290.552 168.124C291.602 168.458 292.254 168.873 292.652 169.279L295.951 166.051C294.886 164.963 293.504 164.218 291.947 163.724L290.552 168.124ZM292.67 169.297C293.052 169.68 293.114 169.949 293.114 170.169H297.73C297.73 168.544 297.045 167.144 295.934 166.033L292.67 169.297ZM293.114 170.169C293.114 170.331 293.081 170.403 293.055 170.447L297.026 172.8C297.509 171.985 297.73 171.088 297.73 170.169H293.114ZM293.075 170.414C293.117 170.345 293.122 170.367 293.005 170.463C292.893 170.556 292.707 170.686 292.421 170.843L294.656 174.883C295.522 174.403 296.44 173.753 297.006 172.833L293.075 170.414ZM292.455 170.825C291.922 171.109 291.025 171.453 289.672 171.833L290.92 176.277C292.396 175.863 293.661 175.413 294.622 174.901L292.455 170.825Z" fill="black"/>
<path d="M224.258 175.69C229.425 175.404 233.43 175.086 236.276 174.736C236.006 175.563 235.799 176.437 235.656 177.359C235.513 178.281 235.441 179.116 235.441 179.863H218.393L218.369 179.362C218.369 177.804 218.822 176.453 219.728 175.309C220.65 174.164 221.929 173.107 223.567 172.137C224.044 171.851 224.791 171.485 225.808 171.04C227.128 170.468 228.145 169.967 228.86 169.538C229.576 169.093 229.933 168.656 229.933 168.227C229.933 167.686 229.711 167.257 229.266 166.939C228.82 166.621 228.129 166.462 227.191 166.462C226.158 166.462 225.371 166.725 224.831 167.249C224.306 167.774 224.044 168.441 224.044 169.252C224.044 169.506 224.067 169.769 224.115 170.039C222.112 169.785 220.165 169.61 218.273 169.514C218.273 168.163 218.623 166.947 219.322 165.866C220.038 164.769 221.103 163.903 222.518 163.267C223.948 162.631 225.697 162.313 227.763 162.313C229.655 162.313 231.229 162.576 232.485 163.1C233.756 163.609 234.686 164.261 235.274 165.055C235.878 165.834 236.18 166.637 236.18 167.464C236.18 168.417 235.966 169.236 235.537 169.92C235.123 170.603 234.519 171.215 233.724 171.756C232.946 172.28 231.896 172.853 230.577 173.472C230.386 173.568 230.076 173.679 229.647 173.806C229.218 173.918 228.948 173.989 228.836 174.021C227.708 174.355 226.81 174.633 226.142 174.855C225.474 175.078 224.846 175.356 224.258 175.69ZM248.173 180.101C244.756 180.101 242.236 179.314 240.615 177.741C238.993 176.167 238.182 173.981 238.182 171.183C238.182 168.402 238.993 166.232 240.615 164.674C242.252 163.1 244.771 162.313 248.173 162.313C251.575 162.313 254.087 163.1 255.708 164.674C257.33 166.232 258.14 168.402 258.14 171.183C258.14 173.981 257.33 176.167 255.708 177.741C254.087 179.314 251.575 180.101 248.173 180.101ZM248.197 175.928C249.66 175.928 250.725 175.483 251.392 174.593C252.06 173.687 252.394 172.551 252.394 171.183C252.394 169.832 252.06 168.712 251.392 167.821C250.725 166.915 249.66 166.462 248.197 166.462C246.687 166.462 245.59 166.915 244.907 167.821C244.239 168.712 243.905 169.832 243.905 171.183C243.905 172.535 244.239 173.663 244.907 174.569C245.59 175.475 246.687 175.928 248.197 175.928ZM266.033 175.69C271.199 175.404 275.205 175.086 278.05 174.736C277.78 175.563 277.573 176.437 277.43 177.359C277.287 178.281 277.216 179.116 277.216 179.863H260.167L260.143 179.362C260.143 177.804 260.596 176.453 261.502 175.309C262.424 174.164 263.704 173.107 265.341 172.137C265.818 171.851 266.565 171.485 267.582 171.04C268.902 170.468 269.919 169.967 270.635 169.538C271.35 169.093 271.708 168.656 271.708 168.227C271.708 167.686 271.485 167.257 271.04 166.939C270.595 166.621 269.903 166.462 268.965 166.462C267.932 166.462 267.145 166.725 266.605 167.249C266.08 167.774 265.818 168.441 265.818 169.252C265.818 169.506 265.842 169.769 265.889 170.039C263.887 169.785 261.939 169.61 260.048 169.514C260.048 168.163 260.397 166.947 261.097 165.866C261.812 164.769 262.877 163.903 264.292 163.267C265.723 162.631 267.471 162.313 269.538 162.313C271.429 162.313 273.003 162.576 274.259 163.1C275.531 163.609 276.461 164.261 277.049 165.055C277.653 165.834 277.955 166.637 277.955 167.464C277.955 168.417 277.74 169.236 277.311 169.92C276.898 170.603 276.294 171.215 275.499 171.756C274.72 172.28 273.671 172.853 272.351 173.472C272.161 173.568 271.851 173.679 271.421 173.806C270.992 173.918 270.722 173.989 270.611 174.021C269.482 174.355 268.584 174.633 267.916 174.855C267.249 175.078 266.621 175.356 266.033 175.69ZM293.262 171.088C293.834 170.977 294.399 170.921 294.955 170.921C295.925 170.921 296.711 171.088 297.316 171.422C297.935 171.74 298.381 172.153 298.651 172.662C298.921 173.155 299.056 173.671 299.056 174.212C299.056 175.467 298.643 176.54 297.816 177.431C296.99 178.305 295.869 178.973 294.454 179.434C293.039 179.879 291.466 180.101 289.733 180.101C284.71 180.101 281.459 178.353 279.981 174.855L281.316 174.522C282.301 174.283 283.136 174.061 283.82 173.854C284.519 173.631 285.131 173.385 285.656 173.115C285.974 173.91 286.427 174.482 287.015 174.832C287.619 175.165 288.445 175.332 289.495 175.332C290.607 175.332 291.513 175.205 292.213 174.951C292.912 174.697 293.262 174.315 293.262 173.806C293.262 173.536 293.127 173.329 292.857 173.186C292.586 173.043 292.157 172.948 291.569 172.9C290.981 172.837 290.154 172.805 289.089 172.805H287.277V168.632H288.374C289.582 168.632 290.568 168.584 291.331 168.489C292.094 168.378 292.475 168.147 292.475 167.798C292.475 167.4 292.268 167.082 291.855 166.844C291.458 166.589 290.83 166.462 289.971 166.462C288.859 166.462 287.953 166.693 287.253 167.154C286.57 167.615 286.037 168.282 285.656 169.157C283.955 168.473 282.143 167.988 280.219 167.702C280.982 165.985 282.15 164.658 283.724 163.72C285.314 162.782 287.356 162.313 289.852 162.313C291.474 162.313 292.928 162.528 294.216 162.957C295.519 163.37 296.537 163.951 297.268 164.698C298.015 165.445 298.389 166.279 298.389 167.201C298.389 167.742 298.261 168.227 298.007 168.656C297.753 169.069 297.252 169.483 296.505 169.896C295.758 170.293 294.677 170.691 293.262 171.088Z" fill="#F7E7CD"/>
<path d="M224.258 175.69L223.444 174.256L224.349 177.336L224.258 175.69ZM236.276 174.736L237.843 175.249L238.649 172.784L236.075 173.1L236.276 174.736ZM235.656 177.359L234.027 177.106L235.656 177.359ZM235.441 179.863V181.511H237.09V179.863H235.441ZM218.393 179.863L216.746 179.941L216.821 181.511H218.393V179.863ZM218.369 179.362H216.72V179.401L216.722 179.44L218.369 179.362ZM219.728 175.309L218.444 174.274L218.435 174.285L219.728 175.309ZM223.567 172.137L224.407 173.556L224.415 173.551L223.567 172.137ZM225.808 171.04L225.152 169.528L225.147 169.53L225.808 171.04ZM228.86 169.538L229.708 170.952L229.72 170.945L229.731 170.938L228.86 169.538ZM229.266 166.939L230.224 165.598L230.224 165.598L229.266 166.939ZM224.831 167.249L223.682 166.066L223.673 166.075L223.665 166.083L224.831 167.249ZM224.115 170.039L223.908 171.674L226.128 171.956L225.739 169.752L224.115 170.039ZM218.273 169.514H216.625V171.082L218.19 171.161L218.273 169.514ZM219.322 165.866L217.942 164.966L217.938 164.971L219.322 165.866ZM222.518 163.267L221.848 161.761L221.842 161.763L222.518 163.267ZM232.485 163.1L231.849 164.621L231.861 164.626L231.872 164.631L232.485 163.1ZM235.274 165.055L233.949 166.036L233.96 166.051L233.972 166.066L235.274 165.055ZM235.537 169.92L234.14 169.043L234.133 169.055L234.126 169.067L235.537 169.92ZM233.724 171.756L234.645 173.123L234.652 173.119L233.724 171.756ZM230.577 173.472L229.876 171.98L229.858 171.989L229.84 171.998L230.577 173.472ZM229.647 173.806L230.061 175.402L230.088 175.395L230.115 175.387L229.647 173.806ZM228.836 174.021L228.383 172.436L228.376 172.438L228.369 172.44L228.836 174.021ZM226.142 174.855L225.621 173.291V173.291L226.142 174.855ZM224.349 177.336C229.528 177.049 233.577 176.729 236.477 176.373L236.075 173.1C233.284 173.443 229.321 173.759 224.167 174.044L224.349 177.336ZM234.709 174.224C234.409 175.141 234.183 176.103 234.027 177.106L237.285 177.612C237.415 176.772 237.602 175.985 237.843 175.249L234.709 174.224ZM234.027 177.106C233.874 178.092 233.793 179.013 233.793 179.863H237.09C237.09 179.218 237.152 178.47 237.285 177.612L234.027 177.106ZM235.441 178.214H218.393V181.511H235.441V178.214ZM220.039 179.784L220.015 179.284L216.722 179.44L216.746 179.941L220.039 179.784ZM220.017 179.362C220.017 178.149 220.361 177.165 221.02 176.332L218.435 174.285C217.283 175.741 216.72 177.459 216.72 179.362H220.017ZM221.012 176.343C221.779 175.39 222.892 174.453 224.407 173.556L222.727 170.719C220.967 171.761 219.52 172.938 218.444 174.274L221.012 176.343ZM224.415 173.551C224.798 173.321 225.466 172.99 226.469 172.551L225.147 169.53C224.116 169.981 223.289 170.381 222.719 170.724L224.415 173.551ZM226.464 172.553C227.81 171.969 228.903 171.435 229.708 170.952L228.012 168.124C227.387 168.499 226.445 168.967 225.152 169.528L226.464 172.553ZM229.731 170.938C230.49 170.466 231.582 169.6 231.582 168.227H228.285C228.285 168.099 228.312 167.994 228.342 167.921C228.371 167.853 228.396 167.824 228.389 167.833C228.382 167.841 228.351 167.876 228.283 167.932C228.215 167.988 228.119 168.058 227.989 168.138L229.731 170.938ZM231.582 168.227C231.582 167.146 231.096 166.221 230.224 165.598L228.307 168.281C228.329 168.296 228.333 168.302 228.328 168.297C228.323 168.291 228.313 168.278 228.303 168.258C228.293 168.239 228.287 168.221 228.285 168.211C228.282 168.201 228.285 168.205 228.285 168.227H231.582ZM230.224 165.598C229.362 164.982 228.253 164.814 227.191 164.814V168.111C227.573 168.111 227.851 168.144 228.044 168.188C228.138 168.21 228.204 168.232 228.248 168.251C228.291 168.269 228.308 168.281 228.307 168.281L230.224 165.598ZM227.191 164.814C225.891 164.814 224.63 165.146 223.682 166.066L225.979 168.432C226.112 168.303 226.424 168.111 227.191 168.111V164.814ZM223.665 166.083C222.801 166.947 222.395 168.049 222.395 169.252H225.692C225.692 168.834 225.811 168.6 225.996 168.415L223.665 166.083ZM222.395 169.252C222.395 169.61 222.429 169.968 222.492 170.325L225.739 169.752C225.706 169.569 225.692 169.403 225.692 169.252H222.395ZM224.323 168.403C222.281 168.144 220.292 167.965 218.356 167.868L218.19 171.161C220.038 171.254 221.943 171.425 223.908 171.674L224.323 168.403ZM219.922 169.514C219.922 168.464 220.189 167.562 220.707 166.762L217.938 164.971C217.057 166.332 216.625 167.862 216.625 169.514H219.922ZM220.703 166.767C221.217 165.98 222.013 165.301 223.193 164.771L221.842 161.763C220.193 162.504 218.859 163.559 217.942 164.966L220.703 166.767ZM223.187 164.774C224.351 164.256 225.857 163.962 227.763 163.962V160.665C225.536 160.665 223.545 161.006 221.848 161.761L223.187 164.774ZM227.763 163.962C229.516 163.962 230.857 164.207 231.849 164.621L233.12 161.579C231.601 160.944 229.794 160.665 227.763 160.665V163.962ZM231.872 164.631C232.965 165.068 233.6 165.565 233.949 166.036L236.6 164.075C235.772 162.957 234.548 162.15 233.097 161.569L231.872 164.631ZM233.972 166.066C234.396 166.613 234.532 167.07 234.532 167.464H237.829C237.829 166.205 237.361 165.056 236.577 164.045L233.972 166.066ZM234.532 167.464C234.532 168.164 234.377 168.667 234.14 169.043L236.933 170.796C237.555 169.806 237.829 168.67 237.829 167.464H234.532ZM234.126 169.067C233.858 169.51 233.435 169.959 232.797 170.392L234.652 173.119C235.603 172.472 236.389 171.696 236.947 170.773L234.126 169.067ZM232.804 170.388C232.122 170.847 231.156 171.379 229.876 171.98L231.278 174.965C232.637 174.326 233.769 173.713 234.645 173.123L232.804 170.388ZM229.84 171.998C229.786 172.025 229.593 172.103 229.179 172.226L230.115 175.387C230.56 175.255 230.987 175.111 231.314 174.947L229.84 171.998ZM229.233 172.21C228.811 172.32 228.519 172.397 228.383 172.436L229.289 175.606C229.377 175.581 229.625 175.515 230.061 175.402L229.233 172.21ZM228.369 172.44C227.232 172.776 226.314 173.06 225.621 173.291L226.663 176.419C227.305 176.205 228.183 175.933 229.304 175.602L228.369 172.44ZM225.621 173.291C224.856 173.546 224.129 173.868 223.444 174.256L225.072 177.124C225.563 176.845 226.093 176.61 226.663 176.419L225.621 173.291ZM240.615 177.741L239.466 178.924L240.615 177.741ZM240.615 164.674L241.757 165.863L241.757 165.862L240.615 164.674ZM255.708 164.674L254.56 165.857L254.566 165.863L255.708 164.674ZM255.708 177.741L256.856 178.924L255.708 177.741ZM251.392 174.593L252.711 175.582L252.719 175.571L251.392 174.593ZM251.392 167.821L250.065 168.799L250.073 168.811L251.392 167.821ZM244.907 167.821L243.59 166.829L243.588 166.832L244.907 167.821ZM244.907 174.569L243.579 175.547L243.585 175.555L243.59 175.562L244.907 174.569ZM248.173 178.453C244.969 178.453 242.951 177.71 241.763 176.558L239.466 178.924C241.521 180.918 244.542 181.75 248.173 181.75V178.453ZM241.763 176.558C240.534 175.365 239.831 173.648 239.831 171.183H236.534C236.534 174.314 237.452 176.969 239.466 178.924L241.763 176.558ZM239.831 171.183C239.831 168.737 240.533 167.039 241.757 165.863L239.472 163.485C237.454 165.424 236.534 168.066 236.534 171.183H239.831ZM241.757 165.862C242.964 164.702 244.989 163.962 248.173 163.962V160.665C244.554 160.665 241.54 161.498 239.472 163.485L241.757 165.862ZM248.173 163.962C251.359 163.962 253.371 164.703 254.56 165.857L256.856 163.491C254.802 161.497 251.791 160.665 248.173 160.665V163.962ZM254.566 165.863C255.79 167.039 256.492 168.737 256.492 171.183H259.789C259.789 168.066 258.869 165.424 256.85 163.485L254.566 165.863ZM256.492 171.183C256.492 173.648 255.789 175.365 254.56 176.558L256.856 178.924C258.871 176.969 259.789 174.314 259.789 171.183H256.492ZM254.56 176.558C253.371 177.712 251.359 178.453 248.173 178.453V181.75C251.791 181.75 254.802 180.917 256.856 178.924L254.56 176.558ZM248.197 177.577C250.001 177.577 251.639 177.012 252.711 175.582L250.073 173.604C249.81 173.955 249.318 174.28 248.197 174.28V177.577ZM252.719 175.571C253.637 174.325 254.042 172.825 254.042 171.183H250.745C250.745 172.276 250.482 173.049 250.065 173.615L252.719 175.571ZM254.042 171.183C254.042 169.554 253.635 168.065 252.711 166.832L250.073 168.811C250.484 169.358 250.745 170.111 250.745 171.183H254.042ZM252.719 166.843C251.651 165.394 250.011 164.814 248.197 164.814V168.111C249.308 168.111 249.798 168.437 250.065 168.799L252.719 166.843ZM248.197 164.814C246.355 164.814 244.682 165.381 243.59 166.829L246.223 168.814C246.498 168.449 247.019 168.111 248.197 168.111V164.814ZM243.588 166.832C242.663 168.065 242.257 169.554 242.257 171.183H245.554C245.554 170.111 245.815 169.358 246.225 168.811L243.588 166.832ZM242.257 171.183C242.257 172.814 242.664 174.305 243.579 175.547L246.234 173.591C245.814 173.022 245.554 172.255 245.554 171.183H242.257ZM243.59 175.562C244.682 177.01 246.355 177.577 248.197 177.577V174.28C247.019 174.28 246.498 173.941 246.223 173.576L243.59 175.562ZM266.033 175.69L265.219 174.256L266.124 177.336L266.033 175.69ZM278.05 174.736L279.617 175.249L280.423 172.784L277.849 173.1L278.05 174.736ZM277.43 177.359L275.801 177.106L277.43 177.359ZM277.216 179.863V181.511H278.864V179.863H277.216ZM260.167 179.863L258.52 179.941L258.595 181.511H260.167V179.863ZM260.143 179.362H258.494V179.401L258.496 179.44L260.143 179.362ZM261.502 175.309L260.218 174.274L260.21 174.285L261.502 175.309ZM265.341 172.137L266.181 173.556L266.189 173.551L265.341 172.137ZM267.582 171.04L266.926 169.528L266.922 169.53L267.582 171.04ZM270.635 169.538L271.483 170.952L271.494 170.945L271.505 170.938L270.635 169.538ZM271.04 166.939L271.998 165.598L271.998 165.598L271.04 166.939ZM266.605 167.249L265.457 166.066L265.448 166.075L265.439 166.083L266.605 167.249ZM265.889 170.039L265.682 171.674L267.902 171.956L267.513 169.752L265.889 170.039ZM260.048 169.514H258.399V171.082L259.965 171.161L260.048 169.514ZM261.097 165.866L259.716 164.966L259.713 164.971L261.097 165.866ZM264.292 163.267L263.622 161.761L263.616 161.763L264.292 163.267ZM274.259 163.1L273.623 164.621L273.635 164.626L273.647 164.631L274.259 163.1ZM277.049 165.055L275.723 166.036L275.735 166.051L275.746 166.066L277.049 165.055ZM277.311 169.92L275.915 169.043L275.907 169.055L275.9 169.067L277.311 169.92ZM275.499 171.756L276.42 173.123L276.426 173.119L275.499 171.756ZM272.351 173.472L271.65 171.98L271.632 171.989L271.614 171.998L272.351 173.472ZM271.421 173.806L271.835 175.402L271.863 175.395L271.89 175.387L271.421 173.806ZM270.611 174.021L270.158 172.436L270.15 172.438L270.143 172.44L270.611 174.021ZM267.916 174.855L267.395 173.291V173.291L267.916 174.855ZM266.124 177.336C271.303 177.049 275.351 176.729 278.251 176.373L277.849 173.1C275.058 173.443 271.095 173.759 265.941 174.044L266.124 177.336ZM276.483 174.224C276.183 175.141 275.957 176.103 275.801 177.106L279.059 177.612C279.19 176.772 279.377 175.985 279.617 175.249L276.483 174.224ZM275.801 177.106C275.648 178.092 275.567 179.013 275.567 179.863H278.864C278.864 179.218 278.926 178.47 279.059 177.612L275.801 177.106ZM277.216 178.214H260.167V181.511H277.216V178.214ZM261.814 179.784L261.79 179.284L258.496 179.44L258.52 179.941L261.814 179.784ZM261.792 179.362C261.792 178.149 262.135 177.165 262.795 176.332L260.21 174.285C259.057 175.741 258.494 177.459 258.494 179.362H261.792ZM262.786 176.343C263.554 175.39 264.666 174.453 266.181 173.556L264.501 170.719C262.741 171.761 261.294 172.938 260.218 174.274L262.786 176.343ZM266.189 173.551C266.572 173.321 267.24 172.99 268.243 172.551L266.922 169.53C265.89 169.981 265.064 170.381 264.493 170.724L266.189 173.551ZM268.238 172.553C269.584 171.969 270.677 171.435 271.483 170.952L269.786 168.124C269.161 168.499 268.22 168.967 266.926 169.528L268.238 172.553ZM271.505 170.938C272.264 170.466 273.356 169.6 273.356 168.227H270.059C270.059 168.099 270.087 167.994 270.117 167.921C270.145 167.853 270.17 167.824 270.163 167.833C270.156 167.841 270.126 167.876 270.057 167.932C269.989 167.988 269.893 168.058 269.764 168.138L271.505 170.938ZM273.356 168.227C273.356 167.146 272.87 166.221 271.998 165.598L270.082 168.281C270.103 168.296 270.107 168.302 270.103 168.297C270.097 168.291 270.087 168.278 270.077 168.258C270.067 168.239 270.061 168.221 270.059 168.211C270.057 168.201 270.059 168.205 270.059 168.227H273.356ZM271.998 165.598C271.136 164.982 270.027 164.814 268.965 164.814V168.111C269.347 168.111 269.625 168.144 269.818 168.188C269.913 168.21 269.979 168.232 270.022 168.251C270.065 168.269 270.082 168.281 270.082 168.281L271.998 165.598ZM268.965 164.814C267.666 164.814 266.404 165.146 265.457 166.066L267.753 168.432C267.886 168.303 268.199 168.111 268.965 168.111V164.814ZM265.439 166.083C264.575 166.947 264.169 168.049 264.169 169.252H267.467C267.467 168.834 267.585 168.6 267.771 168.415L265.439 166.083ZM264.169 169.252C264.169 169.61 264.203 169.968 264.266 170.325L267.513 169.752C267.481 169.569 267.467 169.403 267.467 169.252H264.169ZM266.097 168.403C264.056 168.144 262.067 167.965 260.131 167.868L259.965 171.161C261.812 171.254 263.718 171.425 265.682 171.674L266.097 168.403ZM261.696 169.514C261.696 168.464 261.963 167.562 262.481 166.762L259.713 164.971C258.832 166.332 258.399 167.862 258.399 169.514H261.696ZM262.478 166.767C262.991 165.98 263.787 165.301 264.968 164.771L263.616 161.763C261.967 162.504 260.633 163.559 259.716 164.966L262.478 166.767ZM264.961 164.774C266.125 164.256 267.632 163.962 269.538 163.962V160.665C267.311 160.665 265.32 161.006 263.622 161.761L264.961 164.774ZM269.538 163.962C271.29 163.962 272.631 164.207 273.623 164.621L274.894 161.579C273.375 160.944 271.568 160.665 269.538 160.665V163.962ZM273.647 164.631C274.739 165.068 275.375 165.565 275.723 166.036L278.374 164.075C277.547 162.957 276.322 162.15 274.871 161.569L273.647 164.631ZM275.746 166.066C276.17 166.613 276.306 167.07 276.306 167.464H279.603C279.603 166.205 279.135 165.056 278.351 164.045L275.746 166.066ZM276.306 167.464C276.306 168.164 276.151 168.667 275.915 169.043L278.707 170.796C279.329 169.806 279.603 168.67 279.603 167.464H276.306ZM275.9 169.067C275.632 169.51 275.21 169.959 274.572 170.392L276.426 173.119C277.378 172.472 278.163 171.696 278.722 170.773L275.9 169.067ZM274.578 170.388C273.896 170.847 272.93 171.379 271.65 171.98L273.052 174.965C274.411 174.326 275.544 173.713 276.42 173.123L274.578 170.388ZM271.614 171.998C271.56 172.025 271.367 172.103 270.953 172.226L271.89 175.387C272.334 175.255 272.761 175.111 273.089 174.947L271.614 171.998ZM271.008 172.21C270.585 172.32 270.293 172.397 270.158 172.436L271.064 175.606C271.151 175.581 271.399 175.515 271.835 175.402L271.008 172.21ZM270.143 172.44C269.007 172.776 268.088 173.06 267.395 173.291L268.438 176.419C269.08 176.205 269.957 175.933 271.078 175.602L270.143 172.44ZM267.395 173.291C266.63 173.546 265.904 173.868 265.219 174.256L266.846 177.124C267.338 176.845 267.867 176.61 268.438 176.419L267.395 173.291ZM293.262 171.088L292.816 169.501L293.577 172.706L293.262 171.088ZM297.316 171.422L296.518 172.865L296.54 172.877L296.563 172.889L297.316 171.422ZM298.651 172.662L297.195 173.435L297.2 173.445L297.205 173.454L298.651 172.662ZM297.816 177.431L299.014 178.563L299.019 178.558L299.024 178.552L297.816 177.431ZM294.454 179.434L294.949 181.006L294.957 181.004L294.965 181.001L294.454 179.434ZM279.981 174.855L279.581 173.256L277.712 173.723L278.462 175.497L279.981 174.855ZM281.316 174.522L280.928 172.919L280.916 172.922L281.316 174.522ZM283.82 173.854L284.297 175.432L284.308 175.429L284.319 175.425L283.82 173.854ZM285.656 173.115L287.186 172.503L286.513 170.819L284.901 171.649L285.656 173.115ZM287.015 174.832L286.172 176.249L286.195 176.262L286.217 176.275L287.015 174.832ZM292.213 174.951L291.649 173.401L292.213 174.951ZM292.857 173.186L292.085 174.643H292.085L292.857 173.186ZM291.569 172.9L291.392 174.539L291.414 174.542L291.436 174.543L291.569 172.9ZM287.277 172.805H285.628V174.453H287.277V172.805ZM287.277 168.632V166.983H285.628V168.632H287.277ZM291.331 168.489L291.535 170.125L291.552 170.123L291.568 170.12L291.331 168.489ZM291.855 166.844L290.966 168.232L290.998 168.253L291.031 168.272L291.855 166.844ZM287.253 167.154L286.346 165.777L286.339 165.782L286.331 165.787L287.253 167.154ZM285.656 169.157L285.041 170.686L286.526 171.283L287.167 169.816L285.656 169.157ZM280.219 167.702L278.713 167.033L277.832 169.014L279.976 169.333L280.219 167.702ZM283.724 163.72L282.886 162.3L282.88 162.304L283.724 163.72ZM294.216 162.957L293.694 164.521L293.706 164.525L293.717 164.529L294.216 162.957ZM297.268 164.698L296.09 165.851L296.096 165.857L296.102 165.863L297.268 164.698ZM298.007 168.656L299.411 169.52L299.418 169.508L299.425 169.496L298.007 168.656ZM296.505 169.896L297.279 171.351L297.291 171.345L297.303 171.338L296.505 169.896ZM293.577 172.706C294.05 172.614 294.509 172.57 294.955 172.57V169.273C294.288 169.273 293.618 169.339 292.947 169.47L293.577 172.706ZM294.955 172.57C295.752 172.57 296.237 172.71 296.518 172.865L298.113 169.979C297.186 169.467 296.097 169.273 294.955 169.273V172.57ZM296.563 172.889C296.947 173.086 297.113 173.282 297.195 173.435L300.107 171.888C299.648 171.024 298.924 170.394 298.068 169.955L296.563 172.889ZM297.205 173.454C297.348 173.714 297.408 173.96 297.408 174.212H300.705C300.705 173.383 300.494 172.595 300.096 171.869L297.205 173.454ZM297.408 174.212C297.408 175.067 297.141 175.735 296.608 176.309L299.024 178.552C300.144 177.346 300.705 175.868 300.705 174.212H297.408ZM296.618 176.298C296.021 176.93 295.158 177.47 293.943 177.866L294.965 181.001C296.58 180.475 297.959 179.68 299.014 178.563L296.618 176.298ZM293.959 177.861C292.729 178.248 291.325 178.453 289.733 178.453V181.75C291.606 181.75 293.35 181.509 294.949 181.006L293.959 177.861ZM289.733 178.453C287.4 178.453 285.623 178.045 284.308 177.338C283.024 176.647 282.096 175.627 281.499 174.214L278.462 175.497C279.343 177.581 280.78 179.184 282.747 180.242C284.683 181.283 287.043 181.75 289.733 181.75V178.453ZM280.38 176.455L281.716 176.121L280.916 172.922L279.581 173.256L280.38 176.455ZM281.704 176.124C282.708 175.881 283.574 175.65 284.297 175.432L283.342 172.276C282.698 172.471 281.895 172.685 280.928 172.919L281.704 176.124ZM284.319 175.425C285.086 175.181 285.787 174.902 286.411 174.58L284.901 171.649C284.475 171.869 283.952 172.082 283.32 172.283L284.319 175.425ZM284.125 173.727C284.543 174.773 285.201 175.671 286.172 176.249L287.857 173.415C287.652 173.292 287.404 173.047 287.186 172.503L284.125 173.727ZM286.217 176.275C287.16 176.796 288.3 176.981 289.495 176.981V173.684C288.591 173.684 288.077 173.535 287.812 173.389L286.217 176.275ZM289.495 176.981C290.714 176.981 291.83 176.844 292.776 176.5L291.649 173.401C291.197 173.566 290.501 173.684 289.495 173.684V176.981ZM292.776 176.5C293.273 176.319 293.8 176.041 294.215 175.588C294.663 175.099 294.911 174.481 294.911 173.806H291.613C291.613 173.74 291.626 173.654 291.662 173.561C291.698 173.469 291.746 173.402 291.784 173.36C291.85 173.289 291.852 173.328 291.649 173.401L292.776 176.5ZM294.911 173.806C294.911 173.382 294.8 172.943 294.54 172.546C294.288 172.16 293.952 171.901 293.628 171.729L292.085 174.643C292.032 174.615 291.898 174.53 291.781 174.351C291.656 174.161 291.613 173.96 291.613 173.806H294.911ZM293.628 171.729C293.051 171.424 292.345 171.309 291.702 171.257L291.436 174.543C291.678 174.563 291.854 174.59 291.974 174.617C292.102 174.645 292.124 174.664 292.085 174.643L293.628 171.729ZM291.746 171.261C291.07 171.188 290.175 171.156 289.089 171.156V174.453C290.134 174.453 290.891 174.485 291.392 174.539L291.746 171.261ZM289.089 171.156H287.277V174.453H289.089V171.156ZM288.926 172.805V168.632H285.628V172.805H288.926ZM287.277 170.281H288.374V166.983H287.277V170.281ZM288.374 170.281C289.616 170.281 290.677 170.232 291.535 170.125L291.126 166.853C290.458 166.937 289.547 166.983 288.374 166.983V170.281ZM291.568 170.12C292.032 170.053 292.573 169.927 293.041 169.644C293.571 169.324 294.124 168.711 294.124 167.798H290.826C290.826 167.566 290.896 167.33 291.026 167.132C291.146 166.949 291.279 166.856 291.336 166.822C291.393 166.788 291.411 166.788 291.36 166.804C291.311 166.818 291.226 166.838 291.093 166.858L291.568 170.12ZM294.124 167.798C294.124 166.684 293.482 165.879 292.679 165.416L291.031 168.272C291.069 168.294 291.008 168.268 290.938 168.159C290.859 168.038 290.826 167.902 290.826 167.798H294.124ZM292.744 165.455C291.941 164.942 290.923 164.814 289.971 164.814V168.111C290.325 168.111 290.582 168.138 290.759 168.173C290.94 168.21 290.989 168.246 290.966 168.232L292.744 165.455ZM289.971 164.814C288.64 164.814 287.39 165.089 286.346 165.777L288.16 168.53C288.515 168.296 289.077 168.111 289.971 168.111V164.814ZM286.331 165.787C285.35 166.449 284.631 167.382 284.145 168.497L287.167 169.816C287.443 169.183 287.79 168.78 288.175 168.521L286.331 165.787ZM286.27 167.627C284.443 166.892 282.505 166.375 280.462 166.071L279.976 169.333C281.78 169.601 283.467 170.054 285.041 170.686L286.27 167.627ZM281.726 168.372C282.354 166.958 283.295 165.895 284.568 165.136L282.88 162.304C281.006 163.421 279.61 165.013 278.713 167.033L281.726 168.372ZM284.562 165.14C285.824 164.396 287.551 163.962 289.852 163.962V160.665C287.162 160.665 284.804 161.169 282.886 162.3L284.562 165.14ZM289.852 163.962C291.33 163.962 292.604 164.158 293.694 164.521L294.737 161.393C293.252 160.898 291.617 160.665 289.852 160.665V163.962ZM293.717 164.529C294.84 164.885 295.597 165.347 296.09 165.851L298.446 163.545C297.477 162.554 296.198 161.856 294.714 161.386L293.717 164.529ZM296.102 165.863C296.589 166.35 296.74 166.781 296.74 167.201H300.037C300.037 165.777 299.441 164.539 298.434 163.532L296.102 165.863ZM296.74 167.201C296.74 167.472 296.68 167.662 296.589 167.815L299.425 169.496C299.843 168.792 300.037 168.012 300.037 167.201H296.74ZM296.603 167.792C296.572 167.843 296.369 168.087 295.707 168.453L297.303 171.338C298.135 170.878 298.934 170.295 299.411 169.52L296.603 167.792ZM295.731 168.44C295.137 168.756 294.187 169.116 292.816 169.501L293.708 172.675C295.166 172.266 296.378 171.83 297.279 171.351L295.731 168.44Z" fill="black"/>
<mask id="path-20-outside-1_408_5287" maskUnits="userSpaceOnUse" x="18.4431" y="84.4089" width="289" height="56" fill="black">
<rect fill="white" x="18.4431" y="84.4089" width="289" height="56"/>
<path d="M23.4431 89.526H32.0308V99.7287H47.0774V89.526H55.7179V135.123H47.0774V106.744H32.0308V135.123H23.4431V89.526Z"/>
<path d="M58.5769 89.526H97.3569V96.5409H67.1645V117.586H75.7943V125.076H67.1645V129.37H83.1642V135.123H58.5769V89.526Z"/>
<path d="M109.262 89.526H117.85L105.945 112.324L117.85 135.123H109.262L101.651 120.567L94.039 135.123H85.4513L97.3569 112.324L88.7693 99.4563H97.3569L101.651 105.622L109.262 89.526Z"/>
<path d="M143.083 128.108H129.681V135.123H121.093V102.562C121.093 100.769 121.484 99.0935 122.264 97.5347C123.088 95.9368 124.194 94.5533 125.582 93.3842C126.97 92.176 128.575 91.2407 130.397 90.5782C132.262 89.8767 134.257 89.526 136.382 89.526C138.507 89.526 140.481 89.8767 142.302 90.5782C144.167 91.2407 145.794 92.176 147.182 93.3842C148.569 94.5533 149.654 95.9368 150.434 97.5347C151.258 99.0935 151.671 100.769 151.671 102.562V135.123H143.083V128.108ZM143.083 121.093V102.562C143.083 101.744 142.909 100.964 142.562 100.224C142.215 99.4832 141.738 98.8402 141.131 98.2946C140.524 97.749 139.808 97.3203 138.984 97.0085C138.16 96.6968 137.293 96.5409 136.382 96.5409C135.471 96.5409 134.604 96.6968 133.78 97.0085C132.956 97.3203 132.24 97.749 131.633 98.2946C131.026 98.8402 130.548 99.4832 130.201 100.224C129.854 100.964 129.681 101.744 129.681 102.562V121.093H143.083Z"/>
<path d="M154.575 96.5409V89.526L195.056 89.4089V96.4238L172.856 96.5409V135.123H164.269V96.5409H154.575Z"/>
<path d="M186.469 100.224H195.056V121.093H208.458V89.526H217.046V135.123H208.458V128.108H195.056V135.123H186.469V100.224Z"/>
<path d="M221.603 112.324C221.603 109.479 222.145 106.693 223.229 103.965C224.357 101.198 225.918 98.7428 227.913 96.5993C229.908 94.4169 232.315 92.6827 235.135 91.3966C237.954 90.0716 241.077 89.4091 244.503 89.4091C248.016 89.4091 251.182 90.0716 254.001 91.3966C256.821 92.7217 259.206 94.4559 261.158 96.5993C263.153 98.7428 264.692 101.198 265.777 103.965C266.861 106.693 267.403 109.479 267.403 112.324C267.403 115.169 266.861 117.975 265.777 120.742C264.692 123.47 263.153 125.906 261.158 128.049C259.206 130.193 256.821 131.927 254.001 133.252C251.182 134.577 248.016 135.24 244.503 135.24C240.99 135.24 237.824 134.577 235.004 133.252C232.185 131.927 229.778 130.193 227.783 128.049C225.831 125.906 224.313 123.47 223.229 120.742C222.145 117.975 221.603 115.169 221.603 112.324ZM230.19 112.324C230.19 114.507 230.559 116.572 231.296 118.521C232.033 120.43 233.053 122.106 234.354 123.548C235.655 124.99 237.173 126.14 238.908 126.997C240.643 127.816 242.508 128.225 244.503 128.225C246.455 128.225 248.298 127.816 250.033 126.997C251.768 126.14 253.286 124.99 254.587 123.548C255.888 122.106 256.907 120.43 257.645 118.521C258.425 116.572 258.816 114.507 258.816 112.324C258.816 110.142 258.425 108.096 257.645 106.186C256.907 104.238 255.888 102.543 254.587 101.101C253.286 99.6586 251.768 98.5284 250.033 97.71C248.298 96.8526 246.455 96.424 244.503 96.424C242.204 96.424 240.166 96.9111 238.387 97.8854C236.609 98.8597 235.113 100.126 233.898 101.685C232.684 103.205 231.752 104.92 231.101 106.829C230.494 108.7 230.19 110.532 230.19 112.324Z"/>
<path d="M271.603 89.526H280.191L294.243 117.819V89.526H302.831V135.123H294.243L280.191 106.829V135.123H271.603V89.526Z"/>
</mask>
<path d="M23.4431 89.526H32.0308V99.7287H47.0774V89.526H55.7179V135.123H47.0774V106.744H32.0308V135.123H23.4431V89.526Z" fill="black"/>
<path d="M58.5769 89.526H97.3569V96.5409H67.1645V117.586H75.7943V125.076H67.1645V129.37H83.1642V135.123H58.5769V89.526Z" fill="black"/>
<path d="M109.262 89.526H117.85L105.945 112.324L117.85 135.123H109.262L101.651 120.567L94.039 135.123H85.4513L97.3569 112.324L88.7693 99.4563H97.3569L101.651 105.622L109.262 89.526Z" fill="black"/>
<path d="M143.083 128.108H129.681V135.123H121.093V102.562C121.093 100.769 121.484 99.0935 122.264 97.5347C123.088 95.9368 124.194 94.5533 125.582 93.3842C126.97 92.176 128.575 91.2407 130.397 90.5782C132.262 89.8767 134.257 89.526 136.382 89.526C138.507 89.526 140.481 89.8767 142.302 90.5782C144.167 91.2407 145.794 92.176 147.182 93.3842C148.569 94.5533 149.654 95.9368 150.434 97.5347C151.258 99.0935 151.671 100.769 151.671 102.562V135.123H143.083V128.108ZM143.083 121.093V102.562C143.083 101.744 142.909 100.964 142.562 100.224C142.215 99.4832 141.738 98.8402 141.131 98.2946C140.524 97.749 139.808 97.3203 138.984 97.0085C138.16 96.6968 137.293 96.5409 136.382 96.5409C135.471 96.5409 134.604 96.6968 133.78 97.0085C132.956 97.3203 132.24 97.749 131.633 98.2946C131.026 98.8402 130.548 99.4832 130.201 100.224C129.854 100.964 129.681 101.744 129.681 102.562V121.093H143.083Z" fill="black"/>
<path d="M154.575 96.5409V89.526L195.056 89.4089V96.4238L172.856 96.5409V135.123H164.269V96.5409H154.575Z" fill="black"/>
<path d="M186.469 100.224H195.056V121.093H208.458V89.526H217.046V135.123H208.458V128.108H195.056V135.123H186.469V100.224Z" fill="black"/>
<path d="M221.603 112.324C221.603 109.479 222.145 106.693 223.229 103.965C224.357 101.198 225.918 98.7428 227.913 96.5993C229.908 94.4169 232.315 92.6827 235.135 91.3966C237.954 90.0716 241.077 89.4091 244.503 89.4091C248.016 89.4091 251.182 90.0716 254.001 91.3966C256.821 92.7217 259.206 94.4559 261.158 96.5993C263.153 98.7428 264.692 101.198 265.777 103.965C266.861 106.693 267.403 109.479 267.403 112.324C267.403 115.169 266.861 117.975 265.777 120.742C264.692 123.47 263.153 125.906 261.158 128.049C259.206 130.193 256.821 131.927 254.001 133.252C251.182 134.577 248.016 135.24 244.503 135.24C240.99 135.24 237.824 134.577 235.004 133.252C232.185 131.927 229.778 130.193 227.783 128.049C225.831 125.906 224.313 123.47 223.229 120.742C222.145 117.975 221.603 115.169 221.603 112.324ZM230.19 112.324C230.19 114.507 230.559 116.572 231.296 118.521C232.033 120.43 233.053 122.106 234.354 123.548C235.655 124.99 237.173 126.14 238.908 126.997C240.643 127.816 242.508 128.225 244.503 128.225C246.455 128.225 248.298 127.816 250.033 126.997C251.768 126.14 253.286 124.99 254.587 123.548C255.888 122.106 256.907 120.43 257.645 118.521C258.425 116.572 258.816 114.507 258.816 112.324C258.816 110.142 258.425 108.096 257.645 106.186C256.907 104.238 255.888 102.543 254.587 101.101C253.286 99.6586 251.768 98.5284 250.033 97.71C248.298 96.8526 246.455 96.424 244.503 96.424C242.204 96.424 240.166 96.9111 238.387 97.8854C236.609 98.8597 235.113 100.126 233.898 101.685C232.684 103.205 231.752 104.92 231.101 106.829C230.494 108.7 230.19 110.532 230.19 112.324Z" fill="black"/>
<path d="M271.603 89.526H280.191L294.243 117.819V89.526H302.831V135.123H294.243L280.191 106.829V135.123H271.603V89.526Z" fill="black"/>
<path d="M23.4431 89.526H32.0308V99.7287H47.0774V89.526H55.7179V135.123H47.0774V106.744H32.0308V135.123H23.4431V89.526Z" stroke="black" stroke-width="9.13398" mask="url(#path-20-outside-1_408_5287)"/>
<path d="M58.5769 89.526H97.3569V96.5409H67.1645V117.586H75.7943V125.076H67.1645V129.37H83.1642V135.123H58.5769V89.526Z" stroke="black" stroke-width="9.13398" mask="url(#path-20-outside-1_408_5287)"/>
<path d="M109.262 89.526H117.85L105.945 112.324L117.85 135.123H109.262L101.651 120.567L94.039 135.123H85.4513L97.3569 112.324L88.7693 99.4563H97.3569L101.651 105.622L109.262 89.526Z" stroke="black" stroke-width="9.13398" mask="url(#path-20-outside-1_408_5287)"/>
<path d="M143.083 128.108H129.681V135.123H121.093V102.562C121.093 100.769 121.484 99.0935 122.264 97.5347C123.088 95.9368 124.194 94.5533 125.582 93.3842C126.97 92.176 128.575 91.2407 130.397 90.5782C132.262 89.8767 134.257 89.526 136.382 89.526C138.507 89.526 140.481 89.8767 142.302 90.5782C144.167 91.2407 145.794 92.176 147.182 93.3842C148.569 94.5533 149.654 95.9368 150.434 97.5347C151.258 99.0935 151.671 100.769 151.671 102.562V135.123H143.083V128.108ZM143.083 121.093V102.562C143.083 101.744 142.909 100.964 142.562 100.224C142.215 99.4832 141.738 98.8402 141.131 98.2946C140.524 97.749 139.808 97.3203 138.984 97.0085C138.16 96.6968 137.293 96.5409 136.382 96.5409C135.471 96.5409 134.604 96.6968 133.78 97.0085C132.956 97.3203 132.24 97.749 131.633 98.2946C131.026 98.8402 130.548 99.4832 130.201 100.224C129.854 100.964 129.681 101.744 129.681 102.562V121.093H143.083Z" stroke="black" stroke-width="9.13398" mask="url(#path-20-outside-1_408_5287)"/>
<path d="M154.575 96.5409V89.526L195.056 89.4089V96.4238L172.856 96.5409V135.123H164.269V96.5409H154.575Z" stroke="black" stroke-width="9.13398" mask="url(#path-20-outside-1_408_5287)"/>
<path d="M186.469 100.224H195.056V121.093H208.458V89.526H217.046V135.123H208.458V128.108H195.056V135.123H186.469V100.224Z" stroke="black" stroke-width="9.13398" mask="url(#path-20-outside-1_408_5287)"/>
<path d="M221.603 112.324C221.603 109.479 222.145 106.693 223.229 103.965C224.357 101.198 225.918 98.7428 227.913 96.5993C229.908 94.4169 232.315 92.6827 235.135 91.3966C237.954 90.0716 241.077 89.4091 244.503 89.4091C248.016 89.4091 251.182 90.0716 254.001 91.3966C256.821 92.7217 259.206 94.4559 261.158 96.5993C263.153 98.7428 264.692 101.198 265.777 103.965C266.861 106.693 267.403 109.479 267.403 112.324C267.403 115.169 266.861 117.975 265.777 120.742C264.692 123.47 263.153 125.906 261.158 128.049C259.206 130.193 256.821 131.927 254.001 133.252C251.182 134.577 248.016 135.24 244.503 135.24C240.99 135.24 237.824 134.577 235.004 133.252C232.185 131.927 229.778 130.193 227.783 128.049C225.831 125.906 224.313 123.47 223.229 120.742C222.145 117.975 221.603 115.169 221.603 112.324ZM230.19 112.324C230.19 114.507 230.559 116.572 231.296 118.521C232.033 120.43 233.053 122.106 234.354 123.548C235.655 124.99 237.173 126.14 238.908 126.997C240.643 127.816 242.508 128.225 244.503 128.225C246.455 128.225 248.298 127.816 250.033 126.997C251.768 126.14 253.286 124.99 254.587 123.548C255.888 122.106 256.907 120.43 257.645 118.521C258.425 116.572 258.816 114.507 258.816 112.324C258.816 110.142 258.425 108.096 257.645 106.186C256.907 104.238 255.888 102.543 254.587 101.101C253.286 99.6586 251.768 98.5284 250.033 97.71C248.298 96.8526 246.455 96.424 244.503 96.424C242.204 96.424 240.166 96.9111 238.387 97.8854C236.609 98.8597 235.113 100.126 233.898 101.685C232.684 103.205 231.752 104.92 231.101 106.829C230.494 108.7 230.19 110.532 230.19 112.324Z" stroke="black" stroke-width="9.13398" mask="url(#path-20-outside-1_408_5287)"/>
<path d="M271.603 89.526H280.191L294.243 117.819V89.526H302.831V135.123H294.243L280.191 106.829V135.123H271.603V89.526Z" stroke="black" stroke-width="9.13398" mask="url(#path-20-outside-1_408_5287)"/>
<rect x="132.211" y="98.9995" width="8.64049" height="20.0948" fill="black"/>
<ellipse cx="243.775" cy="112.244" rx="12.4525" ry="14.1577" fill="black"/>
<mask id="path-23-outside-2_408_5287" maskUnits="userSpaceOnUse" x="21.4602" y="84.5818" width="286" height="52" fill="black">
<rect fill="white" x="21.4602" y="84.5818" width="286" height="52"/>
<path d="M24.4602 87.6988H33.0478V97.9016H48.0944V87.6988H56.7349V133.296H48.0944V104.916H33.0478V133.296H24.4602V87.6988Z"/>
<path d="M59.5939 87.6988H102.668V94.7137H68.1815V115.758H76.8114V123.248H68.1815V127.543H84.1812V133.296H59.5939V87.6988Z"/>
<path d="M110.28 87.6988H118.867L106.962 110.497L118.867 133.296H110.28L102.668 118.74L95.056 133.296H86.4684L98.3739 110.497L89.7863 97.6292H98.3739L102.668 103.795L110.28 87.6988Z"/>
<path d="M144.1 126.281H130.698V133.296H122.11V100.735C122.11 98.9421 122.501 97.2664 123.281 95.7075C124.105 94.1097 125.211 92.7262 126.599 91.557C127.987 90.3489 129.592 89.4136 131.414 88.7511C133.279 88.0496 135.274 87.6988 137.399 87.6988C139.524 87.6988 141.498 88.0496 143.319 88.7511C145.184 89.4136 146.811 90.3489 148.199 91.557C149.586 92.7262 150.671 94.1097 151.451 95.7075C152.276 97.2664 152.688 98.9421 152.688 100.735V133.296H144.1V126.281ZM144.1 119.266V100.735C144.1 99.9164 143.926 99.137 143.579 98.3965C143.232 97.6561 142.755 97.0131 142.148 96.4674C141.541 95.9218 140.825 95.4932 140.001 95.1814C139.177 94.8696 138.31 94.7137 137.399 94.7137C136.488 94.7137 135.621 94.8696 134.797 95.1814C133.973 95.4932 133.257 95.9218 132.65 96.4674C132.043 97.0131 131.565 97.6561 131.218 98.3965C130.871 99.137 130.698 99.9164 130.698 100.735V119.266H144.1Z"/>
<path d="M155.592 94.7137V87.6988L196.073 87.5818V94.5967L173.874 94.7137V133.296H165.286V94.7137H155.592Z"/>
<path d="M187.486 98.3965H196.073V119.266H209.475V87.6988H218.063V133.296H209.475V126.281H196.073V133.296H187.486V98.3965Z"/>
<path d="M222.62 110.497C222.62 107.652 223.162 104.866 224.246 102.138C225.374 99.3708 226.935 96.9156 228.93 94.7722C230.925 92.5898 233.332 90.8555 236.152 89.5695C238.971 88.2444 242.094 87.5819 245.52 87.5819C249.033 87.5819 252.199 88.2444 255.018 89.5695C257.838 90.8945 260.223 92.6287 262.175 94.7722C264.17 96.9156 265.71 99.3708 266.794 102.138C267.878 104.866 268.42 107.652 268.42 110.497C268.42 113.342 267.878 116.148 266.794 118.915C265.71 121.643 264.17 124.079 262.175 126.222C260.223 128.366 257.838 130.1 255.018 131.425C252.199 132.75 249.033 133.413 245.52 133.413C242.007 133.413 238.841 132.75 236.021 131.425C233.202 130.1 230.795 128.366 228.8 126.222C226.848 124.079 225.33 121.643 224.246 118.915C223.162 116.148 222.62 113.342 222.62 110.497ZM231.207 110.497C231.207 112.68 231.576 114.745 232.313 116.694C233.05 118.603 234.07 120.279 235.371 121.721C236.672 123.163 238.19 124.313 239.925 125.17C241.66 125.988 243.525 126.398 245.52 126.398C247.472 126.398 249.315 125.988 251.05 125.17C252.785 124.313 254.303 123.163 255.604 121.721C256.905 120.279 257.924 118.603 258.662 116.694C259.442 114.745 259.833 112.68 259.833 110.497C259.833 108.315 259.442 106.269 258.662 104.359C257.924 102.411 256.905 100.715 255.604 99.2734C254.303 97.8315 252.785 96.7013 251.05 95.8829C249.315 95.0255 247.472 94.5968 245.52 94.5968C243.221 94.5968 241.183 95.084 239.404 96.0582C237.626 97.0325 236.13 98.2991 234.916 99.858C233.701 101.378 232.769 103.093 232.118 105.002C231.511 106.873 231.207 108.705 231.207 110.497Z"/>
<path d="M272.62 87.6988H281.208L295.26 115.992V87.6988H303.848V133.296H295.26L281.208 105.002V133.296H272.62V87.6988Z"/>
</mask>
<path d="M24.4602 87.6988H33.0478V97.9016H48.0944V87.6988H56.7349V133.296H48.0944V104.916H33.0478V133.296H24.4602V87.6988Z" fill="#F6C707"/>
<path d="M59.5939 87.6988H102.668V94.7137H68.1815V115.758H76.8114V123.248H68.1815V127.543H84.1812V133.296H59.5939V87.6988Z" fill="#F6C707"/>
<path d="M110.28 87.6988H118.867L106.962 110.497L118.867 133.296H110.28L102.668 118.74L95.056 133.296H86.4684L98.3739 110.497L89.7863 97.6292H98.3739L102.668 103.795L110.28 87.6988Z" fill="#F6C707"/>
<path d="M144.1 126.281H130.698V133.296H122.11V100.735C122.11 98.9421 122.501 97.2664 123.281 95.7075C124.105 94.1097 125.211 92.7262 126.599 91.557C127.987 90.3489 129.592 89.4136 131.414 88.7511C133.279 88.0496 135.274 87.6988 137.399 87.6988C139.524 87.6988 141.498 88.0496 143.319 88.7511C145.184 89.4136 146.811 90.3489 148.199 91.557C149.586 92.7262 150.671 94.1097 151.451 95.7075C152.276 97.2664 152.688 98.9421 152.688 100.735V133.296H144.1V126.281ZM144.1 119.266V100.735C144.1 99.9164 143.926 99.137 143.579 98.3965C143.232 97.6561 142.755 97.0131 142.148 96.4674C141.541 95.9218 140.825 95.4932 140.001 95.1814C139.177 94.8696 138.31 94.7137 137.399 94.7137C136.488 94.7137 135.621 94.8696 134.797 95.1814C133.973 95.4932 133.257 95.9218 132.65 96.4674C132.043 97.0131 131.565 97.6561 131.218 98.3965C130.871 99.137 130.698 99.9164 130.698 100.735V119.266H144.1Z" fill="#F6C707"/>
<path d="M155.592 94.7137V87.6988L196.073 87.5818V94.5967L173.874 94.7137V133.296H165.286V94.7137H155.592Z" fill="#F6C707"/>
<path d="M187.486 98.3965H196.073V119.266H209.475V87.6988H218.063V133.296H209.475V126.281H196.073V133.296H187.486V98.3965Z" fill="#F6C707"/>
<path d="M222.62 110.497C222.62 107.652 223.162 104.866 224.246 102.138C225.374 99.3708 226.935 96.9156 228.93 94.7722C230.925 92.5898 233.332 90.8555 236.152 89.5695C238.971 88.2444 242.094 87.5819 245.52 87.5819C249.033 87.5819 252.199 88.2444 255.018 89.5695C257.838 90.8945 260.223 92.6287 262.175 94.7722C264.17 96.9156 265.71 99.3708 266.794 102.138C267.878 104.866 268.42 107.652 268.42 110.497C268.42 113.342 267.878 116.148 266.794 118.915C265.71 121.643 264.17 124.079 262.175 126.222C260.223 128.366 257.838 130.1 255.018 131.425C252.199 132.75 249.033 133.413 245.52 133.413C242.007 133.413 238.841 132.75 236.021 131.425C233.202 130.1 230.795 128.366 228.8 126.222C226.848 124.079 225.33 121.643 224.246 118.915C223.162 116.148 222.62 113.342 222.62 110.497ZM231.207 110.497C231.207 112.68 231.576 114.745 232.313 116.694C233.05 118.603 234.07 120.279 235.371 121.721C236.672 123.163 238.19 124.313 239.925 125.17C241.66 125.988 243.525 126.398 245.52 126.398C247.472 126.398 249.315 125.988 251.05 125.17C252.785 124.313 254.303 123.163 255.604 121.721C256.905 120.279 257.924 118.603 258.662 116.694C259.442 114.745 259.833 112.68 259.833 110.497C259.833 108.315 259.442 106.269 258.662 104.359C257.924 102.411 256.905 100.715 255.604 99.2734C254.303 97.8315 252.785 96.7013 251.05 95.8829C249.315 95.0255 247.472 94.5968 245.52 94.5968C243.221 94.5968 241.183 95.084 239.404 96.0582C237.626 97.0325 236.13 98.2991 234.916 99.858C233.701 101.378 232.769 103.093 232.118 105.002C231.511 106.873 231.207 108.705 231.207 110.497Z" fill="#F6C707"/>
<path d="M272.62 87.6988H281.208L295.26 115.992V87.6988H303.848V133.296H295.26L281.208 105.002V133.296H272.62V87.6988Z" fill="#F6C707"/>
<path d="M24.4602 87.6988H33.0478V97.9016H48.0944V87.6988H56.7349V133.296H48.0944V104.916H33.0478V133.296H24.4602V87.6988Z" stroke="black" stroke-width="5.48039" mask="url(#path-23-outside-2_408_5287)"/>
<path d="M59.5939 87.6988H102.668V94.7137H68.1815V115.758H76.8114V123.248H68.1815V127.543H84.1812V133.296H59.5939V87.6988Z" stroke="black" stroke-width="5.48039" mask="url(#path-23-outside-2_408_5287)"/>
<path d="M110.28 87.6988H118.867L106.962 110.497L118.867 133.296H110.28L102.668 118.74L95.056 133.296H86.4684L98.3739 110.497L89.7863 97.6292H98.3739L102.668 103.795L110.28 87.6988Z" stroke="black" stroke-width="5.48039" mask="url(#path-23-outside-2_408_5287)"/>
<path d="M144.1 126.281H130.698V133.296H122.11V100.735C122.11 98.9421 122.501 97.2664 123.281 95.7075C124.105 94.1097 125.211 92.7262 126.599 91.557C127.987 90.3489 129.592 89.4136 131.414 88.7511C133.279 88.0496 135.274 87.6988 137.399 87.6988C139.524 87.6988 141.498 88.0496 143.319 88.7511C145.184 89.4136 146.811 90.3489 148.199 91.557C149.586 92.7262 150.671 94.1097 151.451 95.7075C152.276 97.2664 152.688 98.9421 152.688 100.735V133.296H144.1V126.281ZM144.1 119.266V100.735C144.1 99.9164 143.926 99.137 143.579 98.3965C143.232 97.6561 142.755 97.0131 142.148 96.4674C141.541 95.9218 140.825 95.4932 140.001 95.1814C139.177 94.8696 138.31 94.7137 137.399 94.7137C136.488 94.7137 135.621 94.8696 134.797 95.1814C133.973 95.4932 133.257 95.9218 132.65 96.4674C132.043 97.0131 131.565 97.6561 131.218 98.3965C130.871 99.137 130.698 99.9164 130.698 100.735V119.266H144.1Z" stroke="black" stroke-width="5.48039" mask="url(#path-23-outside-2_408_5287)"/>
<path d="M155.592 94.7137V87.6988L196.073 87.5818V94.5967L173.874 94.7137V133.296H165.286V94.7137H155.592Z" stroke="black" stroke-width="5.48039" mask="url(#path-23-outside-2_408_5287)"/>
<path d="M187.486 98.3965H196.073V119.266H209.475V87.6988H218.063V133.296H209.475V126.281H196.073V133.296H187.486V98.3965Z" stroke="black" stroke-width="5.48039" mask="url(#path-23-outside-2_408_5287)"/>
<path d="M222.62 110.497C222.62 107.652 223.162 104.866 224.246 102.138C225.374 99.3708 226.935 96.9156 228.93 94.7722C230.925 92.5898 233.332 90.8555 236.152 89.5695C238.971 88.2444 242.094 87.5819 245.52 87.5819C249.033 87.5819 252.199 88.2444 255.018 89.5695C257.838 90.8945 260.223 92.6287 262.175 94.7722C264.17 96.9156 265.71 99.3708 266.794 102.138C267.878 104.866 268.42 107.652 268.42 110.497C268.42 113.342 267.878 116.148 266.794 118.915C265.71 121.643 264.17 124.079 262.175 126.222C260.223 128.366 257.838 130.1 255.018 131.425C252.199 132.75 249.033 133.413 245.52 133.413C242.007 133.413 238.841 132.75 236.021 131.425C233.202 130.1 230.795 128.366 228.8 126.222C226.848 124.079 225.33 121.643 224.246 118.915C223.162 116.148 222.62 113.342 222.62 110.497ZM231.207 110.497C231.207 112.68 231.576 114.745 232.313 116.694C233.05 118.603 234.07 120.279 235.371 121.721C236.672 123.163 238.19 124.313 239.925 125.17C241.66 125.988 243.525 126.398 245.52 126.398C247.472 126.398 249.315 125.988 251.05 125.17C252.785 124.313 254.303 123.163 255.604 121.721C256.905 120.279 257.924 118.603 258.662 116.694C259.442 114.745 259.833 112.68 259.833 110.497C259.833 108.315 259.442 106.269 258.662 104.359C257.924 102.411 256.905 100.715 255.604 99.2734C254.303 97.8315 252.785 96.7013 251.05 95.8829C249.315 95.0255 247.472 94.5968 245.52 94.5968C243.221 94.5968 241.183 95.084 239.404 96.0582C237.626 97.0325 236.13 98.2991 234.916 99.858C233.701 101.378 232.769 103.093 232.118 105.002C231.511 106.873 231.207 108.705 231.207 110.497Z" stroke="black" stroke-width="5.48039" mask="url(#path-23-outside-2_408_5287)"/>
<path d="M272.62 87.6988H281.208L295.26 115.992V87.6988H303.848V133.296H295.26L281.208 105.002V133.296H272.62V87.6988Z" stroke="black" stroke-width="5.48039" mask="url(#path-23-outside-2_408_5287)"/>
<path d="M271.233 55.726C262.936 55.6516 259.089 57.8209 259.133 69.7149C258.665 56.6859 255.391 55.425 243.697 55.425C255.653 55.2998 259.125 52.4876 259.133 42.396C259.35 52.423 262.708 55.16 271.233 55.726C272.274 55.7354 273.386 55.7801 274.568 55.8453C273.378 55.8314 272.267 55.7947 271.233 55.726Z" fill="black"/>
<path d="M259.133 69.7149C259.083 56.328 263.963 55.2602 274.568 55.8453C263.569 55.717 259.376 53.6399 259.133 42.396C259.125 52.4876 255.653 55.2998 243.697 55.425C255.391 55.425 258.665 56.6859 259.133 69.7149Z" stroke="black" stroke-width="0.840582"/>
<path d="M96.3286 169.908C91.1653 169.862 88.7707 171.212 88.7983 178.614C88.5072 170.505 86.4695 169.721 79.1921 169.721C86.6327 169.643 88.7936 167.893 88.7983 161.612C88.9334 167.853 91.0232 169.556 96.3286 169.908C96.9767 169.914 97.6684 169.942 98.4045 169.982C97.6636 169.974 96.9724 169.951 96.3286 169.908Z" fill="black"/>
<path d="M88.7983 178.614C88.7672 170.283 91.8046 169.618 98.4045 169.982C91.5592 169.902 88.9498 168.61 88.7983 161.612C88.7936 167.893 86.6327 169.643 79.1921 169.721C86.4695 169.721 88.5072 170.505 88.7983 178.614Z" stroke="black" stroke-width="0.523128"/>
<path d="M206.055 159.578C205.671 156.935 208.49 152.65 211.399 147.048C204.615 158.876 200.716 165.988 203.064 168.878C204.011 170.043 205.776 169.652 207.062 168.865C238.368 149.705 277.417 97.5234 296.19 61.4965C297.381 59.2099 298.697 55.7001 298.447 53.1399C298.155 50.1657 294.971 50.2064 292.274 51.5004C287.238 53.9162 282.133 59.4352 274.908 66.2166C282.099 60.2575 286.738 56.3427 289.449 57.1269C290.557 57.4477 290.878 58.7788 290.682 59.921C286.987 81.4276 219.76 160.401 207.656 161.013C206.839 161.054 206.172 160.388 206.055 159.578Z" fill="black" stroke="black" stroke-width="1.12717"/>
</svg>
