<svg width="26" height="26" viewBox="0 0 26 26" fill="none" xmlns="http://www.w3.org/2000/svg">
<path d="M11.4926 0.737253C12.2828 0.28104 13.2564 0.281039 14.0465 0.737252L22.5514 5.64754C23.3416 6.10375 23.8284 6.94687 23.8284 7.85929V17.6799C23.8284 18.5923 23.3416 19.4354 22.5514 19.8916L14.0465 24.8019C13.2564 25.2581 12.2828 25.2581 11.4926 24.8019L2.98776 19.8916C2.19757 19.4354 1.7108 18.5923 1.7108 17.6799V7.85929C1.7108 6.94686 2.19757 6.10375 2.98776 5.64754L11.4926 0.737253Z" fill="#FFBF58"/>
<g filter="url(#filter0_i_439_8319)">
<path d="M11.5566 2.66982C12.2282 2.28204 13.0557 2.28203 13.7274 2.66982L20.9565 6.84356C21.6282 7.23134 22.0419 7.94799 22.0419 8.72355V17.071C22.0419 17.8466 21.6282 18.5632 20.9565 18.951L13.7274 23.1248C13.0557 23.5125 12.2282 23.5125 11.5566 23.1248L4.32744 18.951C3.65578 18.5632 3.24202 17.8466 3.24202 17.071V8.72355C3.24202 7.94799 3.65578 7.23134 4.32743 6.84356L11.5566 2.66982Z" fill="#FFBF58"/>
</g>
<path d="M8.70243 17.6637L9.54528 13.5889H7.30762L7.52922 12.3784H9.7283L9.94688 11.2889H7.70922L7.91153 10.0784H10.1299L10.67 7.30768H12.8112L12.2711 10.0784H14.4316L14.9717 7.30768H17.0937L16.5728 10.0784H18.7912L18.5889 11.2889H16.3898L16.1519 12.3784H18.4089L18.2066 13.5889H15.9689L15.1261 17.6637H13.0041L13.8277 13.5889H11.6672L10.8436 17.6637H8.70243ZM11.8116 12.4087H14.0493L14.3065 11.2586H12.0688L11.8116 12.4087Z" fill="white"/>
<defs>
<filter id="filter0_i_439_8319" x="3.24194" y="2.37897" width="18.8" height="21.0366" filterUnits="userSpaceOnUse" color-interpolation-filters="sRGB">
<feFlood flood-opacity="0" result="BackgroundImageFix"/>
<feBlend mode="normal" in="SourceGraphic" in2="BackgroundImageFix" result="shape"/>
<feColorMatrix in="SourceAlpha" type="matrix" values="0 0 0 0 0 0 0 0 0 0 0 0 0 0 0 0 0 0 127 0" result="hardAlpha"/>
<feOffset/>
<feGaussianBlur stdDeviation="0.89387"/>
<feComposite in2="hardAlpha" operator="arithmetic" k2="-1" k3="1"/>
<feColorMatrix type="matrix" values="0 0 0 0 0.891667 0 0 0 0 0.474486 0 0 0 0 0.172389 0 0 0 1 0"/>
<feBlend mode="normal" in2="shape" result="effect1_innerShadow_439_8319"/>
</filter>
</defs>
</svg>
