<svg width="100%" height="100%" preserveAspectRatio="none" viewBox="0 0 428 926" fill="none" xmlns="http://www.w3.org/2000/svg">
<rect width="428" height="926" rx="25" fill="#72262A"/>
<path d="M148.608 433.596H129.024V437.376C130.248 437.4 132.084 437.412 134.532 437.412C138.756 437.412 143.052 437.34 147.42 437.196V444.252C143.052 444.084 138.444 444 133.596 444C131.58 444 130.056 444.012 129.024 444.036V453H120.528C120.72 448.344 120.816 443.988 120.816 439.932C120.816 435.876 120.72 431.52 120.528 426.864H148.608V433.596ZM163.093 453.36C158.989 453.36 155.965 452.424 154.021 450.552C152.101 448.656 151.141 446.172 151.141 443.1C151.141 440.1 152.101 437.664 154.021 435.792C155.965 433.92 158.989 432.984 163.093 432.984C165.853 432.984 168.157 433.44 170.005 434.352C171.877 435.24 173.257 436.452 174.145 437.988C175.033 439.5 175.477 441.204 175.477 443.1C175.477 446.196 174.445 448.68 172.381 450.552C170.341 452.424 167.245 453.36 163.093 453.36ZM163.237 447.24C164.797 447.24 165.961 446.868 166.729 446.124C167.497 445.38 167.881 444.384 167.881 443.136C167.881 441.96 167.497 441 166.729 440.256C165.961 439.488 164.797 439.104 163.237 439.104C161.677 439.104 160.537 439.476 159.817 440.22C159.097 440.964 158.737 441.936 158.737 443.136C158.737 444.384 159.097 445.38 159.817 446.124C160.537 446.868 161.677 447.24 163.237 447.24ZM186.36 438.672C187.368 435.048 189.876 433.236 193.884 433.236C194.58 433.236 195.252 433.284 195.9 433.38L194.748 441.444C193.02 440.796 191.604 440.472 190.5 440.472C189.132 440.472 188.124 440.88 187.476 441.696C186.828 442.512 186.504 443.604 186.504 444.972V444.936L186.468 447.312C186.468 449.016 186.516 450.912 186.612 453H178.008C178.2 449.544 178.296 446.28 178.296 443.208C178.296 440.136 178.2 436.848 178.008 433.344C179.592 433.416 180.804 433.452 181.644 433.452C182.532 433.452 183.744 433.416 185.28 433.344L186.36 438.672ZM221.617 432.984C223.225 432.984 224.653 433.476 225.901 434.46C227.173 435.42 228.157 436.704 228.853 438.312C229.549 439.896 229.897 441.588 229.897 443.388C229.897 445.212 229.549 446.892 228.853 448.428C228.157 449.94 227.185 451.14 225.937 452.028C224.689 452.916 223.285 453.36 221.725 453.36C219.901 453.36 218.317 452.976 216.973 452.208C215.629 451.416 214.621 450.18 213.949 448.5L212.905 453H205.993C206.137 448.488 206.209 443.82 206.209 438.996C206.209 434.124 206.137 429.456 205.993 424.992H214.129L214.021 429.42C213.901 432.54 213.841 435.324 213.841 437.772C214.489 436.14 215.473 434.94 216.793 434.172C218.137 433.38 219.745 432.984 221.617 432.984ZM217.945 447.312C219.097 447.312 220.009 446.928 220.681 446.16C221.353 445.392 221.689 444.396 221.689 443.172C221.689 442.068 221.317 441.18 220.573 440.508C219.853 439.812 218.953 439.464 217.873 439.464C217.321 439.464 216.745 439.596 216.145 439.86C215.545 440.1 215.029 440.508 214.597 441.084C214.165 441.636 213.949 442.332 213.949 443.172C213.949 444.66 214.285 445.728 214.957 446.376C215.629 447 216.625 447.312 217.945 447.312ZM251.826 444H240.09C240.282 445.056 240.75 445.92 241.494 446.592C242.262 447.24 243.342 447.564 244.734 447.564C245.742 447.564 246.69 447.372 247.578 446.988C248.466 446.58 249.174 446.016 249.702 445.296C251.31 446.088 253.446 446.94 256.11 447.852C255.366 449.532 254.01 450.876 252.042 451.884C250.098 452.868 247.554 453.36 244.41 453.36C240.33 453.36 237.306 452.424 235.338 450.552C233.394 448.656 232.422 446.172 232.422 443.1C232.422 440.1 233.394 437.664 235.338 435.792C237.282 433.92 240.306 432.984 244.41 432.984C246.858 432.984 248.982 433.392 250.782 434.208C252.582 435.024 253.962 436.164 254.922 437.628C255.882 439.068 256.362 440.724 256.362 442.596C256.362 443.22 256.338 443.688 256.29 444H251.826ZM244.914 438.42C243.714 438.42 242.73 438.648 241.962 439.104C241.194 439.56 240.654 440.184 240.342 440.976H248.838C248.55 440.208 248.082 439.596 247.434 439.14C246.786 438.66 245.946 438.42 244.914 438.42ZM270.496 453.36C268.48 453.36 266.428 453.084 264.34 452.532C262.276 451.956 260.332 451.092 258.508 449.94L262.288 444.792C263.392 445.584 264.724 446.208 266.284 446.664C267.844 447.096 269.188 447.312 270.316 447.312C271.396 447.312 272.224 447.168 272.8 446.88C273.4 446.568 273.7 446.172 273.7 445.692C273.7 445.308 273.556 445.008 273.268 444.792C272.98 444.576 272.584 444.468 272.08 444.468C271.768 444.468 271.408 444.48 271 444.504C270.616 444.528 270.304 444.552 270.064 444.576C268.816 444.72 267.532 444.792 266.212 444.792C264.076 444.792 262.336 444.396 260.992 443.604C259.672 442.788 259.012 441.468 259.012 439.644C259.012 437.532 260.008 435.9 262 434.748C263.992 433.572 266.92 432.984 270.784 432.984C272.68 432.984 274.588 433.26 276.508 433.812C278.452 434.34 280.168 435.144 281.656 436.224L277.516 440.4C276.148 439.68 274.864 439.176 273.664 438.888C272.488 438.576 271.3 438.42 270.1 438.42C269.26 438.42 268.54 438.588 267.94 438.924C267.34 439.26 267.04 439.644 267.04 440.076C267.04 440.412 267.16 440.676 267.4 440.868C267.664 441.06 268 441.156 268.408 441.156C268.816 441.156 269.38 441.12 270.1 441.048C271.852 440.928 273.16 440.868 274.024 440.868C276.52 440.868 278.452 441.288 279.82 442.128C281.188 442.968 281.872 444.252 281.872 445.98C281.872 448.572 280.864 450.456 278.848 451.632C276.832 452.784 274.048 453.36 270.496 453.36ZM299.996 439.788C297.788 439.644 295.772 439.536 293.948 439.464L293.912 443.28C293.912 444.576 294.188 445.596 294.74 446.34C295.316 447.06 296.324 447.42 297.764 447.42C298.316 447.42 298.844 447.372 299.348 447.276C299.252 448.164 299.204 449.064 299.204 449.976C299.204 450.408 299.228 451.392 299.276 452.928C298.22 453.12 297.332 453.24 296.612 453.288C295.892 453.336 294.956 453.36 293.804 453.36C290.996 453.36 289.004 452.688 287.828 451.344C286.676 449.976 286.1 448.08 286.1 445.656L286.136 439.572C285.008 439.62 283.832 439.692 282.608 439.788V433.416C283.856 433.416 284.912 433.02 285.776 432.228C286.64 431.436 287.156 430.488 287.324 429.384H297.116C295.892 431.064 294.536 432.408 293.048 433.416H299.996V439.788ZM114.769 496H103.033C103.225 497.056 103.693 497.92 104.437 498.592C105.205 499.24 106.285 499.564 107.677 499.564C108.685 499.564 109.633 499.372 110.521 498.988C111.409 498.58 112.117 498.016 112.645 497.296C114.253 498.088 116.389 498.94 119.053 499.852C118.309 501.532 116.953 502.876 114.985 503.884C113.041 504.868 110.497 505.36 107.353 505.36C103.273 505.36 100.249 504.424 98.2812 502.552C96.3372 500.656 95.3652 498.172 95.3652 495.1C95.3652 492.1 96.3372 489.664 98.2812 487.792C100.225 485.92 103.249 484.984 107.353 484.984C109.801 484.984 111.925 485.392 113.725 486.208C115.525 487.024 116.905 488.164 117.865 489.628C118.825 491.068 119.305 492.724 119.305 494.596C119.305 495.22 119.281 495.688 119.233 496H114.769ZM107.857 490.42C106.657 490.42 105.673 490.648 104.905 491.104C104.137 491.56 103.597 492.184 103.285 492.976H111.781C111.493 492.208 111.025 491.596 110.377 491.14C109.729 490.66 108.889 490.42 107.857 490.42ZM136.696 494.92L144.256 505H135.328C134.872 504.088 134.032 502.756 132.808 501.004L131.98 499.816C131.836 500.032 131.668 500.26 131.476 500.5C131.308 500.74 131.14 501.004 130.972 501.292C130.492 501.964 130.036 502.624 129.604 503.272C129.196 503.92 128.86 504.496 128.596 505H119.668L127.228 494.92L119.956 485.344H128.848C129.184 486.016 129.832 487.06 130.792 488.476L131.98 490.276L132.988 488.728C133.996 487.216 134.692 486.088 135.076 485.344H143.968L136.696 494.92ZM161.414 484.984C162.974 484.984 164.378 485.428 165.626 486.316C166.874 487.204 167.846 488.416 168.542 489.952C169.238 491.464 169.586 493.132 169.586 494.956C169.586 496.756 169.238 498.46 168.542 500.068C167.846 501.652 166.862 502.936 165.59 503.92C164.342 504.88 162.914 505.36 161.306 505.36C159.434 505.36 157.826 504.976 156.482 504.208C155.162 503.416 154.178 502.204 153.53 500.572C153.53 501.94 153.578 504.136 153.674 507.16C153.77 510.088 153.818 512.152 153.818 513.352H145.682C145.826 508.888 145.898 504.22 145.898 499.348C145.898 494.476 145.826 489.808 145.682 485.344H152.594L153.638 489.844C154.31 488.164 155.318 486.94 156.662 486.172C158.006 485.38 159.59 484.984 161.414 484.984ZM157.562 498.88C158.642 498.88 159.542 498.544 160.262 497.872C161.006 497.176 161.378 496.276 161.378 495.172C161.378 493.948 161.042 492.952 160.37 492.184C159.698 491.416 158.786 491.032 157.634 491.032C156.314 491.032 155.318 491.356 154.646 492.004C153.974 492.628 153.638 493.684 153.638 495.172C153.638 496.012 153.854 496.72 154.286 497.296C154.718 497.848 155.234 498.256 155.834 498.52C156.434 498.76 157.01 498.88 157.562 498.88ZM191.164 496H179.428C179.62 497.056 180.088 497.92 180.832 498.592C181.6 499.24 182.68 499.564 184.072 499.564C185.08 499.564 186.028 499.372 186.916 498.988C187.804 498.58 188.512 498.016 189.04 497.296C190.648 498.088 192.784 498.94 195.448 499.852C194.704 501.532 193.348 502.876 191.38 503.884C189.436 504.868 186.892 505.36 183.748 505.36C179.668 505.36 176.644 504.424 174.676 502.552C172.732 500.656 171.76 498.172 171.76 495.1C171.76 492.1 172.732 489.664 174.676 487.792C176.62 485.92 179.644 484.984 183.748 484.984C186.196 484.984 188.32 485.392 190.12 486.208C191.92 487.024 193.3 488.164 194.26 489.628C195.22 491.068 195.7 492.724 195.7 494.596C195.7 495.22 195.676 495.688 195.628 496H191.164ZM184.252 490.42C183.052 490.42 182.068 490.648 181.3 491.104C180.532 491.56 179.992 492.184 179.68 492.976H188.176C187.888 492.208 187.42 491.596 186.772 491.14C186.124 490.66 185.284 490.42 184.252 490.42ZM206.558 490.672C207.566 487.048 210.074 485.236 214.082 485.236C214.778 485.236 215.45 485.284 216.098 485.38L214.946 493.444C213.218 492.796 211.802 492.472 210.698 492.472C209.33 492.472 208.322 492.88 207.674 493.696C207.026 494.512 206.702 495.604 206.702 496.972V496.936L206.666 499.312C206.666 501.016 206.714 502.912 206.81 505H198.206C198.398 501.544 198.494 498.28 198.494 495.208C198.494 492.136 198.398 488.848 198.206 485.344C199.79 485.416 201.002 485.452 201.842 485.452C202.73 485.452 203.942 485.416 205.478 485.344L206.558 490.672ZM223.807 483.22C222.295 483.22 221.167 482.848 220.423 482.104C219.703 481.36 219.343 480.388 219.343 479.188C219.343 478.012 219.703 477.04 220.423 476.272C221.167 475.504 222.295 475.12 223.807 475.12C225.247 475.12 226.351 475.516 227.119 476.308C227.887 477.076 228.271 478.036 228.271 479.188C228.271 480.388 227.899 481.36 227.155 482.104C226.411 482.848 225.295 483.22 223.807 483.22ZM219.631 505C219.799 501.136 219.883 497.944 219.883 495.424C219.883 492.424 219.787 489.064 219.595 485.344H228.235C228.043 488.92 227.947 492.28 227.947 495.424C227.947 498.064 228.031 501.256 228.199 505H219.631ZM250.543 496H238.807C238.999 497.056 239.467 497.92 240.211 498.592C240.979 499.24 242.059 499.564 243.451 499.564C244.459 499.564 245.407 499.372 246.295 498.988C247.183 498.58 247.891 498.016 248.419 497.296C250.027 498.088 252.163 498.94 254.827 499.852C254.083 501.532 252.727 502.876 250.759 503.884C248.815 504.868 246.271 505.36 243.127 505.36C239.047 505.36 236.023 504.424 234.055 502.552C232.111 500.656 231.139 498.172 231.139 495.1C231.139 492.1 232.111 489.664 234.055 487.792C235.999 485.92 239.023 484.984 243.127 484.984C245.575 484.984 247.699 485.392 249.499 486.208C251.299 487.024 252.679 488.164 253.639 489.628C254.599 491.068 255.079 492.724 255.079 494.596C255.079 495.22 255.055 495.688 255.007 496H250.543ZM243.631 490.42C242.431 490.42 241.447 490.648 240.679 491.104C239.911 491.56 239.371 492.184 239.059 492.976H247.555C247.267 492.208 246.799 491.596 246.151 491.14C245.503 490.66 244.663 490.42 243.631 490.42ZM271.625 505C271.769 501.472 271.841 498.22 271.841 495.244C271.841 494.188 271.577 493.348 271.049 492.724C270.545 492.1 269.897 491.788 269.105 491.788C268.313 491.788 267.641 492.148 267.089 492.868C266.537 493.564 266.213 494.524 266.117 495.748C266.069 497.572 266.045 498.868 266.045 499.636C266.045 501.268 266.093 503.056 266.189 505H257.585C257.777 501.544 257.873 498.28 257.873 495.208C257.873 492.136 257.777 488.848 257.585 485.344C259.169 485.416 260.381 485.452 261.221 485.452C262.109 485.452 263.321 485.416 264.857 485.344L265.901 490.636C266.453 488.716 267.317 487.3 268.493 486.388C269.669 485.452 271.037 484.984 272.597 484.984C274.037 484.984 275.285 485.308 276.341 485.956C277.397 486.58 278.189 487.432 278.717 488.512C279.269 489.592 279.545 490.804 279.545 492.148V497.332C279.545 500.524 279.605 503.08 279.725 505H271.625ZM289.924 495.172C289.972 496.396 290.356 497.38 291.076 498.124C291.82 498.868 292.912 499.24 294.352 499.24C295.144 499.24 295.852 499.096 296.476 498.808C297.1 498.496 297.676 498.04 298.204 497.44C300.244 498.232 302.632 498.916 305.368 499.492C304.576 501.34 303.232 502.78 301.336 503.812C299.464 504.844 297.028 505.36 294.028 505.36C290.02 505.36 287.056 504.424 285.136 502.552C283.216 500.68 282.256 498.22 282.256 495.172C282.256 492.124 283.216 489.664 285.136 487.792C287.056 485.92 290.02 484.984 294.028 484.984C297.028 484.984 299.464 485.5 301.336 486.532C303.232 487.564 304.576 489.004 305.368 490.852C303.232 491.308 300.844 491.992 298.204 492.904C297.676 492.304 297.1 491.86 296.476 491.572C295.852 491.26 295.144 491.104 294.352 491.104C292.912 491.104 291.82 491.476 291.076 492.22C290.356 492.964 289.972 493.948 289.924 495.172ZM327.113 496H315.377C315.569 497.056 316.037 497.92 316.781 498.592C317.549 499.24 318.629 499.564 320.021 499.564C321.029 499.564 321.977 499.372 322.865 498.988C323.753 498.58 324.461 498.016 324.989 497.296C326.597 498.088 328.733 498.94 331.397 499.852C330.653 501.532 329.297 502.876 327.329 503.884C325.385 504.868 322.841 505.36 319.697 505.36C315.617 505.36 312.593 504.424 310.625 502.552C308.681 500.656 307.709 498.172 307.709 495.1C307.709 492.1 308.681 489.664 310.625 487.792C312.569 485.92 315.593 484.984 319.697 484.984C322.145 484.984 324.269 485.392 326.069 486.208C327.869 487.024 329.249 488.164 330.209 489.628C331.169 491.068 331.649 492.724 331.649 494.596C331.649 495.22 331.625 495.688 331.577 496H327.113ZM320.201 490.42C319.001 490.42 318.017 490.648 317.249 491.104C316.481 491.56 315.941 492.184 315.629 492.976H324.125C323.837 492.208 323.369 491.596 322.721 491.14C322.073 490.66 321.233 490.42 320.201 490.42ZM107.002 537.344C106.834 540.368 106.75 543.632 106.75 547.136C106.75 550.664 106.834 553.952 107.002 557C105.466 556.928 104.254 556.892 103.366 556.892C102.526 556.892 101.314 556.928 99.7299 557L98.6859 551.708C98.1339 553.628 97.2699 555.056 96.0939 555.992C94.9179 556.904 93.5499 557.36 91.9899 557.36C90.5499 557.36 89.3019 557.048 88.2459 556.424C87.1899 555.776 86.3859 554.912 85.8339 553.832C85.3059 552.752 85.0419 551.54 85.0419 550.196V545.012C85.0419 541.82 84.9819 539.264 84.8619 537.344H92.9619C92.8179 540.872 92.7459 544.364 92.7459 547.82C92.7459 548.876 92.9979 549.716 93.5019 550.34C94.0299 550.964 94.6899 551.276 95.4819 551.276C96.2259 551.276 96.8739 550.952 97.4259 550.304C98.0019 549.632 98.3499 548.72 98.4699 547.568V546.74C98.5179 544.868 98.5419 543.572 98.5419 542.852C98.5419 541.196 98.4939 539.36 98.3979 537.344H107.002ZM121.521 557.36C119.505 557.36 117.453 557.084 115.365 556.532C113.301 555.956 111.357 555.092 109.533 553.94L113.313 548.792C114.417 549.584 115.749 550.208 117.309 550.664C118.869 551.096 120.213 551.312 121.341 551.312C122.421 551.312 123.249 551.168 123.825 550.88C124.425 550.568 124.725 550.172 124.725 549.692C124.725 549.308 124.581 549.008 124.293 548.792C124.005 548.576 123.609 548.468 123.105 548.468C122.793 548.468 122.433 548.48 122.025 548.504C121.641 548.528 121.329 548.552 121.089 548.576C119.841 548.72 118.557 548.792 117.237 548.792C115.101 548.792 113.361 548.396 112.017 547.604C110.697 546.788 110.037 545.468 110.037 543.644C110.037 541.532 111.033 539.9 113.025 538.748C115.017 537.572 117.945 536.984 121.809 536.984C123.705 536.984 125.613 537.26 127.533 537.812C129.477 538.34 131.193 539.144 132.681 540.224L128.541 544.4C127.173 543.68 125.889 543.176 124.689 542.888C123.513 542.576 122.325 542.42 121.125 542.42C120.285 542.42 119.565 542.588 118.965 542.924C118.365 543.26 118.065 543.644 118.065 544.076C118.065 544.412 118.185 544.676 118.425 544.868C118.689 545.06 119.025 545.156 119.433 545.156C119.841 545.156 120.405 545.12 121.125 545.048C122.877 544.928 124.185 544.868 125.049 544.868C127.545 544.868 129.477 545.288 130.845 546.128C132.213 546.968 132.897 548.252 132.897 549.98C132.897 552.572 131.889 554.456 129.873 555.632C127.857 556.784 125.073 557.36 121.521 557.36ZM154.461 548H142.725C142.917 549.056 143.385 549.92 144.129 550.592C144.897 551.24 145.977 551.564 147.369 551.564C148.377 551.564 149.325 551.372 150.213 550.988C151.101 550.58 151.809 550.016 152.337 549.296C153.945 550.088 156.081 550.94 158.745 551.852C158.001 553.532 156.645 554.876 154.677 555.884C152.733 556.868 150.189 557.36 147.045 557.36C142.965 557.36 139.941 556.424 137.973 554.552C136.029 552.656 135.057 550.172 135.057 547.1C135.057 544.1 136.029 541.664 137.973 539.792C139.917 537.92 142.941 536.984 147.045 536.984C149.493 536.984 151.617 537.392 153.417 538.208C155.217 539.024 156.597 540.164 157.557 541.628C158.517 543.068 158.997 544.724 158.997 546.596C158.997 547.22 158.973 547.688 158.925 548H154.461ZM147.549 542.42C146.349 542.42 145.365 542.648 144.597 543.104C143.829 543.56 143.289 544.184 142.977 544.976H151.473C151.185 544.208 150.717 543.596 150.069 543.14C149.421 542.66 148.581 542.42 147.549 542.42ZM192.254 528.992C192.11 533.456 192.038 538.124 192.038 542.996C192.038 547.82 192.11 552.488 192.254 557H184.118L184.226 552.68C183.53 554.288 182.522 555.476 181.202 556.244C179.882 556.988 178.322 557.36 176.522 557.36C174.962 557.36 173.558 556.916 172.31 556.028C171.062 555.14 170.09 553.94 169.394 552.428C168.698 550.892 168.35 549.212 168.35 547.388C168.35 545.588 168.698 543.896 169.394 542.312C170.09 540.704 171.062 539.42 172.31 538.46C173.582 537.476 175.022 536.984 176.63 536.984C178.502 536.984 180.098 537.38 181.418 538.172C182.762 538.94 183.758 540.14 184.406 541.772C184.406 540.404 184.358 538.208 184.262 535.184C184.166 532.256 184.118 530.192 184.118 528.992H192.254ZM180.302 551.312C181.478 551.312 182.438 550.988 183.182 550.34C183.926 549.668 184.298 548.612 184.298 547.172C184.298 545.9 183.926 544.964 183.182 544.364C182.438 543.764 181.502 543.464 180.374 543.464C179.294 543.464 178.382 543.812 177.638 544.508C176.918 545.18 176.558 546.068 176.558 547.172C176.558 548.396 176.894 549.392 177.566 550.16C178.238 550.928 179.15 551.312 180.302 551.312ZM214.191 548H202.455C202.647 549.056 203.115 549.92 203.859 550.592C204.627 551.24 205.707 551.564 207.099 551.564C208.107 551.564 209.055 551.372 209.943 550.988C210.831 550.58 211.539 550.016 212.067 549.296C213.675 550.088 215.811 550.94 218.475 551.852C217.731 553.532 216.375 554.876 214.407 555.884C212.463 556.868 209.919 557.36 206.775 557.36C202.695 557.36 199.671 556.424 197.703 554.552C195.759 552.656 194.787 550.172 194.787 547.1C194.787 544.1 195.759 541.664 197.703 539.792C199.647 537.92 202.671 536.984 206.775 536.984C209.223 536.984 211.347 537.392 213.147 538.208C214.947 539.024 216.327 540.164 217.287 541.628C218.247 543.068 218.727 544.724 218.727 546.596C218.727 547.22 218.703 547.688 218.655 548H214.191ZM207.279 542.42C206.079 542.42 205.095 542.648 204.327 543.104C203.559 543.56 203.019 544.184 202.707 544.976H211.203C210.915 544.208 210.447 543.596 209.799 543.14C209.151 542.66 208.311 542.42 207.279 542.42ZM232.861 557.36C230.845 557.36 228.793 557.084 226.705 556.532C224.641 555.956 222.697 555.092 220.873 553.94L224.653 548.792C225.757 549.584 227.089 550.208 228.649 550.664C230.209 551.096 231.553 551.312 232.681 551.312C233.761 551.312 234.589 551.168 235.165 550.88C235.765 550.568 236.065 550.172 236.065 549.692C236.065 549.308 235.921 549.008 235.633 548.792C235.345 548.576 234.949 548.468 234.445 548.468C234.133 548.468 233.773 548.48 233.365 548.504C232.981 548.528 232.669 548.552 232.429 548.576C231.181 548.72 229.897 548.792 228.577 548.792C226.441 548.792 224.701 548.396 223.357 547.604C222.037 546.788 221.377 545.468 221.377 543.644C221.377 541.532 222.373 539.9 224.365 538.748C226.357 537.572 229.285 536.984 233.149 536.984C235.045 536.984 236.953 537.26 238.873 537.812C240.817 538.34 242.533 539.144 244.021 540.224L239.881 544.4C238.513 543.68 237.229 543.176 236.029 542.888C234.853 542.576 233.665 542.42 232.465 542.42C231.625 542.42 230.905 542.588 230.305 542.924C229.705 543.26 229.405 543.644 229.405 544.076C229.405 544.412 229.525 544.676 229.765 544.868C230.029 545.06 230.365 545.156 230.773 545.156C231.181 545.156 231.745 545.12 232.465 545.048C234.217 544.928 235.525 544.868 236.389 544.868C238.885 544.868 240.817 545.288 242.185 546.128C243.553 546.968 244.237 548.252 244.237 549.98C244.237 552.572 243.229 554.456 241.213 555.632C239.197 556.784 236.413 557.36 232.861 557.36ZM272.172 537.308L263.244 545.444C266.292 549.764 269.136 553.616 271.776 557H262.236L260.4 554.048C259.2 552.056 258.408 550.76 258.024 550.16L255.036 552.896V557H246.756C246.948 552.44 247.044 547.82 247.044 543.14C247.044 538.436 246.948 533.72 246.756 528.992H255.036V544.256C257.364 541.88 259.56 539.564 261.624 537.308H272.172ZM289.924 543.788C287.716 543.644 285.7 543.536 283.876 543.464L283.84 547.28C283.84 548.576 284.116 549.596 284.668 550.34C285.244 551.06 286.252 551.42 287.692 551.42C288.244 551.42 288.772 551.372 289.276 551.276C289.18 552.164 289.132 553.064 289.132 553.976C289.132 554.408 289.156 555.392 289.204 556.928C288.148 557.12 287.26 557.24 286.54 557.288C285.82 557.336 284.884 557.36 283.732 557.36C280.924 557.36 278.932 556.688 277.756 555.344C276.604 553.976 276.028 552.08 276.028 549.656L276.064 543.572C274.936 543.62 273.76 543.692 272.536 543.788V537.416C273.784 537.416 274.84 537.02 275.704 536.228C276.568 535.436 277.084 534.488 277.252 533.384H287.044C285.82 535.064 284.464 536.408 282.976 537.416H289.924V543.788ZM303.665 557.36C299.561 557.36 296.537 556.424 294.593 554.552C292.673 552.656 291.713 550.172 291.713 547.1C291.713 544.1 292.673 541.664 294.593 539.792C296.537 537.92 299.561 536.984 303.665 536.984C306.425 536.984 308.729 537.44 310.577 538.352C312.449 539.24 313.829 540.452 314.717 541.988C315.605 543.5 316.049 545.204 316.049 547.1C316.049 550.196 315.017 552.68 312.953 554.552C310.913 556.424 307.817 557.36 303.665 557.36ZM303.809 551.24C305.369 551.24 306.533 550.868 307.301 550.124C308.069 549.38 308.453 548.384 308.453 547.136C308.453 545.96 308.069 545 307.301 544.256C306.533 543.488 305.369 543.104 303.809 543.104C302.249 543.104 301.109 543.476 300.389 544.22C299.669 544.964 299.309 545.936 299.309 547.136C299.309 548.384 299.669 549.38 300.389 550.124C301.109 550.868 302.249 551.24 303.809 551.24ZM334.313 536.984C335.873 536.984 337.277 537.428 338.525 538.316C339.773 539.204 340.745 540.416 341.441 541.952C342.137 543.464 342.485 545.132 342.485 546.956C342.485 548.756 342.137 550.46 341.441 552.068C340.745 553.652 339.761 554.936 338.489 555.92C337.241 556.88 335.813 557.36 334.205 557.36C332.333 557.36 330.725 556.976 329.381 556.208C328.061 555.416 327.077 554.204 326.429 552.572C326.429 553.94 326.477 556.136 326.573 559.16C326.669 562.088 326.717 564.152 326.717 565.352H318.581C318.725 560.888 318.797 556.22 318.797 551.348C318.797 546.476 318.725 541.808 318.581 537.344H325.493L326.537 541.844C327.209 540.164 328.217 538.94 329.561 538.172C330.905 537.38 332.489 536.984 334.313 536.984ZM330.461 550.88C331.541 550.88 332.441 550.544 333.161 549.872C333.905 549.176 334.277 548.276 334.277 547.172C334.277 545.948 333.941 544.952 333.269 544.184C332.597 543.416 331.685 543.032 330.533 543.032C329.213 543.032 328.217 543.356 327.545 544.004C326.873 544.628 326.537 545.684 326.537 547.172C326.537 548.012 326.753 548.72 327.185 549.296C327.617 549.848 328.133 550.256 328.733 550.52C329.333 550.76 329.909 550.88 330.461 550.88Z" fill="#F3ECBD"/>
<path d="M6.60693 925.394V857.156H84.8011V901.61H108.731V897.286H125.45V925.394H6.60693Z" fill="#ED4B32"/>
<path d="M6.60716 854.763H0V925.395H6.60716V854.763Z" fill="#F1EABE"/>
<path d="M18.3564 860.471H12.1802V864.104H18.3564V860.471Z" fill="#F1EABE"/>
<path d="M32.0303 860.471H25.854V864.104H32.0303V860.471Z" fill="#F1EABE"/>
<path d="M45.6758 860.471H39.4995V864.104H45.6758V860.471Z" fill="#F1EABE"/>
<path d="M59.3496 860.471H53.1733V864.104H59.3496V860.471Z" fill="#F1EABE"/>
<path d="M73.0234 860.471H66.8472V864.104H73.0234V860.471Z" fill="#F1EABE"/>
<path d="M18.3564 869.062H12.1802V872.695H18.3564V869.062Z" fill="#F1EABE"/>
<path d="M32.0303 869.062H25.854V872.695H32.0303V869.062Z" fill="#F1EABE"/>
<path d="M45.6758 869.062H39.4995V872.695H45.6758V869.062Z" fill="#F1EABE"/>
<path d="M59.3496 869.062H53.1733V872.695H59.3496V869.062Z" fill="#F1EABE"/>
<path d="M73.0234 869.062H66.8472V872.695H73.0234V869.062Z" fill="#F1EABE"/>
<path d="M18.3564 877.653H12.1802V881.286H18.3564V877.653Z" fill="#F1EABE"/>
<path d="M32.0303 877.653H25.854V881.286H32.0303V877.653Z" fill="#F1EABE"/>
<path d="M45.6758 877.653H39.4995V881.286H45.6758V877.653Z" fill="#F1EABE"/>
<path d="M59.3496 877.653H53.1733V881.286H59.3496V877.653Z" fill="#F1EABE"/>
<path d="M73.0234 877.653H66.8472V881.286H73.0234V877.653Z" fill="#F1EABE"/>
<path d="M18.3564 886.244H12.1802V889.877H18.3564V886.244Z" fill="#F1EABE"/>
<path d="M32.0303 886.244H25.854V889.877H32.0303V886.244Z" fill="#F1EABE"/>
<path d="M45.6758 886.244H39.4995V889.877H45.6758V886.244Z" fill="#F1EABE"/>
<path d="M59.3496 886.244H53.1733V889.877H59.3496V886.244Z" fill="#F1EABE"/>
<path d="M73.0234 886.244H66.8472V889.877H73.0234V886.244Z" fill="#F1EABE"/>
<path d="M18.3564 894.836H12.1802V898.468H18.3564V894.836Z" fill="#F1EABE"/>
<path d="M32.0303 894.836H25.854V898.468H32.0303V894.836Z" fill="#F1EABE"/>
<path d="M45.6758 894.836H39.4995V898.468H45.6758V894.836Z" fill="#F1EABE"/>
<path d="M59.3496 894.836H53.1733V898.468H59.3496V894.836Z" fill="#F1EABE"/>
<path d="M73.0234 894.836H66.8472V898.468H73.0234V894.836Z" fill="#F1EABE"/>
<path d="M84.8011 854.763H6.60693V857.156H84.8011V854.763Z" fill="#F0B755"/>
<path d="M63.2276 845.249H55.7012V854.763H63.2276V845.249Z" fill="#F1EABE"/>
<path d="M73.0234 845.249H63.2275V854.763H73.0234V845.249Z" fill="#ED4B32"/>
<path d="M108.731 897.286H84.8013V901.639H108.731V897.286Z" fill="#F0B755"/>
<path d="M125.45 892.933H108.731V897.286H125.45V892.933Z" fill="#F0B755"/>
<path d="M149.752 840.579H174.199V837.639H182.874V915.91H149.752V840.579Z" fill="#ED4B32"/>
<path d="M125.45 925.394V838.878H132.718V833.747H140.388V825.761H141.853V815.123H146.506V808.521H150.758V795.461H152.941L154.866 788.398L156.647 779V810.683H158.744V837.638H174.199V840.579H149.753V925.394H125.45Z" fill="#F1EABE"/>
<path d="M144.064 841.358H141.651V844.356H144.064V841.358Z" fill="#ED4B32"/>
<path d="M136.222 841.358H133.809V844.356H136.222V841.358Z" fill="#ED4B32"/>
<path d="M144.064 848.536H141.651V851.534H144.064V848.536Z" fill="#ED4B32"/>
<path d="M136.222 848.536H133.809V851.534H136.222V848.536Z" fill="#ED4B32"/>
<path d="M144.064 855.686H141.651V858.684H144.064V855.686Z" fill="#ED4B32"/>
<path d="M136.222 855.686H133.809V858.684H136.222V855.686Z" fill="#ED4B32"/>
<path d="M144.064 862.835H141.651V865.833H144.064V862.835Z" fill="#ED4B32"/>
<path d="M136.222 862.835H133.809V865.833H136.222V862.835Z" fill="#ED4B32"/>
<path d="M144.064 870.014H141.651V873.012H144.064V870.014Z" fill="#ED4B32"/>
<path d="M136.222 870.014H133.809V873.012H136.222V870.014Z" fill="#ED4B32"/>
<path d="M144.064 877.163H141.651V880.162H144.064V877.163Z" fill="#ED4B32"/>
<path d="M136.222 877.163H133.809V880.162H136.222V877.163Z" fill="#ED4B32"/>
<path d="M144.064 884.342H141.651V887.34H144.064V884.342Z" fill="#ED4B32"/>
<path d="M136.222 884.342H133.809V887.34H136.222V884.342Z" fill="#ED4B32"/>
<path d="M154.779 825.098H150.901V832.709H154.779V825.098Z" fill="#ED4B32"/>
<path d="M154.779 815.988H150.901V820.283H154.779V815.988Z" fill="#ED4B32"/>
<path d="M156.647 786.525L161.042 795.635V810.655H167.764V825.992H174.199V837.639H158.744V810.683H156.647V786.525Z" fill="#ED4B32"/>
<path d="M211.601 809.53H215.077V807.137H212.549V794.193L208.728 807.339H206.459V814.287H200.685V825.991H197.266V837.638H193.245V850.006H188.074V879.47H218.208V816.449H211.716L211.601 809.53Z" fill="#F1EABE"/>
<path d="M215.565 819.966H213.009V826.251H215.565V819.966Z" fill="#ED4B32"/>
<path d="M210.739 819.966H208.183V826.251H210.739V819.966Z" fill="#ED4B32"/>
<path d="M205.913 819.966H203.356V826.251H205.913V819.966Z" fill="#ED4B32"/>
<path d="M215.565 829.624H213.009V835.909H215.565V829.624Z" fill="#ED4B32"/>
<path d="M210.739 829.624H208.183V835.909H210.739V829.624Z" fill="#ED4B32"/>
<path d="M205.913 829.624H203.356V835.909H205.913V829.624Z" fill="#ED4B32"/>
<path d="M215.565 839.311H213.009V845.595H215.565V839.311Z" fill="#ED4B32"/>
<path d="M210.739 839.311H208.183V845.595H210.739V839.311Z" fill="#ED4B32"/>
<path d="M205.913 839.311H203.356V845.595H205.913V839.311Z" fill="#ED4B32"/>
<path d="M215.565 848.968H213.009V855.253H215.565V848.968Z" fill="#ED4B32"/>
<path d="M210.739 848.968H208.183V855.253H210.739V848.968Z" fill="#ED4B32"/>
<path d="M205.913 848.968H203.356V855.253H205.913V848.968Z" fill="#ED4B32"/>
<path d="M201.059 839.311H198.502V845.595H201.059V839.311Z" fill="#ED4B32"/>
<path d="M201.059 848.968H198.502V855.253H201.059V848.968Z" fill="#ED4B32"/>
<path d="M215.565 858.626H213.009V864.911H215.565V858.626Z" fill="#ED4B32"/>
<path d="M210.739 858.626H208.183V864.911H210.739V858.626Z" fill="#ED4B32"/>
<path d="M205.913 858.626H203.356V864.911H205.913V858.626Z" fill="#ED4B32"/>
<path d="M215.565 868.313H213.009V874.597H215.565V868.313Z" fill="#ED4B32"/>
<path d="M210.739 868.313H208.183V874.597H210.739V868.313Z" fill="#ED4B32"/>
<path d="M205.913 868.313H203.356V874.597H205.913V868.313Z" fill="#ED4B32"/>
<path d="M201.059 858.626H198.502V864.911H201.059V858.626Z" fill="#ED4B32"/>
<path d="M196.232 858.626H193.676V864.911H196.232V858.626Z" fill="#ED4B32"/>
<path d="M201.059 868.313H198.502V874.597H201.059V868.313Z" fill="#ED4B32"/>
<path d="M196.232 868.313H193.676V874.597H196.232V868.313Z" fill="#ED4B32"/>
<path d="M212.549 794.193L217.375 806.82V814.604H222.948V827.116H226.568V836.831H235.042V872.695H226.97V879.47H218.208V816.449H211.716L211.601 809.53H215.077V807.137H212.549V794.193Z" fill="#ED4B32"/>
<path d="M170.35 879.47H164.777V926H170.35V879.47Z" fill="#F1EABE"/>
<path d="M297.724 926V868.37H291.375V872.695H279.282V878.662H235.502V885.812H170.35V926H297.724Z" fill="#ED4B32"/>
<path d="M179.542 890.194H174.199V892.904H179.542V890.194Z" fill="#F1EABE"/>
<path d="M191.723 890.194H186.379V892.904H191.723V890.194Z" fill="#F1EABE"/>
<path d="M203.903 890.194H198.56V892.904H203.903V890.194Z" fill="#F1EABE"/>
<path d="M216.083 890.194H210.74V892.904H216.083V890.194Z" fill="#F1EABE"/>
<path d="M179.542 900.025H174.199V902.735H179.542V900.025Z" fill="#F1EABE"/>
<path d="M191.723 900.025H186.379V902.735H191.723V900.025Z" fill="#F1EABE"/>
<path d="M203.903 900.025H198.56V902.735H203.903V900.025Z" fill="#F1EABE"/>
<path d="M216.083 900.025H210.74V902.735H216.083V900.025Z" fill="#F1EABE"/>
<path d="M179.542 909.827H174.199V912.537H179.542V909.827Z" fill="#F1EABE"/>
<path d="M191.723 909.827H186.379V912.537H191.723V909.827Z" fill="#F1EABE"/>
<path d="M243.115 883.938H237.771V886.533H243.115V883.938Z" fill="#F1EABE"/>
<path d="M255.295 883.938H249.952V886.533H255.295V883.938Z" fill="#F1EABE"/>
<path d="M267.446 883.938H262.103V886.533H267.446V883.938Z" fill="#F1EABE"/>
<path d="M279.626 883.938H274.283V886.533H279.626V883.938Z" fill="#F1EABE"/>
<path d="M291.807 883.938H286.463V886.533H291.807V883.938Z" fill="#F1EABE"/>
<path d="M291.807 893.336H286.463V895.931H291.807V893.336Z" fill="#F1EABE"/>
<path d="M243.115 893.336H237.771V895.931H243.115V893.336Z" fill="#F1EABE"/>
<path d="M255.295 893.336H249.952V895.931H255.295V893.336Z" fill="#F1EABE"/>
<path d="M267.446 893.336H262.103V895.931H267.446V893.336Z" fill="#F1EABE"/>
<path d="M267.446 902.735H262.103V905.329H267.446V902.735Z" fill="#F1EABE"/>
<path d="M279.626 893.336H274.283V895.931H279.626V893.336Z" fill="#F1EABE"/>
<path d="M243.115 902.735H237.771V905.329H243.115V902.735Z" fill="#F1EABE"/>
<path d="M255.295 902.735H249.952V905.329H255.295V902.735Z" fill="#F1EABE"/>
<path d="M243.115 912.104H237.771V914.699H243.115V912.104Z" fill="#F1EABE"/>
<path d="M255.295 912.104H249.952V914.699H255.295V912.104Z" fill="#F1EABE"/>
<path d="M279.281 872.695H226.97V879.47H170.35V885.812H235.502V878.662H279.281V872.695Z" fill="#F0B755"/>
<path d="M254.232 872.695V868.37H265.263V855.253H272.186V868.37H291.376V872.695H254.232Z" fill="#F1EABE"/>
<path d="M279.626 855.253H272.186V868.37H279.626V855.253Z" fill="#ED4B32"/>
<path d="M362.244 897.2H386.375V832.651H397.204L401.083 828.154H428V926H362.215V897.2H362.244Z" fill="#ED4B32"/>
<path d="M404.645 836.831H400.164V893.336H404.645V836.831Z" fill="#F1EABE"/>
<path d="M418.118 836.831H413.636V893.336H418.118V836.831Z" fill="#F1EABE"/>
<path d="M386.403 835.303H360.865V897.199H386.403V835.303Z" fill="#F1EABE"/>
<path d="M366.984 843.491H364.198V848.248H366.984V843.491Z" fill="#ED4B32"/>
<path d="M378.13 843.491H375.344V848.248H378.13V843.491Z" fill="#ED4B32"/>
<path d="M366.984 853.639H364.198V858.395H366.984V853.639Z" fill="#ED4B32"/>
<path d="M378.13 853.639H375.344V858.395H378.13V853.639Z" fill="#ED4B32"/>
<path d="M366.984 863.786H364.198V868.543H366.984V863.786Z" fill="#ED4B32"/>
<path d="M378.13 863.786H375.344V868.543H378.13V863.786Z" fill="#ED4B32"/>
<path d="M366.984 873.934H364.198V878.691H366.984V873.934Z" fill="#ED4B32"/>
<path d="M378.13 873.934H375.344V878.691H378.13V873.934Z" fill="#ED4B32"/>
<path d="M366.984 884.082H364.198V888.839H366.984V884.082Z" fill="#ED4B32"/>
<path d="M378.13 884.082H375.344V888.839H378.13V884.082Z" fill="#ED4B32"/>
<path d="M360.837 891.693H307.606V897.199H360.837V891.693Z" fill="#F0B755"/>
<path d="M362.244 897.199H307.606V926H362.244V897.199Z" fill="#ED4B32"/>
<path d="M342.509 900.688H337.022V904.118H342.509V900.688Z" fill="#F1EABE"/>
<path d="M353.655 900.688H348.168V904.118H353.655V900.688Z" fill="#F1EABE"/>
</svg>
